<svg width="32" height="24" viewBox="0 0 32 24" fill="none" xmlns="http://www.w3.org/2000/svg">
<path d="M28.0001 0.800781H4.0001C2.3001 0.800781 0.850098 2.20078 0.850098 3.95078V20.1508C0.850098 21.8508 2.2501 23.3008 4.0001 23.3008H28.0001C29.7001 23.3008 31.1501 21.9008 31.1501 20.1508V3.90078C31.1501 2.20078 29.7001 0.800781 28.0001 0.800781ZM28.0001 3.05078C28.0501 3.05078 28.1001 3.05078 28.1501 3.05078L16.0001 10.8508L3.8501 3.05078C3.9001 3.05078 3.9501 3.05078 4.0001 3.05078H28.0001ZM28.0001 20.9508H4.0001C3.5001 20.9508 3.1001 20.5508 3.1001 20.0508V5.25078L14.8001 12.7508C15.1501 13.0008 15.5501 13.1008 15.9501 13.1008C16.3501 13.1008 16.7501 13.0008 17.1001 12.7508L28.8001 5.25078V20.1008C28.9001 20.6008 28.5001 20.9508 28.0001 20.9508Z" fill="#183F27"/>
</svg>
