<svg width="30" height="31" viewBox="0 0 30 31" fill="none" xmlns="http://www.w3.org/2000/svg">
<path d="M28.4499 8.7L16.8999 0.6C15.7499 -0.2 14.2499 -0.2 13.0999 0.6L1.5499 8.7C0.649902 9.3 0.149902 10.35 0.149902 11.4V26.75C0.149902 28.55 1.6499 30.05 3.4499 30.05H26.5999C28.3999 30.05 29.8999 28.55 29.8999 26.75V11.4C29.8999 10.3 29.3499 9.3 28.4499 8.7ZM19.5499 27.75H10.4499V22C10.4499 21.65 10.5999 21.35 10.8999 21.15L14.3999 18.7C14.7499 18.45 15.2499 18.45 15.5999 18.7L19.0999 21.15C19.3999 21.35 19.5499 21.65 19.5499 22V27.75ZM27.6499 26.7C27.6499 27.3 27.1999 27.75 26.5999 27.75H21.7999V22C21.7999 20.95 21.2999 19.9 20.3999 19.3L16.8999 16.85C15.7499 16.05 14.2499 16.05 13.0999 16.85L9.5999 19.3C8.6999 19.9 8.1999 20.95 8.1999 22V27.75H3.3999C2.7999 27.75 2.3499 27.3 2.3499 26.7V11.4C2.3499 11.05 2.4999 10.75 2.7999 10.55L14.3999 2.4C14.5999 2.25 14.7999 2.2 14.9999 2.2C15.1999 2.2 15.3999 2.25 15.5999 2.4L27.1999 10.5C27.4999 10.7 27.6499 11 27.6499 11.35V26.7Z" fill="#183F27"/>
</svg>
