<svg width="32" height="32" viewBox="0 0 32 32" fill="none" xmlns="http://www.w3.org/2000/svg">
<g clip-path="url(#clip0_4072_109885)">
<path d="M24.3 31.1485C22.95 31.1485 21.4 30.7985 19.7 30.1485C16.3 28.7985 12.55 26.1985 9.20003 22.8485C5.85003 19.4985 3.25003 15.7485 1.90003 12.2985C0.400031 8.59848 0.550031 5.54848 2.30003 3.84848C2.35003 3.79848 2.45003 3.74848 2.50003 3.69848L6.70003 1.19848C7.75003 0.598477 9.10003 0.898477 9.80003 1.89848L12.75 6.29848C13.45 7.34848 13.15 8.74848 12.15 9.44848L10.35 10.6985C11.65 12.7985 15.35 17.9485 21.25 21.6485L22.35 20.0485C23.2 18.8485 24.55 18.4985 25.65 19.2485L30.05 22.1985C31.05 22.8985 31.35 24.2485 30.75 25.2985L28.25 29.4985C28.2 29.5985 28.15 29.6485 28.1 29.6985C27.2 30.6485 25.9 31.1485 24.3 31.1485ZM3.80003 5.54848C2.85003 6.59848 2.90003 8.74848 4.00003 11.4985C5.25003 14.6485 7.65003 18.0985 10.8 21.2485C13.9 24.3485 17.4 26.7485 20.5 27.9985C23.2 29.0985 25.35 29.1485 26.45 28.1985L28.85 24.0985C28.85 24.0485 28.85 24.0485 28.85 23.9985L24.45 21.0485C24.45 21.0485 24.35 21.0985 24.25 21.2485L23.15 22.8485C22.45 23.8485 21.1 24.1485 20.1 23.4985C13.8 19.5985 9.90003 14.1485 8.50003 11.9485C7.85003 10.8985 8.10003 9.54848 9.10003 8.84848L10.9 7.59848V7.54848L7.95003 3.14848C7.95003 3.09848 7.90003 3.09848 7.85003 3.14848L3.80003 5.54848Z" fill="#183F27"/>
<path d="M29.3 14.2495C28.7 14.2495 28.25 13.7995 28.2 13.1995C27.8 8.14955 23.65 4.09955 18.55 3.74955C17.95 3.69955 17.45 3.19955 17.5 2.54955C17.55 1.94955 18.05 1.44955 18.7 1.49955C24.9 1.89955 29.95 6.79955 30.45 12.9995C30.5 13.5995 30.05 14.1495 29.4 14.1995C29.4 14.2495 29.35 14.2495 29.3 14.2495Z" fill="#183F27"/>
<path d="M24.3498 14.7007C23.7998 14.7007 23.2998 14.3007 23.2498 13.7007C22.9498 11.0007 20.8498 8.90067 18.1498 8.55067C17.5498 8.50067 17.0998 7.90067 17.1498 7.30067C17.1998 6.70067 17.7998 6.25067 18.3998 6.30067C22.1498 6.75067 25.0498 9.65067 25.4998 13.4007C25.5498 14.0007 25.1498 14.5507 24.4998 14.6507C24.3998 14.7007 24.3498 14.7007 24.3498 14.7007Z" fill="#183F27"/>
</g>
<defs>
<clipPath id="clip0_4072_109885">
<rect width="32" height="32" fill="white"/>
</clipPath>
</defs>
</svg>
