<svg width="51" height="51" viewBox="0 0 51 51" fill="none" xmlns="http://www.w3.org/2000/svg">
<path d="M10.0311 18.2025C9.48422 18.8275 8.62484 19.4525 7.68731 19.2963C7.60919 18.4369 7.99981 17.4213 8.54672 16.7963C9.09359 16.1713 10.1092 15.5463 10.8905 15.5463C10.9686 16.7181 10.578 17.5775 10.0311 18.2025ZM10.8905 19.6869C9.56234 19.6088 8.46859 20.4681 7.92169 20.4681C7.29669 20.4681 6.28106 19.6869 5.26544 19.6869C3.93731 19.6869 2.76544 20.4681 1.98419 21.64C0.499807 24.0619 1.59356 27.7338 2.92169 29.6869C3.62481 30.7025 4.40606 31.7963 5.49981 31.7963C6.51544 31.7963 6.82794 31.1713 7.99981 31.1713C9.17172 31.1713 9.56234 31.7963 10.6561 31.7181C11.7498 31.7181 12.453 30.7025 13.078 29.765C13.8592 28.6713 14.1717 27.5775 14.1717 27.4213C14.1717 27.4213 12.0623 26.5619 12.0623 24.14C12.0623 22.0306 13.703 21.1713 13.8592 21.1713C12.8436 19.765 11.4373 19.6869 10.8905 19.6869ZM18.4686 16.7963V31.5619H20.8123V26.4838H24.0155C26.9061 26.4838 29.0155 24.5306 29.0155 21.64C29.0155 18.7494 27.0623 16.7963 24.1717 16.7963H18.4686ZM20.8123 18.7494H23.4686C25.4217 18.7494 26.5936 19.8431 26.5936 21.7181C26.5936 23.5931 25.4998 24.6869 23.4686 24.6869H20.8123V18.7494ZM33.078 31.7963C34.4842 31.7963 35.8123 31.015 36.5155 29.9213H36.5936V31.7181H38.703V24.2963C38.703 22.1869 37.0623 20.7806 34.4061 20.7806C31.9842 20.7806 30.1873 22.1088 30.1092 24.0619H32.0623C32.1405 23.2025 33.078 22.4994 34.2498 22.4994C35.578 22.4994 36.4373 23.1244 36.4373 24.2963V25.1556L33.5467 25.2338C30.8905 25.3119 29.4842 26.4838 29.4842 28.3588C29.4061 30.4681 30.9686 31.7963 33.078 31.7963ZM33.703 29.9994C32.453 29.9994 31.7498 29.4525 31.7498 28.4369C31.7498 27.5775 32.5311 27.0306 33.9373 26.8744L36.4373 26.7963V27.6556C36.5155 29.0619 35.2655 29.9994 33.703 29.9994ZM41.4373 35.6244C43.6248 35.6244 44.7186 34.765 45.6561 32.1869L49.7186 21.015H47.3748L44.6405 29.765H44.5623L41.828 21.015H39.4061L43.2342 31.7963L42.9998 32.3431C42.6873 33.4369 42.1405 33.9056 41.1248 33.9056C41.0467 33.9056 40.578 33.9056 40.4998 33.9056V35.7025C40.8123 35.6244 41.3592 35.6244 41.4373 35.6244Z" fill="white"/>
</svg>
