<svg width="51" height="51" viewBox="0 0 51 51" fill="none" xmlns="http://www.w3.org/2000/svg">
<path fill-rule="evenodd" clip-rule="evenodd" d="M12.3483 20.6163C11.5228 19.8289 10.4205 19.3979 9.27984 19.4165C7.19341 19.4165 5.42255 20.8229 4.7893 22.7182C4.45452 23.7114 4.45452 24.7869 4.7893 25.78C5.42255 27.6754 7.19341 29.0818 9.27984 29.0818C10.3608 29.0818 11.2852 28.8041 12.0028 28.3175V28.3164C12.4194 28.04 12.7757 27.6822 13.0502 27.2644C13.3248 26.8467 13.512 26.3776 13.6004 25.8856H9.27984V22.8049H16.8233C16.9156 23.3422 16.9617 23.8863 16.961 24.4314C16.961 26.8655 16.0912 28.9241 14.5813 30.3161H14.5799L14.5813 30.3172C13.2559 31.5393 11.4384 32.2481 9.27984 32.2481C7.79713 32.248 6.34365 31.8358 5.08163 31.0576C3.81962 30.2794 2.79875 29.1657 2.13299 27.8409C1.57293 26.7265 1.28125 25.4965 1.28125 24.2492C1.28125 23.0019 1.57293 21.7719 2.13299 20.6575C2.79875 19.3326 3.81962 18.219 5.08163 17.4407C6.34365 16.6625 7.79713 16.2504 9.27984 16.2503C11.2658 16.2271 13.1837 16.9736 14.6313 18.3333L12.3483 20.6163ZM24.1889 25.6468V31.2849H22.4003V17.3612H27.1441C27.7103 17.3494 28.2733 17.4498 28.8005 17.6567C29.3277 17.8636 29.8088 18.1729 30.2159 18.5666C30.6271 18.9365 30.9543 19.39 31.1756 19.8969C31.397 20.4037 31.5073 20.9521 31.4991 21.5051C31.5109 22.0611 31.4023 22.613 31.1808 23.1231C30.9593 23.6331 30.6302 24.0893 30.2159 24.4603C29.3864 25.2512 28.3624 25.6464 27.1441 25.6457H24.1889V25.6468ZM24.1889 19.0754V23.9359H27.1885C27.5173 23.9456 27.8446 23.8866 28.1494 23.7627C28.4541 23.6387 28.7296 23.4525 28.9583 23.216C29.1858 22.9948 29.3666 22.7303 29.49 22.4381C29.6135 22.1458 29.6771 21.8318 29.6771 21.5146C29.6771 21.1973 29.6135 20.8833 29.49 20.591C29.3666 20.2988 29.1858 20.0343 28.9583 19.8131C28.7325 19.5716 28.4579 19.3808 28.1528 19.2535C27.8477 19.1261 27.519 19.065 27.1885 19.0743H24.1889V19.0754ZM35.6207 21.4473C36.9427 21.4473 37.9863 21.8006 38.7514 22.5072C39.5165 23.2137 39.8987 24.1825 39.8979 25.4135V31.2849H38.187V29.9629H38.1093C37.3686 31.0516 36.3836 31.596 35.1541 31.596C34.1046 31.596 33.2266 31.2849 32.52 30.6628C32.1809 30.3772 31.9098 30.0196 31.7265 29.616C31.5431 29.2124 31.4521 28.7729 31.4602 28.3297C31.4602 27.344 31.8327 26.56 32.5778 25.9779C33.3229 25.3957 34.3176 25.1039 35.5618 25.1024C36.6239 25.1024 37.4986 25.2968 38.1859 25.6857V25.2768C38.188 24.9747 38.1227 24.6758 37.9949 24.402C37.8671 24.1282 37.68 23.8862 37.4471 23.6937C36.9741 23.2669 36.3577 23.0341 35.7207 23.0415C34.7216 23.0415 33.9309 23.463 33.3488 24.3058L31.7734 23.3137C32.64 22.0695 33.9224 21.4473 35.6207 21.4473ZM33.3066 28.3686C33.3054 28.5962 33.3586 28.8209 33.4618 29.0238C33.565 29.2267 33.7152 29.402 33.8998 29.5351C34.2954 29.8463 34.7864 30.0111 35.2896 30.0017C36.0445 30.0004 36.7679 29.7 37.3016 29.1663C37.8941 28.6086 38.1904 27.9542 38.1904 27.2033C37.6327 26.7588 36.855 26.5366 35.8573 26.5366C35.1308 26.5366 34.5249 26.7118 34.0398 27.0622C33.5498 27.4176 33.3066 27.8498 33.3066 28.3686ZM43.7463 35.4843L49.7188 21.7584H47.7712L45.0105 28.6019H44.9716L42.1331 21.7584H40.189L44.1162 30.6816L41.8998 35.4843H43.7463Z" fill="white"/>
</svg>
