<svg width="51" height="51" viewBox="0 0 51 51" fill="none" xmlns="http://www.w3.org/2000/svg">
<path d="M43.0788 10.9374H7.92249C4.56311 10.9374 1.90686 13.6718 1.90686 16.953V34.2968C1.90686 37.6561 4.64124 40.3124 7.92249 40.3124H43.0788C46.4381 40.3124 49.0944 37.578 49.0944 34.2968V16.953C49.1725 13.5936 46.4381 10.9374 43.0788 10.9374ZM45.6569 34.2968C45.6569 35.703 44.485 36.7968 43.1569 36.7968H8.00061C6.59436 36.7968 5.50061 35.6249 5.50061 34.2968V16.953C5.50061 15.5468 6.67248 14.453 8.00061 14.453H43.1569C44.5631 14.453 45.6569 15.6249 45.6569 16.953V34.2968Z" fill="white"/>
<path d="M29.3287 18.1251C27.7662 18.1251 26.2819 18.5939 25.11 19.4532C24.0162 18.672 22.6881 18.3595 21.2819 18.3595C17.2975 18.3595 14.0162 21.6407 14.0162 25.6251C14.0162 29.6095 17.2975 32.8907 21.2819 32.8907C22.61 32.8907 23.9381 32.5001 25.11 31.797C26.36 32.6564 27.7662 33.1251 29.3287 33.1251C33.4694 33.1251 36.8287 29.7657 36.8287 25.6251C36.8287 21.4845 33.4694 18.1251 29.3287 18.1251ZM29.485 31.2501C28.4694 31.2501 27.5319 30.9376 26.7506 30.547C27.9225 29.2189 28.7037 27.5782 28.7037 25.6251C28.6256 23.672 27.9225 21.9532 26.7506 20.7032C27.61 20.2345 28.4694 20.0001 29.485 20.0001C32.5319 20.0001 35.11 22.5001 35.11 25.6251C35.0319 28.7501 32.5319 31.2501 29.485 31.2501Z" fill="white"/>
</svg>
