<svg width="76" height="51" viewBox="0 0 76 51" fill="none" xmlns="http://www.w3.org/2000/svg">
<g clip-path="url(#clip0_2217_11784)">
<path d="M10.9336 37.3579C10.5401 37.3579 10.1554 37.2416 9.82816 37.0236C9.50091 36.8056 9.24578 36.4957 9.09501 36.1332L2.23073 19.6036C2.02906 19.1179 2.02905 18.5722 2.23071 18.0865C2.43237 17.6008 2.81917 17.2149 3.30605 17.0137L10.4957 14.0434C10.7368 13.9438 10.9951 13.8925 11.2561 13.8925C11.517 13.8924 11.7754 13.9437 12.0165 14.0433C12.2576 14.1429 12.4766 14.2889 12.6611 14.473C12.8456 14.6571 12.9919 14.8756 13.0918 15.1161L19.956 31.6463C20.1574 32.1319 20.1572 32.6773 19.9556 33.1628C19.754 33.6482 19.3673 34.034 18.8807 34.2352L11.6911 37.2068C11.451 37.3064 11.1936 37.3577 10.9336 37.3579ZM11.2562 14.9589C11.1358 14.9589 11.0165 14.9827 10.9053 15.0293L3.71531 17.9996C3.60403 18.0456 3.50292 18.113 3.41775 18.1979C3.33258 18.2829 3.26503 18.3838 3.21895 18.4948C3.17287 18.6058 3.14916 18.7248 3.14919 18.8449C3.14921 18.9651 3.17296 19.0841 3.21909 19.195L10.0834 35.7256C10.1767 35.9496 10.3553 36.1276 10.5799 36.2204C10.8046 36.3133 11.057 36.3135 11.2818 36.2209L18.4715 33.2486C18.5827 33.2027 18.6839 33.1353 18.769 33.0503C18.8542 32.9653 18.9217 32.8644 18.9678 32.7534C19.0139 32.6424 19.0376 32.5234 19.0376 32.4033C19.0376 32.2831 19.0138 32.1642 18.9677 32.0532L12.1034 15.5243C12.0339 15.3572 11.9164 15.2143 11.7656 15.1137C11.6149 15.0131 11.4376 14.9592 11.2562 14.9589Z" fill="#5A78FF"/>
<path opacity="0.7" d="M12.5566 16.6145L13.5451 16.2061L16.2629 22.7511L15.2745 23.1595L12.5566 16.6145Z" fill="url(#paint0_linear_2217_11784)"/>
<path opacity="0.7" d="M19.4994 30.547L18.511 30.9554L15.4345 23.5467L16.4229 23.1383L19.4994 30.547Z" fill="url(#paint1_linear_2217_11784)"/>
<path d="M17.2628 26.0445C15.2066 26.895 13.4897 28.0674 12.3656 29.4805L9.46741 22.4983C10.7894 20.9662 12.4721 19.7856 14.3645 19.0623C16.4207 18.2118 18.498 17.8002 20.263 18.04L23.1619 25.0219C21.1409 24.8701 19.1138 25.2215 17.2628 26.0445Z" fill="#5A78FF"/>
<g opacity="0.4">
<path opacity="0.9" d="M17.2628 26.0445C15.2066 26.895 13.4897 28.0674 12.3656 29.4805L9.46741 22.4983C10.7894 20.9662 12.4721 19.7856 14.3645 19.0623C16.4207 18.2118 18.498 17.8002 20.263 18.04L23.1619 25.0219C21.1409 24.8701 19.1138 25.2215 17.2628 26.0445Z" fill="url(#paint2_linear_2217_11784)"/>
<path opacity="0.7" d="M17.2628 26.0445C15.2066 26.895 13.4897 28.0674 12.3656 29.4805L9.46741 22.4983C10.7894 20.9662 12.4721 19.7856 14.3645 19.0623C16.4207 18.2118 18.498 17.8002 20.263 18.04L23.1619 25.0219C21.1409 24.8701 19.1138 25.2215 17.2628 26.0445Z" fill="url(#paint3_linear_2217_11784)"/>
</g>
<path d="M18.2072 28.1732C15.9815 28.1732 13.944 28.6022 12.365 29.4779V22.4181C14.1741 21.5074 16.1815 21.0591 18.2072 21.1134C20.4328 21.1134 22.5102 21.525 24.049 22.4198V29.4796C22.2402 28.5682 20.2328 28.1193 18.2072 28.1732ZM29.577 28.1797L31.3778 22.5018C31.387 22.4634 31.4081 22.429 31.4381 22.4033C31.4681 22.3776 31.5055 22.3621 31.5449 22.3589H32.4487C32.4884 22.3644 32.5259 22.3807 32.5572 22.4058C32.5884 22.431 32.6122 22.4642 32.626 22.5018L34.0277 26.084C34.055 26.1555 34.1266 26.1623 34.1505 26.084L35.542 22.5018C35.5558 22.4642 35.5796 22.431 35.6108 22.4058C35.6421 22.3807 35.6796 22.3644 35.7193 22.3589H36.6231C36.6625 22.3621 36.6999 22.3776 36.7299 22.4033C36.7599 22.429 36.781 22.4634 36.7902 22.5018L38.5705 28.1797C38.5807 28.2011 38.585 28.2249 38.5832 28.2486C38.5813 28.2723 38.5732 28.2951 38.5597 28.3147C38.5463 28.3343 38.5279 28.3501 38.5065 28.3604C38.485 28.3707 38.4612 28.3753 38.4375 28.3736H37.3632C37.3263 28.3753 37.29 28.3639 37.2607 28.3415C37.2313 28.3191 37.2109 28.2871 37.2029 28.2511L36.0604 24.5634C36.0433 24.4919 35.9615 24.4919 35.9376 24.5634L34.5734 28.2239C34.5621 28.2667 34.5369 28.3047 34.5017 28.3317C34.4666 28.3588 34.4234 28.3735 34.379 28.3736H33.7481C33.6492 28.3736 33.598 28.3191 33.5605 28.2239L32.169 24.5634C32.1417 24.4919 32.0701 24.4919 32.053 24.5634L30.8832 28.2511C30.8745 28.288 30.8528 28.3205 30.8222 28.3429C30.7916 28.3654 30.754 28.3762 30.7161 28.3736H29.693C29.6703 28.3732 29.6481 28.3671 29.6285 28.3558C29.6088 28.3445 29.5924 28.3283 29.5808 28.3089C29.5692 28.2895 29.5627 28.2674 29.5621 28.2448C29.5614 28.2221 29.5666 28.1997 29.577 28.1797ZM38.9115 26.1385C38.9021 25.6656 39.034 25.2006 39.2905 24.8027C39.547 24.4049 39.9164 24.0923 40.3517 23.9047C40.787 23.7171 41.2685 23.6631 41.7347 23.7496C42.2009 23.836 42.6307 24.059 42.9694 24.39C43.308 24.7211 43.5402 25.1453 43.6362 25.6085C43.7323 26.0717 43.6879 26.5529 43.5087 26.9908C43.3295 27.4287 43.0236 27.8035 42.63 28.0674C42.2365 28.3312 41.7731 28.4721 41.2989 28.4722C40.9865 28.4829 40.6753 28.4301 40.384 28.3172C40.0927 28.2043 39.8274 28.0336 39.6041 27.8154C39.3809 27.5972 39.2045 27.336 39.0854 27.0478C38.9663 26.7595 38.9072 26.4502 38.9115 26.1385ZM42.4584 26.1385C42.4431 25.9104 42.3611 25.6918 42.2227 25.5096C42.0842 25.3275 41.8953 25.1898 41.6793 25.1135C41.4632 25.0373 41.2295 25.0258 41.007 25.0805C40.7845 25.1352 40.583 25.2538 40.4272 25.4214C40.2715 25.5891 40.1684 25.7986 40.1307 26.0241C40.0929 26.2496 40.1222 26.4812 40.2149 26.6902C40.3076 26.8993 40.4597 27.0766 40.6523 27.2005C40.845 27.3243 41.0697 27.3891 41.2989 27.387C41.6177 27.3737 41.9181 27.2348 42.1343 27.0007C42.3504 26.7666 42.4646 26.4565 42.4516 26.1385H42.4584ZM45.7871 28.0062C45.6984 27.9347 45.62 27.9619 45.62 28.0844V28.2001C45.62 28.2431 45.6033 28.2845 45.5735 28.3156C45.5436 28.3467 45.5028 28.365 45.4597 28.3668H44.6275C44.5837 28.3651 44.5422 28.347 44.5112 28.3161C44.4802 28.2852 44.4621 28.2438 44.4604 28.2001V22.5222C44.4621 22.4785 44.4802 22.4371 44.5112 22.4062C44.5422 22.3753 44.5837 22.3572 44.6275 22.3555H45.504C45.5471 22.3572 45.5879 22.3756 45.6178 22.4066C45.6477 22.4377 45.6643 22.4791 45.6643 22.5222V24.1415C45.6643 24.2572 45.7427 24.2912 45.8689 24.2027C46.2046 23.9519 46.6125 23.8159 47.0319 23.8149C48.246 23.8149 49.1771 24.8355 49.1771 26.1487C49.1908 26.4457 49.1449 26.7425 49.042 27.0215C48.9391 27.3006 48.7814 27.5563 48.5781 27.7737C48.3747 27.9911 48.1299 28.1658 47.8579 28.2875C47.586 28.4092 47.2924 28.4755 46.9944 28.4824C46.5468 28.4777 46.1168 28.308 45.7871 28.0062ZM47.9698 26.1487C47.9821 25.988 47.961 25.8264 47.9078 25.6742C47.8546 25.522 47.7704 25.3824 47.6606 25.2642C47.5508 25.1459 47.4176 25.0516 47.2695 24.9871C47.1214 24.9225 46.9616 24.8892 46.8 24.8892C46.6384 24.8892 46.4785 24.9225 46.3304 24.9871C46.1823 25.0516 46.0492 25.1459 45.9394 25.2642C45.8296 25.3824 45.7454 25.522 45.6922 25.6742C45.639 25.8264 45.6179 25.988 45.6302 26.1487C45.6243 26.3058 45.6498 26.4626 45.7053 26.6098C45.7608 26.757 45.8451 26.8918 45.9534 27.0061C46.0617 27.1204 46.1917 27.2121 46.3359 27.2757C46.4801 27.3394 46.6355 27.3737 46.7932 27.3768C46.9522 27.3733 47.1089 27.3384 47.2543 27.2741C47.3997 27.2098 47.5309 27.1174 47.6403 27.0023C47.7497 26.8872 47.8351 26.7515 47.8917 26.6033C47.9482 26.455 47.9748 26.297 47.9698 26.1385V26.1487ZM49.9104 22.7705C49.9104 22.5901 49.9822 22.417 50.1101 22.2894C50.2381 22.1618 50.4115 22.0901 50.5925 22.0901C50.7734 22.0901 50.9468 22.1618 51.0748 22.2894C51.2027 22.417 51.2745 22.5901 51.2745 22.7705C51.2745 22.951 51.2027 23.124 51.0748 23.2516C50.9468 23.3792 50.7734 23.4509 50.5925 23.4509C50.4115 23.4509 50.2381 23.3792 50.1101 23.2516C49.9822 23.124 49.9104 22.951 49.9104 22.7705ZM49.9717 28.2137V24.0973C49.9717 24.0542 49.9884 24.0128 50.0183 23.9818C50.0481 23.9507 50.0889 23.9323 50.132 23.9306H51.0085C51.0314 23.9297 51.0542 23.9333 51.0756 23.9412C51.0971 23.949 51.1168 23.9611 51.1336 23.9766C51.1503 23.992 51.1639 24.0107 51.1735 24.0314C51.183 24.0521 51.1884 24.0745 51.1893 24.0973V28.2001C51.1876 28.2438 51.1695 28.2852 51.1385 28.3161C51.1075 28.347 51.066 28.3651 51.0222 28.3668H50.132C50.0889 28.365 50.0481 28.3467 50.0183 28.3156C49.9884 28.2845 49.9717 28.2431 49.9717 28.2001V28.2137ZM52.1647 26.8665V22.5222C52.1646 22.4791 52.1813 22.4377 52.2112 22.4066C52.2411 22.3756 52.2818 22.3572 52.325 22.3555H53.2015C53.2453 22.3572 53.2868 22.3753 53.3178 22.4062C53.3488 22.4371 53.3669 22.4785 53.3686 22.5222V26.8937C53.3686 27.1761 53.4914 27.3632 53.8017 27.3632C53.846 27.3632 53.8885 27.3808 53.9199 27.412C53.9512 27.4433 53.9688 27.4857 53.9688 27.5299V28.2545C53.9671 28.2975 53.9487 28.3382 53.9175 28.368C53.8864 28.3978 53.8449 28.4144 53.8017 28.4144C52.6353 28.4144 52.1647 28.0334 52.1647 26.8665ZM54.2962 26.1657C54.2974 25.8637 54.3581 25.5649 54.475 25.2863C54.5919 25.0077 54.7627 24.7548 54.9775 24.542C55.1924 24.3293 55.4472 24.1608 55.7273 24.0463C56.0075 23.9317 56.3075 23.8733 56.6103 23.8745C56.913 23.8756 57.2126 23.9362 57.4919 24.0528C57.7712 24.1694 58.0247 24.3397 58.238 24.554C58.4513 24.7684 58.6202 25.0225 58.735 25.302C58.8498 25.5814 58.9083 25.8807 58.9072 26.1827C58.9072 26.3426 58.8629 26.4753 58.7026 26.4753H55.6536C55.5752 26.4753 55.5479 26.5195 55.5547 26.5909C55.5912 26.8477 55.7243 27.081 55.9271 27.2434C56.1298 27.4058 56.3868 27.4851 56.6461 27.4653C56.806 27.4676 56.9644 27.4347 57.11 27.3688C57.2557 27.3029 57.3849 27.2058 57.4885 27.0842C57.5205 27.0393 57.563 27.0028 57.6123 26.978C57.6616 26.9531 57.7163 26.9405 57.7715 26.9413H58.5866C58.7299 26.9413 58.7913 27.04 58.7367 27.1795C58.5045 27.6517 58.1189 28.0317 57.6427 28.2577C57.1665 28.4836 56.6277 28.5422 56.1139 28.4239C55.6001 28.3057 55.1415 28.0175 54.8128 27.6062C54.484 27.195 54.3043 26.6849 54.3031 26.1589L54.2962 26.1657ZM57.5328 25.7575C57.5942 25.7575 57.6215 25.7302 57.6112 25.6588C57.5662 25.4223 57.4389 25.2093 57.2516 25.0574C57.0644 24.9055 56.8294 24.8245 56.5881 24.8287C56.3514 24.8285 56.1216 24.908 55.9359 25.0543C55.7502 25.2007 55.6195 25.4053 55.5649 25.635C55.5479 25.6962 55.5649 25.7575 55.6366 25.7575H57.5328ZM59.6439 28.2001V22.5222C59.6438 22.4791 59.6605 22.4377 59.6904 22.4066C59.7203 22.3756 59.761 22.3572 59.8042 22.3555H62.5974C63.8729 22.3555 64.7426 23.0971 64.7426 24.3456C64.7426 25.5942 63.7569 26.363 62.536 26.363H61.0558C61.0336 26.3607 61.0112 26.3635 60.9902 26.3712C60.9692 26.3788 60.9503 26.3912 60.9348 26.4072C60.9193 26.4233 60.9078 26.4427 60.901 26.4639C60.8941 26.4852 60.8923 26.5077 60.8955 26.5297V28.2001C60.8938 28.2438 60.8757 28.2852 60.8447 28.3161C60.8137 28.347 60.7722 28.3651 60.7284 28.3668H59.8076C59.7639 28.3659 59.7222 28.3479 59.6916 28.3168C59.661 28.2856 59.6439 28.2437 59.6439 28.2001ZM62.536 25.3356C62.7899 25.3276 63.0303 25.2197 63.2047 25.0355C63.3792 24.8513 63.4735 24.6057 63.467 24.3524C63.4708 24.2289 63.4492 24.1058 63.4036 23.9908C63.358 23.8759 63.2894 23.7714 63.2019 23.6838C63.1144 23.5962 63.0099 23.5273 62.8948 23.4815C62.7797 23.4356 62.6565 23.4136 62.5326 23.4169H61.0422C60.9365 23.4169 60.8921 23.4713 60.8921 23.5768V25.1859C60.8921 25.2914 60.9365 25.3458 61.0422 25.3458L62.536 25.3356ZM65.1723 26.1385C65.1609 25.8406 65.209 25.5435 65.3138 25.2643C65.4185 24.9852 65.5779 24.7296 65.7826 24.5124C65.9873 24.2953 66.2332 24.1209 66.5061 23.9994C66.7789 23.8779 67.0733 23.8117 67.372 23.8047C67.8075 23.8071 68.2271 23.968 68.5521 24.2572C68.6305 24.3286 68.7192 24.3184 68.7192 24.213V24.0973C68.7192 24.0088 68.7908 23.9374 68.8795 23.9374H69.7116C69.7554 23.9391 69.797 23.9572 69.8279 23.9881C69.8589 24.019 69.8771 24.0604 69.8788 24.1041V27.023C69.8788 27.2441 69.9572 27.3428 70.1107 27.3632C70.1491 27.364 70.1858 27.3791 70.2136 27.4055C70.2413 27.432 70.2582 27.4678 70.2607 27.5061V28.2749C70.2607 28.3146 70.2449 28.3527 70.2168 28.3808C70.1886 28.4088 70.1505 28.4246 70.1107 28.4246C69.5241 28.4246 69.1796 28.2579 68.9852 27.9211C68.9306 27.8327 68.8693 27.8157 68.7806 27.9041C68.5952 28.0945 68.3729 28.2451 68.1272 28.3469C67.8815 28.4487 67.6176 28.4994 67.3516 28.496C67.0522 28.4874 66.7576 28.4191 66.485 28.2953C66.2125 28.1714 65.9675 27.9945 65.7645 27.7748C65.5614 27.5552 65.4044 27.2973 65.3028 27.0163C65.2011 26.7353 65.1567 26.4368 65.1723 26.1385ZM68.7192 26.1385C68.7315 25.9782 68.7104 25.8171 68.6574 25.6653C68.6044 25.5136 68.5205 25.3744 68.411 25.2564C68.3014 25.1385 68.1687 25.0444 68.021 24.9801C67.8733 24.9158 67.7139 24.8826 67.5528 24.8826C67.3917 24.8826 67.2323 24.9158 67.0846 24.9801C66.9369 25.0444 66.8042 25.1385 66.6947 25.2564C66.5851 25.3744 66.5012 25.5136 66.4482 25.6653C66.3951 25.8171 66.3741 25.9782 66.3864 26.1385C66.3741 26.2987 66.3951 26.4598 66.4482 26.6116C66.5012 26.7634 66.5851 26.9026 66.6947 27.0205C66.8042 27.1384 66.9369 27.2325 67.0846 27.2968C67.2323 27.3612 67.3917 27.3944 67.5528 27.3944C67.7139 27.3944 67.8733 27.3612 68.021 27.2968C68.1687 27.2325 68.3014 27.1384 68.411 27.0205C68.5205 26.9026 68.6044 26.7634 68.6574 26.6116C68.7104 26.4598 68.7315 26.2987 68.7192 26.1385ZM70.6734 29.9249V29.2003C70.6752 29.1572 70.6935 29.1166 70.7247 29.0868C70.7558 29.057 70.7973 29.0403 70.8405 29.0404C71.1178 29.0611 71.3941 28.9886 71.6252 28.8344C71.8564 28.6803 72.0292 28.4534 72.116 28.1899C72.146 28.0761 72.1339 27.9553 72.0819 27.8497L70.4517 24.1687C70.4379 24.1441 70.4308 24.1163 70.4312 24.0881C70.4316 24.0599 70.4395 24.0324 70.454 24.0082C70.4686 23.984 70.4893 23.9641 70.514 23.9505C70.5388 23.9368 70.5667 23.93 70.595 23.9306H71.4715C71.5601 23.9306 71.6147 24.002 71.6488 24.0905L72.6719 26.4447C72.7436 26.6318 72.8595 26.6216 72.938 26.4447L73.9134 24.0837C73.9475 23.9952 73.9918 23.9408 74.0805 23.9408H74.9229C74.9487 23.9394 74.9745 23.9446 74.9977 23.9559C75.021 23.9671 75.0411 23.984 75.0561 24.0051C75.071 24.0261 75.0804 24.0506 75.0834 24.0762C75.0863 24.1019 75.0827 24.1278 75.0729 24.1517L73.395 28.1116C72.7845 29.5541 72.1365 30.0916 70.8405 30.0916C70.7967 30.0899 70.7552 30.0718 70.7242 30.0409C70.6932 30.01 70.6751 29.9686 70.6734 29.9249Z" fill="#5A78FF"/>
</g>
<defs>
<linearGradient id="paint0_linear_2217_11784" x1="263.113" y1="324.225" x2="367.078" y2="64.6561" gradientUnits="userSpaceOnUse">
<stop stop-color="#504678"/>
<stop offset="0.302" stop-color="#504678" stop-opacity="0.616"/>
<stop offset="0.608" stop-color="#504678" stop-opacity="0.283"/>
<stop offset="0.852" stop-color="#504678" stop-opacity="0.076"/>
<stop offset="1" stop-color="#504678" stop-opacity="0"/>
</linearGradient>
<linearGradient id="paint1_linear_2217_11784" x1="-250.287" y1="-323.373" x2="-377.437" y2="-55.2018" gradientUnits="userSpaceOnUse">
<stop stop-color="#504678"/>
<stop offset="0.302" stop-color="#504678" stop-opacity="0.616"/>
<stop offset="0.608" stop-color="#504678" stop-opacity="0.283"/>
<stop offset="0.852" stop-color="#504678" stop-opacity="0.076"/>
<stop offset="1" stop-color="#504678" stop-opacity="0"/>
</linearGradient>
<linearGradient id="paint2_linear_2217_11784" x1="417.764" y1="556.572" x2="1701.46" y2="272.137" gradientUnits="userSpaceOnUse">
<stop stop-color="#504678"/>
<stop offset="0.179" stop-color="#504678" stop-opacity="0.872"/>
<stop offset="0.526" stop-color="#504678" stop-opacity="0.536"/>
<stop offset="1" stop-color="#504678" stop-opacity="0"/>
</linearGradient>
<linearGradient id="paint3_linear_2217_11784" x1="1431.56" y1="301.89" x2="1376.95" y2="159.927" gradientUnits="userSpaceOnUse">
<stop stop-color="#504678"/>
<stop offset="0.643" stop-color="#504678" stop-opacity="0.332"/>
<stop offset="1" stop-color="#504678" stop-opacity="0"/>
</linearGradient>
<clipPath id="clip0_2217_11784">
<rect width="75" height="24" fill="white" transform="translate(0.5 13.6248)"/>
</clipPath>
</defs>
</svg>
