<svg width="41" height="25" viewBox="0 0 41 25" fill="none" xmlns="http://www.w3.org/2000/svg">
<path d="M30.3732 13.7554L31.642 9.97555H31.6684L32.9482 13.7554H30.3732Z" fill="#FEFEFE"/>
<path d="M4.5 0.624756C2.29086 0.624756 0.5 2.41562 0.5 4.62476V20.6248C0.5 22.834 2.29086 24.6248 4.5 24.6248H36.5C38.7092 24.6248 40.5 22.834 40.5 20.6248V4.62476C40.5 2.41562 38.7092 0.624756 36.5 0.624756H4.5ZM8.26054 18.3276C8.05768 18.1516 7.8857 17.871 7.74456 17.4858L4.54284 8.67156C4.38888 7.82476 3.18094 6.9714 2.5 6.62476L5.50866 6.65778C5.87028 6.65778 6.1393 6.7568 6.3157 6.95488C6.50092 7.15296 6.65968 7.44456 6.79198 7.82972L9.12012 14.5502L11.449 7.8132C11.5813 7.42806 11.7401 7.14196 11.9253 6.95488C12.1106 6.7568 12.3708 6.65778 12.7059 6.65778C12.9793 6.65778 13.2087 6.74579 13.3939 6.92187C13.5791 7.08693 13.6938 7.32352 13.7379 7.63164C13.7908 7.93975 13.7467 8.28638 13.6056 8.67156L10.3906 17.4858C10.2583 17.871 10.0907 18.1516 9.88788 18.3276C9.685 18.5038 9.416 18.5918 9.08082 18.5918C8.74566 18.5918 8.47224 18.5038 8.26054 18.3276ZM22.4132 18.6248C22.0604 18.6248 21.6898 18.5918 21.3018 18.5258C20.9226 18.4708 20.5608 18.3828 20.2168 18.2616C19.873 18.1406 19.5642 17.9976 19.2908 17.8326C19.0526 17.6894 18.885 17.5024 18.788 17.2712C18.691 17.0292 18.6558 16.7762 18.6822 16.512C18.7086 16.248 18.7836 16.0168 18.907 15.8188C19.0306 15.6096 19.1938 15.4722 19.3966 15.406C19.5994 15.329 19.8288 15.362 20.0846 15.5052C20.4198 15.7032 20.799 15.8572 21.2224 15.9674C21.6458 16.0774 22.0426 16.1324 22.4132 16.1324C22.9952 16.1324 23.401 16.0388 23.6304 15.8518C23.8684 15.6536 23.9876 15.4116 23.9876 15.1254C23.9876 14.8724 23.9038 14.6688 23.7362 14.5148C23.5774 14.3608 23.2908 14.2286 22.8762 14.1186L21.3282 13.706C20.4816 13.4858 19.8508 13.1008 19.4364 12.5506C19.0218 12.0004 18.8144 11.2906 18.8144 10.4212C18.8144 9.84896 18.907 9.33176 19.0924 8.86956C19.2864 8.39642 19.5554 7.99478 19.8994 7.66466C20.2522 7.33452 20.6668 7.08143 21.143 6.90536C21.6282 6.7183 22.1662 6.62476 22.7572 6.62476C23.2158 6.62476 23.6788 6.69078 24.1462 6.82284C24.6226 6.94388 25.0328 7.13093 25.3768 7.38403C25.5796 7.51609 25.7252 7.69766 25.8134 7.92874C25.9016 8.15984 25.9368 8.40191 25.9192 8.65495C25.9016 8.89715 25.831 9.11176 25.7074 9.29875C25.5928 9.48575 25.434 9.61236 25.2312 9.67836C25.0372 9.73336 24.8034 9.68935 24.53 9.54636C24.2742 9.40336 23.9832 9.29875 23.6568 9.23276C23.3392 9.15576 23.0306 9.11715 22.7306 9.11715C22.4044 9.11715 22.1264 9.16676 21.8972 9.26576C21.6678 9.35376 21.4914 9.48576 21.368 9.66196C21.2532 9.83796 21.196 10.0416 21.196 10.2726C21.196 10.5038 21.271 10.7018 21.4208 10.8668C21.5796 11.021 21.8662 11.153 22.2808 11.263L23.8156 11.6756C24.671 11.9068 25.3106 12.2864 25.734 12.8146C26.1572 13.3428 26.369 14.0306 26.369 14.8778C26.369 15.4502 26.2764 15.9674 26.0912 16.4294C25.906 16.8916 25.6414 17.2878 25.2974 17.618C24.9534 17.937 24.5388 18.1846 24.0536 18.3608C23.5686 18.5368 23.0218 18.6248 22.4132 18.6248ZM16.0424 18.5918C15.6543 18.5918 15.3545 18.4598 15.1428 18.1956C14.9311 17.9206 14.8252 17.5354 14.8252 17.0402V8.20936C14.8252 7.70316 14.9311 7.31801 15.1428 7.05391C15.3545 6.78981 15.6543 6.65778 16.0424 6.65778C16.4393 6.65778 16.7392 6.78981 16.942 7.05391C17.1538 7.31801 17.2596 7.70316 17.2596 8.20936V17.0402C17.2596 17.5354 17.1582 17.9206 16.9554 18.1956C16.7524 18.4598 16.4482 18.5918 16.0424 18.5918ZM27.2098 18.3608C27.0246 18.1956 26.91 17.9756 26.8658 17.7004C26.8218 17.4144 26.8614 17.0952 26.985 16.743L30.2792 7.89574C30.438 7.46658 30.632 7.15296 30.8614 6.95488C31.0996 6.7568 31.3686 6.65778 31.6684 6.65778C31.9684 6.65778 32.2286 6.7568 32.449 6.95488C32.6784 7.15296 32.8768 7.46658 33.0444 7.89574L36.3388 16.743C36.4798 17.0952 36.5284 17.4144 36.4842 17.7004C36.449 17.9866 36.3388 18.2066 36.1534 18.3608C35.977 18.5148 35.7566 18.5918 35.492 18.5918C35.1392 18.5918 34.8658 18.4928 34.6716 18.2946C34.4864 18.0966 34.3188 17.7774 34.169 17.3374L33.7414 16.0828H29.5822L29.1546 17.3374C28.996 17.7774 28.8328 18.0966 28.6652 18.2946C28.4976 18.4928 28.2418 18.5918 27.8978 18.5918C27.6244 18.5918 27.395 18.5148 27.2098 18.3608Z" fill="#FEFEFE"/>
</svg>
