<svg width="95" height="17" viewBox="0 0 95 17" fill="none" xmlns="http://www.w3.org/2000/svg">
<path fill-rule="evenodd" clip-rule="evenodd" d="M0.81225 13.4595H2.88796C3.05183 13.4595 3.17928 13.3867 3.23391 13.2046L5.63736 5.61186C5.67378 5.4662 5.81944 5.4662 5.87406 5.61186L8.73271 13.15C8.80554 13.3502 8.9148 13.4595 9.11508 13.4595H10.4078C10.5899 13.4595 10.7356 13.3685 10.8084 13.15L13.576 5.61186C13.6307 5.4662 13.7945 5.4662 13.8309 5.61186L16.1798 13.2046C16.2162 13.3502 16.3254 13.4595 16.5075 13.4595H18.7107C18.9292 13.4595 19.0566 13.2956 18.9838 13.0589L15.3604 1.36941C15.3058 1.20554 15.1783 1.07808 15.0145 1.07808H13.1572C12.9934 1.07808 12.8477 1.22374 12.7931 1.36941L9.93444 8.74363C9.87981 8.90751 9.73415 8.8893 9.67953 8.74363L6.80267 1.36941C6.74805 1.22374 6.60238 1.07808 6.43851 1.07808H4.5813C4.41743 1.07808 4.28997 1.20554 4.23535 1.36941L0.539129 13.0589C0.466297 13.3138 0.593755 13.4595 0.81225 13.4595ZM24.4644 13.6962C21.6604 13.6962 19.5847 11.5841 19.5847 8.8893C19.5847 6.17631 21.6604 4.08239 24.4644 4.08239C27.2866 4.08239 29.3441 6.17631 29.3441 8.8893C29.3441 11.5841 27.2866 13.6962 24.4644 13.6962ZM24.4644 11.4384C25.7936 11.4384 26.8678 10.2913 26.8678 8.8893C26.8678 7.46907 25.7936 6.34018 24.4644 6.34018C23.1534 6.34018 22.0609 7.46907 22.0609 8.8893C22.0609 10.2913 23.1534 11.4384 24.4644 11.4384ZM36.1903 13.6962C35.1161 13.6962 34.3877 13.2592 33.714 12.713C33.532 12.5673 33.3681 12.6219 33.3681 12.8768V13.1135C33.3681 13.2956 33.2224 13.4595 33.0403 13.4595H31.3288C31.1467 13.4595 30.9828 13.2956 30.9828 13.1135V1.42403C30.9828 1.24195 31.1467 1.07808 31.3288 1.07808H33.1314C33.3135 1.07808 33.4591 1.24195 33.4591 1.42403V4.75609C33.4591 4.99279 33.623 5.06562 33.8779 4.88354C34.4241 4.48297 35.2253 4.08239 36.2632 4.08239C38.7576 4.08239 40.6695 6.19452 40.6695 8.8893C40.6695 11.5841 38.7212 13.6962 36.1903 13.6962ZM35.7715 11.4202C37.1189 11.4202 38.1932 10.2913 38.1932 8.8893C38.1932 7.46907 37.1189 6.34018 35.7715 6.34018C34.4606 6.34018 33.3863 7.45087 33.3863 8.8893C33.3863 10.3095 34.4424 11.4202 35.7715 11.4202ZM43.5645 3.31766C44.3111 3.31766 44.9483 2.68038 44.9483 1.93385C44.9483 1.18733 44.3111 0.550049 43.5645 0.550049C42.818 0.550049 42.1807 1.18733 42.1807 1.93385C42.1807 2.68038 42.818 3.31766 43.5645 3.31766ZM42.6359 13.4595H44.4385C44.6206 13.4595 44.7845 13.2956 44.7845 13.1135V4.66505C44.7845 4.48297 44.6206 4.3191 44.4385 4.3191H42.6359C42.4539 4.3191 42.3082 4.48297 42.3082 4.66505V13.1135C42.3082 13.2956 42.4539 13.4595 42.6359 13.4595ZM50.1558 13.5505C50.3379 13.5505 50.5018 13.4049 50.5018 13.2228V11.7297C50.5018 11.5295 50.3379 11.3838 50.1558 11.3838C49.5186 11.3838 49.2636 11.0014 49.2636 10.4188V1.42403C49.2636 1.24195 49.0998 1.07808 48.9177 1.07808H47.1151C46.933 1.07808 46.7874 1.24195 46.7874 1.42403V10.3641C46.7874 12.7676 47.7524 13.5505 50.1558 13.5505ZM55.9824 13.6962C53.2148 13.6962 51.2483 11.6751 51.2483 8.92571C51.2483 6.1581 53.2876 4.08239 56.0188 4.08239C58.7318 4.08239 60.7164 6.19452 60.7164 8.96213C60.7164 9.28987 60.6254 9.56299 60.2977 9.56299H54.0341C53.8703 9.56299 53.8156 9.65403 53.8338 9.79969C53.9613 10.8375 54.8717 11.6023 56.0552 11.6023C56.8382 11.6023 57.4026 11.2563 57.785 10.8193C57.9853 10.6008 58.1491 10.528 58.3676 10.528H60.0428C60.3341 10.528 60.4615 10.7283 60.3523 11.0196C59.7514 12.5673 58.0399 13.6962 55.9824 13.6962ZM54.0523 8.08815H57.8942C58.0217 8.08815 58.0763 8.03352 58.0581 7.88786C57.876 6.92284 57.0202 6.17631 55.9824 6.17631C54.9809 6.17631 54.1434 6.88642 53.9067 7.83323C53.8703 7.96069 53.8885 8.08815 54.0523 8.08815ZM62.8468 13.4595C62.6647 13.4595 62.519 13.2956 62.519 13.1135V1.42403C62.519 1.24195 62.6647 1.07808 62.8468 1.07808H68.5823C71.2042 1.07808 72.9886 2.60755 72.9886 5.17487C72.9886 7.68757 70.9675 9.32629 68.4548 9.32629H65.4141C65.1956 9.32629 65.0864 9.45374 65.0864 9.67224V13.1135C65.0864 13.2956 64.9225 13.4595 64.7404 13.4595H62.8468ZM65.3959 7.21416H68.4548C69.7112 7.21416 70.4031 6.13989 70.4031 5.19308C70.4031 4.19164 69.7294 3.24483 68.4548 3.24483H65.3959C65.1774 3.24483 65.0864 3.35408 65.0864 3.57257V6.88642C65.0864 7.10492 65.1774 7.21416 65.3959 7.21416ZM78.5238 13.6962C76.084 13.6962 74.0447 11.6387 74.0447 8.8893C74.0447 6.12169 76.1204 4.08239 78.5602 4.08239C79.5981 4.08239 80.3264 4.48297 80.9819 5.011C81.1458 5.15666 81.3279 5.13846 81.3279 4.91996V4.64684C81.3279 4.46476 81.4735 4.3191 81.6556 4.3191H83.3672C83.5492 4.3191 83.7131 4.48297 83.7131 4.66505V10.6919C83.7131 11.1471 83.877 11.3474 84.1865 11.3656C84.3504 11.3838 84.496 11.493 84.496 11.6569V13.241C84.496 13.4049 84.3686 13.5505 84.1865 13.5505C82.9848 13.5505 82.2747 13.2046 81.8741 12.5127C81.7649 12.3306 81.6374 12.2942 81.4553 12.4763C80.727 13.15 79.8894 13.6962 78.5238 13.6962ZM78.9426 11.4384C80.2718 11.4384 81.3279 10.3095 81.3279 8.8893C81.3279 7.45087 80.2718 6.34018 78.9426 6.34018C77.5952 6.34018 76.5392 7.46907 76.5392 8.8893C76.5392 10.2913 77.5952 11.4384 78.9426 11.4384ZM85.7706 17.01C88.429 17.01 89.7581 15.8994 91.0145 12.9315L94.4558 4.75609C94.5468 4.53759 94.383 4.3191 94.1463 4.3191H92.4165C92.2344 4.3191 92.1434 4.42835 92.0706 4.61043L90.0677 9.47195C89.9038 9.85432 89.6853 9.87252 89.5215 9.49016L87.4275 4.64684C87.3547 4.46476 87.2455 4.3191 87.0634 4.3191H85.2608C85.0423 4.3191 84.8602 4.51938 84.9695 4.81071L88.3197 12.3852C88.429 12.6401 88.4654 12.8404 88.3925 13.1135C88.1376 14.2242 86.9723 14.8615 85.7706 14.8615C85.5885 14.8615 85.4247 15.0072 85.4247 15.1893V16.6641C85.4247 16.8462 85.5885 17.01 85.7706 17.01Z" fill="white"/>
</svg>
