<svg width="27" height="24" viewBox="0 0 27 24" fill="none" xmlns="http://www.w3.org/2000/svg">
<path d="M23.797 2.08092H21.566V1.06358C21.566 0.50867 21.137 0 20.5792 0C20.0215 0 19.5924 0.462428 19.5924 1.06358V2.08092H7.36469V1.06358C7.36469 0.50867 6.93564 0 6.37789 0C5.82013 0 5.39109 0.462428 5.39109 1.06358V2.08092H3.20297C1.74422 2.08092 0.5 3.37572 0.5 4.99422V21.0867C0.5 22.659 1.70132 24 3.20297 24H23.797C25.2558 24 26.5 22.7052 26.5 21.0867V4.94798C26.5 3.37572 25.2558 2.08092 23.797 2.08092ZM2.4736 10.6821H6.12046V15.2601H2.4736V10.6821ZM8.05115 10.6821H12.5561V15.2601H8.05115V10.6821ZM12.5561 17.341V21.8728H8.05115V17.341H12.5561ZM14.4868 17.341H18.9917V21.8728H14.4868V17.341ZM14.4868 15.2601V10.6821H18.9917V15.2601H14.4868ZM20.8795 10.6821H24.5264V15.2601H20.8795V10.6821ZM3.20297 4.16185H5.43399V5.13295C5.43399 5.68786 5.86304 6.19653 6.42079 6.19653C6.97855 6.19653 7.40759 5.7341 7.40759 5.13295V4.16185H19.6782V5.13295C19.6782 5.68786 20.1073 6.19653 20.665 6.19653C21.2228 6.19653 21.6518 5.7341 21.6518 5.13295V4.16185H23.797C24.2261 4.16185 24.5693 4.53179 24.5693 4.99422V8.60116H2.4736V4.99422C2.4736 4.53179 2.77393 4.16185 3.20297 4.16185ZM2.4736 21.0405V17.2948H6.12046V21.8266H3.20297C2.77393 21.8728 2.4736 21.5029 2.4736 21.0405ZM23.797 21.8728H20.8795V17.341H24.5264V21.0867C24.5693 21.5029 24.2261 21.8728 23.797 21.8728Z" fill="#545454"/>
</svg>
