<svg width="16" height="17" viewBox="0 0 16 17" fill="none" xmlns="http://www.w3.org/2000/svg">
<g clip-path="url(#clip0_2060_4462)">
<path d="M4.6001 9.95239V9.70239H4.8751V9.95239H4.6001Z" fill="#BFBEBE" stroke="#BFBEBE"/>
<path d="M7.8501 9.95239V9.70239H8.1251V9.95239H7.8501Z" fill="#BFBEBE" stroke="#BFBEBE"/>
<path d="M11.65 9.20239H10.875C10.725 9.20239 10.625 9.30239 10.625 9.45239V10.2024C10.625 10.3524 10.725 10.4524 10.875 10.4524H11.65C11.8 10.4524 11.9 10.3524 11.9 10.2024V9.45239C11.9 9.32739 11.8 9.20239 11.65 9.20239Z" fill="#BFBEBE"/>
<path d="M5.1251 12.4272H4.3501C4.2001 12.4272 4.1001 12.5272 4.1001 12.6772V13.4272C4.1001 13.5772 4.2001 13.6772 4.3501 13.6772H5.1251C5.2751 13.6772 5.3751 13.5772 5.3751 13.4272V12.6772C5.3751 12.5522 5.2501 12.4272 5.1251 12.4272Z" fill="#BFBEBE"/>
<path d="M8.3751 12.4272H7.6001C7.4501 12.4272 7.3501 12.5272 7.3501 12.6772V13.4272C7.3501 13.5772 7.4501 13.6772 7.6001 13.6772H8.3751C8.5251 13.6772 8.6251 13.5772 8.6251 13.4272V12.6772C8.6251 12.5522 8.5251 12.4272 8.3751 12.4272Z" fill="#BFBEBE"/>
<path d="M11.65 12.4272H10.875C10.725 12.4272 10.625 12.5272 10.625 12.6772V13.4272C10.625 13.5772 10.725 13.6772 10.875 13.6772H11.65C11.8 13.6772 11.9 13.5772 11.9 13.4272V12.6772C11.9 12.5522 11.8 12.4272 11.65 12.4272Z" fill="#BFBEBE"/>
<path d="M14 3.90229H8.57505V3.42729C9.15005 3.20229 9.55005 2.65229 9.55005 2.00229C9.55005 1.15229 8.85005 0.477295 8.00005 0.477295C7.15005 0.477295 6.45005 1.15229 6.45005 2.00229C6.45005 2.65229 6.85005 3.20229 7.42505 3.42729V3.90229H2.00005C1.15005 3.90229 0.425049 4.60229 0.425049 5.47729V14.0523C0.425049 14.9023 1.12505 15.6273 2.00005 15.6273H14C14.85 15.6273 15.575 14.9273 15.575 14.0523V5.45229C15.575 4.60229 14.85 3.90229 14 3.90229ZM8.00005 1.60229C8.22505 1.60229 8.42505 1.77729 8.42505 2.00229C8.42505 2.22729 8.25005 2.40229 8.00005 2.40229C7.75005 2.40229 7.57505 2.22729 7.57505 2.00229C7.57505 1.77729 7.77505 1.60229 8.00005 1.60229ZM2.00005 5.02729H14C14.25 5.02729 14.45 5.22729 14.45 5.47729V7.02729H1.57505V5.47729C1.57505 5.20229 1.75005 5.02729 2.00005 5.02729ZM14 14.5023H2.00005C1.75005 14.5023 1.55005 14.3023 1.55005 14.0523V8.12729H14.425V14.0523C14.45 14.3023 14.25 14.5023 14 14.5023Z" fill="#BFBEBE"/>
</g>
<defs>
<clipPath id="clip0_2060_4462">
<rect width="16" height="16" fill="white" transform="translate(0 0.0522461)"/>
</clipPath>
</defs>
</svg>
