<svg width="33" height="32" viewBox="0 0 33 32" fill="none" xmlns="http://www.w3.org/2000/svg">
<path d="M25.7572 5.3V5.63334H26.0905H28.8749C30.4607 5.63334 31.79 6.90045 31.79 8.4V25.8C31.79 27.3529 30.4572 28.6167 28.8749 28.6167H4.1249C2.49804 28.6167 1.2098 27.3097 1.2098 25.8V8.4C1.2098 6.84706 2.54264 5.58334 4.1249 5.58334H6.85772H7.19105V5.25V4.2C7.19105 3.74369 7.54769 3.38334 8.04365 3.38334C8.53016 3.38334 8.89626 3.78439 8.89626 4.2V5.25V5.58334H9.22959H23.7187H24.052V5.25V4.2C24.052 3.74369 24.4086 3.38334 24.9046 3.38334C25.3911 3.38334 25.7572 3.78439 25.7572 4.2V5.3ZM7.24261 7.55V7.21667H6.90928H4.1249C3.78995 7.21667 3.48154 7.3318 3.25638 7.55924C3.03115 7.78674 2.91501 8.10046 2.91501 8.45V11.75V12.0833H3.24834H29.803H30.1364V11.75V8.45C30.1364 7.75631 29.5649 7.21667 28.8749 7.21667H26.2452H25.9119V7.55V8.55C25.9119 9.00631 25.5552 9.36667 25.0593 9.36667C24.5728 9.36667 24.2067 8.96562 24.2067 8.55V7.55V7.21667H23.8733H9.28115H8.94782V7.55V8.55C8.94782 9.00631 8.59118 9.36667 8.09521 9.36667C7.60871 9.36667 7.24261 8.96562 7.24261 8.55V7.55ZM3.19678 13.6167H2.86344V13.95V25.75C2.86344 26.4437 3.43493 26.9833 4.1249 26.9833H28.8749C29.2061 26.9833 29.5227 26.8709 29.753 26.6565C29.9842 26.4412 30.1153 26.1338 30.0848 25.7843V13.95V13.6167H29.7515H3.19678Z" fill="#8899A8" stroke="#8899A8" stroke-width="0.666667"/>
<path d="M13.7158 15.6833H14.8502C14.8954 15.6833 14.9448 15.7019 14.981 15.7346C15.0137 15.7642 15.0325 15.8017 15.0325 15.85V16.95C15.0325 17.0211 15.0098 17.0559 14.992 17.0732C14.9732 17.0914 14.9322 17.1167 14.8502 17.1167H13.7158C13.6339 17.1167 13.5928 17.0914 13.574 17.0732C13.5562 17.0559 13.5335 17.0211 13.5335 16.95V15.85C13.5335 15.7789 13.5562 15.7441 13.574 15.7268C13.5928 15.7086 13.6339 15.6833 13.7158 15.6833Z" fill="#8899A8" stroke="#8899A8" stroke-width="0.666667"/>
<path d="M19.5421 15.35H18.4077C18.0983 15.35 17.8921 15.55 17.8921 15.85V16.95C17.8921 17.25 18.0983 17.45 18.4077 17.45H19.5421C19.8515 17.45 20.0577 17.25 20.0577 16.95V15.85C20.0577 15.55 19.8515 15.35 19.5421 15.35Z" fill="#8899A8"/>
<path d="M24.2345 15.35H23.1001C22.7907 15.35 22.5845 15.55 22.5845 15.85V16.95C22.5845 17.25 22.7907 17.45 23.1001 17.45H24.2345C24.5438 17.45 24.7501 17.25 24.7501 16.95V15.85C24.7501 15.55 24.5438 15.35 24.2345 15.35Z" fill="#8899A8"/>
<path d="M9.9 19.2H8.76562C8.45625 19.2 8.25 19.4 8.25 19.7V20.8C8.25 21.1 8.45625 21.3 8.76562 21.3H9.9C10.2094 21.3 10.4156 21.1 10.4156 20.8V19.7C10.4156 19.4 10.1578 19.2 9.9 19.2Z" fill="#8899A8"/>
<path d="M14.8502 19.2H13.7158C13.4064 19.2 13.2002 19.4 13.2002 19.7V20.8C13.2002 21.1 13.4064 21.3 13.7158 21.3H14.8502C15.1596 21.3 15.3658 21.1 15.3658 20.8V19.7C15.3658 19.4 15.108 19.2 14.8502 19.2Z" fill="#8899A8"/>
<path d="M19.5421 19.2H18.4077C18.0983 19.2 17.8921 19.4 17.8921 19.7V20.8C17.8921 21.1 18.0983 21.3 18.4077 21.3H19.5421C19.8515 21.3 20.0577 21.1 20.0577 20.8V19.7C20.0577 19.4 19.8515 19.2 19.5421 19.2Z" fill="#8899A8"/>
<path d="M24.2345 19.2H23.1001C22.7907 19.2 22.5845 19.4 22.5845 19.7V20.8C22.5845 21.1 22.7907 21.3 23.1001 21.3H24.2345C24.5438 21.3 24.7501 21.1 24.7501 20.8V19.7C24.7501 19.4 24.5438 19.2 24.2345 19.2Z" fill="#8899A8"/>
<path d="M9.9 23.05H8.76562C8.45625 23.05 8.25 23.25 8.25 23.55V24.65C8.25 24.95 8.45625 25.15 8.76562 25.15H9.9C10.2094 25.15 10.4156 24.95 10.4156 24.65V23.55C10.4156 23.25 10.1578 23.05 9.9 23.05Z" fill="#8899A8"/>
<path d="M14.8502 23.05H13.7158C13.4064 23.05 13.2002 23.25 13.2002 23.55V24.65C13.2002 24.95 13.4064 25.15 13.7158 25.15H14.8502C15.1596 25.15 15.3658 24.95 15.3658 24.65V23.55C15.3658 23.25 15.108 23.05 14.8502 23.05Z" fill="#8899A8"/>
<path d="M19.5421 23.05H18.4077C18.0983 23.05 17.8921 23.25 17.8921 23.55V24.65C17.8921 24.95 18.0983 25.15 18.4077 25.15H19.5421C19.8515 25.15 20.0577 24.95 20.0577 24.65V23.55C20.0577 23.25 19.8515 23.05 19.5421 23.05Z" fill="#8899A8"/>
</svg>
