<svg width="26" height="26" viewBox="0 0 26 26" fill="none" xmlns="http://www.w3.org/2000/svg">
<path d="M15.072 19.418C13.447 19.418 12.147 20.718 12.147 22.343C12.147 23.968 13.447 25.268 15.072 25.268C16.697 25.268 17.997 23.968 17.997 22.343C17.997 20.7586 16.6563 19.418 15.072 19.418ZM15.072 23.4805C14.4626 23.4805 13.9751 22.993 13.9751 22.3836C13.9751 21.7742 14.4626 21.2867 15.072 21.2867C15.6813 21.2867 16.1688 21.7742 16.1688 22.3836C16.1688 22.9523 15.6407 23.4805 15.072 23.4805Z" fill="#545454"/>
<path d="M7.35322 19.418C5.72822 19.418 4.42822 20.718 4.42822 22.343C4.42822 23.968 5.72822 25.268 7.35322 25.268C8.97822 25.268 10.2782 23.968 10.2782 22.343C10.2782 20.7586 8.9376 19.418 7.35322 19.418ZM7.35322 23.4805C6.74385 23.4805 6.25635 22.993 6.25635 22.3836C6.25635 21.7742 6.74385 21.2867 7.35322 21.2867C7.9626 21.2867 8.4501 21.7742 8.4501 22.3836C8.4501 22.9523 7.9626 23.4805 7.35322 23.4805Z" fill="#545454"/>
<path d="M23.6436 0.730469H21.4499C20.4749 0.730469 19.6217 1.46172 19.4999 2.43672L18.8499 7.10859H2.80299C2.39674 7.10859 1.99049 7.31172 1.70611 7.63672C1.46236 7.96172 1.34049 8.40859 1.46236 8.81484C1.46236 8.85547 1.46236 8.85547 1.46236 8.89609L3.98111 16.493C4.14361 17.0617 4.67174 17.468 5.28111 17.468H16.4936C17.9967 17.468 19.2967 16.3305 19.4999 14.8273L21.2061 2.68047C21.2061 2.59922 21.2874 2.55859 21.3686 2.55859H23.5624C24.0499 2.55859 24.4967 2.15234 24.4967 1.62422C24.4967 1.09609 24.1311 0.730469 23.6436 0.730469ZM17.753 14.543C17.6717 15.1523 17.1436 15.5992 16.5342 15.5992H5.64674L3.45299 8.93672H18.5655L17.753 14.543Z" fill="#545454"/>
</svg>
