<svg width="21" height="20" viewBox="0 0 21 20" fill="none" xmlns="http://www.w3.org/2000/svg">
<path d="M12.0937 14.9375C10.8437 14.9375 9.84375 15.9375 9.84375 17.1875C9.84375 18.4375 10.8437 19.4375 12.0937 19.4375C13.3437 19.4375 14.3438 18.4375 14.3438 17.1875C14.3438 15.9688 13.3125 14.9375 12.0937 14.9375ZM12.0937 18.0625C11.625 18.0625 11.25 17.6875 11.25 17.2187C11.25 16.75 11.625 16.375 12.0937 16.375C12.5625 16.375 12.9375 16.75 12.9375 17.2187C12.9375 17.6562 12.5312 18.0625 12.0937 18.0625Z" fill="#FEFEFE"/>
<path d="M6.15625 14.9375C4.90625 14.9375 3.90625 15.9375 3.90625 17.1875C3.90625 18.4375 4.90625 19.4375 6.15625 19.4375C7.40625 19.4375 8.40625 18.4375 8.40625 17.1875C8.40625 15.9688 7.375 14.9375 6.15625 14.9375ZM6.15625 18.0625C5.6875 18.0625 5.3125 17.6875 5.3125 17.2187C5.3125 16.75 5.6875 16.375 6.15625 16.375C6.625 16.375 7 16.75 7 17.2187C7 17.6562 6.625 18.0625 6.15625 18.0625Z" fill="#FEFEFE"/>
<path d="M18.6872 0.5625H16.9997C16.2497 0.5625 15.5934 1.125 15.4997 1.875L14.9997 5.46875H2.65592C2.34342 5.46875 2.03092 5.625 1.81217 5.875C1.62467 6.125 1.53092 6.46875 1.62467 6.78125C1.62467 6.8125 1.62467 6.8125 1.62467 6.84375L3.56217 12.6875C3.68717 13.125 4.09342 13.4375 4.56217 13.4375H13.1872C14.3434 13.4375 15.3434 12.5625 15.4997 11.4063L16.8122 2.0625C16.8122 2 16.8747 1.96875 16.9372 1.96875H18.6247C18.9997 1.96875 19.3434 1.65625 19.3434 1.25C19.3434 0.84375 19.0622 0.5625 18.6872 0.5625ZM14.1559 11.1875C14.0934 11.6563 13.6872 12 13.2184 12H4.84342L3.15592 6.875H14.7809L14.1559 11.1875Z" fill="white"/>
</svg>
