<svg width="17" height="17" viewBox="0 0 17 17" fill="none" xmlns="http://www.w3.org/2000/svg">
<g clip-path="url(#clip0_7230_41159)">
<path d="M9.77656 12.4492C8.77656 12.4492 7.97656 13.2492 7.97656 14.2492C7.97656 15.2492 8.77656 16.0492 9.77656 16.0492C10.7766 16.0492 11.5766 15.2492 11.5766 14.2492C11.5766 13.2742 10.7516 12.4492 9.77656 12.4492ZM9.77656 14.9492C9.40156 14.9492 9.10156 14.6492 9.10156 14.2742C9.10156 13.8992 9.40156 13.5992 9.77656 13.5992C10.1516 13.5992 10.4516 13.8992 10.4516 14.2742C10.4516 14.6242 10.1266 14.9492 9.77656 14.9492Z" fill="#545454"/>
<path d="M5.02656 12.4492C4.02656 12.4492 3.22656 13.2492 3.22656 14.2492C3.22656 15.2492 4.02656 16.0492 5.02656 16.0492C6.02656 16.0492 6.82656 15.2492 6.82656 14.2492C6.82656 13.2742 6.00156 12.4492 5.02656 12.4492ZM5.02656 14.9492C4.65156 14.9492 4.35156 14.6492 4.35156 14.2742C4.35156 13.8992 4.65156 13.5992 5.02656 13.5992C5.40156 13.5992 5.70156 13.8992 5.70156 14.2742C5.70156 14.6242 5.40156 14.9492 5.02656 14.9492Z" fill="#545454"/>
<path d="M15.0505 0.949219H13.7005C13.1005 0.949219 12.5755 1.39922 12.5005 1.99922L12.1005 4.87422H11.0505V3.04922C11.0255 2.59922 10.6755 2.24922 10.2505 2.24922H8.40052C8.32552 1.87422 8.00052 1.59922 7.62552 1.59922H5.45052C5.02552 1.59922 4.65052 1.97422 4.65052 2.44922V2.92422H2.82552C2.40052 2.92422 2.02552 3.27422 2.02552 3.67422V4.89922C1.82552 4.94922 1.67552 5.04922 1.55052 5.19922C1.40052 5.39922 1.32552 5.67422 1.40052 5.92422C1.40052 5.94922 1.40052 5.94922 1.40052 5.97422L2.95052 10.6492C3.05052 10.9992 3.37552 11.2492 3.75052 11.2492H10.6505C11.5755 11.2492 12.3755 10.5492 12.5005 9.62422L13.5505 2.14922C13.5505 2.09922 13.6005 2.07422 13.6505 2.07422H15.0005C15.3005 2.07422 15.5755 1.82422 15.5755 1.49922C15.5755 1.17422 15.3505 0.949219 15.0505 0.949219ZM9.90052 4.87422H8.40052V3.37422H9.90052V4.87422ZM5.80052 2.72422H7.30052V3.04922V4.87422H5.80052V3.69922V2.72422ZM3.17552 4.02422H4.67552V4.87422H3.17552V4.02422ZM11.4255 9.44922C11.3755 9.82422 11.0505 10.0992 10.6755 10.0992H3.97552L2.62552 5.99922H11.9255L11.4255 9.44922Z" fill="#545454"/>
</g>
<defs>
<clipPath id="clip0_7230_41159">
<rect width="16" height="16" fill="white" transform="translate(0.5 0.5)"/>
</clipPath>
</defs>
</svg>
