<svg width="21" height="20" viewBox="0 0 21 20" fill="none" xmlns="http://www.w3.org/2000/svg">
<path d="M10.5 0.5625C5.28125 0.5625 1.0625 4.78125 1.0625 10C1.0625 15.2188 5.28125 19.4688 10.5 19.4688C15.7188 19.4688 19.9688 15.2188 19.9688 10C19.9688 4.78125 15.7188 0.5625 10.5 0.5625ZM10.5 18.0625C6.0625 18.0625 2.46875 14.4375 2.46875 10C2.46875 5.5625 6.0625 1.96875 10.5 1.96875C14.9375 1.96875 18.5625 5.59375 18.5625 10.0312C18.5625 14.4375 14.9375 18.0625 10.5 18.0625Z" fill="#34C759"/>
<path d="M13.1838 7.09392L9.46502 10.7189L7.77752 9.06267C7.49627 8.78142 7.05877 8.81267 6.77752 9.06267C6.49627 9.34392 6.52752 9.78142 6.77752 10.0627L8.77752 12.0002C8.96502 12.1877 9.21502 12.2814 9.46502 12.2814C9.71502 12.2814 9.96502 12.1877 10.1525 12.0002L14.1838 8.12517C14.465 7.84392 14.465 7.40642 14.1838 7.12517C13.9025 6.84392 13.465 6.84392 13.1838 7.09392Z" fill="#34C759"/>
</svg>
