<svg width="12" height="12" viewBox="0 0 12 12" fill="none" xmlns="http://www.w3.org/2000/svg">
<g clip-path="url(#clip0_120_7524)">
<path d="M6.00039 0.3375C2.86914 0.3375 0.337891 2.86875 0.337891 6C0.337891 9.13125 2.86914 11.6813 6.00039 11.6813C9.13164 11.6813 11.6816 9.13125 11.6816 6C11.6816 2.86875 9.13164 0.3375 6.00039 0.3375ZM6.00039 10.8375C3.33789 10.8375 1.18164 8.6625 1.18164 6C1.18164 3.3375 3.33789 1.18125 6.00039 1.18125C8.66289 1.18125 10.8379 3.35625 10.8379 6.01875C10.8379 8.6625 8.66289 10.8375 6.00039 10.8375Z" fill="white"/>
<path d="M7.6128 4.25625L5.38155 6.43125L4.36905 5.4375C4.2003 5.26875 3.9378 5.2875 3.76905 5.4375C3.6003 5.60625 3.61905 5.86875 3.76905 6.0375L4.96905 7.2C5.08155 7.3125 5.23155 7.36875 5.38155 7.36875C5.53155 7.36875 5.68155 7.3125 5.79405 7.2L8.2128 4.875C8.38155 4.70625 8.38155 4.44375 8.2128 4.275C8.04405 4.10625 7.78155 4.10625 7.6128 4.25625Z" fill="white"/>
</g>
<defs>
<clipPath id="clip0_120_7524">
<rect width="12" height="12" fill="white"/>
</clipPath>
</defs>
</svg>
