<svg width="162" height="155" viewBox="0 0 162 155" fill="none" xmlns="http://www.w3.org/2000/svg">
<path d="M39.005 36.0962L66.2429 44.1337C69.6759 45.1467 72.2001 48.1062 72.1298 51.6848C72.0765 54.3981 71.8418 57.5558 71.3747 60.9276C68.9269 78.5973 60.097 102.147 37.5466 98.4276C19.5849 92.4969 17.3864 77.1811 20.4661 62.8184C22.4323 53.6487 26.5498 44.8674 30.0903 39.1648C31.951 36.1678 35.6217 35.0979 39.005 36.0962Z" fill="#FCDDDE"/>
<path d="M37.5466 98.4276L23.9962 146.169M37.5466 98.4276C19.5849 92.4969 17.3864 77.1811 20.4661 62.8184M37.5466 98.4276C60.097 102.147 68.9269 78.5973 71.3747 60.9276M3.82812 140.655L23.9962 146.169M44.1643 151.684L23.9962 146.169M20.4661 62.8184C22.4323 53.6487 26.5498 44.8674 30.0903 39.1648C31.951 36.1678 35.6217 35.0979 39.005 36.0962L66.2429 44.1337C69.6759 45.1467 72.2001 48.1062 72.1298 51.6848C72.0765 54.3981 71.8418 57.5558 71.3747 60.9276M20.4661 62.8184C30.929 77.6293 60.5508 49.8982 71.3747 60.9276" stroke="#ED1C24" stroke-width="6" stroke-linecap="round"/>
<path d="M61.1809 71.326C60.0255 77.1033 54.8154 89.2881 43.2188 91.8092M62.7566 65.0234V65.6537" stroke="#ED1C24" stroke-width="4.5" stroke-linecap="round" stroke-linejoin="round"/>
<path d="M122.994 36.4126L95.7561 44.4501C92.3231 45.4631 89.7989 48.4226 89.8692 52.0012C89.9225 54.7145 90.1572 57.8722 90.6243 61.244C93.0722 78.9137 101.902 102.464 124.452 98.744C142.414 92.8133 144.613 77.4975 141.533 63.1348C139.567 53.9651 135.449 45.1838 131.909 39.4812C130.048 36.4843 126.377 35.4143 122.994 36.4126Z" fill="#FCDDDE"/>
<path d="M124.452 98.744L138.003 146.486M124.452 98.744C142.414 92.8133 144.613 77.4975 141.533 63.1348M124.452 98.744C101.902 102.464 93.0721 78.9137 90.6243 61.244M158.171 140.971L138.003 146.486M117.835 152L138.003 146.486M141.533 63.1348C139.567 53.9651 135.449 45.1838 131.909 39.4812C130.048 36.4843 126.377 35.4143 122.994 36.4126L95.7561 44.4501C92.3231 45.4631 89.7989 48.4226 89.8692 52.0013C89.9225 54.7145 90.1572 57.8722 90.6243 61.244M141.533 63.1348C131.07 77.9457 101.448 50.2146 90.6243 61.244" stroke="#ED1C24" stroke-width="6" stroke-linecap="round"/>
<path d="M100.818 71.6424C101.974 77.4197 107.184 89.6046 118.78 92.1256M99.2425 65.3398V65.9701" stroke="#ED1C24" stroke-width="4.5" stroke-linecap="round" stroke-linejoin="round"/>
<path d="M63.7012 19.7017L70.6339 29.4706M81.6634 3V21.4349V39.8697M99.3104 19.7017L93.6381 29.4706" stroke="#ED1C24" stroke-width="4.5" stroke-linecap="round" stroke-linejoin="round" stroke-dasharray="16 16"/>
</svg>
