<svg width="21" height="21" viewBox="0 0 21 21" fill="none" xmlns="http://www.w3.org/2000/svg">
<g clip-path="url(#clip0_8358_209420)">
<path d="M10.5 1.43677C5.28125 1.43677 1.0625 5.65552 1.0625 10.8743C1.0625 16.093 5.28125 20.343 10.5 20.343C15.7188 20.343 19.9688 16.093 19.9688 10.8743C19.9688 5.65552 15.7188 1.43677 10.5 1.43677ZM10.5 18.9368C6.0625 18.9368 2.46875 15.3118 2.46875 10.8743C2.46875 6.43677 6.0625 2.84302 10.5 2.84302C14.9375 2.84302 18.5625 6.46802 18.5625 10.9055C18.5625 15.3118 14.9375 18.9368 10.5 18.9368Z" fill="white"/>
<path d="M14.2188 8.31177L10.5 11.968L6.78125 8.31177C6.5 8.03052 6.0625 8.03052 5.78125 8.31177C5.5 8.59302 5.5 9.03052 5.78125 9.31177L10 13.468C10.125 13.593 10.3125 13.6555 10.5 13.6555C10.6875 13.6555 10.8437 13.593 11 13.468L15.2187 9.31177C15.5 9.03052 15.5 8.59302 15.2187 8.31177C14.9687 8.03052 14.5 8.03052 14.2188 8.31177Z" fill="white"/>
</g>
<defs>
<clipPath id="clip0_8358_209420">
<rect width="20" height="20" fill="white" transform="translate(0.5 0.874268)"/>
</clipPath>
</defs>
</svg>
