<svg width="16" height="16" viewBox="0 0 16 16" fill="none" xmlns="http://www.w3.org/2000/svg">
<g clip-path="url(#clip0_4368_94049)">
<path d="M8.00313 0.449219C3.82812 0.449219 0.453125 3.82422 0.453125 7.99922C0.453125 12.1742 3.82812 15.5742 8.00313 15.5742C12.1781 15.5742 15.5781 12.1742 15.5781 7.99922C15.5781 3.82422 12.1781 0.449219 8.00313 0.449219ZM8.00313 14.4492C4.45312 14.4492 1.57812 11.5492 1.57812 7.99922C1.57812 4.44922 4.45312 1.57422 8.00313 1.57422C11.5531 1.57422 14.4531 4.47422 14.4531 8.02422C14.4531 11.5492 11.5531 14.4492 8.00313 14.4492Z" fill="#545454"/>
<path d="M6.75 4.22344C6.525 3.99844 6.175 3.99844 5.95 4.22344C5.725 4.44844 5.725 4.79844 5.95 5.02344L8.875 7.99844L5.95 10.9734C5.725 11.1984 5.725 11.5484 5.95 11.7734C6.05 11.8734 6.2 11.9234 6.35 11.9234C6.5 11.9234 6.65 11.8734 6.75 11.7484L10.075 8.37344C10.3 8.14844 10.3 7.79844 10.075 7.57344L6.75 4.22344Z" fill="#545454"/>
</g>
<defs>
<clipPath id="clip0_4368_94049">
<rect width="16" height="16" fill="white"/>
</clipPath>
</defs>
</svg>
