<svg width="20" height="21" viewBox="0 0 20 21" fill="none" xmlns="http://www.w3.org/2000/svg">
<path d="M10 1.06152C4.78125 1.06152 0.5625 5.28027 0.5625 10.499C0.5625 15.7178 4.78125 19.9678 10 19.9678C15.2188 19.9678 19.4688 15.7178 19.4688 10.499C19.4688 5.28027 15.2188 1.06152 10 1.06152ZM10 18.5615C5.5625 18.5615 1.96875 14.9365 1.96875 10.499C1.96875 6.06152 5.5625 2.46777 10 2.46777C14.4375 2.46777 18.0625 6.09277 18.0625 10.5303C18.0625 14.9365 14.4375 18.5615 10 18.5615Z" fill="white"/>
<path d="M10.5 7.93652C10.2187 7.65527 9.78125 7.65527 9.5 7.93652L5.28125 12.0615C5 12.3428 5 12.7803 5.28125 13.0615C5.40625 13.1865 5.59375 13.2803 5.78125 13.2803C5.96875 13.2803 6.125 13.2178 6.28125 13.0928L10 9.40527L13.7188 13.0615C14 13.3428 14.4375 13.3428 14.7187 13.0615C15 12.7803 15 12.3428 14.7187 12.0615L10.5 7.93652Z" fill="white"/>
</svg>
