<svg width="25" height="24" viewBox="0 0 25 24" fill="none" xmlns="http://www.w3.org/2000/svg">
<path d="M13.0621 12.375V6.33745C13.0621 5.88745 12.6871 5.51245 12.2371 5.51245C11.7871 5.51245 11.4121 5.88745 11.4121 6.33745V12.7125C11.4121 12.9375 11.4871 13.1625 11.6371 13.3125L15.7996 17.55C15.9496 17.7 16.1746 17.8125 16.3996 17.8125C16.6246 17.8125 16.8121 17.7375 16.9996 17.5875C17.3371 17.25 17.3371 16.725 16.9996 16.3875L13.0621 12.375Z" fill="#545454"/>
<path d="M12.4998 0.5625C6.23731 0.5625 1.1748 5.7 1.1748 12C1.1748 18.3 6.27481 23.4375 12.4998 23.4375C18.7248 23.4375 23.8248 18.3 23.8248 12C23.8248 5.7 18.7623 0.5625 12.4998 0.5625ZM12.4998 21.75C7.17481 21.75 2.8248 17.3625 2.8248 12C2.8248 6.6375 7.17481 2.25 12.4998 2.25C17.8248 2.25 22.1748 6.6375 22.1748 12C22.1748 17.3625 17.8248 21.75 12.4998 21.75Z" fill="#545454"/>
</svg>
