<svg width="21" height="20" viewBox="0 0 21 20" fill="none" xmlns="http://www.w3.org/2000/svg">
<path d="M11.5 10L19.125 2.375C19.4062 2.09375 19.4062 1.65625 19.125 1.375C18.8438 1.09375 18.4062 1.09375 18.125 1.375L10.5 9L2.875 1.375C2.59375 1.09375 2.15625 1.09375 1.875 1.375C1.59375 1.65625 1.59375 2.09375 1.875 2.375L9.5 10L1.875 17.625C1.59375 17.9062 1.59375 18.3438 1.875 18.625C2 18.75 2.1875 18.8438 2.375 18.8438C2.5625 18.8438 2.75 18.7812 2.875 18.625L10.5 11L18.125 18.625C18.25 18.75 18.4375 18.8438 18.625 18.8438C18.8125 18.8438 19 18.7812 19.125 18.625C19.4062 18.3438 19.4062 17.9062 19.125 17.625L11.5 10Z" fill="white"/>
</svg>
