<svg width="25" height="24" viewBox="0 0 25 24" fill="none" xmlns="http://www.w3.org/2000/svg">
<path d="M13.575 12L22.725 2.84998C23.0625 2.51248 23.0625 1.98748 22.725 1.64998C22.3875 1.31248 21.8625 1.31248 21.525 1.64998L12.375 10.8L3.22498 1.64998C2.88748 1.31248 2.36248 1.31248 2.02498 1.64998C1.68748 1.98748 1.68748 2.51248 2.02498 2.84998L11.175 12L2.02498 21.15C1.68748 21.4875 1.68748 22.0125 2.02498 22.35C2.17498 22.5 2.39998 22.6125 2.62498 22.6125C2.84998 22.6125 3.07498 22.5375 3.22498 22.35L12.375 13.2L21.525 22.35C21.675 22.5 21.9 22.6125 22.125 22.6125C22.35 22.6125 22.575 22.5375 22.725 22.35C23.0625 22.0125 23.0625 21.4875 22.725 21.15L13.575 12Z" fill="#111928"/>
</svg>
