<svg width="512" height="17" viewBox="0 0 512 17" fill="none" xmlns="http://www.w3.org/2000/svg">
<circle cx="8" cy="8.92065" r="8" fill="#F9B9BB"/>
<path d="M30.324 5.52065C30.404 5.52065 30.444 5.56065 30.444 5.64065V6.40865C30.444 6.48865 30.404 6.52865 30.324 6.52865H28.02C27.988 6.52865 27.972 6.54465 27.972 6.57665V13.8007C27.972 13.8807 27.932 13.9207 27.852 13.9207H26.94C26.86 13.9207 26.82 13.8807 26.82 13.8007V6.57665C26.82 6.54465 26.804 6.52865 26.772 6.52865H24.576C24.496 6.52865 24.456 6.48865 24.456 6.40865V5.64065C24.456 5.56065 24.496 5.52065 24.576 5.52065H30.324ZM33.3843 14.0167C32.7923 14.0167 32.2763 13.8687 31.8363 13.5727C31.3963 13.2687 31.0883 12.8487 30.9123 12.3127C30.7683 11.8807 30.6963 11.3927 30.6963 10.8487C30.6963 10.2807 30.7643 9.80065 30.9003 9.40865C31.0763 8.88065 31.3843 8.46865 31.8243 8.17265C32.2643 7.86865 32.7883 7.71665 33.3963 7.71665C33.9723 7.71665 34.4723 7.86865 34.8963 8.17265C35.3283 8.46865 35.6363 8.87665 35.8203 9.39665C35.9643 9.80465 36.0363 10.2847 36.0363 10.8367C36.0363 11.3967 35.9643 11.8887 35.8203 12.3127C35.6443 12.8487 35.3403 13.2687 34.9083 13.5727C34.4763 13.8687 33.9683 14.0167 33.3843 14.0167ZM33.3843 13.0207C33.7043 13.0207 33.9843 12.9327 34.2243 12.7567C34.4643 12.5727 34.6363 12.3167 34.7403 11.9887C34.8283 11.6847 34.8723 11.3087 34.8723 10.8607C34.8723 10.4127 34.8323 10.0407 34.7523 9.74465C34.6483 9.41665 34.4763 9.16465 34.2363 8.98865C33.9963 8.80465 33.7043 8.71265 33.3603 8.71265C33.0323 8.71265 32.7483 8.80465 32.5083 8.98865C32.2683 9.16465 32.0963 9.41665 31.9923 9.74465C31.9043 10.0247 31.8603 10.3967 31.8603 10.8607C31.8603 11.3247 31.9043 11.7007 31.9923 11.9887C32.0883 12.3167 32.2563 12.5727 32.4963 12.7567C32.7443 12.9327 33.0403 13.0207 33.3843 13.0207ZM41.3965 5.64065C41.3965 5.56065 41.4365 5.52065 41.5165 5.52065H42.4285C42.5085 5.52065 42.5485 5.56065 42.5485 5.64065V13.8007C42.5485 13.8807 42.5085 13.9207 42.4285 13.9207H41.5165C41.4365 13.9207 41.3965 13.8807 41.3965 13.8007V13.4047C41.3965 13.3887 41.3885 13.3767 41.3725 13.3687C41.3645 13.3607 41.3525 13.3647 41.3365 13.3807C41.1605 13.5807 40.9525 13.7367 40.7125 13.8487C40.4725 13.9607 40.2125 14.0167 39.9325 14.0167C39.3565 14.0167 38.8765 13.8767 38.4925 13.5967C38.1165 13.3087 37.8405 12.9047 37.6645 12.3847C37.5125 11.9607 37.4365 11.4487 37.4365 10.8487C37.4365 10.2887 37.5005 9.80465 37.6285 9.39665C37.7965 8.86865 38.0725 8.45665 38.4565 8.16065C38.8405 7.86465 39.3325 7.71665 39.9325 7.71665C40.2045 7.71665 40.4605 7.77265 40.7005 7.88465C40.9485 7.98865 41.1605 8.14065 41.3365 8.34065C41.3525 8.35665 41.3645 8.36065 41.3725 8.35265C41.3885 8.34465 41.3965 8.33265 41.3965 8.31665V5.64065ZM41.0965 12.3727C41.2805 12.0367 41.3725 11.5327 41.3725 10.8607C41.3725 10.1887 41.2725 9.67665 41.0725 9.32465C40.8405 8.91665 40.5005 8.71265 40.0525 8.71265C39.5725 8.71265 39.2165 8.90465 38.9845 9.28865C38.7285 9.68865 38.6005 10.2167 38.6005 10.8727C38.6005 11.4887 38.7005 11.9847 38.9005 12.3607C39.1325 12.8007 39.5125 13.0207 40.0405 13.0207C40.5045 13.0207 40.8565 12.8047 41.0965 12.3727ZM46.5293 7.71665C47.0173 7.71665 47.4413 7.80465 47.8013 7.98065C48.1693 8.14865 48.4493 8.38865 48.6413 8.70065C48.8413 9.00465 48.9413 9.35265 48.9413 9.74465V13.8007C48.9413 13.8807 48.9013 13.9207 48.8213 13.9207H47.9093C47.8293 13.9207 47.7893 13.8807 47.7893 13.8007V13.3687C47.7893 13.3287 47.7693 13.3207 47.7293 13.3447C47.5213 13.5607 47.2653 13.7287 46.9613 13.8487C46.6653 13.9607 46.3333 14.0167 45.9653 14.0167C45.3733 14.0167 44.8813 13.8687 44.4893 13.5727C44.1053 13.2687 43.9133 12.8127 43.9133 12.2047C43.9133 11.5807 44.1293 11.0927 44.5613 10.7407C45.0013 10.3807 45.6133 10.2007 46.3973 10.2007H47.7413C47.7733 10.2007 47.7893 10.1847 47.7893 10.1527V9.82865C47.7893 9.47665 47.6853 9.20465 47.4773 9.01265C47.2773 8.81265 46.9693 8.71265 46.5533 8.71265C46.2173 8.71265 45.9413 8.78065 45.7253 8.91665C45.5173 9.04465 45.3893 9.22065 45.3413 9.44465C45.3173 9.52465 45.2693 9.56065 45.1973 9.55265L44.2253 9.42065C44.1453 9.40465 44.1093 9.37265 44.1173 9.32465C44.1813 8.85265 44.4333 8.46865 44.8733 8.17265C45.3133 7.86865 45.8653 7.71665 46.5293 7.71665ZM46.2173 13.0447C46.6413 13.0447 47.0093 12.9327 47.3213 12.7087C47.6333 12.4847 47.7893 12.2007 47.7893 11.8567V11.1487C47.7893 11.1167 47.7733 11.1007 47.7413 11.1007H46.6133C46.1413 11.1007 45.7653 11.1927 45.4853 11.3767C45.2053 11.5607 45.0653 11.8167 45.0653 12.1447C45.0653 12.4407 45.1693 12.6647 45.3773 12.8167C45.5933 12.9687 45.8733 13.0447 46.2173 13.0447ZM50.2711 16.3087C50.2151 16.3087 50.1871 16.2687 50.1871 16.1887V15.4807C50.1871 15.4007 50.2271 15.3607 50.3071 15.3607H50.3311C50.6511 15.3527 50.9031 15.3127 51.0871 15.2407C51.2711 15.1687 51.4231 15.0327 51.5431 14.8327C51.6631 14.6407 51.7791 14.3487 51.8911 13.9567C51.8991 13.9487 51.8991 13.9367 51.8911 13.9207C51.8911 13.8967 51.8911 13.8847 51.8911 13.8847L49.8871 7.94465L49.8751 7.89665C49.8751 7.84065 49.9111 7.81265 49.9831 7.81265H50.9551C51.0271 7.81265 51.0751 7.84465 51.0991 7.90865L52.4551 12.4327C52.4631 12.4487 52.4751 12.4567 52.4911 12.4567C52.5071 12.4567 52.5191 12.4487 52.5271 12.4327L53.8711 7.90865C53.8951 7.84465 53.9431 7.81265 54.0151 7.81265H54.9631C55.0511 7.81265 55.0831 7.85665 55.0591 7.94465L52.8751 14.3407C52.6911 14.8927 52.5071 15.3007 52.3231 15.5647C52.1391 15.8367 51.8991 16.0287 51.6031 16.1407C51.3071 16.2527 50.8911 16.3087 50.3551 16.3087H50.2711ZM57.7758 5.52065C57.8158 5.52065 57.8438 5.53665 57.8598 5.56865C57.8838 5.59265 57.8878 5.62465 57.8718 5.66465L56.9358 7.96865C56.9118 8.03265 56.8678 8.06465 56.8038 8.06465H56.1198C56.0798 8.06465 56.0478 8.05265 56.0238 8.02865C56.0078 8.00465 56.0038 7.97265 56.0118 7.93265L56.7078 5.61665C56.7318 5.55265 56.7798 5.52065 56.8518 5.52065H57.7758ZM60.2425 13.9927C59.7625 13.9927 59.3385 13.9207 58.9705 13.7767C58.6105 13.6327 58.3305 13.4367 58.1305 13.1887C57.9305 12.9327 57.8305 12.6527 57.8305 12.3487V12.2167C57.8305 12.1367 57.8705 12.0967 57.9505 12.0967H58.8145C58.8945 12.0967 58.9345 12.1367 58.9345 12.2167V12.2767C58.9345 12.5007 59.0545 12.6967 59.2945 12.8647C59.5425 13.0327 59.8545 13.1167 60.2305 13.1167C60.5905 13.1167 60.8825 13.0407 61.1065 12.8887C61.3305 12.7287 61.4425 12.5287 61.4425 12.2887C61.4425 12.0567 61.3385 11.8847 61.1305 11.7727C60.9225 11.6527 60.5865 11.5287 60.1225 11.4007C59.6665 11.2727 59.2825 11.1447 58.9705 11.0167C58.6665 10.8807 58.4065 10.6927 58.1905 10.4527C57.9825 10.2047 57.8785 9.88865 57.8785 9.50465C57.8785 8.96865 58.0865 8.54465 58.5025 8.23265C58.9265 7.91265 59.4865 7.75265 60.1825 7.75265C60.6465 7.75265 61.0545 7.82865 61.4065 7.98065C61.7665 8.12465 62.0425 8.32865 62.2345 8.59265C62.4265 8.85665 62.5225 9.15265 62.5225 9.48065V9.51665C62.5225 9.59665 62.4825 9.63665 62.4025 9.63665H61.5625C61.4825 9.63665 61.4425 9.59665 61.4425 9.51665V9.48065C61.4425 9.24865 61.3265 9.05665 61.0945 8.90465C60.8705 8.74465 60.5625 8.66465 60.1705 8.66465C59.8185 8.66465 59.5305 8.73265 59.3065 8.86865C59.0905 9.00465 58.9825 9.18865 58.9825 9.42065C58.9825 9.65265 59.0865 9.82865 59.2945 9.94865C59.5105 10.0687 59.8545 10.1967 60.3265 10.3327C60.7905 10.4607 61.1745 10.5887 61.4785 10.7167C61.7905 10.8367 62.0545 11.0207 62.2705 11.2687C62.4865 11.5087 62.5945 11.8247 62.5945 12.2167C62.5945 12.7607 62.3785 13.1927 61.9465 13.5127C61.5225 13.8327 60.9545 13.9927 60.2425 13.9927ZM70.2565 5.64065C70.2565 5.56065 70.2965 5.52065 70.3765 5.52065H71.2885C71.3685 5.52065 71.4085 5.56065 71.4085 5.64065V13.8007C71.4085 13.8807 71.3685 13.9207 71.2885 13.9207H70.3765C70.2965 13.9207 70.2565 13.8807 70.2565 13.8007V13.4047C70.2565 13.3887 70.2485 13.3767 70.2325 13.3687C70.2245 13.3607 70.2125 13.3647 70.1965 13.3807C70.0205 13.5807 69.8125 13.7367 69.5725 13.8487C69.3325 13.9607 69.0725 14.0167 68.7925 14.0167C68.2165 14.0167 67.7365 13.8767 67.3525 13.5967C66.9765 13.3087 66.7005 12.9047 66.5245 12.3847C66.3725 11.9607 66.2965 11.4487 66.2965 10.8487C66.2965 10.2887 66.3605 9.80465 66.4885 9.39665C66.6565 8.86865 66.9325 8.45665 67.3165 8.16065C67.7005 7.86465 68.1925 7.71665 68.7925 7.71665C69.0645 7.71665 69.3205 7.77265 69.5605 7.88465C69.8085 7.98865 70.0205 8.14065 70.1965 8.34065C70.2125 8.35665 70.2245 8.36065 70.2325 8.35265C70.2485 8.34465 70.2565 8.33265 70.2565 8.31665V5.64065ZM69.9565 12.3727C70.1405 12.0367 70.2325 11.5327 70.2325 10.8607C70.2325 10.1887 70.1325 9.67665 69.9325 9.32465C69.7005 8.91665 69.3605 8.71265 68.9125 8.71265C68.4325 8.71265 68.0765 8.90465 67.8445 9.28865C67.5885 9.68865 67.4605 10.2167 67.4605 10.8727C67.4605 11.4887 67.5605 11.9847 67.7605 12.3607C67.9925 12.8007 68.3725 13.0207 68.9005 13.0207C69.3645 13.0207 69.7165 12.8047 69.9565 12.3727ZM75.3893 7.71665C75.8773 7.71665 76.3013 7.80465 76.6613 7.98065C77.0293 8.14865 77.3093 8.38865 77.5013 8.70065C77.7013 9.00465 77.8013 9.35265 77.8013 9.74465V13.8007C77.8013 13.8807 77.7613 13.9207 77.6813 13.9207H76.7693C76.6893 13.9207 76.6493 13.8807 76.6493 13.8007V13.3687C76.6493 13.3287 76.6293 13.3207 76.5893 13.3447C76.3813 13.5607 76.1253 13.7287 75.8213 13.8487C75.5253 13.9607 75.1933 14.0167 74.8253 14.0167C74.2333 14.0167 73.7413 13.8687 73.3493 13.5727C72.9653 13.2687 72.7733 12.8127 72.7733 12.2047C72.7733 11.5807 72.9893 11.0927 73.4213 10.7407C73.8613 10.3807 74.4733 10.2007 75.2573 10.2007H76.6013C76.6333 10.2007 76.6493 10.1847 76.6493 10.1527V9.82865C76.6493 9.47665 76.5453 9.20465 76.3373 9.01265C76.1373 8.81265 75.8293 8.71265 75.4133 8.71265C75.0773 8.71265 74.8013 8.78065 74.5853 8.91665C74.3773 9.04465 74.2493 9.22065 74.2013 9.44465C74.1773 9.52465 74.1293 9.56065 74.0573 9.55265L73.0853 9.42065C73.0053 9.40465 72.9693 9.37265 72.9773 9.32465C73.0413 8.85265 73.2933 8.46865 73.7333 8.17265C74.1733 7.86865 74.7253 7.71665 75.3893 7.71665ZM75.0773 13.0447C75.5013 13.0447 75.8693 12.9327 76.1813 12.7087C76.4933 12.4847 76.6493 12.2007 76.6493 11.8567V11.1487C76.6493 11.1167 76.6333 11.1007 76.6013 11.1007H75.4733C75.0013 11.1007 74.6253 11.1927 74.3453 11.3767C74.0653 11.5607 73.9253 11.8167 73.9253 12.1447C73.9253 12.4407 74.0293 12.6647 74.2373 12.8167C74.4533 12.9687 74.7333 13.0447 75.0773 13.0447ZM82.3465 8.64065C82.3465 8.72065 82.3065 8.76065 82.2265 8.76065H80.9305C80.8985 8.76065 80.8825 8.77665 80.8825 8.80865V11.9887C80.8825 12.3247 80.9585 12.5687 81.1105 12.7207C81.2625 12.8647 81.4985 12.9367 81.8185 12.9367H82.1665C82.2465 12.9367 82.2865 12.9767 82.2865 13.0567V13.8007C82.2865 13.8807 82.2465 13.9207 82.1665 13.9207C81.9105 13.9367 81.7265 13.9447 81.6145 13.9447C81.0065 13.9447 80.5465 13.8367 80.2345 13.6207C79.9305 13.3967 79.7785 12.9887 79.7785 12.3967V8.80865C79.7785 8.77665 79.7625 8.76065 79.7305 8.76065H78.9985C78.9185 8.76065 78.8785 8.72065 78.8785 8.64065V7.93265C78.8785 7.85265 78.9185 7.81265 78.9985 7.81265H79.7305C79.7625 7.81265 79.7785 7.79665 79.7785 7.76465V6.34865C79.7785 6.26865 79.8185 6.22865 79.8985 6.22865H80.7625C80.8425 6.22865 80.8825 6.26865 80.8825 6.34865V7.76465C80.8825 7.79665 80.8985 7.81265 80.9305 7.81265H82.2265C82.3065 7.81265 82.3465 7.85265 82.3465 7.93265V8.64065ZM88.6276 10.1047C88.6596 10.4327 88.6716 10.8007 88.6636 11.2087C88.6636 11.2887 88.6236 11.3287 88.5436 11.3287H84.7156C84.6836 11.3287 84.6676 11.3447 84.6676 11.3767C84.6676 11.6487 84.6916 11.8567 84.7396 12.0007C84.8276 12.3207 85.0036 12.5727 85.2676 12.7567C85.5396 12.9327 85.8796 13.0207 86.2876 13.0207C86.8796 13.0207 87.3356 12.7767 87.6556 12.2887C87.6956 12.2087 87.7476 12.1967 87.8116 12.2527L88.4956 12.7087C88.5516 12.7567 88.5636 12.8087 88.5316 12.8647C88.3076 13.2247 87.9876 13.5087 87.5716 13.7167C87.1636 13.9247 86.6996 14.0287 86.1796 14.0287C85.5956 14.0287 85.1036 13.9007 84.7036 13.6447C84.3036 13.3887 84.0036 13.0247 83.8036 12.5527C83.6116 12.0807 83.5156 11.5087 83.5156 10.8367C83.5156 10.2527 83.5596 9.80865 83.6476 9.50465C83.7916 8.95265 84.0796 8.51665 84.5116 8.19665C84.9436 7.87665 85.4676 7.71665 86.0836 7.71665C86.8916 7.71665 87.4956 7.92065 87.8956 8.32865C88.2956 8.72865 88.5396 9.32065 88.6276 10.1047ZM86.0836 8.71265C85.7396 8.71265 85.4556 8.80065 85.2316 8.97665C85.0076 9.14465 84.8556 9.37265 84.7756 9.66065C84.7196 9.83665 84.6836 10.0607 84.6676 10.3327C84.6676 10.3647 84.6836 10.3807 84.7156 10.3807H87.4636C87.4956 10.3807 87.5116 10.3647 87.5116 10.3327C87.4956 10.0687 87.4716 9.87265 87.4396 9.74465C87.3596 9.43265 87.1996 9.18465 86.9596 9.00065C86.7276 8.80865 86.4356 8.71265 86.0836 8.71265Z" fill="#101010"/>
<circle cx="114" cy="8.92065" r="8" fill="#34C759"/>
<path d="M136.084 13.9207C136.012 13.9207 135.964 13.8887 135.94 13.8247L135.508 12.4207C135.5 12.3967 135.484 12.3847 135.46 12.3847H132.088C132.064 12.3847 132.048 12.3967 132.04 12.4207L131.608 13.8247C131.584 13.8887 131.536 13.9207 131.464 13.9207H130.492C130.404 13.9207 130.372 13.8767 130.396 13.7887L133.024 5.61665C133.048 5.55265 133.096 5.52065 133.168 5.52065H134.368C134.44 5.52065 134.488 5.55265 134.512 5.61665L137.164 13.7887L137.176 13.8367C137.176 13.8927 137.14 13.9207 137.068 13.9207H136.084ZM132.34 11.4127C132.332 11.4287 132.332 11.4447 132.34 11.4607C132.356 11.4687 132.372 11.4727 132.388 11.4727H135.148C135.164 11.4727 135.176 11.4687 135.184 11.4607C135.2 11.4447 135.204 11.4287 135.196 11.4127L133.804 6.96065C133.796 6.94465 133.784 6.93665 133.768 6.93665C133.752 6.93665 133.74 6.94465 133.732 6.96065L132.34 11.4127ZM139.621 13.9207C139.549 13.9207 139.501 13.8887 139.477 13.8247L137.521 7.94465L137.509 7.89665C137.509 7.84065 137.545 7.81265 137.617 7.81265H138.625C138.697 7.81265 138.745 7.84465 138.769 7.90865L140.089 12.2527C140.097 12.2687 140.109 12.2767 140.125 12.2767C140.141 12.2767 140.153 12.2687 140.161 12.2527L141.469 7.90865C141.493 7.84465 141.541 7.81265 141.613 7.81265L142.621 7.82465C142.709 7.82465 142.741 7.86865 142.717 7.95665L140.773 13.8247C140.749 13.8887 140.701 13.9207 140.629 13.9207H139.621ZM146.001 7.71665C146.489 7.71665 146.913 7.80465 147.273 7.98065C147.641 8.14865 147.921 8.38865 148.113 8.70065C148.313 9.00465 148.413 9.35265 148.413 9.74465V13.8007C148.413 13.8807 148.373 13.9207 148.293 13.9207H147.381C147.301 13.9207 147.261 13.8807 147.261 13.8007V13.3687C147.261 13.3287 147.241 13.3207 147.201 13.3447C146.993 13.5607 146.737 13.7287 146.433 13.8487C146.137 13.9607 145.805 14.0167 145.437 14.0167C144.845 14.0167 144.353 13.8687 143.961 13.5727C143.577 13.2687 143.385 12.8127 143.385 12.2047C143.385 11.5807 143.601 11.0927 144.033 10.7407C144.473 10.3807 145.085 10.2007 145.869 10.2007H147.213C147.245 10.2007 147.261 10.1847 147.261 10.1527V9.82865C147.261 9.47665 147.157 9.20465 146.949 9.01265C146.749 8.81265 146.441 8.71265 146.025 8.71265C145.689 8.71265 145.413 8.78065 145.197 8.91665C144.989 9.04465 144.861 9.22065 144.813 9.44465C144.789 9.52465 144.741 9.56065 144.669 9.55265L143.697 9.42065C143.617 9.40465 143.581 9.37265 143.589 9.32465C143.653 8.85265 143.905 8.46865 144.345 8.17265C144.785 7.86865 145.337 7.71665 146.001 7.71665ZM145.689 13.0447C146.113 13.0447 146.481 12.9327 146.793 12.7087C147.105 12.4847 147.261 12.2007 147.261 11.8567V11.1487C147.261 11.1167 147.245 11.1007 147.213 11.1007H146.085C145.613 11.1007 145.237 11.1927 144.957 11.3767C144.677 11.5607 144.537 11.8167 144.537 12.1447C144.537 12.4407 144.641 12.6647 144.849 12.8167C145.065 12.9687 145.345 13.0447 145.689 13.0447ZM150.724 6.85265C150.5 6.85265 150.316 6.78065 150.172 6.63665C150.028 6.49265 149.956 6.30865 149.956 6.08465C149.956 5.86065 150.028 5.67665 150.172 5.53265C150.316 5.38865 150.5 5.31665 150.724 5.31665C150.948 5.31665 151.132 5.38865 151.276 5.53265C151.42 5.67665 151.492 5.86065 151.492 6.08465C151.492 6.30865 151.42 6.49265 151.276 6.63665C151.132 6.78065 150.948 6.85265 150.724 6.85265ZM150.244 13.9087C150.164 13.9087 150.124 13.8687 150.124 13.7887V7.93265C150.124 7.85265 150.164 7.81265 150.244 7.81265H151.156C151.236 7.81265 151.276 7.85265 151.276 7.93265V13.7887C151.276 13.8687 151.236 13.9087 151.156 13.9087H150.244ZM153.266 13.9207C153.186 13.9207 153.146 13.8807 153.146 13.8007V5.64065C153.146 5.56065 153.186 5.52065 153.266 5.52065H154.178C154.258 5.52065 154.298 5.56065 154.298 5.64065V13.8007C154.298 13.8807 154.258 13.9207 154.178 13.9207H153.266ZM158.263 7.71665C158.751 7.71665 159.175 7.80465 159.535 7.98065C159.903 8.14865 160.183 8.38865 160.375 8.70065C160.575 9.00465 160.675 9.35265 160.675 9.74465V13.8007C160.675 13.8807 160.635 13.9207 160.555 13.9207H159.643C159.563 13.9207 159.523 13.8807 159.523 13.8007V13.3687C159.523 13.3287 159.503 13.3207 159.463 13.3447C159.255 13.5607 158.999 13.7287 158.695 13.8487C158.399 13.9607 158.067 14.0167 157.699 14.0167C157.107 14.0167 156.615 13.8687 156.223 13.5727C155.839 13.2687 155.647 12.8127 155.647 12.2047C155.647 11.5807 155.863 11.0927 156.295 10.7407C156.735 10.3807 157.347 10.2007 158.131 10.2007H159.475C159.507 10.2007 159.523 10.1847 159.523 10.1527V9.82865C159.523 9.47665 159.419 9.20465 159.211 9.01265C159.011 8.81265 158.703 8.71265 158.287 8.71265C157.951 8.71265 157.675 8.78065 157.459 8.91665C157.251 9.04465 157.123 9.22065 157.075 9.44465C157.051 9.52465 157.003 9.56065 156.931 9.55265L155.959 9.42065C155.879 9.40465 155.843 9.37265 155.851 9.32465C155.915 8.85265 156.167 8.46865 156.607 8.17265C157.047 7.86865 157.599 7.71665 158.263 7.71665ZM157.951 13.0447C158.375 13.0447 158.743 12.9327 159.055 12.7087C159.367 12.4847 159.523 12.2007 159.523 11.8567V11.1487C159.523 11.1167 159.507 11.1007 159.475 11.1007H158.347C157.875 11.1007 157.499 11.1927 157.219 11.3767C156.939 11.5607 156.799 11.8167 156.799 12.1447C156.799 12.4407 156.903 12.6647 157.111 12.8167C157.327 12.9687 157.607 13.0447 157.951 13.0447ZM167.222 9.39665C167.35 9.80465 167.414 10.2887 167.414 10.8487C167.414 11.4487 167.338 11.9607 167.186 12.3847C167.01 12.9047 166.73 13.3087 166.346 13.5967C165.97 13.8767 165.494 14.0167 164.918 14.0167C164.638 14.0167 164.378 13.9607 164.138 13.8487C163.898 13.7367 163.69 13.5807 163.514 13.3807C163.498 13.3647 163.482 13.3607 163.466 13.3687C163.458 13.3767 163.454 13.3887 163.454 13.4047V13.8007C163.454 13.8807 163.414 13.9207 163.334 13.9207H162.422C162.342 13.9207 162.302 13.8807 162.302 13.8007V5.64065C162.302 5.56065 162.342 5.52065 162.422 5.52065H163.334C163.414 5.52065 163.454 5.56065 163.454 5.64065V8.31665C163.454 8.33265 163.458 8.34465 163.466 8.35265C163.482 8.36065 163.498 8.35665 163.514 8.34065C163.69 8.14065 163.898 7.98865 164.138 7.88465C164.386 7.77265 164.646 7.71665 164.918 7.71665C165.518 7.71665 166.01 7.86465 166.394 8.16065C166.778 8.45665 167.054 8.86865 167.222 9.39665ZM165.95 12.3607C166.15 11.9847 166.25 11.4887 166.25 10.8727C166.25 10.2167 166.122 9.68865 165.866 9.28865C165.634 8.90465 165.278 8.71265 164.798 8.71265C164.35 8.71265 164.01 8.91665 163.778 9.32465C163.57 9.69265 163.466 10.2047 163.466 10.8607C163.466 11.5167 163.562 12.0207 163.754 12.3727C163.994 12.8047 164.346 13.0207 164.81 13.0207C165.338 13.0207 165.718 12.8007 165.95 12.3607ZM169.103 13.9207C169.023 13.9207 168.983 13.8807 168.983 13.8007V5.64065C168.983 5.56065 169.023 5.52065 169.103 5.52065H170.015C170.095 5.52065 170.135 5.56065 170.135 5.64065V13.8007C170.135 13.8807 170.095 13.9207 170.015 13.9207H169.103ZM176.811 10.1047C176.843 10.4327 176.855 10.8007 176.847 11.2087C176.847 11.2887 176.807 11.3287 176.727 11.3287H172.899C172.867 11.3287 172.851 11.3447 172.851 11.3767C172.851 11.6487 172.875 11.8567 172.923 12.0007C173.011 12.3207 173.187 12.5727 173.451 12.7567C173.723 12.9327 174.063 13.0207 174.471 13.0207C175.063 13.0207 175.519 12.7767 175.839 12.2887C175.879 12.2087 175.931 12.1967 175.995 12.2527L176.679 12.7087C176.735 12.7567 176.747 12.8087 176.715 12.8647C176.491 13.2247 176.171 13.5087 175.755 13.7167C175.347 13.9247 174.883 14.0287 174.363 14.0287C173.779 14.0287 173.287 13.9007 172.887 13.6447C172.487 13.3887 172.187 13.0247 171.987 12.5527C171.795 12.0807 171.699 11.5087 171.699 10.8367C171.699 10.2527 171.743 9.80865 171.831 9.50465C171.975 8.95265 172.263 8.51665 172.695 8.19665C173.127 7.87665 173.651 7.71665 174.267 7.71665C175.075 7.71665 175.679 7.92065 176.079 8.32865C176.479 8.72865 176.723 9.32065 176.811 10.1047ZM174.267 8.71265C173.923 8.71265 173.639 8.80065 173.415 8.97665C173.191 9.14465 173.039 9.37265 172.959 9.66065C172.903 9.83665 172.867 10.0607 172.851 10.3327C172.851 10.3647 172.867 10.3807 172.899 10.3807H175.647C175.679 10.3807 175.695 10.3647 175.695 10.3327C175.679 10.0687 175.655 9.87265 175.623 9.74465C175.543 9.43265 175.383 9.18465 175.143 9.00065C174.911 8.80865 174.619 8.71265 174.267 8.71265ZM182.971 13.9927C182.491 13.9927 182.067 13.9207 181.699 13.7767C181.339 13.6327 181.059 13.4367 180.859 13.1887C180.659 12.9327 180.559 12.6527 180.559 12.3487V12.2167C180.559 12.1367 180.599 12.0967 180.679 12.0967H181.543C181.623 12.0967 181.663 12.1367 181.663 12.2167V12.2767C181.663 12.5007 181.783 12.6967 182.023 12.8647C182.271 13.0327 182.583 13.1167 182.959 13.1167C183.319 13.1167 183.611 13.0407 183.835 12.8887C184.059 12.7287 184.171 12.5287 184.171 12.2887C184.171 12.0567 184.067 11.8847 183.859 11.7727C183.651 11.6527 183.315 11.5287 182.851 11.4007C182.395 11.2727 182.011 11.1447 181.699 11.0167C181.395 10.8807 181.135 10.6927 180.919 10.4527C180.711 10.2047 180.607 9.88865 180.607 9.50465C180.607 8.96865 180.815 8.54465 181.231 8.23265C181.655 7.91265 182.215 7.75265 182.911 7.75265C183.375 7.75265 183.783 7.82865 184.135 7.98065C184.495 8.12465 184.771 8.32865 184.963 8.59265C185.155 8.85665 185.251 9.15265 185.251 9.48065V9.51665C185.251 9.59665 185.211 9.63665 185.131 9.63665H184.291C184.211 9.63665 184.171 9.59665 184.171 9.51665V9.48065C184.171 9.24865 184.055 9.05665 183.823 8.90465C183.599 8.74465 183.291 8.66465 182.899 8.66465C182.547 8.66465 182.259 8.73265 182.035 8.86865C181.819 9.00465 181.711 9.18865 181.711 9.42065C181.711 9.65265 181.815 9.82865 182.023 9.94865C182.239 10.0687 182.583 10.1967 183.055 10.3327C183.519 10.4607 183.903 10.5887 184.207 10.7167C184.519 10.8367 184.783 11.0207 184.999 11.2687C185.215 11.5087 185.323 11.8247 185.323 12.2167C185.323 12.7607 185.107 13.1927 184.675 13.5127C184.251 13.8327 183.683 13.9927 182.971 13.9927ZM191.674 10.1047C191.706 10.4327 191.718 10.8007 191.71 11.2087C191.71 11.2887 191.67 11.3287 191.59 11.3287H187.762C187.73 11.3287 187.714 11.3447 187.714 11.3767C187.714 11.6487 187.738 11.8567 187.786 12.0007C187.874 12.3207 188.05 12.5727 188.314 12.7567C188.586 12.9327 188.926 13.0207 189.334 13.0207C189.926 13.0207 190.382 12.7767 190.702 12.2887C190.742 12.2087 190.794 12.1967 190.858 12.2527L191.542 12.7087C191.598 12.7567 191.61 12.8087 191.578 12.8647C191.354 13.2247 191.034 13.5087 190.618 13.7167C190.21 13.9247 189.746 14.0287 189.226 14.0287C188.642 14.0287 188.15 13.9007 187.75 13.6447C187.35 13.3887 187.05 13.0247 186.85 12.5527C186.658 12.0807 186.562 11.5087 186.562 10.8367C186.562 10.2527 186.606 9.80865 186.694 9.50465C186.838 8.95265 187.126 8.51665 187.558 8.19665C187.99 7.87665 188.514 7.71665 189.13 7.71665C189.938 7.71665 190.542 7.92065 190.942 8.32865C191.342 8.72865 191.586 9.32065 191.674 10.1047ZM189.13 8.71265C188.786 8.71265 188.502 8.80065 188.278 8.97665C188.054 9.14465 187.902 9.37265 187.822 9.66065C187.766 9.83665 187.73 10.0607 187.714 10.3327C187.714 10.3647 187.73 10.3807 187.762 10.3807H190.51C190.542 10.3807 190.558 10.3647 190.558 10.3327C190.542 10.0687 190.518 9.87265 190.486 9.74465C190.406 9.43265 190.246 9.18465 190.006 9.00065C189.774 8.80865 189.482 8.71265 189.13 8.71265ZM195.397 7.71665C195.885 7.71665 196.309 7.80465 196.669 7.98065C197.037 8.14865 197.317 8.38865 197.509 8.70065C197.709 9.00465 197.809 9.35265 197.809 9.74465V13.8007C197.809 13.8807 197.769 13.9207 197.689 13.9207H196.777C196.697 13.9207 196.657 13.8807 196.657 13.8007V13.3687C196.657 13.3287 196.637 13.3207 196.597 13.3447C196.389 13.5607 196.133 13.7287 195.829 13.8487C195.533 13.9607 195.201 14.0167 194.833 14.0167C194.241 14.0167 193.749 13.8687 193.357 13.5727C192.973 13.2687 192.781 12.8127 192.781 12.2047C192.781 11.5807 192.997 11.0927 193.429 10.7407C193.869 10.3807 194.481 10.2007 195.265 10.2007H196.609C196.641 10.2007 196.657 10.1847 196.657 10.1527V9.82865C196.657 9.47665 196.553 9.20465 196.345 9.01265C196.145 8.81265 195.837 8.71265 195.421 8.71265C195.085 8.71265 194.809 8.78065 194.593 8.91665C194.385 9.04465 194.257 9.22065 194.209 9.44465C194.185 9.52465 194.137 9.56065 194.065 9.55265L193.093 9.42065C193.013 9.40465 192.977 9.37265 192.985 9.32465C193.049 8.85265 193.301 8.46865 193.741 8.17265C194.181 7.86865 194.733 7.71665 195.397 7.71665ZM195.085 13.0447C195.509 13.0447 195.877 12.9327 196.189 12.7087C196.501 12.4847 196.657 12.2007 196.657 11.8567V11.1487C196.657 11.1167 196.641 11.1007 196.609 11.1007H195.481C195.009 11.1007 194.633 11.1927 194.353 11.3767C194.073 11.5607 193.933 11.8167 193.933 12.1447C193.933 12.4407 194.037 12.6647 194.245 12.8167C194.461 12.9687 194.741 13.0447 195.085 13.0447ZM202.355 8.64065C202.355 8.72065 202.315 8.76065 202.235 8.76065H200.939C200.907 8.76065 200.891 8.77665 200.891 8.80865V11.9887C200.891 12.3247 200.967 12.5687 201.119 12.7207C201.271 12.8647 201.507 12.9367 201.827 12.9367H202.175C202.255 12.9367 202.295 12.9767 202.295 13.0567V13.8007C202.295 13.8807 202.255 13.9207 202.175 13.9207C201.919 13.9367 201.735 13.9447 201.623 13.9447C201.015 13.9447 200.555 13.8367 200.243 13.6207C199.939 13.3967 199.787 12.9887 199.787 12.3967V8.80865C199.787 8.77665 199.771 8.76065 199.739 8.76065H199.007C198.927 8.76065 198.887 8.72065 198.887 8.64065V7.93265C198.887 7.85265 198.927 7.81265 199.007 7.81265H199.739C199.771 7.81265 199.787 7.79665 199.787 7.76465V6.34865C199.787 6.26865 199.827 6.22865 199.907 6.22865H200.771C200.851 6.22865 200.891 6.26865 200.891 6.34865V7.76465C200.891 7.79665 200.907 7.81265 200.939 7.81265H202.235C202.315 7.81265 202.355 7.85265 202.355 7.93265V8.64065ZM205.98 13.9927C205.5 13.9927 205.076 13.9207 204.708 13.7767C204.348 13.6327 204.068 13.4367 203.868 13.1887C203.668 12.9327 203.568 12.6527 203.568 12.3487V12.2167C203.568 12.1367 203.608 12.0967 203.688 12.0967H204.552C204.632 12.0967 204.672 12.1367 204.672 12.2167V12.2767C204.672 12.5007 204.792 12.6967 205.032 12.8647C205.28 13.0327 205.592 13.1167 205.968 13.1167C206.328 13.1167 206.62 13.0407 206.844 12.8887C207.068 12.7287 207.18 12.5287 207.18 12.2887C207.18 12.0567 207.076 11.8847 206.868 11.7727C206.66 11.6527 206.324 11.5287 205.86 11.4007C205.404 11.2727 205.02 11.1447 204.708 11.0167C204.404 10.8807 204.144 10.6927 203.928 10.4527C203.72 10.2047 203.616 9.88865 203.616 9.50465C203.616 8.96865 203.824 8.54465 204.24 8.23265C204.664 7.91265 205.224 7.75265 205.92 7.75265C206.384 7.75265 206.792 7.82865 207.144 7.98065C207.504 8.12465 207.78 8.32865 207.972 8.59265C208.164 8.85665 208.26 9.15265 208.26 9.48065V9.51665C208.26 9.59665 208.22 9.63665 208.14 9.63665H207.3C207.22 9.63665 207.18 9.59665 207.18 9.51665V9.48065C207.18 9.24865 207.064 9.05665 206.832 8.90465C206.608 8.74465 206.3 8.66465 205.908 8.66465C205.556 8.66465 205.268 8.73265 205.044 8.86865C204.828 9.00465 204.72 9.18865 204.72 9.42065C204.72 9.65265 204.824 9.82865 205.032 9.94865C205.248 10.0687 205.592 10.1967 206.064 10.3327C206.528 10.4607 206.912 10.5887 207.216 10.7167C207.528 10.8367 207.792 11.0207 208.008 11.2687C208.224 11.5087 208.332 11.8247 208.332 12.2167C208.332 12.7607 208.116 13.1927 207.684 13.5127C207.26 13.8327 206.692 13.9927 205.98 13.9927Z" fill="#101010"/>
<circle cx="233" cy="8.92065" r="8" fill="#FF9500"/>
<path d="M252.72 14.0287C252.136 14.0287 251.62 13.9087 251.172 13.6687C250.724 13.4287 250.376 13.0927 250.128 12.6607C249.88 12.2207 249.756 11.7167 249.756 11.1487V8.29265C249.756 7.72465 249.88 7.22465 250.128 6.79265C250.376 6.36065 250.724 6.02465 251.172 5.78465C251.62 5.54465 252.136 5.42465 252.72 5.42465C253.312 5.42465 253.832 5.54465 254.28 5.78465C254.728 6.02465 255.076 6.36065 255.324 6.79265C255.572 7.22465 255.696 7.72465 255.696 8.29265V11.1487C255.696 11.7167 255.572 12.2207 255.324 12.6607C255.076 13.0927 254.728 13.4287 254.28 13.6687C253.832 13.9087 253.312 14.0287 252.72 14.0287ZM252.72 13.0327C253.264 13.0327 253.704 12.8647 254.04 12.5287C254.376 12.1927 254.544 11.7487 254.544 11.1967V8.28065C254.544 7.72065 254.376 7.27265 254.04 6.93665C253.704 6.59265 253.264 6.42065 252.72 6.42065C252.176 6.42065 251.736 6.59265 251.4 6.93665C251.072 7.27265 250.908 7.72065 250.908 8.28065V11.1967C250.908 11.7487 251.072 12.1927 251.4 12.5287C251.736 12.8647 252.176 13.0327 252.72 13.0327ZM260.089 7.72865C260.745 7.72865 261.265 7.92065 261.649 8.30465C262.033 8.68065 262.225 9.19265 262.225 9.84065V13.8007C262.225 13.8807 262.185 13.9207 262.105 13.9207H261.193C261.113 13.9207 261.073 13.8807 261.073 13.8007V10.0687C261.073 9.66865 260.957 9.34465 260.725 9.09665C260.493 8.84865 260.185 8.72465 259.801 8.72465C259.425 8.72465 259.117 8.84865 258.877 9.09665C258.637 9.34465 258.517 9.66465 258.517 10.0567V13.8007C258.517 13.8807 258.477 13.9207 258.397 13.9207H257.485C257.405 13.9207 257.365 13.8807 257.365 13.8007V7.93265C257.365 7.85265 257.405 7.81265 257.485 7.81265H258.397C258.477 7.81265 258.517 7.85265 258.517 7.93265V8.36465C258.517 8.38065 258.521 8.39265 258.529 8.40065C258.545 8.40865 258.557 8.40465 258.565 8.38865C258.909 7.94865 259.417 7.72865 260.089 7.72865ZM264.049 13.9207C263.969 13.9207 263.929 13.8807 263.929 13.8007V5.64065C263.929 5.56065 263.969 5.52065 264.049 5.52065H264.961C265.041 5.52065 265.081 5.56065 265.081 5.64065V13.8007C265.081 13.8807 265.041 13.9207 264.961 13.9207H264.049ZM266.633 16.3087C266.577 16.3087 266.549 16.2687 266.549 16.1887V15.4807C266.549 15.4007 266.589 15.3607 266.669 15.3607H266.693C267.013 15.3527 267.265 15.3127 267.449 15.2407C267.633 15.1687 267.785 15.0327 267.905 14.8327C268.025 14.6407 268.141 14.3487 268.253 13.9567C268.261 13.9487 268.261 13.9367 268.253 13.9207C268.253 13.8967 268.253 13.8847 268.253 13.8847L266.249 7.94465L266.237 7.89665C266.237 7.84065 266.273 7.81265 266.345 7.81265H267.317C267.389 7.81265 267.437 7.84465 267.461 7.90865L268.817 12.4327C268.825 12.4487 268.837 12.4567 268.853 12.4567C268.869 12.4567 268.881 12.4487 268.889 12.4327L270.233 7.90865C270.257 7.84465 270.305 7.81265 270.377 7.81265H271.325C271.413 7.81265 271.445 7.85665 271.421 7.94465L269.237 14.3407C269.053 14.8927 268.869 15.3007 268.685 15.5647C268.501 15.8367 268.261 16.0287 267.965 16.1407C267.669 16.2527 267.253 16.3087 266.717 16.3087H266.633ZM277.73 6.52865C277.33 6.52865 277.058 6.60465 276.914 6.75665C276.77 6.90865 276.698 7.19665 276.698 7.62065V7.76465C276.698 7.79665 276.714 7.81265 276.746 7.81265H278.006C278.086 7.81265 278.126 7.85265 278.126 7.93265V8.74865C278.126 8.82865 278.086 8.86865 278.006 8.86865H276.746C276.714 8.86865 276.698 8.88465 276.698 8.91665V13.8007C276.698 13.8807 276.658 13.9207 276.578 13.9207H275.666C275.586 13.9207 275.546 13.8807 275.546 13.8007V8.91665C275.546 8.88465 275.53 8.86865 275.498 8.86865H274.694C274.614 8.86865 274.574 8.82865 274.574 8.74865V7.93265C274.574 7.85265 274.614 7.81265 274.694 7.81265H275.498C275.53 7.81265 275.546 7.79665 275.546 7.76465V7.54865C275.546 7.02065 275.606 6.61265 275.726 6.32465C275.854 6.03665 276.066 5.83265 276.362 5.71265C276.658 5.58465 277.074 5.52065 277.61 5.52065H278.018C278.098 5.52065 278.138 5.56065 278.138 5.64065V6.40865C278.138 6.48865 278.098 6.52865 278.018 6.52865H277.73ZM283.96 10.1047C283.992 10.4327 284.004 10.8007 283.996 11.2087C283.996 11.2887 283.956 11.3287 283.876 11.3287H280.048C280.016 11.3287 280 11.3447 280 11.3767C280 11.6487 280.024 11.8567 280.072 12.0007C280.16 12.3207 280.336 12.5727 280.6 12.7567C280.872 12.9327 281.212 13.0207 281.62 13.0207C282.212 13.0207 282.668 12.7767 282.988 12.2887C283.028 12.2087 283.08 12.1967 283.144 12.2527L283.828 12.7087C283.884 12.7567 283.896 12.8087 283.864 12.8647C283.64 13.2247 283.32 13.5087 282.904 13.7167C282.496 13.9247 282.032 14.0287 281.512 14.0287C280.928 14.0287 280.436 13.9007 280.036 13.6447C279.636 13.3887 279.336 13.0247 279.136 12.5527C278.944 12.0807 278.848 11.5087 278.848 10.8367C278.848 10.2527 278.892 9.80865 278.98 9.50465C279.124 8.95265 279.412 8.51665 279.844 8.19665C280.276 7.87665 280.8 7.71665 281.416 7.71665C282.224 7.71665 282.828 7.92065 283.228 8.32865C283.628 8.72865 283.872 9.32065 283.96 10.1047ZM281.416 8.71265C281.072 8.71265 280.788 8.80065 280.564 8.97665C280.34 9.14465 280.188 9.37265 280.108 9.66065C280.052 9.83665 280.016 10.0607 280 10.3327C280 10.3647 280.016 10.3807 280.048 10.3807H282.796C282.828 10.3807 282.844 10.3647 282.844 10.3327C282.828 10.0687 282.804 9.87265 282.772 9.74465C282.692 9.43265 282.532 9.18465 282.292 9.00065C282.06 8.80865 281.768 8.71265 281.416 8.71265ZM286.655 13.9207C286.591 13.9207 286.547 13.8887 286.523 13.8247L284.795 7.94465L284.783 7.90865C284.783 7.84465 284.823 7.81265 284.903 7.81265H285.839C285.911 7.81265 285.955 7.84865 285.971 7.92065L287.111 12.2767C287.119 12.2927 287.127 12.3007 287.135 12.3007C287.151 12.3007 287.163 12.2927 287.171 12.2767L288.335 7.92065C288.351 7.84865 288.395 7.81265 288.467 7.81265H289.295C289.367 7.81265 289.411 7.84865 289.427 7.92065L290.615 12.2647C290.623 12.2807 290.631 12.2887 290.639 12.2887C290.655 12.2887 290.667 12.2807 290.675 12.2647L291.863 7.92065C291.879 7.84865 291.923 7.81265 291.995 7.81265L292.919 7.82465C292.959 7.82465 292.987 7.83665 293.003 7.86065C293.027 7.88465 293.035 7.91665 293.027 7.95665L291.287 13.8247C291.263 13.8887 291.219 13.9207 291.155 13.9207H290.219C290.155 13.9207 290.111 13.8887 290.087 13.8247L288.911 9.76865C288.903 9.75265 288.891 9.74465 288.875 9.74465C288.867 9.74465 288.859 9.75265 288.851 9.76865L287.735 13.8127C287.719 13.8847 287.675 13.9207 287.603 13.9207H286.655ZM298.887 13.9927C298.407 13.9927 297.983 13.9207 297.615 13.7767C297.255 13.6327 296.975 13.4367 296.775 13.1887C296.575 12.9327 296.475 12.6527 296.475 12.3487V12.2167C296.475 12.1367 296.515 12.0967 296.595 12.0967H297.459C297.539 12.0967 297.579 12.1367 297.579 12.2167V12.2767C297.579 12.5007 297.699 12.6967 297.939 12.8647C298.187 13.0327 298.499 13.1167 298.875 13.1167C299.235 13.1167 299.527 13.0407 299.751 12.8887C299.975 12.7287 300.087 12.5287 300.087 12.2887C300.087 12.0567 299.983 11.8847 299.775 11.7727C299.567 11.6527 299.231 11.5287 298.767 11.4007C298.311 11.2727 297.927 11.1447 297.615 11.0167C297.311 10.8807 297.051 10.6927 296.835 10.4527C296.627 10.2047 296.523 9.88865 296.523 9.50465C296.523 8.96865 296.731 8.54465 297.147 8.23265C297.571 7.91265 298.131 7.75265 298.827 7.75265C299.291 7.75265 299.699 7.82865 300.051 7.98065C300.411 8.12465 300.687 8.32865 300.879 8.59265C301.071 8.85665 301.167 9.15265 301.167 9.48065V9.51665C301.167 9.59665 301.127 9.63665 301.047 9.63665H300.207C300.127 9.63665 300.087 9.59665 300.087 9.51665V9.48065C300.087 9.24865 299.971 9.05665 299.739 8.90465C299.515 8.74465 299.207 8.66465 298.815 8.66465C298.463 8.66465 298.175 8.73265 297.951 8.86865C297.735 9.00465 297.627 9.18865 297.627 9.42065C297.627 9.65265 297.731 9.82865 297.939 9.94865C298.155 10.0687 298.499 10.1967 298.971 10.3327C299.435 10.4607 299.819 10.5887 300.123 10.7167C300.435 10.8367 300.699 11.0207 300.915 11.2687C301.131 11.5087 301.239 11.8247 301.239 12.2167C301.239 12.7607 301.023 13.1927 300.591 13.5127C300.167 13.8327 299.599 13.9927 298.887 13.9927ZM307.591 10.1047C307.623 10.4327 307.635 10.8007 307.627 11.2087C307.627 11.2887 307.587 11.3287 307.507 11.3287H303.679C303.647 11.3287 303.631 11.3447 303.631 11.3767C303.631 11.6487 303.655 11.8567 303.703 12.0007C303.791 12.3207 303.967 12.5727 304.231 12.7567C304.503 12.9327 304.843 13.0207 305.251 13.0207C305.843 13.0207 306.299 12.7767 306.619 12.2887C306.659 12.2087 306.711 12.1967 306.775 12.2527L307.459 12.7087C307.515 12.7567 307.527 12.8087 307.495 12.8647C307.271 13.2247 306.951 13.5087 306.535 13.7167C306.127 13.9247 305.663 14.0287 305.143 14.0287C304.559 14.0287 304.067 13.9007 303.667 13.6447C303.267 13.3887 302.967 13.0247 302.767 12.5527C302.575 12.0807 302.479 11.5087 302.479 10.8367C302.479 10.2527 302.523 9.80865 302.611 9.50465C302.755 8.95265 303.043 8.51665 303.475 8.19665C303.907 7.87665 304.431 7.71665 305.047 7.71665C305.855 7.71665 306.459 7.92065 306.859 8.32865C307.259 8.72865 307.503 9.32065 307.591 10.1047ZM305.047 8.71265C304.703 8.71265 304.419 8.80065 304.195 8.97665C303.971 9.14465 303.819 9.37265 303.739 9.66065C303.683 9.83665 303.647 10.0607 303.631 10.3327C303.631 10.3647 303.647 10.3807 303.679 10.3807H306.427C306.459 10.3807 306.475 10.3647 306.475 10.3327C306.459 10.0687 306.435 9.87265 306.403 9.74465C306.323 9.43265 306.163 9.18465 305.923 9.00065C305.691 8.80865 305.399 8.71265 305.047 8.71265ZM311.314 7.71665C311.802 7.71665 312.226 7.80465 312.586 7.98065C312.954 8.14865 313.234 8.38865 313.426 8.70065C313.626 9.00465 313.726 9.35265 313.726 9.74465V13.8007C313.726 13.8807 313.686 13.9207 313.606 13.9207H312.694C312.614 13.9207 312.574 13.8807 312.574 13.8007V13.3687C312.574 13.3287 312.554 13.3207 312.514 13.3447C312.306 13.5607 312.05 13.7287 311.746 13.8487C311.45 13.9607 311.118 14.0167 310.75 14.0167C310.158 14.0167 309.666 13.8687 309.274 13.5727C308.89 13.2687 308.698 12.8127 308.698 12.2047C308.698 11.5807 308.914 11.0927 309.346 10.7407C309.786 10.3807 310.398 10.2007 311.182 10.2007H312.526C312.558 10.2007 312.574 10.1847 312.574 10.1527V9.82865C312.574 9.47665 312.47 9.20465 312.262 9.01265C312.062 8.81265 311.754 8.71265 311.338 8.71265C311.002 8.71265 310.726 8.78065 310.51 8.91665C310.302 9.04465 310.174 9.22065 310.126 9.44465C310.102 9.52465 310.054 9.56065 309.982 9.55265L309.01 9.42065C308.93 9.40465 308.894 9.37265 308.902 9.32465C308.966 8.85265 309.218 8.46865 309.658 8.17265C310.098 7.86865 310.65 7.71665 311.314 7.71665ZM311.002 13.0447C311.426 13.0447 311.794 12.9327 312.106 12.7087C312.418 12.4847 312.574 12.2007 312.574 11.8567V11.1487C312.574 11.1167 312.558 11.1007 312.526 11.1007H311.398C310.926 11.1007 310.55 11.1927 310.27 11.3767C309.99 11.5607 309.85 11.8167 309.85 12.1447C309.85 12.4407 309.954 12.6647 310.162 12.8167C310.378 12.9687 310.658 13.0447 311.002 13.0447ZM318.271 8.64065C318.271 8.72065 318.231 8.76065 318.151 8.76065H316.855C316.823 8.76065 316.807 8.77665 316.807 8.80865V11.9887C316.807 12.3247 316.883 12.5687 317.035 12.7207C317.187 12.8647 317.423 12.9367 317.743 12.9367H318.091C318.171 12.9367 318.211 12.9767 318.211 13.0567V13.8007C318.211 13.8807 318.171 13.9207 318.091 13.9207C317.835 13.9367 317.651 13.9447 317.539 13.9447C316.931 13.9447 316.471 13.8367 316.159 13.6207C315.855 13.3967 315.703 12.9887 315.703 12.3967V8.80865C315.703 8.77665 315.687 8.76065 315.655 8.76065H314.923C314.843 8.76065 314.803 8.72065 314.803 8.64065V7.93265C314.803 7.85265 314.843 7.81265 314.923 7.81265H315.655C315.687 7.81265 315.703 7.79665 315.703 7.76465V6.34865C315.703 6.26865 315.743 6.22865 315.823 6.22865H316.687C316.767 6.22865 316.807 6.26865 316.807 6.34865V7.76465C316.807 7.79665 316.823 7.81265 316.855 7.81265H318.151C318.231 7.81265 318.271 7.85265 318.271 7.93265V8.64065ZM321.897 13.9927C321.417 13.9927 320.993 13.9207 320.625 13.7767C320.265 13.6327 319.985 13.4367 319.785 13.1887C319.585 12.9327 319.485 12.6527 319.485 12.3487V12.2167C319.485 12.1367 319.525 12.0967 319.605 12.0967H320.469C320.549 12.0967 320.589 12.1367 320.589 12.2167V12.2767C320.589 12.5007 320.709 12.6967 320.949 12.8647C321.197 13.0327 321.509 13.1167 321.885 13.1167C322.245 13.1167 322.537 13.0407 322.761 12.8887C322.985 12.7287 323.097 12.5287 323.097 12.2887C323.097 12.0567 322.993 11.8847 322.785 11.7727C322.577 11.6527 322.241 11.5287 321.777 11.4007C321.321 11.2727 320.937 11.1447 320.625 11.0167C320.321 10.8807 320.061 10.6927 319.845 10.4527C319.637 10.2047 319.533 9.88865 319.533 9.50465C319.533 8.96865 319.741 8.54465 320.157 8.23265C320.581 7.91265 321.141 7.75265 321.837 7.75265C322.301 7.75265 322.709 7.82865 323.061 7.98065C323.421 8.12465 323.697 8.32865 323.889 8.59265C324.081 8.85665 324.177 9.15265 324.177 9.48065V9.51665C324.177 9.59665 324.137 9.63665 324.057 9.63665H323.217C323.137 9.63665 323.097 9.59665 323.097 9.51665V9.48065C323.097 9.24865 322.981 9.05665 322.749 8.90465C322.525 8.74465 322.217 8.66465 321.825 8.66465C321.473 8.66465 321.185 8.73265 320.961 8.86865C320.745 9.00465 320.637 9.18865 320.637 9.42065C320.637 9.65265 320.741 9.82865 320.949 9.94865C321.165 10.0687 321.509 10.1967 321.981 10.3327C322.445 10.4607 322.829 10.5887 323.133 10.7167C323.445 10.8367 323.709 11.0207 323.925 11.2687C324.141 11.5087 324.249 11.8247 324.249 12.2167C324.249 12.7607 324.033 13.1927 323.601 13.5127C323.177 13.8327 322.609 13.9927 321.897 13.9927ZM328.239 13.9207C328.159 13.9207 328.119 13.8807 328.119 13.8007V5.64065C328.119 5.56065 328.159 5.52065 328.239 5.52065H329.151C329.231 5.52065 329.271 5.56065 329.271 5.64065V13.8007C329.271 13.8807 329.231 13.9207 329.151 13.9207H328.239ZM335.947 10.1047C335.979 10.4327 335.991 10.8007 335.983 11.2087C335.983 11.2887 335.943 11.3287 335.863 11.3287H332.035C332.003 11.3287 331.987 11.3447 331.987 11.3767C331.987 11.6487 332.011 11.8567 332.059 12.0007C332.147 12.3207 332.323 12.5727 332.587 12.7567C332.859 12.9327 333.199 13.0207 333.607 13.0207C334.199 13.0207 334.655 12.7767 334.975 12.2887C335.015 12.2087 335.067 12.1967 335.131 12.2527L335.815 12.7087C335.871 12.7567 335.883 12.8087 335.851 12.8647C335.627 13.2247 335.307 13.5087 334.891 13.7167C334.483 13.9247 334.019 14.0287 333.499 14.0287C332.915 14.0287 332.423 13.9007 332.023 13.6447C331.623 13.3887 331.323 13.0247 331.123 12.5527C330.931 12.0807 330.835 11.5087 330.835 10.8367C330.835 10.2527 330.879 9.80865 330.967 9.50465C331.111 8.95265 331.399 8.51665 331.831 8.19665C332.263 7.87665 332.787 7.71665 333.403 7.71665C334.211 7.71665 334.815 7.92065 335.215 8.32865C335.615 8.72865 335.859 9.32065 335.947 10.1047ZM333.403 8.71265C333.059 8.71265 332.775 8.80065 332.551 8.97665C332.327 9.14465 332.175 9.37265 332.095 9.66065C332.039 9.83665 332.003 10.0607 331.987 10.3327C331.987 10.3647 332.003 10.3807 332.035 10.3807H334.783C334.815 10.3807 334.831 10.3647 334.831 10.3327C334.815 10.0687 334.791 9.87265 334.759 9.74465C334.679 9.43265 334.519 9.18465 334.279 9.00065C334.047 8.80865 333.755 8.71265 333.403 8.71265ZM340.091 6.52865C339.691 6.52865 339.419 6.60465 339.275 6.75665C339.131 6.90865 339.059 7.19665 339.059 7.62065V7.76465C339.059 7.79665 339.075 7.81265 339.107 7.81265H340.367C340.447 7.81265 340.487 7.85265 340.487 7.93265V8.74865C340.487 8.82865 340.447 8.86865 340.367 8.86865H339.107C339.075 8.86865 339.059 8.88465 339.059 8.91665V13.8007C339.059 13.8807 339.019 13.9207 338.939 13.9207H338.027C337.947 13.9207 337.907 13.8807 337.907 13.8007V8.91665C337.907 8.88465 337.891 8.86865 337.859 8.86865H337.055C336.975 8.86865 336.935 8.82865 336.935 8.74865V7.93265C336.935 7.85265 336.975 7.81265 337.055 7.81265H337.859C337.891 7.81265 337.907 7.79665 337.907 7.76465V7.54865C337.907 7.02065 337.967 6.61265 338.087 6.32465C338.215 6.03665 338.427 5.83265 338.723 5.71265C339.019 5.58465 339.435 5.52065 339.971 5.52065H340.379C340.459 5.52065 340.499 5.56065 340.499 5.64065V6.40865C340.499 6.48865 340.459 6.52865 340.379 6.52865H340.091ZM344.881 8.64065C344.881 8.72065 344.841 8.76065 344.761 8.76065H343.465C343.433 8.76065 343.417 8.77665 343.417 8.80865V11.9887C343.417 12.3247 343.493 12.5687 343.645 12.7207C343.797 12.8647 344.033 12.9367 344.353 12.9367H344.701C344.781 12.9367 344.821 12.9767 344.821 13.0567V13.8007C344.821 13.8807 344.781 13.9207 344.701 13.9207C344.445 13.9367 344.261 13.9447 344.149 13.9447C343.541 13.9447 343.081 13.8367 342.769 13.6207C342.465 13.3967 342.313 12.9887 342.313 12.3967V8.80865C342.313 8.77665 342.297 8.76065 342.265 8.76065H341.533C341.453 8.76065 341.413 8.72065 341.413 8.64065V7.93265C341.413 7.85265 341.453 7.81265 341.533 7.81265H342.265C342.297 7.81265 342.313 7.79665 342.313 7.76465V6.34865C342.313 6.26865 342.353 6.22865 342.433 6.22865H343.297C343.377 6.22865 343.417 6.26865 343.417 6.34865V7.76465C343.417 7.79665 343.433 7.81265 343.465 7.81265H344.761C344.841 7.81265 344.881 7.85265 344.881 7.93265V8.64065Z" fill="#101010"/>
<circle cx="370" cy="8.92065" r="8" fill="#FF3B30"/>
<path d="M391.928 5.64065C391.928 5.56065 391.968 5.52065 392.048 5.52065H392.96C393.04 5.52065 393.08 5.56065 393.08 5.64065V13.8007C393.08 13.8807 393.04 13.9207 392.96 13.9207H392.084C392.028 13.9207 391.98 13.8927 391.94 13.8367L388.184 7.70465C388.176 7.68065 388.164 7.67265 388.148 7.68065C388.132 7.68065 388.124 7.69265 388.124 7.71665L388.136 13.8007C388.136 13.8807 388.096 13.9207 388.016 13.9207H387.104C387.024 13.9207 386.984 13.8807 386.984 13.8007V5.64065C386.984 5.56065 387.024 5.52065 387.104 5.52065H387.992C388.048 5.52065 388.096 5.54865 388.136 5.60465L391.88 11.7367C391.888 11.7607 391.9 11.7727 391.916 11.7727C391.932 11.7647 391.94 11.7487 391.94 11.7247L391.928 5.64065ZM397.47 14.0167C396.878 14.0167 396.362 13.8687 395.922 13.5727C395.482 13.2687 395.174 12.8487 394.998 12.3127C394.854 11.8807 394.782 11.3927 394.782 10.8487C394.782 10.2807 394.85 9.80065 394.986 9.40865C395.162 8.88065 395.47 8.46865 395.91 8.17265C396.35 7.86865 396.874 7.71665 397.482 7.71665C398.058 7.71665 398.558 7.86865 398.982 8.17265C399.414 8.46865 399.722 8.87665 399.906 9.39665C400.05 9.80465 400.122 10.2847 400.122 10.8367C400.122 11.3967 400.05 11.8887 399.906 12.3127C399.73 12.8487 399.426 13.2687 398.994 13.5727C398.562 13.8687 398.054 14.0167 397.47 14.0167ZM397.47 13.0207C397.79 13.0207 398.07 12.9327 398.31 12.7567C398.55 12.5727 398.722 12.3167 398.826 11.9887C398.914 11.6847 398.958 11.3087 398.958 10.8607C398.958 10.4127 398.918 10.0407 398.838 9.74465C398.734 9.41665 398.562 9.16465 398.322 8.98865C398.082 8.80465 397.79 8.71265 397.446 8.71265C397.118 8.71265 396.834 8.80465 396.594 8.98865C396.354 9.16465 396.182 9.41665 396.078 9.74465C395.99 10.0247 395.946 10.3967 395.946 10.8607C395.946 11.3247 395.99 11.7007 396.078 11.9887C396.174 12.3167 396.342 12.5727 396.582 12.7567C396.83 12.9327 397.126 13.0207 397.47 13.0207ZM410.501 7.72865C411.109 7.72865 411.589 7.91265 411.941 8.28065C412.293 8.64065 412.469 9.14465 412.469 9.79265V13.8007C412.469 13.8807 412.429 13.9207 412.349 13.9207H411.449C411.369 13.9207 411.329 13.8807 411.329 13.8007V10.0327C411.329 9.63265 411.217 9.31665 410.993 9.08465C410.777 8.84465 410.485 8.72465 410.117 8.72465C409.749 8.72465 409.449 8.84065 409.217 9.07265C408.985 9.30465 408.869 9.61665 408.869 10.0087V13.8007C408.869 13.8807 408.829 13.9207 408.749 13.9207H407.849C407.769 13.9207 407.729 13.8807 407.729 13.8007V10.0327C407.729 9.63265 407.617 9.31665 407.393 9.08465C407.177 8.84465 406.885 8.72465 406.517 8.72465C406.149 8.72465 405.853 8.84065 405.629 9.07265C405.413 9.30465 405.305 9.61665 405.305 10.0087V13.8007C405.305 13.8807 405.265 13.9207 405.185 13.9207H404.273C404.193 13.9207 404.153 13.8807 404.153 13.8007V7.93265C404.153 7.85265 404.193 7.81265 404.273 7.81265H405.185C405.265 7.81265 405.305 7.85265 405.305 7.93265V8.34065C405.305 8.35665 405.309 8.36865 405.317 8.37665C405.333 8.38465 405.349 8.38065 405.365 8.36465C405.717 7.94065 406.229 7.72865 406.901 7.72865C407.309 7.72865 407.657 7.80865 407.945 7.96865C408.233 8.12065 408.457 8.34865 408.617 8.65265C408.641 8.68465 408.665 8.68465 408.689 8.65265C408.881 8.34065 409.133 8.10865 409.445 7.95665C409.765 7.80465 410.117 7.72865 410.501 7.72865ZM416.553 14.0167C415.961 14.0167 415.445 13.8687 415.005 13.5727C414.565 13.2687 414.257 12.8487 414.081 12.3127C413.937 11.8807 413.865 11.3927 413.865 10.8487C413.865 10.2807 413.933 9.80065 414.069 9.40865C414.245 8.88065 414.553 8.46865 414.993 8.17265C415.433 7.86865 415.957 7.71665 416.565 7.71665C417.141 7.71665 417.641 7.86865 418.065 8.17265C418.497 8.46865 418.805 8.87665 418.989 9.39665C419.133 9.80465 419.205 10.2847 419.205 10.8367C419.205 11.3967 419.133 11.8887 418.989 12.3127C418.813 12.8487 418.509 13.2687 418.077 13.5727C417.645 13.8687 417.137 14.0167 416.553 14.0167ZM416.553 13.0207C416.873 13.0207 417.153 12.9327 417.393 12.7567C417.633 12.5727 417.805 12.3167 417.909 11.9887C417.997 11.6847 418.041 11.3087 418.041 10.8607C418.041 10.4127 418.001 10.0407 417.921 9.74465C417.817 9.41665 417.645 9.16465 417.405 8.98865C417.165 8.80465 416.873 8.71265 416.529 8.71265C416.201 8.71265 415.917 8.80465 415.677 8.98865C415.437 9.16465 415.265 9.41665 415.161 9.74465C415.073 10.0247 415.029 10.3967 415.029 10.8607C415.029 11.3247 415.073 11.7007 415.161 11.9887C415.257 12.3167 415.425 12.5727 415.665 12.7567C415.913 12.9327 416.209 13.0207 416.553 13.0207ZM423.449 7.75265C423.705 7.75265 423.937 7.80465 424.145 7.90865C424.201 7.93265 424.221 7.98065 424.205 8.05265L424.013 8.95265C424.005 9.02465 423.957 9.04865 423.869 9.02465C423.733 8.96865 423.573 8.94065 423.389 8.94065L423.221 8.95265C422.845 8.96865 422.533 9.10065 422.285 9.34865C422.045 9.58865 421.925 9.90465 421.925 10.2967V13.8007C421.925 13.8807 421.885 13.9207 421.805 13.9207H420.893C420.813 13.9207 420.773 13.8807 420.773 13.8007V7.93265C420.773 7.85265 420.813 7.81265 420.893 7.81265H421.805C421.885 7.81265 421.925 7.85265 421.925 7.93265V8.56865C421.925 8.59265 421.929 8.60865 421.937 8.61665C421.953 8.61665 421.965 8.60865 421.973 8.59265C422.333 8.03265 422.825 7.75265 423.449 7.75265ZM430.136 10.1047C430.168 10.4327 430.18 10.8007 430.172 11.2087C430.172 11.2887 430.132 11.3287 430.052 11.3287H426.224C426.192 11.3287 426.176 11.3447 426.176 11.3767C426.176 11.6487 426.2 11.8567 426.248 12.0007C426.336 12.3207 426.512 12.5727 426.776 12.7567C427.048 12.9327 427.388 13.0207 427.796 13.0207C428.388 13.0207 428.844 12.7767 429.164 12.2887C429.204 12.2087 429.256 12.1967 429.32 12.2527L430.004 12.7087C430.06 12.7567 430.072 12.8087 430.04 12.8647C429.816 13.2247 429.496 13.5087 429.08 13.7167C428.672 13.9247 428.208 14.0287 427.688 14.0287C427.104 14.0287 426.612 13.9007 426.212 13.6447C425.812 13.3887 425.512 13.0247 425.312 12.5527C425.12 12.0807 425.024 11.5087 425.024 10.8367C425.024 10.2527 425.068 9.80865 425.156 9.50465C425.3 8.95265 425.588 8.51665 426.02 8.19665C426.452 7.87665 426.976 7.71665 427.592 7.71665C428.4 7.71665 429.004 7.92065 429.404 8.32865C429.804 8.72865 430.048 9.32065 430.136 10.1047ZM427.592 8.71265C427.248 8.71265 426.964 8.80065 426.74 8.97665C426.516 9.14465 426.364 9.37265 426.284 9.66065C426.228 9.83665 426.192 10.0607 426.176 10.3327C426.176 10.3647 426.192 10.3807 426.224 10.3807H428.972C429.004 10.3807 429.02 10.3647 429.02 10.3327C429.004 10.0687 428.98 9.87265 428.948 9.74465C428.868 9.43265 428.708 9.18465 428.468 9.00065C428.236 8.80865 427.944 8.71265 427.592 8.71265ZM436.296 13.9927C435.816 13.9927 435.392 13.9207 435.024 13.7767C434.664 13.6327 434.384 13.4367 434.184 13.1887C433.984 12.9327 433.884 12.6527 433.884 12.3487V12.2167C433.884 12.1367 433.924 12.0967 434.004 12.0967H434.868C434.948 12.0967 434.988 12.1367 434.988 12.2167V12.2767C434.988 12.5007 435.108 12.6967 435.348 12.8647C435.596 13.0327 435.908 13.1167 436.284 13.1167C436.644 13.1167 436.936 13.0407 437.16 12.8887C437.384 12.7287 437.496 12.5287 437.496 12.2887C437.496 12.0567 437.392 11.8847 437.184 11.7727C436.976 11.6527 436.64 11.5287 436.176 11.4007C435.72 11.2727 435.336 11.1447 435.024 11.0167C434.72 10.8807 434.46 10.6927 434.244 10.4527C434.036 10.2047 433.932 9.88865 433.932 9.50465C433.932 8.96865 434.14 8.54465 434.556 8.23265C434.98 7.91265 435.54 7.75265 436.236 7.75265C436.7 7.75265 437.108 7.82865 437.46 7.98065C437.82 8.12465 438.096 8.32865 438.288 8.59265C438.48 8.85665 438.576 9.15265 438.576 9.48065V9.51665C438.576 9.59665 438.536 9.63665 438.456 9.63665H437.616C437.536 9.63665 437.496 9.59665 437.496 9.51665V9.48065C437.496 9.24865 437.38 9.05665 437.148 8.90465C436.924 8.74465 436.616 8.66465 436.224 8.66465C435.872 8.66465 435.584 8.73265 435.36 8.86865C435.144 9.00465 435.036 9.18865 435.036 9.42065C435.036 9.65265 435.14 9.82865 435.348 9.94865C435.564 10.0687 435.908 10.1967 436.38 10.3327C436.844 10.4607 437.228 10.5887 437.532 10.7167C437.844 10.8367 438.108 11.0207 438.324 11.2687C438.54 11.5087 438.648 11.8247 438.648 12.2167C438.648 12.7607 438.432 13.1927 438 13.5127C437.576 13.8327 437.008 13.9927 436.296 13.9927ZM445 10.1047C445.032 10.4327 445.044 10.8007 445.036 11.2087C445.036 11.2887 444.996 11.3287 444.916 11.3287H441.088C441.056 11.3287 441.04 11.3447 441.04 11.3767C441.04 11.6487 441.064 11.8567 441.112 12.0007C441.2 12.3207 441.376 12.5727 441.64 12.7567C441.912 12.9327 442.252 13.0207 442.66 13.0207C443.252 13.0207 443.708 12.7767 444.028 12.2887C444.068 12.2087 444.12 12.1967 444.184 12.2527L444.868 12.7087C444.924 12.7567 444.936 12.8087 444.904 12.8647C444.68 13.2247 444.36 13.5087 443.944 13.7167C443.536 13.9247 443.072 14.0287 442.552 14.0287C441.968 14.0287 441.476 13.9007 441.076 13.6447C440.676 13.3887 440.376 13.0247 440.176 12.5527C439.984 12.0807 439.888 11.5087 439.888 10.8367C439.888 10.2527 439.932 9.80865 440.02 9.50465C440.164 8.95265 440.452 8.51665 440.884 8.19665C441.316 7.87665 441.84 7.71665 442.456 7.71665C443.264 7.71665 443.868 7.92065 444.268 8.32865C444.668 8.72865 444.912 9.32065 445 10.1047ZM442.456 8.71265C442.112 8.71265 441.828 8.80065 441.604 8.97665C441.38 9.14465 441.228 9.37265 441.148 9.66065C441.092 9.83665 441.056 10.0607 441.04 10.3327C441.04 10.3647 441.056 10.3807 441.088 10.3807H443.836C443.868 10.3807 443.884 10.3647 443.884 10.3327C443.868 10.0687 443.844 9.87265 443.812 9.74465C443.732 9.43265 443.572 9.18465 443.332 9.00065C443.1 8.80865 442.808 8.71265 442.456 8.71265ZM448.723 7.71665C449.211 7.71665 449.635 7.80465 449.995 7.98065C450.363 8.14865 450.643 8.38865 450.835 8.70065C451.035 9.00465 451.135 9.35265 451.135 9.74465V13.8007C451.135 13.8807 451.095 13.9207 451.015 13.9207H450.103C450.023 13.9207 449.983 13.8807 449.983 13.8007V13.3687C449.983 13.3287 449.963 13.3207 449.923 13.3447C449.715 13.5607 449.459 13.7287 449.155 13.8487C448.859 13.9607 448.527 14.0167 448.159 14.0167C447.567 14.0167 447.075 13.8687 446.683 13.5727C446.299 13.2687 446.107 12.8127 446.107 12.2047C446.107 11.5807 446.323 11.0927 446.755 10.7407C447.195 10.3807 447.807 10.2007 448.591 10.2007H449.935C449.967 10.2007 449.983 10.1847 449.983 10.1527V9.82865C449.983 9.47665 449.879 9.20465 449.671 9.01265C449.471 8.81265 449.163 8.71265 448.747 8.71265C448.411 8.71265 448.135 8.78065 447.919 8.91665C447.711 9.04465 447.583 9.22065 447.535 9.44465C447.511 9.52465 447.463 9.56065 447.391 9.55265L446.419 9.42065C446.339 9.40465 446.303 9.37265 446.311 9.32465C446.375 8.85265 446.627 8.46865 447.067 8.17265C447.507 7.86865 448.059 7.71665 448.723 7.71665ZM448.411 13.0447C448.835 13.0447 449.203 12.9327 449.515 12.7087C449.827 12.4847 449.983 12.2007 449.983 11.8567V11.1487C449.983 11.1167 449.967 11.1007 449.935 11.1007H448.807C448.335 11.1007 447.959 11.1927 447.679 11.3767C447.399 11.5607 447.259 11.8167 447.259 12.1447C447.259 12.4407 447.363 12.6647 447.571 12.8167C447.787 12.9687 448.067 13.0447 448.411 13.0447ZM455.68 8.64065C455.68 8.72065 455.64 8.76065 455.56 8.76065H454.264C454.232 8.76065 454.216 8.77665 454.216 8.80865V11.9887C454.216 12.3247 454.292 12.5687 454.444 12.7207C454.596 12.8647 454.832 12.9367 455.152 12.9367H455.5C455.58 12.9367 455.62 12.9767 455.62 13.0567V13.8007C455.62 13.8807 455.58 13.9207 455.5 13.9207C455.244 13.9367 455.06 13.9447 454.948 13.9447C454.34 13.9447 453.88 13.8367 453.568 13.6207C453.264 13.3967 453.112 12.9887 453.112 12.3967V8.80865C453.112 8.77665 453.096 8.76065 453.064 8.76065H452.332C452.252 8.76065 452.212 8.72065 452.212 8.64065V7.93265C452.212 7.85265 452.252 7.81265 452.332 7.81265H453.064C453.096 7.81265 453.112 7.79665 453.112 7.76465V6.34865C453.112 6.26865 453.152 6.22865 453.232 6.22865H454.096C454.176 6.22865 454.216 6.26865 454.216 6.34865V7.76465C454.216 7.79665 454.232 7.81265 454.264 7.81265H455.56C455.64 7.81265 455.68 7.85265 455.68 7.93265V8.64065ZM459.306 13.9927C458.826 13.9927 458.402 13.9207 458.034 13.7767C457.674 13.6327 457.394 13.4367 457.194 13.1887C456.994 12.9327 456.894 12.6527 456.894 12.3487V12.2167C456.894 12.1367 456.934 12.0967 457.014 12.0967H457.878C457.958 12.0967 457.998 12.1367 457.998 12.2167V12.2767C457.998 12.5007 458.118 12.6967 458.358 12.8647C458.606 13.0327 458.918 13.1167 459.294 13.1167C459.654 13.1167 459.946 13.0407 460.17 12.8887C460.394 12.7287 460.506 12.5287 460.506 12.2887C460.506 12.0567 460.402 11.8847 460.194 11.7727C459.986 11.6527 459.65 11.5287 459.186 11.4007C458.73 11.2727 458.346 11.1447 458.034 11.0167C457.73 10.8807 457.47 10.6927 457.254 10.4527C457.046 10.2047 456.942 9.88865 456.942 9.50465C456.942 8.96865 457.15 8.54465 457.566 8.23265C457.99 7.91265 458.55 7.75265 459.246 7.75265C459.71 7.75265 460.118 7.82865 460.47 7.98065C460.83 8.12465 461.106 8.32865 461.298 8.59265C461.49 8.85665 461.586 9.15265 461.586 9.48065V9.51665C461.586 9.59665 461.546 9.63665 461.466 9.63665H460.626C460.546 9.63665 460.506 9.59665 460.506 9.51665V9.48065C460.506 9.24865 460.39 9.05665 460.158 8.90465C459.934 8.74465 459.626 8.66465 459.234 8.66465C458.882 8.66465 458.594 8.73265 458.37 8.86865C458.154 9.00465 458.046 9.18865 458.046 9.42065C458.046 9.65265 458.15 9.82865 458.358 9.94865C458.574 10.0687 458.918 10.1967 459.39 10.3327C459.854 10.4607 460.238 10.5887 460.542 10.7167C460.854 10.8367 461.118 11.0207 461.334 11.2687C461.55 11.5087 461.658 11.8247 461.658 12.2167C461.658 12.7607 461.442 13.1927 461.01 13.5127C460.586 13.8327 460.018 13.9927 459.306 13.9927ZM467.76 7.71665C468.248 7.71665 468.672 7.80465 469.032 7.98065C469.4 8.14865 469.68 8.38865 469.872 8.70065C470.072 9.00465 470.172 9.35265 470.172 9.74465V13.8007C470.172 13.8807 470.132 13.9207 470.052 13.9207H469.14C469.06 13.9207 469.02 13.8807 469.02 13.8007V13.3687C469.02 13.3287 469 13.3207 468.96 13.3447C468.752 13.5607 468.496 13.7287 468.192 13.8487C467.896 13.9607 467.564 14.0167 467.196 14.0167C466.604 14.0167 466.112 13.8687 465.72 13.5727C465.336 13.2687 465.144 12.8127 465.144 12.2047C465.144 11.5807 465.36 11.0927 465.792 10.7407C466.232 10.3807 466.844 10.2007 467.628 10.2007H468.972C469.004 10.2007 469.02 10.1847 469.02 10.1527V9.82865C469.02 9.47665 468.916 9.20465 468.708 9.01265C468.508 8.81265 468.2 8.71265 467.784 8.71265C467.448 8.71265 467.172 8.78065 466.956 8.91665C466.748 9.04465 466.62 9.22065 466.572 9.44465C466.548 9.52465 466.5 9.56065 466.428 9.55265L465.456 9.42065C465.376 9.40465 465.34 9.37265 465.348 9.32465C465.412 8.85265 465.664 8.46865 466.104 8.17265C466.544 7.86865 467.096 7.71665 467.76 7.71665ZM467.448 13.0447C467.872 13.0447 468.24 12.9327 468.552 12.7087C468.864 12.4847 469.02 12.2007 469.02 11.8567V11.1487C469.02 11.1167 469.004 11.1007 468.972 11.1007H467.844C467.372 11.1007 466.996 11.1927 466.716 11.3767C466.436 11.5607 466.296 11.8167 466.296 12.1447C466.296 12.4407 466.4 12.6647 466.608 12.8167C466.824 12.9687 467.104 13.0447 467.448 13.0447ZM473.289 13.9207C473.217 13.9207 473.169 13.8887 473.145 13.8247L471.189 7.94465L471.177 7.89665C471.177 7.84065 471.213 7.81265 471.285 7.81265H472.293C472.365 7.81265 472.413 7.84465 472.437 7.90865L473.757 12.2527C473.765 12.2687 473.777 12.2767 473.793 12.2767C473.809 12.2767 473.821 12.2687 473.829 12.2527L475.137 7.90865C475.161 7.84465 475.209 7.81265 475.281 7.81265L476.289 7.82465C476.377 7.82465 476.409 7.86865 476.385 7.95665L474.441 13.8247C474.417 13.8887 474.369 13.9207 474.297 13.9207H473.289ZM479.669 7.71665C480.157 7.71665 480.581 7.80465 480.941 7.98065C481.309 8.14865 481.589 8.38865 481.781 8.70065C481.981 9.00465 482.081 9.35265 482.081 9.74465V13.8007C482.081 13.8807 482.041 13.9207 481.961 13.9207H481.049C480.969 13.9207 480.929 13.8807 480.929 13.8007V13.3687C480.929 13.3287 480.909 13.3207 480.869 13.3447C480.661 13.5607 480.405 13.7287 480.101 13.8487C479.805 13.9607 479.473 14.0167 479.105 14.0167C478.513 14.0167 478.021 13.8687 477.629 13.5727C477.245 13.2687 477.053 12.8127 477.053 12.2047C477.053 11.5807 477.269 11.0927 477.701 10.7407C478.141 10.3807 478.753 10.2007 479.537 10.2007H480.881C480.913 10.2007 480.929 10.1847 480.929 10.1527V9.82865C480.929 9.47665 480.825 9.20465 480.617 9.01265C480.417 8.81265 480.109 8.71265 479.693 8.71265C479.357 8.71265 479.081 8.78065 478.865 8.91665C478.657 9.04465 478.529 9.22065 478.481 9.44465C478.457 9.52465 478.409 9.56065 478.337 9.55265L477.365 9.42065C477.285 9.40465 477.249 9.37265 477.257 9.32465C477.321 8.85265 477.573 8.46865 478.013 8.17265C478.453 7.86865 479.005 7.71665 479.669 7.71665ZM479.357 13.0447C479.781 13.0447 480.149 12.9327 480.461 12.7087C480.773 12.4847 480.929 12.2007 480.929 11.8567V11.1487C480.929 11.1167 480.913 11.1007 480.881 11.1007H479.753C479.281 11.1007 478.905 11.1927 478.625 11.3767C478.345 11.5607 478.205 11.8167 478.205 12.1447C478.205 12.4407 478.309 12.6647 478.517 12.8167C478.733 12.9687 479.013 13.0447 479.357 13.0447ZM484.392 6.85265C484.168 6.85265 483.984 6.78065 483.84 6.63665C483.696 6.49265 483.624 6.30865 483.624 6.08465C483.624 5.86065 483.696 5.67665 483.84 5.53265C483.984 5.38865 484.168 5.31665 484.392 5.31665C484.616 5.31665 484.8 5.38865 484.944 5.53265C485.088 5.67665 485.16 5.86065 485.16 6.08465C485.16 6.30865 485.088 6.49265 484.944 6.63665C484.8 6.78065 484.616 6.85265 484.392 6.85265ZM483.912 13.9087C483.832 13.9087 483.792 13.8687 483.792 13.7887V7.93265C483.792 7.85265 483.832 7.81265 483.912 7.81265H484.824C484.904 7.81265 484.944 7.85265 484.944 7.93265V13.7887C484.944 13.8687 484.904 13.9087 484.824 13.9087H483.912ZM486.935 13.9207C486.855 13.9207 486.815 13.8807 486.815 13.8007V5.64065C486.815 5.56065 486.855 5.52065 486.935 5.52065H487.847C487.927 5.52065 487.967 5.56065 487.967 5.64065V13.8007C487.967 13.8807 487.927 13.9207 487.847 13.9207H486.935ZM491.931 7.71665C492.419 7.71665 492.843 7.80465 493.203 7.98065C493.571 8.14865 493.851 8.38865 494.043 8.70065C494.243 9.00465 494.343 9.35265 494.343 9.74465V13.8007C494.343 13.8807 494.303 13.9207 494.223 13.9207H493.311C493.231 13.9207 493.191 13.8807 493.191 13.8007V13.3687C493.191 13.3287 493.171 13.3207 493.131 13.3447C492.923 13.5607 492.667 13.7287 492.363 13.8487C492.067 13.9607 491.735 14.0167 491.367 14.0167C490.775 14.0167 490.283 13.8687 489.891 13.5727C489.507 13.2687 489.315 12.8127 489.315 12.2047C489.315 11.5807 489.531 11.0927 489.963 10.7407C490.403 10.3807 491.015 10.2007 491.799 10.2007H493.143C493.175 10.2007 493.191 10.1847 493.191 10.1527V9.82865C493.191 9.47665 493.087 9.20465 492.879 9.01265C492.679 8.81265 492.371 8.71265 491.955 8.71265C491.619 8.71265 491.343 8.78065 491.127 8.91665C490.919 9.04465 490.791 9.22065 490.743 9.44465C490.719 9.52465 490.671 9.56065 490.599 9.55265L489.627 9.42065C489.547 9.40465 489.511 9.37265 489.519 9.32465C489.583 8.85265 489.835 8.46865 490.275 8.17265C490.715 7.86865 491.267 7.71665 491.931 7.71665ZM491.619 13.0447C492.043 13.0447 492.411 12.9327 492.723 12.7087C493.035 12.4847 493.191 12.2007 493.191 11.8567V11.1487C493.191 11.1167 493.175 11.1007 493.143 11.1007H492.015C491.543 11.1007 491.167 11.1927 490.887 11.3767C490.607 11.5607 490.467 11.8167 490.467 12.1447C490.467 12.4407 490.571 12.6647 490.779 12.8167C490.995 12.9687 491.275 13.0447 491.619 13.0447ZM500.89 9.39665C501.018 9.80465 501.082 10.2887 501.082 10.8487C501.082 11.4487 501.006 11.9607 500.854 12.3847C500.678 12.9047 500.398 13.3087 500.014 13.5967C499.638 13.8767 499.162 14.0167 498.586 14.0167C498.306 14.0167 498.046 13.9607 497.806 13.8487C497.566 13.7367 497.358 13.5807 497.182 13.3807C497.166 13.3647 497.15 13.3607 497.134 13.3687C497.126 13.3767 497.122 13.3887 497.122 13.4047V13.8007C497.122 13.8807 497.082 13.9207 497.002 13.9207H496.09C496.01 13.9207 495.97 13.8807 495.97 13.8007V5.64065C495.97 5.56065 496.01 5.52065 496.09 5.52065H497.002C497.082 5.52065 497.122 5.56065 497.122 5.64065V8.31665C497.122 8.33265 497.126 8.34465 497.134 8.35265C497.15 8.36065 497.166 8.35665 497.182 8.34065C497.358 8.14065 497.566 7.98865 497.806 7.88465C498.054 7.77265 498.314 7.71665 498.586 7.71665C499.186 7.71665 499.678 7.86465 500.062 8.16065C500.446 8.45665 500.722 8.86865 500.89 9.39665ZM499.618 12.3607C499.818 11.9847 499.918 11.4887 499.918 10.8727C499.918 10.2167 499.79 9.68865 499.534 9.28865C499.302 8.90465 498.946 8.71265 498.466 8.71265C498.018 8.71265 497.678 8.91665 497.446 9.32465C497.238 9.69265 497.134 10.2047 497.134 10.8607C497.134 11.5167 497.23 12.0207 497.422 12.3727C497.662 12.8047 498.014 13.0207 498.478 13.0207C499.006 13.0207 499.386 12.8007 499.618 12.3607ZM502.771 13.9207C502.691 13.9207 502.651 13.8807 502.651 13.8007V5.64065C502.651 5.56065 502.691 5.52065 502.771 5.52065H503.683C503.763 5.52065 503.803 5.56065 503.803 5.64065V13.8007C503.803 13.8807 503.763 13.9207 503.683 13.9207H502.771ZM510.479 10.1047C510.511 10.4327 510.523 10.8007 510.515 11.2087C510.515 11.2887 510.475 11.3287 510.395 11.3287H506.567C506.535 11.3287 506.519 11.3447 506.519 11.3767C506.519 11.6487 506.543 11.8567 506.591 12.0007C506.679 12.3207 506.855 12.5727 507.119 12.7567C507.391 12.9327 507.731 13.0207 508.139 13.0207C508.731 13.0207 509.187 12.7767 509.507 12.2887C509.547 12.2087 509.599 12.1967 509.663 12.2527L510.347 12.7087C510.403 12.7567 510.415 12.8087 510.383 12.8647C510.159 13.2247 509.839 13.5087 509.423 13.7167C509.015 13.9247 508.551 14.0287 508.031 14.0287C507.447 14.0287 506.955 13.9007 506.555 13.6447C506.155 13.3887 505.855 13.0247 505.655 12.5527C505.463 12.0807 505.367 11.5087 505.367 10.8367C505.367 10.2527 505.411 9.80865 505.499 9.50465C505.643 8.95265 505.931 8.51665 506.363 8.19665C506.795 7.87665 507.319 7.71665 507.935 7.71665C508.743 7.71665 509.347 7.92065 509.747 8.32865C510.147 8.72865 510.391 9.32065 510.479 10.1047ZM507.935 8.71265C507.591 8.71265 507.307 8.80065 507.083 8.97665C506.859 9.14465 506.707 9.37265 506.627 9.66065C506.571 9.83665 506.535 10.0607 506.519 10.3327C506.519 10.3647 506.535 10.3807 506.567 10.3807H509.315C509.347 10.3807 509.363 10.3647 509.363 10.3327C509.347 10.0687 509.323 9.87265 509.291 9.74465C509.211 9.43265 509.051 9.18465 508.811 9.00065C508.579 8.80865 508.287 8.71265 507.935 8.71265Z" fill="#101010"/>
</svg>
