<svg width="296" height="89" viewBox="0 0 296 89" fill="none" xmlns="http://www.w3.org/2000/svg">
<rect y="0.920654" width="296" height="88" rx="8" fill="#F1F1F1"/>
<circle cx="22" cy="20.9207" r="8" fill="#F9B9BB"/>
<path d="M44.324 17.5207C44.404 17.5207 44.444 17.5607 44.444 17.6407V18.4087C44.444 18.4887 44.404 18.5287 44.324 18.5287H42.02C41.988 18.5287 41.972 18.5447 41.972 18.5767V25.8007C41.972 25.8807 41.932 25.9207 41.852 25.9207H40.94C40.86 25.9207 40.82 25.8807 40.82 25.8007V18.5767C40.82 18.5447 40.804 18.5287 40.772 18.5287H38.576C38.496 18.5287 38.456 18.4887 38.456 18.4087V17.6407C38.456 17.5607 38.496 17.5207 38.576 17.5207H44.324ZM47.3843 26.0167C46.7923 26.0167 46.2763 25.8687 45.8363 25.5727C45.3963 25.2687 45.0883 24.8487 44.9123 24.3127C44.7683 23.8807 44.6963 23.3927 44.6963 22.8487C44.6963 22.2807 44.7643 21.8007 44.9003 21.4087C45.0763 20.8807 45.3843 20.4687 45.8243 20.1727C46.2643 19.8687 46.7883 19.7167 47.3963 19.7167C47.9723 19.7167 48.4723 19.8687 48.8963 20.1727C49.3283 20.4687 49.6363 20.8767 49.8203 21.3967C49.9643 21.8047 50.0363 22.2847 50.0363 22.8367C50.0363 23.3967 49.9643 23.8887 49.8203 24.3127C49.6443 24.8487 49.3403 25.2687 48.9083 25.5727C48.4763 25.8687 47.9683 26.0167 47.3843 26.0167ZM47.3843 25.0207C47.7043 25.0207 47.9843 24.9327 48.2243 24.7567C48.4643 24.5727 48.6363 24.3167 48.7403 23.9887C48.8283 23.6847 48.8723 23.3087 48.8723 22.8607C48.8723 22.4127 48.8323 22.0407 48.7523 21.7447C48.6483 21.4167 48.4763 21.1647 48.2363 20.9887C47.9963 20.8047 47.7043 20.7127 47.3603 20.7127C47.0323 20.7127 46.7483 20.8047 46.5083 20.9887C46.2683 21.1647 46.0963 21.4167 45.9923 21.7447C45.9043 22.0247 45.8603 22.3967 45.8603 22.8607C45.8603 23.3247 45.9043 23.7007 45.9923 23.9887C46.0883 24.3167 46.2563 24.5727 46.4963 24.7567C46.7443 24.9327 47.0403 25.0207 47.3843 25.0207ZM55.3965 17.6407C55.3965 17.5607 55.4365 17.5207 55.5165 17.5207H56.4285C56.5085 17.5207 56.5485 17.5607 56.5485 17.6407V25.8007C56.5485 25.8807 56.5085 25.9207 56.4285 25.9207H55.5165C55.4365 25.9207 55.3965 25.8807 55.3965 25.8007V25.4047C55.3965 25.3887 55.3885 25.3767 55.3725 25.3687C55.3645 25.3607 55.3525 25.3647 55.3365 25.3807C55.1605 25.5807 54.9525 25.7367 54.7125 25.8487C54.4725 25.9607 54.2125 26.0167 53.9325 26.0167C53.3565 26.0167 52.8765 25.8767 52.4925 25.5967C52.1165 25.3087 51.8405 24.9047 51.6645 24.3847C51.5125 23.9607 51.4365 23.4487 51.4365 22.8487C51.4365 22.2887 51.5005 21.8047 51.6285 21.3967C51.7965 20.8687 52.0725 20.4567 52.4565 20.1607C52.8405 19.8647 53.3325 19.7167 53.9325 19.7167C54.2045 19.7167 54.4605 19.7727 54.7005 19.8847C54.9485 19.9887 55.1605 20.1407 55.3365 20.3407C55.3525 20.3567 55.3645 20.3607 55.3725 20.3527C55.3885 20.3447 55.3965 20.3327 55.3965 20.3167V17.6407ZM55.0965 24.3727C55.2805 24.0367 55.3725 23.5327 55.3725 22.8607C55.3725 22.1887 55.2725 21.6767 55.0725 21.3247C54.8405 20.9167 54.5005 20.7127 54.0525 20.7127C53.5725 20.7127 53.2165 20.9047 52.9845 21.2887C52.7285 21.6887 52.6005 22.2167 52.6005 22.8727C52.6005 23.4887 52.7005 23.9847 52.9005 24.3607C53.1325 24.8007 53.5125 25.0207 54.0405 25.0207C54.5045 25.0207 54.8565 24.8047 55.0965 24.3727ZM60.5293 19.7167C61.0173 19.7167 61.4413 19.8047 61.8013 19.9807C62.1693 20.1487 62.4493 20.3887 62.6413 20.7007C62.8413 21.0047 62.9413 21.3527 62.9413 21.7447V25.8007C62.9413 25.8807 62.9013 25.9207 62.8213 25.9207H61.9093C61.8293 25.9207 61.7893 25.8807 61.7893 25.8007V25.3687C61.7893 25.3287 61.7693 25.3207 61.7293 25.3447C61.5213 25.5607 61.2653 25.7287 60.9613 25.8487C60.6653 25.9607 60.3333 26.0167 59.9653 26.0167C59.3733 26.0167 58.8813 25.8687 58.4893 25.5727C58.1053 25.2687 57.9133 24.8127 57.9133 24.2047C57.9133 23.5807 58.1293 23.0927 58.5613 22.7407C59.0013 22.3807 59.6133 22.2007 60.3973 22.2007H61.7413C61.7733 22.2007 61.7893 22.1847 61.7893 22.1527V21.8287C61.7893 21.4767 61.6853 21.2047 61.4773 21.0127C61.2773 20.8127 60.9693 20.7127 60.5533 20.7127C60.2173 20.7127 59.9413 20.7807 59.7253 20.9167C59.5173 21.0447 59.3893 21.2207 59.3413 21.4447C59.3173 21.5247 59.2693 21.5607 59.1973 21.5527L58.2253 21.4207C58.1453 21.4047 58.1093 21.3727 58.1173 21.3247C58.1813 20.8527 58.4333 20.4687 58.8733 20.1727C59.3133 19.8687 59.8653 19.7167 60.5293 19.7167ZM60.2173 25.0447C60.6413 25.0447 61.0093 24.9327 61.3213 24.7087C61.6333 24.4847 61.7893 24.2007 61.7893 23.8567V23.1487C61.7893 23.1167 61.7733 23.1007 61.7413 23.1007H60.6133C60.1413 23.1007 59.7653 23.1927 59.4853 23.3767C59.2053 23.5607 59.0653 23.8167 59.0653 24.1447C59.0653 24.4407 59.1693 24.6647 59.3773 24.8167C59.5933 24.9687 59.8733 25.0447 60.2173 25.0447ZM64.2711 28.3087C64.2151 28.3087 64.1871 28.2687 64.1871 28.1887V27.4807C64.1871 27.4007 64.2271 27.3607 64.3071 27.3607H64.3311C64.6511 27.3527 64.9031 27.3127 65.0871 27.2407C65.2711 27.1687 65.4231 27.0327 65.5431 26.8327C65.6631 26.6407 65.7791 26.3487 65.8911 25.9567C65.8991 25.9487 65.8991 25.9367 65.8911 25.9207C65.8911 25.8967 65.8911 25.8847 65.8911 25.8847L63.8871 19.9447L63.8751 19.8967C63.8751 19.8407 63.9111 19.8127 63.9831 19.8127H64.9551C65.0271 19.8127 65.0751 19.8447 65.0991 19.9087L66.4551 24.4327C66.4631 24.4487 66.4751 24.4567 66.4911 24.4567C66.5071 24.4567 66.5191 24.4487 66.5271 24.4327L67.8711 19.9087C67.8951 19.8447 67.9431 19.8127 68.0151 19.8127H68.9631C69.0511 19.8127 69.0831 19.8567 69.0591 19.9447L66.8751 26.3407C66.6911 26.8927 66.5071 27.3007 66.3231 27.5647C66.1391 27.8367 65.8991 28.0287 65.6031 28.1407C65.3071 28.2527 64.8911 28.3087 64.3551 28.3087H64.2711ZM71.7758 17.5207C71.8158 17.5207 71.8438 17.5367 71.8598 17.5687C71.8838 17.5927 71.8878 17.6247 71.8718 17.6647L70.9358 19.9687C70.9118 20.0327 70.8678 20.0647 70.8038 20.0647H70.1198C70.0798 20.0647 70.0478 20.0527 70.0238 20.0287C70.0078 20.0047 70.0038 19.9727 70.0118 19.9327L70.7078 17.6167C70.7318 17.5527 70.7798 17.5207 70.8518 17.5207H71.7758ZM74.2425 25.9927C73.7625 25.9927 73.3385 25.9207 72.9705 25.7767C72.6105 25.6327 72.3305 25.4367 72.1305 25.1887C71.9305 24.9327 71.8305 24.6527 71.8305 24.3487V24.2167C71.8305 24.1367 71.8705 24.0967 71.9505 24.0967H72.8145C72.8945 24.0967 72.9345 24.1367 72.9345 24.2167V24.2767C72.9345 24.5007 73.0545 24.6967 73.2945 24.8647C73.5425 25.0327 73.8545 25.1167 74.2305 25.1167C74.5905 25.1167 74.8825 25.0407 75.1065 24.8887C75.3305 24.7287 75.4425 24.5287 75.4425 24.2887C75.4425 24.0567 75.3385 23.8847 75.1305 23.7727C74.9225 23.6527 74.5865 23.5287 74.1225 23.4007C73.6665 23.2727 73.2825 23.1447 72.9705 23.0167C72.6665 22.8807 72.4065 22.6927 72.1905 22.4527C71.9825 22.2047 71.8785 21.8887 71.8785 21.5047C71.8785 20.9687 72.0865 20.5447 72.5025 20.2327C72.9265 19.9127 73.4865 19.7527 74.1825 19.7527C74.6465 19.7527 75.0545 19.8287 75.4065 19.9807C75.7665 20.1247 76.0425 20.3287 76.2345 20.5927C76.4265 20.8567 76.5225 21.1527 76.5225 21.4807V21.5167C76.5225 21.5967 76.4825 21.6367 76.4025 21.6367H75.5625C75.4825 21.6367 75.4425 21.5967 75.4425 21.5167V21.4807C75.4425 21.2487 75.3265 21.0567 75.0945 20.9047C74.8705 20.7447 74.5625 20.6647 74.1705 20.6647C73.8185 20.6647 73.5305 20.7327 73.3065 20.8687C73.0905 21.0047 72.9825 21.1887 72.9825 21.4207C72.9825 21.6527 73.0865 21.8287 73.2945 21.9487C73.5105 22.0687 73.8545 22.1967 74.3265 22.3327C74.7905 22.4607 75.1745 22.5887 75.4785 22.7167C75.7905 22.8367 76.0545 23.0207 76.2705 23.2687C76.4865 23.5087 76.5945 23.8247 76.5945 24.2167C76.5945 24.7607 76.3785 25.1927 75.9465 25.5127C75.5225 25.8327 74.9545 25.9927 74.2425 25.9927ZM84.2565 17.6407C84.2565 17.5607 84.2965 17.5207 84.3765 17.5207H85.2885C85.3685 17.5207 85.4085 17.5607 85.4085 17.6407V25.8007C85.4085 25.8807 85.3685 25.9207 85.2885 25.9207H84.3765C84.2965 25.9207 84.2565 25.8807 84.2565 25.8007V25.4047C84.2565 25.3887 84.2485 25.3767 84.2325 25.3687C84.2245 25.3607 84.2125 25.3647 84.1965 25.3807C84.0205 25.5807 83.8125 25.7367 83.5725 25.8487C83.3325 25.9607 83.0725 26.0167 82.7925 26.0167C82.2165 26.0167 81.7365 25.8767 81.3525 25.5967C80.9765 25.3087 80.7005 24.9047 80.5245 24.3847C80.3725 23.9607 80.2965 23.4487 80.2965 22.8487C80.2965 22.2887 80.3605 21.8047 80.4885 21.3967C80.6565 20.8687 80.9325 20.4567 81.3165 20.1607C81.7005 19.8647 82.1925 19.7167 82.7925 19.7167C83.0645 19.7167 83.3205 19.7727 83.5605 19.8847C83.8085 19.9887 84.0205 20.1407 84.1965 20.3407C84.2125 20.3567 84.2245 20.3607 84.2325 20.3527C84.2485 20.3447 84.2565 20.3327 84.2565 20.3167V17.6407ZM83.9565 24.3727C84.1405 24.0367 84.2325 23.5327 84.2325 22.8607C84.2325 22.1887 84.1325 21.6767 83.9325 21.3247C83.7005 20.9167 83.3605 20.7127 82.9125 20.7127C82.4325 20.7127 82.0765 20.9047 81.8445 21.2887C81.5885 21.6887 81.4605 22.2167 81.4605 22.8727C81.4605 23.4887 81.5605 23.9847 81.7605 24.3607C81.9925 24.8007 82.3725 25.0207 82.9005 25.0207C83.3645 25.0207 83.7165 24.8047 83.9565 24.3727ZM89.3893 19.7167C89.8773 19.7167 90.3013 19.8047 90.6613 19.9807C91.0293 20.1487 91.3093 20.3887 91.5013 20.7007C91.7013 21.0047 91.8013 21.3527 91.8013 21.7447V25.8007C91.8013 25.8807 91.7613 25.9207 91.6813 25.9207H90.7693C90.6893 25.9207 90.6493 25.8807 90.6493 25.8007V25.3687C90.6493 25.3287 90.6293 25.3207 90.5893 25.3447C90.3813 25.5607 90.1253 25.7287 89.8213 25.8487C89.5253 25.9607 89.1933 26.0167 88.8253 26.0167C88.2333 26.0167 87.7413 25.8687 87.3493 25.5727C86.9653 25.2687 86.7733 24.8127 86.7733 24.2047C86.7733 23.5807 86.9893 23.0927 87.4213 22.7407C87.8613 22.3807 88.4733 22.2007 89.2573 22.2007H90.6013C90.6333 22.2007 90.6493 22.1847 90.6493 22.1527V21.8287C90.6493 21.4767 90.5453 21.2047 90.3373 21.0127C90.1373 20.8127 89.8293 20.7127 89.4133 20.7127C89.0773 20.7127 88.8013 20.7807 88.5853 20.9167C88.3773 21.0447 88.2493 21.2207 88.2013 21.4447C88.1773 21.5247 88.1293 21.5607 88.0573 21.5527L87.0853 21.4207C87.0053 21.4047 86.9693 21.3727 86.9773 21.3247C87.0413 20.8527 87.2933 20.4687 87.7333 20.1727C88.1733 19.8687 88.7253 19.7167 89.3893 19.7167ZM89.0773 25.0447C89.5013 25.0447 89.8693 24.9327 90.1813 24.7087C90.4933 24.4847 90.6493 24.2007 90.6493 23.8567V23.1487C90.6493 23.1167 90.6333 23.1007 90.6013 23.1007H89.4733C89.0013 23.1007 88.6253 23.1927 88.3453 23.3767C88.0653 23.5607 87.9253 23.8167 87.9253 24.1447C87.9253 24.4407 88.0293 24.6647 88.2373 24.8167C88.4533 24.9687 88.7333 25.0447 89.0773 25.0447ZM96.3465 20.6407C96.3465 20.7207 96.3065 20.7607 96.2265 20.7607H94.9305C94.8985 20.7607 94.8825 20.7767 94.8825 20.8087V23.9887C94.8825 24.3247 94.9585 24.5687 95.1105 24.7207C95.2625 24.8647 95.4985 24.9367 95.8185 24.9367H96.1665C96.2465 24.9367 96.2865 24.9767 96.2865 25.0567V25.8007C96.2865 25.8807 96.2465 25.9207 96.1665 25.9207C95.9105 25.9367 95.7265 25.9447 95.6145 25.9447C95.0065 25.9447 94.5465 25.8367 94.2345 25.6207C93.9305 25.3967 93.7785 24.9887 93.7785 24.3967V20.8087C93.7785 20.7767 93.7625 20.7607 93.7305 20.7607H92.9985C92.9185 20.7607 92.8785 20.7207 92.8785 20.6407V19.9327C92.8785 19.8527 92.9185 19.8127 92.9985 19.8127H93.7305C93.7625 19.8127 93.7785 19.7967 93.7785 19.7647V18.3487C93.7785 18.2687 93.8185 18.2287 93.8985 18.2287H94.7625C94.8425 18.2287 94.8825 18.2687 94.8825 18.3487V19.7647C94.8825 19.7967 94.8985 19.8127 94.9305 19.8127H96.2265C96.3065 19.8127 96.3465 19.8527 96.3465 19.9327V20.6407ZM102.628 22.1047C102.66 22.4327 102.672 22.8007 102.664 23.2087C102.664 23.2887 102.624 23.3287 102.544 23.3287H98.7156C98.6836 23.3287 98.6676 23.3447 98.6676 23.3767C98.6676 23.6487 98.6916 23.8567 98.7396 24.0007C98.8276 24.3207 99.0036 24.5727 99.2676 24.7567C99.5396 24.9327 99.8796 25.0207 100.288 25.0207C100.88 25.0207 101.336 24.7767 101.656 24.2887C101.696 24.2087 101.748 24.1967 101.812 24.2527L102.496 24.7087C102.552 24.7567 102.564 24.8087 102.532 24.8647C102.308 25.2247 101.988 25.5087 101.572 25.7167C101.164 25.9247 100.7 26.0287 100.18 26.0287C99.5956 26.0287 99.1036 25.9007 98.7036 25.6447C98.3036 25.3887 98.0036 25.0247 97.8036 24.5527C97.6116 24.0807 97.5156 23.5087 97.5156 22.8367C97.5156 22.2527 97.5596 21.8087 97.6476 21.5047C97.7916 20.9527 98.0796 20.5167 98.5116 20.1967C98.9436 19.8767 99.4676 19.7167 100.084 19.7167C100.892 19.7167 101.496 19.9207 101.896 20.3287C102.296 20.7287 102.54 21.3207 102.628 22.1047ZM100.084 20.7127C99.7396 20.7127 99.4556 20.8007 99.2316 20.9767C99.0076 21.1447 98.8556 21.3727 98.7756 21.6607C98.7196 21.8367 98.6836 22.0607 98.6676 22.3327C98.6676 22.3647 98.6836 22.3807 98.7156 22.3807H101.464C101.496 22.3807 101.512 22.3647 101.512 22.3327C101.496 22.0687 101.472 21.8727 101.44 21.7447C101.36 21.4327 101.2 21.1847 100.96 21.0007C100.728 20.8087 100.436 20.7127 100.084 20.7127Z" fill="#101010"/>
<circle cx="187" cy="20.9207" r="8" fill="#34C759"/>
<path d="M209.084 25.9207C209.012 25.9207 208.964 25.8887 208.94 25.8247L208.508 24.4207C208.5 24.3967 208.484 24.3847 208.46 24.3847H205.088C205.064 24.3847 205.048 24.3967 205.04 24.4207L204.608 25.8247C204.584 25.8887 204.536 25.9207 204.464 25.9207H203.492C203.404 25.9207 203.372 25.8767 203.396 25.7887L206.024 17.6167C206.048 17.5527 206.096 17.5207 206.168 17.5207H207.368C207.44 17.5207 207.488 17.5527 207.512 17.6167L210.164 25.7887L210.176 25.8367C210.176 25.8927 210.14 25.9207 210.068 25.9207H209.084ZM205.34 23.4127C205.332 23.4287 205.332 23.4447 205.34 23.4607C205.356 23.4687 205.372 23.4727 205.388 23.4727H208.148C208.164 23.4727 208.176 23.4687 208.184 23.4607C208.2 23.4447 208.204 23.4287 208.196 23.4127L206.804 18.9607C206.796 18.9447 206.784 18.9367 206.768 18.9367C206.752 18.9367 206.74 18.9447 206.732 18.9607L205.34 23.4127ZM212.621 25.9207C212.549 25.9207 212.501 25.8887 212.477 25.8247L210.521 19.9447L210.509 19.8967C210.509 19.8407 210.545 19.8127 210.617 19.8127H211.625C211.697 19.8127 211.745 19.8447 211.769 19.9087L213.089 24.2527C213.097 24.2687 213.109 24.2767 213.125 24.2767C213.141 24.2767 213.153 24.2687 213.161 24.2527L214.469 19.9087C214.493 19.8447 214.541 19.8127 214.613 19.8127L215.621 19.8247C215.709 19.8247 215.741 19.8687 215.717 19.9567L213.773 25.8247C213.749 25.8887 213.701 25.9207 213.629 25.9207H212.621ZM219.001 19.7167C219.489 19.7167 219.913 19.8047 220.273 19.9807C220.641 20.1487 220.921 20.3887 221.113 20.7007C221.313 21.0047 221.413 21.3527 221.413 21.7447V25.8007C221.413 25.8807 221.373 25.9207 221.293 25.9207H220.381C220.301 25.9207 220.261 25.8807 220.261 25.8007V25.3687C220.261 25.3287 220.241 25.3207 220.201 25.3447C219.993 25.5607 219.737 25.7287 219.433 25.8487C219.137 25.9607 218.805 26.0167 218.437 26.0167C217.845 26.0167 217.353 25.8687 216.961 25.5727C216.577 25.2687 216.385 24.8127 216.385 24.2047C216.385 23.5807 216.601 23.0927 217.033 22.7407C217.473 22.3807 218.085 22.2007 218.869 22.2007H220.213C220.245 22.2007 220.261 22.1847 220.261 22.1527V21.8287C220.261 21.4767 220.157 21.2047 219.949 21.0127C219.749 20.8127 219.441 20.7127 219.025 20.7127C218.689 20.7127 218.413 20.7807 218.197 20.9167C217.989 21.0447 217.861 21.2207 217.813 21.4447C217.789 21.5247 217.741 21.5607 217.669 21.5527L216.697 21.4207C216.617 21.4047 216.581 21.3727 216.589 21.3247C216.653 20.8527 216.905 20.4687 217.345 20.1727C217.785 19.8687 218.337 19.7167 219.001 19.7167ZM218.689 25.0447C219.113 25.0447 219.481 24.9327 219.793 24.7087C220.105 24.4847 220.261 24.2007 220.261 23.8567V23.1487C220.261 23.1167 220.245 23.1007 220.213 23.1007H219.085C218.613 23.1007 218.237 23.1927 217.957 23.3767C217.677 23.5607 217.537 23.8167 217.537 24.1447C217.537 24.4407 217.641 24.6647 217.849 24.8167C218.065 24.9687 218.345 25.0447 218.689 25.0447ZM223.724 18.8527C223.5 18.8527 223.316 18.7807 223.172 18.6367C223.028 18.4927 222.956 18.3087 222.956 18.0847C222.956 17.8607 223.028 17.6767 223.172 17.5327C223.316 17.3887 223.5 17.3167 223.724 17.3167C223.948 17.3167 224.132 17.3887 224.276 17.5327C224.42 17.6767 224.492 17.8607 224.492 18.0847C224.492 18.3087 224.42 18.4927 224.276 18.6367C224.132 18.7807 223.948 18.8527 223.724 18.8527ZM223.244 25.9087C223.164 25.9087 223.124 25.8687 223.124 25.7887V19.9327C223.124 19.8527 223.164 19.8127 223.244 19.8127H224.156C224.236 19.8127 224.276 19.8527 224.276 19.9327V25.7887C224.276 25.8687 224.236 25.9087 224.156 25.9087H223.244ZM226.266 25.9207C226.186 25.9207 226.146 25.8807 226.146 25.8007V17.6407C226.146 17.5607 226.186 17.5207 226.266 17.5207H227.178C227.258 17.5207 227.298 17.5607 227.298 17.6407V25.8007C227.298 25.8807 227.258 25.9207 227.178 25.9207H226.266ZM231.263 19.7167C231.751 19.7167 232.175 19.8047 232.535 19.9807C232.903 20.1487 233.183 20.3887 233.375 20.7007C233.575 21.0047 233.675 21.3527 233.675 21.7447V25.8007C233.675 25.8807 233.635 25.9207 233.555 25.9207H232.643C232.563 25.9207 232.523 25.8807 232.523 25.8007V25.3687C232.523 25.3287 232.503 25.3207 232.463 25.3447C232.255 25.5607 231.999 25.7287 231.695 25.8487C231.399 25.9607 231.067 26.0167 230.699 26.0167C230.107 26.0167 229.615 25.8687 229.223 25.5727C228.839 25.2687 228.647 24.8127 228.647 24.2047C228.647 23.5807 228.863 23.0927 229.295 22.7407C229.735 22.3807 230.347 22.2007 231.131 22.2007H232.475C232.507 22.2007 232.523 22.1847 232.523 22.1527V21.8287C232.523 21.4767 232.419 21.2047 232.211 21.0127C232.011 20.8127 231.703 20.7127 231.287 20.7127C230.951 20.7127 230.675 20.7807 230.459 20.9167C230.251 21.0447 230.123 21.2207 230.075 21.4447C230.051 21.5247 230.003 21.5607 229.931 21.5527L228.959 21.4207C228.879 21.4047 228.843 21.3727 228.851 21.3247C228.915 20.8527 229.167 20.4687 229.607 20.1727C230.047 19.8687 230.599 19.7167 231.263 19.7167ZM230.951 25.0447C231.375 25.0447 231.743 24.9327 232.055 24.7087C232.367 24.4847 232.523 24.2007 232.523 23.8567V23.1487C232.523 23.1167 232.507 23.1007 232.475 23.1007H231.347C230.875 23.1007 230.499 23.1927 230.219 23.3767C229.939 23.5607 229.799 23.8167 229.799 24.1447C229.799 24.4407 229.903 24.6647 230.111 24.8167C230.327 24.9687 230.607 25.0447 230.951 25.0447ZM240.222 21.3967C240.35 21.8047 240.414 22.2887 240.414 22.8487C240.414 23.4487 240.338 23.9607 240.186 24.3847C240.01 24.9047 239.73 25.3087 239.346 25.5967C238.97 25.8767 238.494 26.0167 237.918 26.0167C237.638 26.0167 237.378 25.9607 237.138 25.8487C236.898 25.7367 236.69 25.5807 236.514 25.3807C236.498 25.3647 236.482 25.3607 236.466 25.3687C236.458 25.3767 236.454 25.3887 236.454 25.4047V25.8007C236.454 25.8807 236.414 25.9207 236.334 25.9207H235.422C235.342 25.9207 235.302 25.8807 235.302 25.8007V17.6407C235.302 17.5607 235.342 17.5207 235.422 17.5207H236.334C236.414 17.5207 236.454 17.5607 236.454 17.6407V20.3167C236.454 20.3327 236.458 20.3447 236.466 20.3527C236.482 20.3607 236.498 20.3567 236.514 20.3407C236.69 20.1407 236.898 19.9887 237.138 19.8847C237.386 19.7727 237.646 19.7167 237.918 19.7167C238.518 19.7167 239.01 19.8647 239.394 20.1607C239.778 20.4567 240.054 20.8687 240.222 21.3967ZM238.95 24.3607C239.15 23.9847 239.25 23.4887 239.25 22.8727C239.25 22.2167 239.122 21.6887 238.866 21.2887C238.634 20.9047 238.278 20.7127 237.798 20.7127C237.35 20.7127 237.01 20.9167 236.778 21.3247C236.57 21.6927 236.466 22.2047 236.466 22.8607C236.466 23.5167 236.562 24.0207 236.754 24.3727C236.994 24.8047 237.346 25.0207 237.81 25.0207C238.338 25.0207 238.718 24.8007 238.95 24.3607ZM242.103 25.9207C242.023 25.9207 241.983 25.8807 241.983 25.8007V17.6407C241.983 17.5607 242.023 17.5207 242.103 17.5207H243.015C243.095 17.5207 243.135 17.5607 243.135 17.6407V25.8007C243.135 25.8807 243.095 25.9207 243.015 25.9207H242.103ZM249.811 22.1047C249.843 22.4327 249.855 22.8007 249.847 23.2087C249.847 23.2887 249.807 23.3287 249.727 23.3287H245.899C245.867 23.3287 245.851 23.3447 245.851 23.3767C245.851 23.6487 245.875 23.8567 245.923 24.0007C246.011 24.3207 246.187 24.5727 246.451 24.7567C246.723 24.9327 247.063 25.0207 247.471 25.0207C248.063 25.0207 248.519 24.7767 248.839 24.2887C248.879 24.2087 248.931 24.1967 248.995 24.2527L249.679 24.7087C249.735 24.7567 249.747 24.8087 249.715 24.8647C249.491 25.2247 249.171 25.5087 248.755 25.7167C248.347 25.9247 247.883 26.0287 247.363 26.0287C246.779 26.0287 246.287 25.9007 245.887 25.6447C245.487 25.3887 245.187 25.0247 244.987 24.5527C244.795 24.0807 244.699 23.5087 244.699 22.8367C244.699 22.2527 244.743 21.8087 244.831 21.5047C244.975 20.9527 245.263 20.5167 245.695 20.1967C246.127 19.8767 246.651 19.7167 247.267 19.7167C248.075 19.7167 248.679 19.9207 249.079 20.3287C249.479 20.7287 249.723 21.3207 249.811 22.1047ZM247.267 20.7127C246.923 20.7127 246.639 20.8007 246.415 20.9767C246.191 21.1447 246.039 21.3727 245.959 21.6607C245.903 21.8367 245.867 22.0607 245.851 22.3327C245.851 22.3647 245.867 22.3807 245.899 22.3807H248.647C248.679 22.3807 248.695 22.3647 248.695 22.3327C248.679 22.0687 248.655 21.8727 248.623 21.7447C248.543 21.4327 248.383 21.1847 248.143 21.0007C247.911 20.8087 247.619 20.7127 247.267 20.7127ZM255.971 25.9927C255.491 25.9927 255.067 25.9207 254.699 25.7767C254.339 25.6327 254.059 25.4367 253.859 25.1887C253.659 24.9327 253.559 24.6527 253.559 24.3487V24.2167C253.559 24.1367 253.599 24.0967 253.679 24.0967H254.543C254.623 24.0967 254.663 24.1367 254.663 24.2167V24.2767C254.663 24.5007 254.783 24.6967 255.023 24.8647C255.271 25.0327 255.583 25.1167 255.959 25.1167C256.319 25.1167 256.611 25.0407 256.835 24.8887C257.059 24.7287 257.171 24.5287 257.171 24.2887C257.171 24.0567 257.067 23.8847 256.859 23.7727C256.651 23.6527 256.315 23.5287 255.851 23.4007C255.395 23.2727 255.011 23.1447 254.699 23.0167C254.395 22.8807 254.135 22.6927 253.919 22.4527C253.711 22.2047 253.607 21.8887 253.607 21.5047C253.607 20.9687 253.815 20.5447 254.231 20.2327C254.655 19.9127 255.215 19.7527 255.911 19.7527C256.375 19.7527 256.783 19.8287 257.135 19.9807C257.495 20.1247 257.771 20.3287 257.963 20.5927C258.155 20.8567 258.251 21.1527 258.251 21.4807V21.5167C258.251 21.5967 258.211 21.6367 258.131 21.6367H257.291C257.211 21.6367 257.171 21.5967 257.171 21.5167V21.4807C257.171 21.2487 257.055 21.0567 256.823 20.9047C256.599 20.7447 256.291 20.6647 255.899 20.6647C255.547 20.6647 255.259 20.7327 255.035 20.8687C254.819 21.0047 254.711 21.1887 254.711 21.4207C254.711 21.6527 254.815 21.8287 255.023 21.9487C255.239 22.0687 255.583 22.1967 256.055 22.3327C256.519 22.4607 256.903 22.5887 257.207 22.7167C257.519 22.8367 257.783 23.0207 257.999 23.2687C258.215 23.5087 258.323 23.8247 258.323 24.2167C258.323 24.7607 258.107 25.1927 257.675 25.5127C257.251 25.8327 256.683 25.9927 255.971 25.9927ZM264.674 22.1047C264.706 22.4327 264.718 22.8007 264.71 23.2087C264.71 23.2887 264.67 23.3287 264.59 23.3287H260.762C260.73 23.3287 260.714 23.3447 260.714 23.3767C260.714 23.6487 260.738 23.8567 260.786 24.0007C260.874 24.3207 261.05 24.5727 261.314 24.7567C261.586 24.9327 261.926 25.0207 262.334 25.0207C262.926 25.0207 263.382 24.7767 263.702 24.2887C263.742 24.2087 263.794 24.1967 263.858 24.2527L264.542 24.7087C264.598 24.7567 264.61 24.8087 264.578 24.8647C264.354 25.2247 264.034 25.5087 263.618 25.7167C263.21 25.9247 262.746 26.0287 262.226 26.0287C261.642 26.0287 261.15 25.9007 260.75 25.6447C260.35 25.3887 260.05 25.0247 259.85 24.5527C259.658 24.0807 259.562 23.5087 259.562 22.8367C259.562 22.2527 259.606 21.8087 259.694 21.5047C259.838 20.9527 260.126 20.5167 260.558 20.1967C260.99 19.8767 261.514 19.7167 262.13 19.7167C262.938 19.7167 263.542 19.9207 263.942 20.3287C264.342 20.7287 264.586 21.3207 264.674 22.1047ZM262.13 20.7127C261.786 20.7127 261.502 20.8007 261.278 20.9767C261.054 21.1447 260.902 21.3727 260.822 21.6607C260.766 21.8367 260.73 22.0607 260.714 22.3327C260.714 22.3647 260.73 22.3807 260.762 22.3807H263.51C263.542 22.3807 263.558 22.3647 263.558 22.3327C263.542 22.0687 263.518 21.8727 263.486 21.7447C263.406 21.4327 263.246 21.1847 263.006 21.0007C262.774 20.8087 262.482 20.7127 262.13 20.7127ZM268.397 19.7167C268.885 19.7167 269.309 19.8047 269.669 19.9807C270.037 20.1487 270.317 20.3887 270.509 20.7007C270.709 21.0047 270.809 21.3527 270.809 21.7447V25.8007C270.809 25.8807 270.769 25.9207 270.689 25.9207H269.777C269.697 25.9207 269.657 25.8807 269.657 25.8007V25.3687C269.657 25.3287 269.637 25.3207 269.597 25.3447C269.389 25.5607 269.133 25.7287 268.829 25.8487C268.533 25.9607 268.201 26.0167 267.833 26.0167C267.241 26.0167 266.749 25.8687 266.357 25.5727C265.973 25.2687 265.781 24.8127 265.781 24.2047C265.781 23.5807 265.997 23.0927 266.429 22.7407C266.869 22.3807 267.481 22.2007 268.265 22.2007H269.609C269.641 22.2007 269.657 22.1847 269.657 22.1527V21.8287C269.657 21.4767 269.553 21.2047 269.345 21.0127C269.145 20.8127 268.837 20.7127 268.421 20.7127C268.085 20.7127 267.809 20.7807 267.593 20.9167C267.385 21.0447 267.257 21.2207 267.209 21.4447C267.185 21.5247 267.137 21.5607 267.065 21.5527L266.093 21.4207C266.013 21.4047 265.977 21.3727 265.985 21.3247C266.049 20.8527 266.301 20.4687 266.741 20.1727C267.181 19.8687 267.733 19.7167 268.397 19.7167ZM268.085 25.0447C268.509 25.0447 268.877 24.9327 269.189 24.7087C269.501 24.4847 269.657 24.2007 269.657 23.8567V23.1487C269.657 23.1167 269.641 23.1007 269.609 23.1007H268.481C268.009 23.1007 267.633 23.1927 267.353 23.3767C267.073 23.5607 266.933 23.8167 266.933 24.1447C266.933 24.4407 267.037 24.6647 267.245 24.8167C267.461 24.9687 267.741 25.0447 268.085 25.0447ZM275.355 20.6407C275.355 20.7207 275.315 20.7607 275.235 20.7607H273.939C273.907 20.7607 273.891 20.7767 273.891 20.8087V23.9887C273.891 24.3247 273.967 24.5687 274.119 24.7207C274.271 24.8647 274.507 24.9367 274.827 24.9367H275.175C275.255 24.9367 275.295 24.9767 275.295 25.0567V25.8007C275.295 25.8807 275.255 25.9207 275.175 25.9207C274.919 25.9367 274.735 25.9447 274.623 25.9447C274.015 25.9447 273.555 25.8367 273.243 25.6207C272.939 25.3967 272.787 24.9887 272.787 24.3967V20.8087C272.787 20.7767 272.771 20.7607 272.739 20.7607H272.007C271.927 20.7607 271.887 20.7207 271.887 20.6407V19.9327C271.887 19.8527 271.927 19.8127 272.007 19.8127H272.739C272.771 19.8127 272.787 19.7967 272.787 19.7647V18.3487C272.787 18.2687 272.827 18.2287 272.907 18.2287H273.771C273.851 18.2287 273.891 18.2687 273.891 18.3487V19.7647C273.891 19.7967 273.907 19.8127 273.939 19.8127H275.235C275.315 19.8127 275.355 19.8527 275.355 19.9327V20.6407ZM278.98 25.9927C278.5 25.9927 278.076 25.9207 277.708 25.7767C277.348 25.6327 277.068 25.4367 276.868 25.1887C276.668 24.9327 276.568 24.6527 276.568 24.3487V24.2167C276.568 24.1367 276.608 24.0967 276.688 24.0967H277.552C277.632 24.0967 277.672 24.1367 277.672 24.2167V24.2767C277.672 24.5007 277.792 24.6967 278.032 24.8647C278.28 25.0327 278.592 25.1167 278.968 25.1167C279.328 25.1167 279.62 25.0407 279.844 24.8887C280.068 24.7287 280.18 24.5287 280.18 24.2887C280.18 24.0567 280.076 23.8847 279.868 23.7727C279.66 23.6527 279.324 23.5287 278.86 23.4007C278.404 23.2727 278.02 23.1447 277.708 23.0167C277.404 22.8807 277.144 22.6927 276.928 22.4527C276.72 22.2047 276.616 21.8887 276.616 21.5047C276.616 20.9687 276.824 20.5447 277.24 20.2327C277.664 19.9127 278.224 19.7527 278.92 19.7527C279.384 19.7527 279.792 19.8287 280.144 19.9807C280.504 20.1247 280.78 20.3287 280.972 20.5927C281.164 20.8567 281.26 21.1527 281.26 21.4807V21.5167C281.26 21.5967 281.22 21.6367 281.14 21.6367H280.3C280.22 21.6367 280.18 21.5967 280.18 21.5167V21.4807C280.18 21.2487 280.064 21.0567 279.832 20.9047C279.608 20.7447 279.3 20.6647 278.908 20.6647C278.556 20.6647 278.268 20.7327 278.044 20.8687C277.828 21.0047 277.72 21.1887 277.72 21.4207C277.72 21.6527 277.824 21.8287 278.032 21.9487C278.248 22.0687 278.592 22.1967 279.064 22.3327C279.528 22.4607 279.912 22.5887 280.216 22.7167C280.528 22.8367 280.792 23.0207 281.008 23.2687C281.224 23.5087 281.332 23.8247 281.332 24.2167C281.332 24.7607 281.116 25.1927 280.684 25.5127C280.26 25.8327 279.692 25.9927 278.98 25.9927Z" fill="#101010"/>
<circle cx="22" cy="52.9207" r="8" fill="#FF9500"/>
<path d="M41.72 58.0287C41.136 58.0287 40.62 57.9087 40.172 57.6687C39.724 57.4287 39.376 57.0927 39.128 56.6607C38.88 56.2207 38.756 55.7167 38.756 55.1487V52.2927C38.756 51.7247 38.88 51.2247 39.128 50.7927C39.376 50.3607 39.724 50.0247 40.172 49.7847C40.62 49.5447 41.136 49.4247 41.72 49.4247C42.312 49.4247 42.832 49.5447 43.28 49.7847C43.728 50.0247 44.076 50.3607 44.324 50.7927C44.572 51.2247 44.696 51.7247 44.696 52.2927V55.1487C44.696 55.7167 44.572 56.2207 44.324 56.6607C44.076 57.0927 43.728 57.4287 43.28 57.6687C42.832 57.9087 42.312 58.0287 41.72 58.0287ZM41.72 57.0327C42.264 57.0327 42.704 56.8647 43.04 56.5287C43.376 56.1927 43.544 55.7487 43.544 55.1967V52.2807C43.544 51.7207 43.376 51.2727 43.04 50.9367C42.704 50.5927 42.264 50.4207 41.72 50.4207C41.176 50.4207 40.736 50.5927 40.4 50.9367C40.072 51.2727 39.908 51.7207 39.908 52.2807V55.1967C39.908 55.7487 40.072 56.1927 40.4 56.5287C40.736 56.8647 41.176 57.0327 41.72 57.0327ZM49.0888 51.7287C49.7448 51.7287 50.2648 51.9207 50.6488 52.3047C51.0328 52.6807 51.2248 53.1927 51.2248 53.8407V57.8007C51.2248 57.8807 51.1848 57.9207 51.1048 57.9207H50.1928C50.1128 57.9207 50.0728 57.8807 50.0728 57.8007V54.0687C50.0728 53.6687 49.9568 53.3447 49.7248 53.0967C49.4928 52.8487 49.1848 52.7247 48.8008 52.7247C48.4248 52.7247 48.1168 52.8487 47.8768 53.0967C47.6368 53.3447 47.5168 53.6647 47.5168 54.0567V57.8007C47.5168 57.8807 47.4768 57.9207 47.3968 57.9207H46.4848C46.4048 57.9207 46.3648 57.8807 46.3648 57.8007V51.9327C46.3648 51.8527 46.4048 51.8127 46.4848 51.8127H47.3968C47.4768 51.8127 47.5168 51.8527 47.5168 51.9327V52.3647C47.5168 52.3807 47.5208 52.3927 47.5288 52.4007C47.5448 52.4087 47.5568 52.4047 47.5648 52.3887C47.9088 51.9487 48.4168 51.7287 49.0888 51.7287ZM53.0487 57.9207C52.9687 57.9207 52.9287 57.8807 52.9287 57.8007V49.6407C52.9287 49.5607 52.9687 49.5207 53.0487 49.5207H53.9607C54.0407 49.5207 54.0807 49.5607 54.0807 49.6407V57.8007C54.0807 57.8807 54.0407 57.9207 53.9607 57.9207H53.0487ZM55.633 60.3087C55.577 60.3087 55.549 60.2687 55.549 60.1887V59.4807C55.549 59.4007 55.589 59.3607 55.669 59.3607H55.693C56.013 59.3527 56.265 59.3127 56.449 59.2407C56.633 59.1687 56.785 59.0327 56.905 58.8327C57.025 58.6407 57.141 58.3487 57.253 57.9567C57.261 57.9487 57.261 57.9367 57.253 57.9207C57.253 57.8967 57.253 57.8847 57.253 57.8847L55.249 51.9447L55.237 51.8967C55.237 51.8407 55.273 51.8127 55.345 51.8127H56.317C56.389 51.8127 56.437 51.8447 56.461 51.9087L57.817 56.4327C57.825 56.4487 57.837 56.4567 57.853 56.4567C57.869 56.4567 57.881 56.4487 57.889 56.4327L59.233 51.9087C59.257 51.8447 59.305 51.8127 59.377 51.8127H60.325C60.413 51.8127 60.445 51.8567 60.421 51.9447L58.237 58.3407C58.053 58.8927 57.869 59.3007 57.685 59.5647C57.501 59.8367 57.261 60.0287 56.965 60.1407C56.669 60.2527 56.253 60.3087 55.717 60.3087H55.633ZM66.7303 50.5287C66.3303 50.5287 66.0583 50.6047 65.9143 50.7567C65.7703 50.9087 65.6983 51.1967 65.6983 51.6207V51.7647C65.6983 51.7967 65.7143 51.8127 65.7463 51.8127H67.0063C67.0863 51.8127 67.1263 51.8527 67.1263 51.9327V52.7487C67.1263 52.8287 67.0863 52.8687 67.0063 52.8687H65.7463C65.7143 52.8687 65.6983 52.8847 65.6983 52.9167V57.8007C65.6983 57.8807 65.6583 57.9207 65.5783 57.9207H64.6663C64.5863 57.9207 64.5463 57.8807 64.5463 57.8007V52.9167C64.5463 52.8847 64.5303 52.8687 64.4983 52.8687H63.6943C63.6143 52.8687 63.5743 52.8287 63.5743 52.7487V51.9327C63.5743 51.8527 63.6143 51.8127 63.6943 51.8127H64.4983C64.5303 51.8127 64.5463 51.7967 64.5463 51.7647V51.5487C64.5463 51.0207 64.6063 50.6127 64.7263 50.3247C64.8543 50.0367 65.0663 49.8327 65.3623 49.7127C65.6583 49.5847 66.0743 49.5207 66.6103 49.5207H67.0183C67.0983 49.5207 67.1383 49.5607 67.1383 49.6407V50.4087C67.1383 50.4887 67.0983 50.5287 67.0183 50.5287H66.7303ZM72.9604 54.1047C72.9924 54.4327 73.0044 54.8007 72.9964 55.2087C72.9964 55.2887 72.9564 55.3287 72.8764 55.3287H69.0484C69.0164 55.3287 69.0004 55.3447 69.0004 55.3767C69.0004 55.6487 69.0244 55.8567 69.0724 56.0007C69.1604 56.3207 69.3364 56.5727 69.6004 56.7567C69.8724 56.9327 70.2124 57.0207 70.6204 57.0207C71.2124 57.0207 71.6684 56.7767 71.9884 56.2887C72.0284 56.2087 72.0804 56.1967 72.1444 56.2527L72.8284 56.7087C72.8844 56.7567 72.8964 56.8087 72.8644 56.8647C72.6404 57.2247 72.3204 57.5087 71.9044 57.7167C71.4964 57.9247 71.0324 58.0287 70.5124 58.0287C69.9284 58.0287 69.4364 57.9007 69.0364 57.6447C68.6364 57.3887 68.3364 57.0247 68.1364 56.5527C67.9444 56.0807 67.8484 55.5087 67.8484 54.8367C67.8484 54.2527 67.8924 53.8087 67.9804 53.5047C68.1244 52.9527 68.4124 52.5167 68.8444 52.1967C69.2764 51.8767 69.8004 51.7167 70.4164 51.7167C71.2244 51.7167 71.8284 51.9207 72.2284 52.3287C72.6284 52.7287 72.8724 53.3207 72.9604 54.1047ZM70.4164 52.7127C70.0724 52.7127 69.7884 52.8007 69.5644 52.9767C69.3404 53.1447 69.1884 53.3727 69.1084 53.6607C69.0524 53.8367 69.0164 54.0607 69.0004 54.3327C69.0004 54.3647 69.0164 54.3807 69.0484 54.3807H71.7964C71.8284 54.3807 71.8444 54.3647 71.8444 54.3327C71.8284 54.0687 71.8044 53.8727 71.7724 53.7447C71.6924 53.4327 71.5324 53.1847 71.2924 53.0007C71.0604 52.8087 70.7684 52.7127 70.4164 52.7127ZM75.6551 57.9207C75.5911 57.9207 75.5471 57.8887 75.5231 57.8247L73.7951 51.9447L73.7831 51.9087C73.7831 51.8447 73.8231 51.8127 73.9031 51.8127H74.8391C74.9111 51.8127 74.9551 51.8487 74.9711 51.9207L76.1111 56.2767C76.1191 56.2927 76.1271 56.3007 76.1351 56.3007C76.1511 56.3007 76.1631 56.2927 76.1711 56.2767L77.3351 51.9207C77.3511 51.8487 77.3951 51.8127 77.4671 51.8127H78.2951C78.3671 51.8127 78.4111 51.8487 78.4271 51.9207L79.6151 56.2647C79.6231 56.2807 79.6311 56.2887 79.6391 56.2887C79.6551 56.2887 79.6671 56.2807 79.6751 56.2647L80.8631 51.9207C80.8791 51.8487 80.9231 51.8127 80.9951 51.8127L81.9191 51.8247C81.9591 51.8247 81.9871 51.8367 82.0031 51.8607C82.0271 51.8847 82.0351 51.9167 82.0271 51.9567L80.2871 57.8247C80.2631 57.8887 80.2191 57.9207 80.1551 57.9207H79.2191C79.1551 57.9207 79.1111 57.8887 79.0871 57.8247L77.9111 53.7687C77.9031 53.7527 77.8911 53.7447 77.8751 53.7447C77.8671 53.7447 77.8591 53.7527 77.8511 53.7687L76.7351 57.8127C76.7191 57.8847 76.6751 57.9207 76.6031 57.9207H75.6551ZM87.8874 57.9927C87.4074 57.9927 86.9834 57.9207 86.6154 57.7767C86.2554 57.6327 85.9754 57.4367 85.7754 57.1887C85.5754 56.9327 85.4754 56.6527 85.4754 56.3487V56.2167C85.4754 56.1367 85.5154 56.0967 85.5954 56.0967H86.4594C86.5394 56.0967 86.5794 56.1367 86.5794 56.2167V56.2767C86.5794 56.5007 86.6994 56.6967 86.9394 56.8647C87.1874 57.0327 87.4994 57.1167 87.8754 57.1167C88.2354 57.1167 88.5274 57.0407 88.7514 56.8887C88.9754 56.7287 89.0874 56.5287 89.0874 56.2887C89.0874 56.0567 88.9834 55.8847 88.7754 55.7727C88.5674 55.6527 88.2314 55.5287 87.7674 55.4007C87.3114 55.2727 86.9274 55.1447 86.6154 55.0167C86.3114 54.8807 86.0514 54.6927 85.8354 54.4527C85.6274 54.2047 85.5234 53.8887 85.5234 53.5047C85.5234 52.9687 85.7314 52.5447 86.1474 52.2327C86.5714 51.9127 87.1314 51.7527 87.8274 51.7527C88.2914 51.7527 88.6994 51.8287 89.0514 51.9807C89.4114 52.1247 89.6874 52.3287 89.8794 52.5927C90.0714 52.8567 90.1674 53.1527 90.1674 53.4807V53.5167C90.1674 53.5967 90.1274 53.6367 90.0474 53.6367H89.2074C89.1274 53.6367 89.0874 53.5967 89.0874 53.5167V53.4807C89.0874 53.2487 88.9714 53.0567 88.7394 52.9047C88.5154 52.7447 88.2074 52.6647 87.8154 52.6647C87.4634 52.6647 87.1754 52.7327 86.9514 52.8687C86.7354 53.0047 86.6274 53.1887 86.6274 53.4207C86.6274 53.6527 86.7314 53.8287 86.9394 53.9487C87.1554 54.0687 87.4994 54.1967 87.9714 54.3327C88.4354 54.4607 88.8194 54.5887 89.1234 54.7167C89.4354 54.8367 89.6994 55.0207 89.9154 55.2687C90.1314 55.5087 90.2394 55.8247 90.2394 56.2167C90.2394 56.7607 90.0234 57.1927 89.5914 57.5127C89.1674 57.8327 88.5994 57.9927 87.8874 57.9927ZM96.591 54.1047C96.623 54.4327 96.635 54.8007 96.627 55.2087C96.627 55.2887 96.587 55.3287 96.507 55.3287H92.679C92.647 55.3287 92.631 55.3447 92.631 55.3767C92.631 55.6487 92.655 55.8567 92.703 56.0007C92.791 56.3207 92.967 56.5727 93.231 56.7567C93.503 56.9327 93.843 57.0207 94.251 57.0207C94.843 57.0207 95.299 56.7767 95.619 56.2887C95.659 56.2087 95.711 56.1967 95.775 56.2527L96.459 56.7087C96.515 56.7567 96.527 56.8087 96.495 56.8647C96.271 57.2247 95.951 57.5087 95.535 57.7167C95.127 57.9247 94.663 58.0287 94.143 58.0287C93.559 58.0287 93.067 57.9007 92.667 57.6447C92.267 57.3887 91.967 57.0247 91.767 56.5527C91.575 56.0807 91.479 55.5087 91.479 54.8367C91.479 54.2527 91.523 53.8087 91.611 53.5047C91.755 52.9527 92.043 52.5167 92.475 52.1967C92.907 51.8767 93.431 51.7167 94.047 51.7167C94.855 51.7167 95.459 51.9207 95.859 52.3287C96.259 52.7287 96.503 53.3207 96.591 54.1047ZM94.047 52.7127C93.703 52.7127 93.419 52.8007 93.195 52.9767C92.971 53.1447 92.819 53.3727 92.739 53.6607C92.683 53.8367 92.647 54.0607 92.631 54.3327C92.631 54.3647 92.647 54.3807 92.679 54.3807H95.427C95.459 54.3807 95.475 54.3647 95.475 54.3327C95.459 54.0687 95.435 53.8727 95.403 53.7447C95.323 53.4327 95.163 53.1847 94.923 53.0007C94.691 52.8087 94.399 52.7127 94.047 52.7127ZM100.314 51.7167C100.802 51.7167 101.226 51.8047 101.586 51.9807C101.954 52.1487 102.234 52.3887 102.426 52.7007C102.626 53.0047 102.726 53.3527 102.726 53.7447V57.8007C102.726 57.8807 102.686 57.9207 102.606 57.9207H101.694C101.614 57.9207 101.574 57.8807 101.574 57.8007V57.3687C101.574 57.3287 101.554 57.3207 101.514 57.3447C101.306 57.5607 101.05 57.7287 100.746 57.8487C100.45 57.9607 100.118 58.0167 99.75 58.0167C99.158 58.0167 98.666 57.8687 98.274 57.5727C97.89 57.2687 97.698 56.8127 97.698 56.2047C97.698 55.5807 97.914 55.0927 98.346 54.7407C98.786 54.3807 99.398 54.2007 100.182 54.2007H101.526C101.558 54.2007 101.574 54.1847 101.574 54.1527V53.8287C101.574 53.4767 101.47 53.2047 101.262 53.0127C101.062 52.8127 100.754 52.7127 100.338 52.7127C100.002 52.7127 99.726 52.7807 99.51 52.9167C99.302 53.0447 99.174 53.2207 99.126 53.4447C99.102 53.5247 99.054 53.5607 98.982 53.5527L98.01 53.4207C97.93 53.4047 97.894 53.3727 97.902 53.3247C97.966 52.8527 98.218 52.4687 98.658 52.1727C99.098 51.8687 99.65 51.7167 100.314 51.7167ZM100.002 57.0447C100.426 57.0447 100.794 56.9327 101.106 56.7087C101.418 56.4847 101.574 56.2007 101.574 55.8567V55.1487C101.574 55.1167 101.558 55.1007 101.526 55.1007H100.398C99.926 55.1007 99.55 55.1927 99.27 55.3767C98.99 55.5607 98.85 55.8167 98.85 56.1447C98.85 56.4407 98.954 56.6647 99.162 56.8167C99.378 56.9687 99.658 57.0447 100.002 57.0447ZM107.271 52.6407C107.271 52.7207 107.231 52.7607 107.151 52.7607H105.855C105.823 52.7607 105.807 52.7767 105.807 52.8087V55.9887C105.807 56.3247 105.883 56.5687 106.035 56.7207C106.187 56.8647 106.423 56.9367 106.743 56.9367H107.091C107.171 56.9367 107.211 56.9767 107.211 57.0567V57.8007C107.211 57.8807 107.171 57.9207 107.091 57.9207C106.835 57.9367 106.651 57.9447 106.539 57.9447C105.931 57.9447 105.471 57.8367 105.159 57.6207C104.855 57.3967 104.703 56.9887 104.703 56.3967V52.8087C104.703 52.7767 104.687 52.7607 104.655 52.7607H103.923C103.843 52.7607 103.803 52.7207 103.803 52.6407V51.9327C103.803 51.8527 103.843 51.8127 103.923 51.8127H104.655C104.687 51.8127 104.703 51.7967 104.703 51.7647V50.3487C104.703 50.2687 104.743 50.2287 104.823 50.2287H105.687C105.767 50.2287 105.807 50.2687 105.807 50.3487V51.7647C105.807 51.7967 105.823 51.8127 105.855 51.8127H107.151C107.231 51.8127 107.271 51.8527 107.271 51.9327V52.6407ZM110.897 57.9927C110.417 57.9927 109.993 57.9207 109.625 57.7767C109.265 57.6327 108.985 57.4367 108.785 57.1887C108.585 56.9327 108.485 56.6527 108.485 56.3487V56.2167C108.485 56.1367 108.525 56.0967 108.605 56.0967H109.469C109.549 56.0967 109.589 56.1367 109.589 56.2167V56.2767C109.589 56.5007 109.709 56.6967 109.949 56.8647C110.197 57.0327 110.509 57.1167 110.885 57.1167C111.245 57.1167 111.537 57.0407 111.761 56.8887C111.985 56.7287 112.097 56.5287 112.097 56.2887C112.097 56.0567 111.993 55.8847 111.785 55.7727C111.577 55.6527 111.241 55.5287 110.777 55.4007C110.321 55.2727 109.937 55.1447 109.625 55.0167C109.321 54.8807 109.061 54.6927 108.845 54.4527C108.637 54.2047 108.533 53.8887 108.533 53.5047C108.533 52.9687 108.741 52.5447 109.157 52.2327C109.581 51.9127 110.141 51.7527 110.837 51.7527C111.301 51.7527 111.709 51.8287 112.061 51.9807C112.421 52.1247 112.697 52.3287 112.889 52.5927C113.081 52.8567 113.177 53.1527 113.177 53.4807V53.5167C113.177 53.5967 113.137 53.6367 113.057 53.6367H112.217C112.137 53.6367 112.097 53.5967 112.097 53.5167V53.4807C112.097 53.2487 111.981 53.0567 111.749 52.9047C111.525 52.7447 111.217 52.6647 110.825 52.6647C110.473 52.6647 110.185 52.7327 109.961 52.8687C109.745 53.0047 109.637 53.1887 109.637 53.4207C109.637 53.6527 109.741 53.8287 109.949 53.9487C110.165 54.0687 110.509 54.1967 110.981 54.3327C111.445 54.4607 111.829 54.5887 112.133 54.7167C112.445 54.8367 112.709 55.0207 112.925 55.2687C113.141 55.5087 113.249 55.8247 113.249 56.2167C113.249 56.7607 113.033 57.1927 112.601 57.5127C112.177 57.8327 111.609 57.9927 110.897 57.9927ZM38.96 73.9207C38.88 73.9207 38.84 73.8807 38.84 73.8007V65.6407C38.84 65.5607 38.88 65.5207 38.96 65.5207H39.872C39.952 65.5207 39.992 65.5607 39.992 65.6407V73.8007C39.992 73.8807 39.952 73.9207 39.872 73.9207H38.96ZM46.6682 70.1047C46.7002 70.4327 46.7122 70.8007 46.7042 71.2087C46.7042 71.2887 46.6642 71.3287 46.5842 71.3287H42.7562C42.7242 71.3287 42.7082 71.3447 42.7082 71.3767C42.7082 71.6487 42.7322 71.8567 42.7802 72.0007C42.8682 72.3207 43.0442 72.5727 43.3082 72.7567C43.5802 72.9327 43.9202 73.0207 44.3282 73.0207C44.9202 73.0207 45.3762 72.7767 45.6962 72.2887C45.7362 72.2087 45.7882 72.1967 45.8522 72.2527L46.5362 72.7087C46.5922 72.7567 46.6042 72.8087 46.5722 72.8647C46.3482 73.2247 46.0282 73.5087 45.6122 73.7167C45.2042 73.9247 44.7402 74.0287 44.2202 74.0287C43.6362 74.0287 43.1442 73.9007 42.7442 73.6447C42.3442 73.3887 42.0442 73.0247 41.8442 72.5527C41.6522 72.0807 41.5562 71.5087 41.5562 70.8367C41.5562 70.2527 41.6002 69.8087 41.6882 69.5047C41.8322 68.9527 42.1202 68.5167 42.5522 68.1967C42.9842 67.8767 43.5082 67.7167 44.1242 67.7167C44.9322 67.7167 45.5362 67.9207 45.9362 68.3287C46.3362 68.7287 46.5802 69.3207 46.6682 70.1047ZM44.1242 68.7127C43.7802 68.7127 43.4962 68.8007 43.2722 68.9767C43.0482 69.1447 42.8962 69.3727 42.8162 69.6607C42.7602 69.8367 42.7242 70.0607 42.7082 70.3327C42.7082 70.3647 42.7242 70.3807 42.7562 70.3807H45.5042C45.5362 70.3807 45.5522 70.3647 45.5522 70.3327C45.5362 70.0687 45.5122 69.8727 45.4802 69.7447C45.4002 69.4327 45.2402 69.1847 45.0002 69.0007C44.7682 68.8087 44.4762 68.7127 44.1242 68.7127ZM50.8121 66.5287C50.4121 66.5287 50.1401 66.6047 49.9961 66.7567C49.8521 66.9087 49.7801 67.1967 49.7801 67.6207V67.7647C49.7801 67.7967 49.7961 67.8127 49.8281 67.8127H51.0881C51.1681 67.8127 51.2081 67.8527 51.2081 67.9327V68.7487C51.2081 68.8287 51.1681 68.8687 51.0881 68.8687H49.8281C49.7961 68.8687 49.7801 68.8847 49.7801 68.9167V73.8007C49.7801 73.8807 49.7401 73.9207 49.6601 73.9207H48.7481C48.6681 73.9207 48.6281 73.8807 48.6281 73.8007V68.9167C48.6281 68.8847 48.6121 68.8687 48.5801 68.8687H47.7761C47.6961 68.8687 47.6561 68.8287 47.6561 68.7487V67.9327C47.6561 67.8527 47.6961 67.8127 47.7761 67.8127H48.5801C48.6121 67.8127 48.6281 67.7967 48.6281 67.7647V67.5487C48.6281 67.0207 48.6881 66.6127 48.8081 66.3247C48.9361 66.0367 49.1481 65.8327 49.4441 65.7127C49.7401 65.5847 50.1561 65.5207 50.6921 65.5207H51.1001C51.1801 65.5207 51.2201 65.5607 51.2201 65.6407V66.4087C51.2201 66.4887 51.1801 66.5287 51.1001 66.5287H50.8121ZM55.6023 68.6407C55.6023 68.7207 55.5623 68.7607 55.4823 68.7607H54.1863C54.1543 68.7607 54.1383 68.7767 54.1383 68.8087V71.9887C54.1383 72.3247 54.2143 72.5687 54.3663 72.7207C54.5183 72.8647 54.7543 72.9367 55.0743 72.9367H55.4223C55.5023 72.9367 55.5423 72.9767 55.5423 73.0567V73.8007C55.5423 73.8807 55.5023 73.9207 55.4223 73.9207C55.1663 73.9367 54.9823 73.9447 54.8703 73.9447C54.2623 73.9447 53.8023 73.8367 53.4903 73.6207C53.1863 73.3967 53.0343 72.9887 53.0343 72.3967V68.8087C53.0343 68.7767 53.0183 68.7607 52.9863 68.7607H52.2543C52.1743 68.7607 52.1343 68.7207 52.1343 68.6407V67.9327C52.1343 67.8527 52.1743 67.8127 52.2543 67.8127H52.9863C53.0183 67.8127 53.0343 67.7967 53.0343 67.7647V66.3487C53.0343 66.2687 53.0743 66.2287 53.1543 66.2287H54.0183C54.0983 66.2287 54.1383 66.2687 54.1383 66.3487V67.7647C54.1383 67.7967 54.1543 67.8127 54.1863 67.8127H55.4823C55.5623 67.8127 55.6023 67.8527 55.6023 67.9327V68.6407Z" fill="#101010"/>
<circle cx="186" cy="52.9207" r="8" fill="#FF3B30"/>
<path d="M207.928 49.6407C207.928 49.5607 207.968 49.5207 208.048 49.5207H208.96C209.04 49.5207 209.08 49.5607 209.08 49.6407V57.8007C209.08 57.8807 209.04 57.9207 208.96 57.9207H208.084C208.028 57.9207 207.98 57.8927 207.94 57.8367L204.184 51.7047C204.176 51.6807 204.164 51.6727 204.148 51.6807C204.132 51.6807 204.124 51.6927 204.124 51.7167L204.136 57.8007C204.136 57.8807 204.096 57.9207 204.016 57.9207H203.104C203.024 57.9207 202.984 57.8807 202.984 57.8007V49.6407C202.984 49.5607 203.024 49.5207 203.104 49.5207H203.992C204.048 49.5207 204.096 49.5487 204.136 49.6047L207.88 55.7367C207.888 55.7607 207.9 55.7727 207.916 55.7727C207.932 55.7647 207.94 55.7487 207.94 55.7247L207.928 49.6407ZM213.47 58.0167C212.878 58.0167 212.362 57.8687 211.922 57.5727C211.482 57.2687 211.174 56.8487 210.998 56.3127C210.854 55.8807 210.782 55.3927 210.782 54.8487C210.782 54.2807 210.85 53.8007 210.986 53.4087C211.162 52.8807 211.47 52.4687 211.91 52.1727C212.35 51.8687 212.874 51.7167 213.482 51.7167C214.058 51.7167 214.558 51.8687 214.982 52.1727C215.414 52.4687 215.722 52.8767 215.906 53.3967C216.05 53.8047 216.122 54.2847 216.122 54.8367C216.122 55.3967 216.05 55.8887 215.906 56.3127C215.73 56.8487 215.426 57.2687 214.994 57.5727C214.562 57.8687 214.054 58.0167 213.47 58.0167ZM213.47 57.0207C213.79 57.0207 214.07 56.9327 214.31 56.7567C214.55 56.5727 214.722 56.3167 214.826 55.9887C214.914 55.6847 214.958 55.3087 214.958 54.8607C214.958 54.4127 214.918 54.0407 214.838 53.7447C214.734 53.4167 214.562 53.1647 214.322 52.9887C214.082 52.8047 213.79 52.7127 213.446 52.7127C213.118 52.7127 212.834 52.8047 212.594 52.9887C212.354 53.1647 212.182 53.4167 212.078 53.7447C211.99 54.0247 211.946 54.3967 211.946 54.8607C211.946 55.3247 211.99 55.7007 212.078 55.9887C212.174 56.3167 212.342 56.5727 212.582 56.7567C212.83 56.9327 213.126 57.0207 213.47 57.0207ZM226.501 51.7287C227.109 51.7287 227.589 51.9127 227.941 52.2807C228.293 52.6407 228.469 53.1447 228.469 53.7927V57.8007C228.469 57.8807 228.429 57.9207 228.349 57.9207H227.449C227.369 57.9207 227.329 57.8807 227.329 57.8007V54.0327C227.329 53.6327 227.217 53.3167 226.993 53.0847C226.777 52.8447 226.485 52.7247 226.117 52.7247C225.749 52.7247 225.449 52.8407 225.217 53.0727C224.985 53.3047 224.869 53.6167 224.869 54.0087V57.8007C224.869 57.8807 224.829 57.9207 224.749 57.9207H223.849C223.769 57.9207 223.729 57.8807 223.729 57.8007V54.0327C223.729 53.6327 223.617 53.3167 223.393 53.0847C223.177 52.8447 222.885 52.7247 222.517 52.7247C222.149 52.7247 221.853 52.8407 221.629 53.0727C221.413 53.3047 221.305 53.6167 221.305 54.0087V57.8007C221.305 57.8807 221.265 57.9207 221.185 57.9207H220.273C220.193 57.9207 220.153 57.8807 220.153 57.8007V51.9327C220.153 51.8527 220.193 51.8127 220.273 51.8127H221.185C221.265 51.8127 221.305 51.8527 221.305 51.9327V52.3407C221.305 52.3567 221.309 52.3687 221.317 52.3767C221.333 52.3847 221.349 52.3807 221.365 52.3647C221.717 51.9407 222.229 51.7287 222.901 51.7287C223.309 51.7287 223.657 51.8087 223.945 51.9687C224.233 52.1207 224.457 52.3487 224.617 52.6527C224.641 52.6847 224.665 52.6847 224.689 52.6527C224.881 52.3407 225.133 52.1087 225.445 51.9567C225.765 51.8047 226.117 51.7287 226.501 51.7287ZM232.553 58.0167C231.961 58.0167 231.445 57.8687 231.005 57.5727C230.565 57.2687 230.257 56.8487 230.081 56.3127C229.937 55.8807 229.865 55.3927 229.865 54.8487C229.865 54.2807 229.933 53.8007 230.069 53.4087C230.245 52.8807 230.553 52.4687 230.993 52.1727C231.433 51.8687 231.957 51.7167 232.565 51.7167C233.141 51.7167 233.641 51.8687 234.065 52.1727C234.497 52.4687 234.805 52.8767 234.989 53.3967C235.133 53.8047 235.205 54.2847 235.205 54.8367C235.205 55.3967 235.133 55.8887 234.989 56.3127C234.813 56.8487 234.509 57.2687 234.077 57.5727C233.645 57.8687 233.137 58.0167 232.553 58.0167ZM232.553 57.0207C232.873 57.0207 233.153 56.9327 233.393 56.7567C233.633 56.5727 233.805 56.3167 233.909 55.9887C233.997 55.6847 234.041 55.3087 234.041 54.8607C234.041 54.4127 234.001 54.0407 233.921 53.7447C233.817 53.4167 233.645 53.1647 233.405 52.9887C233.165 52.8047 232.873 52.7127 232.529 52.7127C232.201 52.7127 231.917 52.8047 231.677 52.9887C231.437 53.1647 231.265 53.4167 231.161 53.7447C231.073 54.0247 231.029 54.3967 231.029 54.8607C231.029 55.3247 231.073 55.7007 231.161 55.9887C231.257 56.3167 231.425 56.5727 231.665 56.7567C231.913 56.9327 232.209 57.0207 232.553 57.0207ZM239.449 51.7527C239.705 51.7527 239.937 51.8047 240.145 51.9087C240.201 51.9327 240.221 51.9807 240.205 52.0527L240.013 52.9527C240.005 53.0247 239.957 53.0487 239.869 53.0247C239.733 52.9687 239.573 52.9407 239.389 52.9407L239.221 52.9527C238.845 52.9687 238.533 53.1007 238.285 53.3487C238.045 53.5887 237.925 53.9047 237.925 54.2967V57.8007C237.925 57.8807 237.885 57.9207 237.805 57.9207H236.893C236.813 57.9207 236.773 57.8807 236.773 57.8007V51.9327C236.773 51.8527 236.813 51.8127 236.893 51.8127H237.805C237.885 51.8127 237.925 51.8527 237.925 51.9327V52.5687C237.925 52.5927 237.929 52.6087 237.937 52.6167C237.953 52.6167 237.965 52.6087 237.973 52.5927C238.333 52.0327 238.825 51.7527 239.449 51.7527ZM246.136 54.1047C246.168 54.4327 246.18 54.8007 246.172 55.2087C246.172 55.2887 246.132 55.3287 246.052 55.3287H242.224C242.192 55.3287 242.176 55.3447 242.176 55.3767C242.176 55.6487 242.2 55.8567 242.248 56.0007C242.336 56.3207 242.512 56.5727 242.776 56.7567C243.048 56.9327 243.388 57.0207 243.796 57.0207C244.388 57.0207 244.844 56.7767 245.164 56.2887C245.204 56.2087 245.256 56.1967 245.32 56.2527L246.004 56.7087C246.06 56.7567 246.072 56.8087 246.04 56.8647C245.816 57.2247 245.496 57.5087 245.08 57.7167C244.672 57.9247 244.208 58.0287 243.688 58.0287C243.104 58.0287 242.612 57.9007 242.212 57.6447C241.812 57.3887 241.512 57.0247 241.312 56.5527C241.12 56.0807 241.024 55.5087 241.024 54.8367C241.024 54.2527 241.068 53.8087 241.156 53.5047C241.3 52.9527 241.588 52.5167 242.02 52.1967C242.452 51.8767 242.976 51.7167 243.592 51.7167C244.4 51.7167 245.004 51.9207 245.404 52.3287C245.804 52.7287 246.048 53.3207 246.136 54.1047ZM243.592 52.7127C243.248 52.7127 242.964 52.8007 242.74 52.9767C242.516 53.1447 242.364 53.3727 242.284 53.6607C242.228 53.8367 242.192 54.0607 242.176 54.3327C242.176 54.3647 242.192 54.3807 242.224 54.3807H244.972C245.004 54.3807 245.02 54.3647 245.02 54.3327C245.004 54.0687 244.98 53.8727 244.948 53.7447C244.868 53.4327 244.708 53.1847 244.468 53.0007C244.236 52.8087 243.944 52.7127 243.592 52.7127ZM252.296 57.9927C251.816 57.9927 251.392 57.9207 251.024 57.7767C250.664 57.6327 250.384 57.4367 250.184 57.1887C249.984 56.9327 249.884 56.6527 249.884 56.3487V56.2167C249.884 56.1367 249.924 56.0967 250.004 56.0967H250.868C250.948 56.0967 250.988 56.1367 250.988 56.2167V56.2767C250.988 56.5007 251.108 56.6967 251.348 56.8647C251.596 57.0327 251.908 57.1167 252.284 57.1167C252.644 57.1167 252.936 57.0407 253.16 56.8887C253.384 56.7287 253.496 56.5287 253.496 56.2887C253.496 56.0567 253.392 55.8847 253.184 55.7727C252.976 55.6527 252.64 55.5287 252.176 55.4007C251.72 55.2727 251.336 55.1447 251.024 55.0167C250.72 54.8807 250.46 54.6927 250.244 54.4527C250.036 54.2047 249.932 53.8887 249.932 53.5047C249.932 52.9687 250.14 52.5447 250.556 52.2327C250.98 51.9127 251.54 51.7527 252.236 51.7527C252.7 51.7527 253.108 51.8287 253.46 51.9807C253.82 52.1247 254.096 52.3287 254.288 52.5927C254.48 52.8567 254.576 53.1527 254.576 53.4807V53.5167C254.576 53.5967 254.536 53.6367 254.456 53.6367H253.616C253.536 53.6367 253.496 53.5967 253.496 53.5167V53.4807C253.496 53.2487 253.38 53.0567 253.148 52.9047C252.924 52.7447 252.616 52.6647 252.224 52.6647C251.872 52.6647 251.584 52.7327 251.36 52.8687C251.144 53.0047 251.036 53.1887 251.036 53.4207C251.036 53.6527 251.14 53.8287 251.348 53.9487C251.564 54.0687 251.908 54.1967 252.38 54.3327C252.844 54.4607 253.228 54.5887 253.532 54.7167C253.844 54.8367 254.108 55.0207 254.324 55.2687C254.54 55.5087 254.648 55.8247 254.648 56.2167C254.648 56.7607 254.432 57.1927 254 57.5127C253.576 57.8327 253.008 57.9927 252.296 57.9927ZM261 54.1047C261.032 54.4327 261.044 54.8007 261.036 55.2087C261.036 55.2887 260.996 55.3287 260.916 55.3287H257.088C257.056 55.3287 257.04 55.3447 257.04 55.3767C257.04 55.6487 257.064 55.8567 257.112 56.0007C257.2 56.3207 257.376 56.5727 257.64 56.7567C257.912 56.9327 258.252 57.0207 258.66 57.0207C259.252 57.0207 259.708 56.7767 260.028 56.2887C260.068 56.2087 260.12 56.1967 260.184 56.2527L260.868 56.7087C260.924 56.7567 260.936 56.8087 260.904 56.8647C260.68 57.2247 260.36 57.5087 259.944 57.7167C259.536 57.9247 259.072 58.0287 258.552 58.0287C257.968 58.0287 257.476 57.9007 257.076 57.6447C256.676 57.3887 256.376 57.0247 256.176 56.5527C255.984 56.0807 255.888 55.5087 255.888 54.8367C255.888 54.2527 255.932 53.8087 256.02 53.5047C256.164 52.9527 256.452 52.5167 256.884 52.1967C257.316 51.8767 257.84 51.7167 258.456 51.7167C259.264 51.7167 259.868 51.9207 260.268 52.3287C260.668 52.7287 260.912 53.3207 261 54.1047ZM258.456 52.7127C258.112 52.7127 257.828 52.8007 257.604 52.9767C257.38 53.1447 257.228 53.3727 257.148 53.6607C257.092 53.8367 257.056 54.0607 257.04 54.3327C257.04 54.3647 257.056 54.3807 257.088 54.3807H259.836C259.868 54.3807 259.884 54.3647 259.884 54.3327C259.868 54.0687 259.844 53.8727 259.812 53.7447C259.732 53.4327 259.572 53.1847 259.332 53.0007C259.1 52.8087 258.808 52.7127 258.456 52.7127ZM264.723 51.7167C265.211 51.7167 265.635 51.8047 265.995 51.9807C266.363 52.1487 266.643 52.3887 266.835 52.7007C267.035 53.0047 267.135 53.3527 267.135 53.7447V57.8007C267.135 57.8807 267.095 57.9207 267.015 57.9207H266.103C266.023 57.9207 265.983 57.8807 265.983 57.8007V57.3687C265.983 57.3287 265.963 57.3207 265.923 57.3447C265.715 57.5607 265.459 57.7287 265.155 57.8487C264.859 57.9607 264.527 58.0167 264.159 58.0167C263.567 58.0167 263.075 57.8687 262.683 57.5727C262.299 57.2687 262.107 56.8127 262.107 56.2047C262.107 55.5807 262.323 55.0927 262.755 54.7407C263.195 54.3807 263.807 54.2007 264.591 54.2007H265.935C265.967 54.2007 265.983 54.1847 265.983 54.1527V53.8287C265.983 53.4767 265.879 53.2047 265.671 53.0127C265.471 52.8127 265.163 52.7127 264.747 52.7127C264.411 52.7127 264.135 52.7807 263.919 52.9167C263.711 53.0447 263.583 53.2207 263.535 53.4447C263.511 53.5247 263.463 53.5607 263.391 53.5527L262.419 53.4207C262.339 53.4047 262.303 53.3727 262.311 53.3247C262.375 52.8527 262.627 52.4687 263.067 52.1727C263.507 51.8687 264.059 51.7167 264.723 51.7167ZM264.411 57.0447C264.835 57.0447 265.203 56.9327 265.515 56.7087C265.827 56.4847 265.983 56.2007 265.983 55.8567V55.1487C265.983 55.1167 265.967 55.1007 265.935 55.1007H264.807C264.335 55.1007 263.959 55.1927 263.679 55.3767C263.399 55.5607 263.259 55.8167 263.259 56.1447C263.259 56.4407 263.363 56.6647 263.571 56.8167C263.787 56.9687 264.067 57.0447 264.411 57.0447ZM271.68 52.6407C271.68 52.7207 271.64 52.7607 271.56 52.7607H270.264C270.232 52.7607 270.216 52.7767 270.216 52.8087V55.9887C270.216 56.3247 270.292 56.5687 270.444 56.7207C270.596 56.8647 270.832 56.9367 271.152 56.9367H271.5C271.58 56.9367 271.62 56.9767 271.62 57.0567V57.8007C271.62 57.8807 271.58 57.9207 271.5 57.9207C271.244 57.9367 271.06 57.9447 270.948 57.9447C270.34 57.9447 269.88 57.8367 269.568 57.6207C269.264 57.3967 269.112 56.9887 269.112 56.3967V52.8087C269.112 52.7767 269.096 52.7607 269.064 52.7607H268.332C268.252 52.7607 268.212 52.7207 268.212 52.6407V51.9327C268.212 51.8527 268.252 51.8127 268.332 51.8127H269.064C269.096 51.8127 269.112 51.7967 269.112 51.7647V50.3487C269.112 50.2687 269.152 50.2287 269.232 50.2287H270.096C270.176 50.2287 270.216 50.2687 270.216 50.3487V51.7647C270.216 51.7967 270.232 51.8127 270.264 51.8127H271.56C271.64 51.8127 271.68 51.8527 271.68 51.9327V52.6407ZM275.306 57.9927C274.826 57.9927 274.402 57.9207 274.034 57.7767C273.674 57.6327 273.394 57.4367 273.194 57.1887C272.994 56.9327 272.894 56.6527 272.894 56.3487V56.2167C272.894 56.1367 272.934 56.0967 273.014 56.0967H273.878C273.958 56.0967 273.998 56.1367 273.998 56.2167V56.2767C273.998 56.5007 274.118 56.6967 274.358 56.8647C274.606 57.0327 274.918 57.1167 275.294 57.1167C275.654 57.1167 275.946 57.0407 276.17 56.8887C276.394 56.7287 276.506 56.5287 276.506 56.2887C276.506 56.0567 276.402 55.8847 276.194 55.7727C275.986 55.6527 275.65 55.5287 275.186 55.4007C274.73 55.2727 274.346 55.1447 274.034 55.0167C273.73 54.8807 273.47 54.6927 273.254 54.4527C273.046 54.2047 272.942 53.8887 272.942 53.5047C272.942 52.9687 273.15 52.5447 273.566 52.2327C273.99 51.9127 274.55 51.7527 275.246 51.7527C275.71 51.7527 276.118 51.8287 276.47 51.9807C276.83 52.1247 277.106 52.3287 277.298 52.5927C277.49 52.8567 277.586 53.1527 277.586 53.4807V53.5167C277.586 53.5967 277.546 53.6367 277.466 53.6367H276.626C276.546 53.6367 276.506 53.5967 276.506 53.5167V53.4807C276.506 53.2487 276.39 53.0567 276.158 52.9047C275.934 52.7447 275.626 52.6647 275.234 52.6647C274.882 52.6647 274.594 52.7327 274.37 52.8687C274.154 53.0047 274.046 53.1887 274.046 53.4207C274.046 53.6527 274.15 53.8287 274.358 53.9487C274.574 54.0687 274.918 54.1967 275.39 54.3327C275.854 54.4607 276.238 54.5887 276.542 54.7167C276.854 54.8367 277.118 55.0207 277.334 55.2687C277.55 55.5087 277.658 55.8247 277.658 56.2167C277.658 56.7607 277.442 57.1927 277.01 57.5127C276.586 57.8327 276.018 57.9927 275.306 57.9927ZM205.072 67.7167C205.56 67.7167 205.984 67.8047 206.344 67.9807C206.712 68.1487 206.992 68.3887 207.184 68.7007C207.384 69.0047 207.484 69.3527 207.484 69.7447V73.8007C207.484 73.8807 207.444 73.9207 207.364 73.9207H206.452C206.372 73.9207 206.332 73.8807 206.332 73.8007V73.3687C206.332 73.3287 206.312 73.3207 206.272 73.3447C206.064 73.5607 205.808 73.7287 205.504 73.8487C205.208 73.9607 204.876 74.0167 204.508 74.0167C203.916 74.0167 203.424 73.8687 203.032 73.5727C202.648 73.2687 202.456 72.8127 202.456 72.2047C202.456 71.5807 202.672 71.0927 203.104 70.7407C203.544 70.3807 204.156 70.2007 204.94 70.2007H206.284C206.316 70.2007 206.332 70.1847 206.332 70.1527V69.8287C206.332 69.4767 206.228 69.2047 206.02 69.0127C205.82 68.8127 205.512 68.7127 205.096 68.7127C204.76 68.7127 204.484 68.7807 204.268 68.9167C204.06 69.0447 203.932 69.2207 203.884 69.4447C203.86 69.5247 203.812 69.5607 203.74 69.5527L202.768 69.4207C202.688 69.4047 202.652 69.3727 202.66 69.3247C202.724 68.8527 202.976 68.4687 203.416 68.1727C203.856 67.8687 204.408 67.7167 205.072 67.7167ZM204.76 73.0447C205.184 73.0447 205.552 72.9327 205.864 72.7087C206.176 72.4847 206.332 72.2007 206.332 71.8567V71.1487C206.332 71.1167 206.316 71.1007 206.284 71.1007H205.156C204.684 71.1007 204.308 71.1927 204.028 71.3767C203.748 71.5607 203.608 71.8167 203.608 72.1447C203.608 72.4407 203.712 72.6647 203.92 72.8167C204.136 72.9687 204.416 73.0447 204.76 73.0447ZM210.602 73.9207C210.53 73.9207 210.482 73.8887 210.458 73.8247L208.502 67.9447L208.49 67.8967C208.49 67.8407 208.526 67.8127 208.598 67.8127H209.606C209.678 67.8127 209.726 67.8447 209.75 67.9087L211.07 72.2527C211.078 72.2687 211.09 72.2767 211.106 72.2767C211.122 72.2767 211.134 72.2687 211.142 72.2527L212.45 67.9087C212.474 67.8447 212.522 67.8127 212.594 67.8127L213.602 67.8247C213.69 67.8247 213.722 67.8687 213.698 67.9567L211.754 73.8247C211.73 73.8887 211.682 73.9207 211.61 73.9207H210.602ZM216.981 67.7167C217.469 67.7167 217.893 67.8047 218.253 67.9807C218.621 68.1487 218.901 68.3887 219.093 68.7007C219.293 69.0047 219.393 69.3527 219.393 69.7447V73.8007C219.393 73.8807 219.353 73.9207 219.273 73.9207H218.361C218.281 73.9207 218.241 73.8807 218.241 73.8007V73.3687C218.241 73.3287 218.221 73.3207 218.181 73.3447C217.973 73.5607 217.717 73.7287 217.413 73.8487C217.117 73.9607 216.785 74.0167 216.417 74.0167C215.825 74.0167 215.333 73.8687 214.941 73.5727C214.557 73.2687 214.365 72.8127 214.365 72.2047C214.365 71.5807 214.581 71.0927 215.013 70.7407C215.453 70.3807 216.065 70.2007 216.849 70.2007H218.193C218.225 70.2007 218.241 70.1847 218.241 70.1527V69.8287C218.241 69.4767 218.137 69.2047 217.929 69.0127C217.729 68.8127 217.421 68.7127 217.005 68.7127C216.669 68.7127 216.393 68.7807 216.177 68.9167C215.969 69.0447 215.841 69.2207 215.793 69.4447C215.769 69.5247 215.721 69.5607 215.649 69.5527L214.677 69.4207C214.597 69.4047 214.561 69.3727 214.569 69.3247C214.633 68.8527 214.885 68.4687 215.325 68.1727C215.765 67.8687 216.317 67.7167 216.981 67.7167ZM216.669 73.0447C217.093 73.0447 217.461 72.9327 217.773 72.7087C218.085 72.4847 218.241 72.2007 218.241 71.8567V71.1487C218.241 71.1167 218.225 71.1007 218.193 71.1007H217.065C216.593 71.1007 216.217 71.1927 215.937 71.3767C215.657 71.5607 215.517 71.8167 215.517 72.1447C215.517 72.4407 215.621 72.6647 215.829 72.8167C216.045 72.9687 216.325 73.0447 216.669 73.0447ZM221.704 66.8527C221.48 66.8527 221.296 66.7807 221.152 66.6367C221.008 66.4927 220.936 66.3087 220.936 66.0847C220.936 65.8607 221.008 65.6767 221.152 65.5327C221.296 65.3887 221.48 65.3167 221.704 65.3167C221.928 65.3167 222.112 65.3887 222.256 65.5327C222.4 65.6767 222.472 65.8607 222.472 66.0847C222.472 66.3087 222.4 66.4927 222.256 66.6367C222.112 66.7807 221.928 66.8527 221.704 66.8527ZM221.224 73.9087C221.144 73.9087 221.104 73.8687 221.104 73.7887V67.9327C221.104 67.8527 221.144 67.8127 221.224 67.8127H222.136C222.216 67.8127 222.256 67.8527 222.256 67.9327V73.7887C222.256 73.8687 222.216 73.9087 222.136 73.9087H221.224ZM224.247 73.9207C224.167 73.9207 224.127 73.8807 224.127 73.8007V65.6407C224.127 65.5607 224.167 65.5207 224.247 65.5207H225.159C225.239 65.5207 225.279 65.5607 225.279 65.6407V73.8007C225.279 73.8807 225.239 73.9207 225.159 73.9207H224.247ZM229.243 67.7167C229.731 67.7167 230.155 67.8047 230.515 67.9807C230.883 68.1487 231.163 68.3887 231.355 68.7007C231.555 69.0047 231.655 69.3527 231.655 69.7447V73.8007C231.655 73.8807 231.615 73.9207 231.535 73.9207H230.623C230.543 73.9207 230.503 73.8807 230.503 73.8007V73.3687C230.503 73.3287 230.483 73.3207 230.443 73.3447C230.235 73.5607 229.979 73.7287 229.675 73.8487C229.379 73.9607 229.047 74.0167 228.679 74.0167C228.087 74.0167 227.595 73.8687 227.203 73.5727C226.819 73.2687 226.627 72.8127 226.627 72.2047C226.627 71.5807 226.843 71.0927 227.275 70.7407C227.715 70.3807 228.327 70.2007 229.111 70.2007H230.455C230.487 70.2007 230.503 70.1847 230.503 70.1527V69.8287C230.503 69.4767 230.399 69.2047 230.191 69.0127C229.991 68.8127 229.683 68.7127 229.267 68.7127C228.931 68.7127 228.655 68.7807 228.439 68.9167C228.231 69.0447 228.103 69.2207 228.055 69.4447C228.031 69.5247 227.983 69.5607 227.911 69.5527L226.939 69.4207C226.859 69.4047 226.823 69.3727 226.831 69.3247C226.895 68.8527 227.147 68.4687 227.587 68.1727C228.027 67.8687 228.579 67.7167 229.243 67.7167ZM228.931 73.0447C229.355 73.0447 229.723 72.9327 230.035 72.7087C230.347 72.4847 230.503 72.2007 230.503 71.8567V71.1487C230.503 71.1167 230.487 71.1007 230.455 71.1007H229.327C228.855 71.1007 228.479 71.1927 228.199 71.3767C227.919 71.5607 227.779 71.8167 227.779 72.1447C227.779 72.4407 227.883 72.6647 228.091 72.8167C228.307 72.9687 228.587 73.0447 228.931 73.0447ZM238.202 69.3967C238.33 69.8047 238.394 70.2887 238.394 70.8487C238.394 71.4487 238.318 71.9607 238.166 72.3847C237.99 72.9047 237.71 73.3087 237.326 73.5967C236.95 73.8767 236.474 74.0167 235.898 74.0167C235.618 74.0167 235.358 73.9607 235.118 73.8487C234.878 73.7367 234.67 73.5807 234.494 73.3807C234.478 73.3647 234.462 73.3607 234.446 73.3687C234.438 73.3767 234.434 73.3887 234.434 73.4047V73.8007C234.434 73.8807 234.394 73.9207 234.314 73.9207H233.402C233.322 73.9207 233.282 73.8807 233.282 73.8007V65.6407C233.282 65.5607 233.322 65.5207 233.402 65.5207H234.314C234.394 65.5207 234.434 65.5607 234.434 65.6407V68.3167C234.434 68.3327 234.438 68.3447 234.446 68.3527C234.462 68.3607 234.478 68.3567 234.494 68.3407C234.67 68.1407 234.878 67.9887 235.118 67.8847C235.366 67.7727 235.626 67.7167 235.898 67.7167C236.498 67.7167 236.99 67.8647 237.374 68.1607C237.758 68.4567 238.034 68.8687 238.202 69.3967ZM236.93 72.3607C237.13 71.9847 237.23 71.4887 237.23 70.8727C237.23 70.2167 237.102 69.6887 236.846 69.2887C236.614 68.9047 236.258 68.7127 235.778 68.7127C235.33 68.7127 234.99 68.9167 234.758 69.3247C234.55 69.6927 234.446 70.2047 234.446 70.8607C234.446 71.5167 234.542 72.0207 234.734 72.3727C234.974 72.8047 235.326 73.0207 235.79 73.0207C236.318 73.0207 236.698 72.8007 236.93 72.3607ZM240.083 73.9207C240.003 73.9207 239.963 73.8807 239.963 73.8007V65.6407C239.963 65.5607 240.003 65.5207 240.083 65.5207H240.995C241.075 65.5207 241.115 65.5607 241.115 65.6407V73.8007C241.115 73.8807 241.075 73.9207 240.995 73.9207H240.083ZM247.791 70.1047C247.823 70.4327 247.835 70.8007 247.827 71.2087C247.827 71.2887 247.787 71.3287 247.707 71.3287H243.879C243.847 71.3287 243.831 71.3447 243.831 71.3767C243.831 71.6487 243.855 71.8567 243.903 72.0007C243.991 72.3207 244.167 72.5727 244.431 72.7567C244.703 72.9327 245.043 73.0207 245.451 73.0207C246.043 73.0207 246.499 72.7767 246.819 72.2887C246.859 72.2087 246.911 72.1967 246.975 72.2527L247.659 72.7087C247.715 72.7567 247.727 72.8087 247.695 72.8647C247.471 73.2247 247.151 73.5087 246.735 73.7167C246.327 73.9247 245.863 74.0287 245.343 74.0287C244.759 74.0287 244.267 73.9007 243.867 73.6447C243.467 73.3887 243.167 73.0247 242.967 72.5527C242.775 72.0807 242.679 71.5087 242.679 70.8367C242.679 70.2527 242.723 69.8087 242.811 69.5047C242.955 68.9527 243.243 68.5167 243.675 68.1967C244.107 67.8767 244.631 67.7167 245.247 67.7167C246.055 67.7167 246.659 67.9207 247.059 68.3287C247.459 68.7287 247.703 69.3207 247.791 70.1047ZM245.247 68.7127C244.903 68.7127 244.619 68.8007 244.395 68.9767C244.171 69.1447 244.019 69.3727 243.939 69.6607C243.883 69.8367 243.847 70.0607 243.831 70.3327C243.831 70.3647 243.847 70.3807 243.879 70.3807H246.627C246.659 70.3807 246.675 70.3647 246.675 70.3327C246.659 70.0687 246.635 69.8727 246.603 69.7447C246.523 69.4327 246.363 69.1847 246.123 69.0007C245.891 68.8087 245.599 68.7127 245.247 68.7127Z" fill="#101010"/>
</svg>
