<svg width="24" height="24" viewBox="0 0 24 24" fill="none" xmlns="http://www.w3.org/2000/svg">
<g clip-path="url(#clip0_5631_27852)">
<path d="M12 0.674805C5.73755 0.674805 0.675049 5.7373 0.675049 11.9998C0.675049 18.2623 5.73755 23.3623 12 23.3623C18.2626 23.3623 23.3625 18.2623 23.3625 11.9998C23.3625 5.7373 18.2626 0.674805 12 0.674805ZM12 21.6748C6.67505 21.6748 2.36255 17.3248 2.36255 11.9998C2.36255 6.67481 6.67505 2.3623 12 2.3623C17.325 2.3623 21.675 6.7123 21.675 12.0373C21.675 17.3248 17.325 21.6748 12 21.6748Z" fill="#183F27"/>
<path d="M15.4501 8.51191C15.1126 8.17441 14.5876 8.17441 14.2501 8.51191L12.0001 10.7994L9.71265 8.51191C9.37515 8.17441 8.85015 8.17441 8.51265 8.51191C8.17515 8.84941 8.17515 9.37441 8.51265 9.71191L10.8001 11.9994L8.51265 14.2869C8.17515 14.6244 8.17515 15.1494 8.51265 15.4869C8.66265 15.6369 8.88765 15.7494 9.11265 15.7494C9.33765 15.7494 9.56265 15.6744 9.71265 15.4869L12.0001 13.1994L14.2876 15.4869C14.4376 15.6369 14.6626 15.7494 14.8876 15.7494C15.1126 15.7494 15.3376 15.6744 15.4876 15.4869C15.8251 15.1494 15.8251 14.6244 15.4876 14.2869L13.2001 11.9994L15.4876 9.71191C15.7876 9.37441 15.7876 8.84941 15.4501 8.51191Z" fill="#2F2E2E"/>
</g>
<defs>
<clipPath id="clip0_5631_27852">
<rect width="24" height="24" fill="white"/>
</clipPath>
</defs>
</svg>
