<svg width="24" height="24" viewBox="0 0 24 24" fill="none" xmlns="http://www.w3.org/2000/svg">
<g clip-path="url(#clip0_59_4232)">
<path d="M12.0008 0.675049C5.73828 0.675049 0.675781 5.73755 0.675781 12C0.675781 18.2626 5.73828 23.3625 12.0008 23.3625C18.2633 23.3625 23.3633 18.2626 23.3633 12C23.3633 5.73755 18.2633 0.675049 12.0008 0.675049ZM12.0008 21.675C6.67578 21.675 2.36328 17.325 2.36328 12C2.36328 6.67505 6.67578 2.36255 12.0008 2.36255C17.3258 2.36255 21.6758 6.71255 21.6758 12.0375C21.6758 17.325 17.3258 21.675 12.0008 21.675Z" fill="#111928"/>
<path d="M15.4504 8.51265C15.1129 8.17515 14.5879 8.17515 14.2504 8.51265L12.0004 10.8001L9.71289 8.51265C9.37539 8.17515 8.85039 8.17515 8.51289 8.51265C8.17539 8.85015 8.17539 9.37515 8.51289 9.71265L10.8004 12.0001L8.51289 14.2876C8.17539 14.6251 8.17539 15.1501 8.51289 15.4876C8.66289 15.6376 8.88789 15.7501 9.11289 15.7501C9.33789 15.7501 9.56289 15.6751 9.71289 15.4876L12.0004 13.2001L14.2879 15.4876C14.4379 15.6376 14.6629 15.7501 14.8879 15.7501C15.1129 15.7501 15.3379 15.6751 15.4879 15.4876C15.8254 15.1501 15.8254 14.6251 15.4879 14.2876L13.2004 12.0001L15.4879 9.71265C15.7879 9.37515 15.7879 8.85015 15.4504 8.51265Z" fill="#111928"/>
</g>
<defs>
<clipPath id="clip0_59_4232">
<rect width="24" height="24" fill="white"/>
</clipPath>
</defs>
</svg>
