<svg width="24" height="24" viewBox="0 0 24 24" fill="none" xmlns="http://www.w3.org/2000/svg">
<g clip-path="url(#clip0_7284_215062)">
<path d="M12.0008 0.675781C5.73828 0.675781 0.675781 5.73828 0.675781 12.0008C0.675781 18.2633 5.73828 23.3633 12.0008 23.3633C18.2633 23.3633 23.3633 18.2633 23.3633 12.0008C23.3633 5.73828 18.2633 0.675781 12.0008 0.675781ZM12.0008 21.6758C6.67578 21.6758 2.36328 17.3258 2.36328 12.0008C2.36328 6.67578 6.67578 2.36328 12.0008 2.36328C17.3258 2.36328 21.6758 6.71328 21.6758 12.0383C21.6758 17.3258 17.3258 21.6758 12.0008 21.6758Z" fill="#183F27"/>
<path d="M15.4523 8.51289C15.1148 8.17539 14.5898 8.17539 14.2523 8.51289L12.0023 10.8004L9.71484 8.51289C9.37734 8.17539 8.85234 8.17539 8.51484 8.51289C8.17734 8.85039 8.17734 9.37539 8.51484 9.71289L10.8023 12.0004L8.51484 14.2879C8.17734 14.6254 8.17734 15.1504 8.51484 15.4879C8.66484 15.6379 8.88984 15.7504 9.11484 15.7504C9.33984 15.7504 9.56484 15.6754 9.71484 15.4879L12.0023 13.2004L14.2898 15.4879C14.4398 15.6379 14.6648 15.7504 14.8898 15.7504C15.1148 15.7504 15.3398 15.6754 15.4898 15.4879C15.8273 15.1504 15.8273 14.6254 15.4898 14.2879L13.2023 12.0004L15.4898 9.71289C15.7898 9.37539 15.7898 8.85039 15.4523 8.51289Z" fill="#2F2E2E"/>
</g>
<defs>
<clipPath id="clip0_7284_215062">
<rect width="24" height="24" fill="white"/>
</clipPath>
</defs>
</svg>
