<svg width="30" height="31" viewBox="0 0 30 31" fill="none" xmlns="http://www.w3.org/2000/svg">
<g clip-path="url(#clip0_2060_4471)">
<circle cx="15" cy="15.0522" r="15" fill="#FDE8E9"/>
<g clip-path="url(#clip1_2060_4471)">
<path d="M18.475 11.2273C18.3 9.57726 16.95 8.22726 15.25 8.00226C13.7 7.82726 12.25 8.60226 11.55 9.95226C11.4 10.2273 11.525 10.5773 11.8 10.7023C12.075 10.8523 12.425 10.7273 12.55 10.4523C13.05 9.50226 14.05 8.97726 15.125 9.07726C16.3 9.22726 17.225 10.1773 17.35 11.3023C17.475 12.3773 16.9 13.4023 15.925 13.8523C14.9 14.3523 14.25 15.4023 14.25 16.5773V19.0523C14.25 19.3523 14.5 19.6273 14.825 19.6273C15.15 19.6273 15.4 19.3773 15.4 19.0523V16.5773C15.4 15.8523 15.825 15.1773 16.45 14.8773C17.825 14.2773 18.65 12.7773 18.475 11.2273Z" fill="#530A0D"/>
<path d="M14.825 20.8523C14.525 20.8523 14.25 21.1023 14.25 21.4273V21.5523C14.25 21.8523 14.5 22.1273 14.825 22.1273C15.15 22.1273 15.4 21.8773 15.4 21.5523V21.4273C15.375 21.1023 15.125 20.8523 14.825 20.8523Z" fill="#530A0D"/>
</g>
</g>
<defs>
<clipPath id="clip0_2060_4471">
<rect width="30" height="30" fill="white" transform="translate(0 0.0522461)"/>
</clipPath>
<clipPath id="clip1_2060_4471">
<rect width="16" height="16" fill="white" transform="translate(7 7.05225)"/>
</clipPath>
</defs>
</svg>
