<svg width="21" height="20" viewBox="0 0 21 20" fill="none" xmlns="http://www.w3.org/2000/svg">
<path d="M18.0312 3.46875H2.96875C1.90625 3.46875 1.0625 4.3125 1.0625 5.375V14.625C1.0625 15.6875 1.90625 16.5313 2.96875 16.5313H18.0625C19.125 16.5313 19.9688 15.6875 19.9688 14.625V5.375C19.9688 4.3125 19.0938 3.46875 18.0312 3.46875ZM2.46875 5.75L8.15625 9.21875L2.46875 14.5313V5.75ZM10.75 8.84375C10.5938 8.9375 10.375 8.9375 10.2188 8.84375L3.71875 4.875H17.1562L10.75 8.84375ZM9.375 9.96875L9.5 10.0625C9.8125 10.25 10.1562 10.3438 10.5 10.3438C10.8438 10.3438 11.1875 10.25 11.5 10.0625L11.625 10L17.0313 15.1563H3.84375L9.375 9.96875ZM18.5625 14.625C18.5312 14.625 18.5625 14.625 18.5625 14.625L12.8438 9.21875L18.5312 5.65625V14.625H18.5625Z" fill="white"/>
</svg>
