<svg width="22" height="22" viewBox="0 0 22 22" fill="none" xmlns="http://www.w3.org/2000/svg">
<g clip-path="url(#clip0_7598_10685)">
<path d="M14.5892 21.0035C12.6938 21.0035 11.103 19.6285 10.7307 17.8066H1.52456C1.1184 17.8066 0.746094 17.4629 0.746094 17.016C0.746094 16.5691 1.08456 16.2254 1.52456 16.2254H10.7307C11.103 14.4379 12.6938 13.0629 14.5892 13.0629C16.4846 13.0629 18.0753 14.4379 18.4476 16.2598H20.4784C20.8846 16.2598 21.2569 16.6035 21.2569 17.0504C21.2569 17.4973 20.9184 17.841 20.4784 17.841H18.4476C18.0753 19.6285 16.4846 21.0035 14.5892 21.0035ZM14.5892 14.6098C13.2692 14.6098 12.1861 15.7098 12.1861 17.016C12.1861 18.3223 13.2692 19.4223 14.5892 19.4223C15.9092 19.4223 16.9922 18.3223 16.9922 17.016C16.9922 15.7098 15.9092 14.6098 14.5892 14.6098ZM8.63225 14.9535C6.73686 14.9535 5.14609 13.5785 4.77379 11.7566H1.52456C1.1184 11.7566 0.746094 11.4129 0.746094 10.966C0.746094 10.5535 1.08456 10.1754 1.52456 10.1754H4.77379C5.14609 8.35352 6.73686 6.97852 8.63225 6.97852C10.5276 6.97852 12.1184 8.35352 12.4907 10.1754H20.5122C20.9184 10.1754 21.2907 10.5191 21.2907 10.966C21.2907 11.3785 20.9522 11.7566 20.5122 11.7566H12.4569C12.1184 13.5785 10.5276 14.9535 8.63225 14.9535ZM8.63225 8.59414C7.31225 8.59414 6.22917 9.69414 6.22917 11.0004C6.22917 12.341 7.31225 13.4066 8.63225 13.4066C9.95225 13.4066 11.0353 12.3066 11.0353 11.0004C11.0353 9.65977 9.95225 8.59414 8.63225 8.59414ZM17.3307 8.93789C15.4353 8.93789 13.8446 7.56289 13.4722 5.74102H1.52456C1.1184 5.74102 0.746094 5.39727 0.746094 4.95039C0.746094 4.50352 1.08456 4.15977 1.52456 4.15977H13.4722C13.8446 2.33789 15.4353 0.962891 17.3307 0.962891C19.4969 0.962891 21.2569 2.75039 21.2569 4.91602C21.2569 7.08164 19.4969 8.93789 17.3307 8.93789ZM17.3307 2.54414C16.0107 2.54414 14.9276 3.64414 14.9276 4.95039C14.9276 6.25664 16.0107 7.35664 17.3307 7.35664C18.6507 7.35664 19.7338 6.25664 19.7338 4.95039C19.7338 3.64414 18.6507 2.54414 17.3307 2.54414Z" fill="#101010"/>
</g>
<defs>
<clipPath id="clip0_7598_10685">
<rect width="22" height="22" fill="white"/>
</clipPath>
</defs>
</svg>
