<svg width="20" height="20" viewBox="0 0 20 20" fill="none" xmlns="http://www.w3.org/2000/svg">
<g clip-path="url(#clip0_6590_2834)">
<path d="M19.2188 9.12515H10.25V11.7814H16.6875C16.3438 15.4689 13.3438 17.0627 10.4375 17.0627C6.75001 17.0627 3.46876 14.1877 3.46876 10.0314C3.46876 6.0314 6.59376 3.00016 10.4375 3.00016C13.375 3.00016 15.1563 4.9064 15.1563 4.9064L16.9688 3.00016C16.9688 3.00016 14.5313 0.343906 10.3125 0.343906C4.75001 0.312656 0.5 4.9689 0.5 10.0002C0.5 14.8752 4.50001 19.6877 10.4063 19.6877C15.625 19.6877 19.375 16.1564 19.375 10.8752C19.4063 9.7814 19.2188 9.12515 19.2188 9.12515Z" fill="#6B0D10"/>
</g>
<defs>
<clipPath id="clip0_6590_2834">
<rect width="20" height="20" fill="white"/>
</clipPath>
</defs>
</svg>
