<svg width="21" height="20" viewBox="0 0 21 20" fill="none" xmlns="http://www.w3.org/2000/svg">
<g clip-path="url(#clip0_3122_48106)">
<path d="M21.3291 9.03672C21.3291 7.08672 19.7541 5.51172 17.8041 5.51172C16.7166 5.51172 15.7416 5.99922 15.1041 6.74922C14.6541 6.18672 14.0166 5.81172 13.3041 5.62422C13.4916 3.82422 14.4666 2.36172 15.5166 2.36172C15.9666 2.36172 16.3791 1.98672 16.3791 1.49922C16.3791 1.01172 16.0041 0.636719 15.5166 0.636719C13.4916 0.636719 11.8791 2.73672 11.6166 5.54922C10.8666 5.73672 10.2291 6.14922 9.7416 6.71172C9.1041 5.96172 8.1291 5.47422 7.0416 5.47422C5.0916 5.47422 3.5166 7.04922 3.5166 8.99922C3.5166 10.8367 4.9416 12.3742 6.7416 12.5242C6.4041 13.0492 6.2166 13.6867 6.2166 14.3992C6.2166 16.2367 7.6416 17.7742 9.4416 17.9242C9.1041 18.4492 8.9166 19.0867 8.9166 19.7992C8.9166 21.7492 10.4916 23.3242 12.4416 23.3242C14.3916 23.3242 15.9666 21.7492 15.9666 19.7992C15.9666 19.1242 15.7791 18.4867 15.4416 17.9242C17.2416 17.7742 18.6666 16.2367 18.6666 14.3992C18.6666 13.7242 18.4791 13.0867 18.1416 12.5242C19.9041 12.4117 21.3291 10.8742 21.3291 9.03672ZM12.4041 7.16172C13.4166 7.16172 14.2416 7.98672 14.2416 8.99922C14.2416 10.0117 13.4166 10.8367 12.4041 10.8367C11.3916 10.8367 10.5666 10.0117 10.5666 8.99922C10.5666 8.02422 11.3916 7.16172 12.4041 7.16172ZM5.1666 9.03672C5.1666 8.02422 5.9916 7.19922 7.0041 7.19922C8.0166 7.19922 8.8416 8.02422 8.8416 9.03672C8.8416 10.0492 8.0166 10.8742 7.0041 10.8742C5.9916 10.8742 5.1666 10.0492 5.1666 9.03672ZM7.8666 14.3992C7.8666 13.3867 8.6916 12.5617 9.7041 12.5617C10.7166 12.5617 11.5416 13.3867 11.5416 14.3992C11.5416 15.4117 10.7166 16.2367 9.7041 16.2367C8.6916 16.2742 7.8666 15.4492 7.8666 14.3992ZM12.4041 21.6742C11.3916 21.6742 10.5666 20.8492 10.5666 19.8367C10.5666 18.8242 11.3916 17.9992 12.4041 17.9992C13.4166 17.9992 14.2416 18.8242 14.2416 19.8367C14.2416 20.8117 13.4166 21.6742 12.4041 21.6742ZM15.1041 16.2742C14.0916 16.2742 13.2666 15.4492 13.2666 14.4367C13.2666 13.4242 14.0916 12.5992 15.1041 12.5992C16.1166 12.5992 16.9416 13.4242 16.9416 14.4367C16.9416 15.4492 16.1166 16.2742 15.1041 16.2742ZM17.8041 10.8742C16.7916 10.8742 15.9666 10.0492 15.9666 9.03672C15.9666 8.02422 16.7916 7.19922 17.8041 7.19922C18.8166 7.19922 19.6416 8.02422 19.6416 9.03672C19.6416 10.0492 18.8166 10.8742 17.8041 10.8742Z" fill="#101010"/>
</g>
<defs>
<clipPath id="clip0_3122_48106">
<rect width="20" height="20" fill="white" transform="translate(0.404297)"/>
</clipPath>
</defs>
</svg>
