<svg width="24" height="24" viewBox="0 0 24 24" fill="none" xmlns="http://www.w3.org/2000/svg">
<path d="M20.9258 9.03672C20.9258 7.08672 19.3508 5.51172 17.4008 5.51172C16.3133 5.51172 15.3383 5.99922 14.7008 6.74922C14.2508 6.18672 13.6133 5.81172 12.9008 5.62422C13.0883 3.82422 14.0633 2.36172 15.1133 2.36172C15.5633 2.36172 15.9758 1.98672 15.9758 1.49922C15.9758 1.01172 15.6008 0.636719 15.1133 0.636719C13.0883 0.636719 11.4758 2.73672 11.2133 5.54922C10.4633 5.73672 9.82578 6.14922 9.33828 6.71172C8.70078 5.96172 7.72578 5.47422 6.63828 5.47422C4.68828 5.47422 3.11328 7.04922 3.11328 8.99922C3.11328 10.8367 4.53828 12.3742 6.33828 12.5242C6.00078 13.0492 5.81328 13.6867 5.81328 14.3992C5.81328 16.2367 7.23828 17.7742 9.03828 17.9242C8.70078 18.4492 8.51328 19.0867 8.51328 19.7992C8.51328 21.7492 10.0883 23.3242 12.0383 23.3242C13.9883 23.3242 15.5633 21.7492 15.5633 19.7992C15.5633 19.1242 15.3758 18.4867 15.0383 17.9242C16.8383 17.7742 18.2633 16.2367 18.2633 14.3992C18.2633 13.7242 18.0758 13.0867 17.7383 12.5242C19.5008 12.4117 20.9258 10.8742 20.9258 9.03672ZM12.0008 7.16172C13.0133 7.16172 13.8383 7.98672 13.8383 8.99922C13.8383 10.0117 13.0133 10.8367 12.0008 10.8367C10.9883 10.8367 10.1633 10.0117 10.1633 8.99922C10.1633 8.02422 10.9883 7.16172 12.0008 7.16172ZM4.76328 9.03672C4.76328 8.02422 5.58828 7.19922 6.60078 7.19922C7.61328 7.19922 8.43828 8.02422 8.43828 9.03672C8.43828 10.0492 7.61328 10.8742 6.60078 10.8742C5.58828 10.8742 4.76328 10.0492 4.76328 9.03672ZM7.46328 14.3992C7.46328 13.3867 8.28828 12.5617 9.30078 12.5617C10.3133 12.5617 11.1383 13.3867 11.1383 14.3992C11.1383 15.4117 10.3133 16.2367 9.30078 16.2367C8.28828 16.2742 7.46328 15.4492 7.46328 14.3992ZM12.0008 21.6742C10.9883 21.6742 10.1633 20.8492 10.1633 19.8367C10.1633 18.8242 10.9883 17.9992 12.0008 17.9992C13.0133 17.9992 13.8383 18.8242 13.8383 19.8367C13.8383 20.8117 13.0133 21.6742 12.0008 21.6742ZM14.7008 16.2742C13.6883 16.2742 12.8633 15.4492 12.8633 14.4367C12.8633 13.4242 13.6883 12.5992 14.7008 12.5992C15.7133 12.5992 16.5383 13.4242 16.5383 14.4367C16.5383 15.4492 15.7133 16.2742 14.7008 16.2742ZM17.4008 10.8742C16.3883 10.8742 15.5633 10.0492 15.5633 9.03672C15.5633 8.02422 16.3883 7.19922 17.4008 7.19922C18.4133 7.19922 19.2383 8.02422 19.2383 9.03672C19.2383 10.0492 18.4133 10.8742 17.4008 10.8742Z" fill="#111928"/>
</svg>
