<svg width="21" height="20" viewBox="0 0 21 20" fill="none" xmlns="http://www.w3.org/2000/svg">
<g clip-path="url(#clip0_3120_56159)">
<path d="M18.3311 19.7539H14.2373C13.2373 19.7539 12.3936 18.9414 12.3936 17.9102V14.5977C12.3936 14.3477 12.2061 14.1602 11.9561 14.1602H9.45606C9.20606 14.1602 9.01856 14.3477 9.01856 14.5977V17.9102C9.01856 18.9414 8.20606 19.7539 7.17481 19.7539H3.08105C2.08105 19.7539 1.2373 18.9414 1.2373 17.9102V7.37891C1.2373 6.84766 1.4873 6.37891 1.9248 6.09766L9.89355 1.06641C10.3936 0.753906 11.0186 0.753906 11.4873 1.06641L19.4561 6.12891C19.8936 6.41016 20.1436 6.87891 20.1436 7.41016V17.9102C20.1748 18.9102 19.3311 19.7539 18.3311 19.7539ZM9.45606 12.7539H11.9561C12.9873 12.7539 13.7998 13.5664 13.7998 14.5977V17.9102C13.7998 18.1602 13.9873 18.3477 14.2373 18.3477H18.3311C18.5811 18.3477 18.7686 18.1602 18.7686 17.9102V7.37891C18.7686 7.34766 18.7373 7.31641 18.7373 7.28516L10.7373 2.25391C10.7061 2.22266 10.6748 2.22266 10.6436 2.25391L2.70605 7.28516C2.6748 7.31641 2.64355 7.34766 2.64355 7.37891V17.9102C2.64355 18.1602 2.83105 18.3477 3.08105 18.3477H7.17481C7.42481 18.3477 7.61231 18.1602 7.61231 17.9102V14.5977C7.61231 13.5977 8.42481 12.7539 9.45606 12.7539Z" fill="#101010"/>
</g>
<defs>
<clipPath id="clip0_3120_56159">
<rect width="20" height="20" fill="white" transform="translate(0.404297)"/>
</clipPath>
</defs>
</svg>
