<svg width="28" height="17" viewBox="0 0 28 17" fill="none" xmlns="http://www.w3.org/2000/svg">
<path d="M17.8323 1.6875H10.4883V14.6181H17.8323V1.6875Z" fill="#F26122"/>
<path d="M11.2826 8.15183C11.2686 5.65763 12.4336 3.29563 14.4406 1.74423C11.0056 -0.883989 6.07156 -0.502329 3.10656 2.62083C0.141562 5.74413 0.141562 10.5599 3.10656 13.6832C6.07156 16.8061 11.0056 17.1881 14.4406 14.5595C12.4336 13.0084 11.2686 10.6464 11.2826 8.15183Z" fill="#EA1D25"/>
<path d="M28.0004 8.15177C27.9974 11.2728 26.1664 14.1192 23.2814 15.4833C20.3974 16.8474 16.9654 16.4906 14.4414 14.5642C18.0764 11.7793 18.7054 6.65627 15.8484 3.11627C15.4384 2.60357 14.9664 2.14149 14.4414 1.74004C16.9654 -0.186617 20.3974 -0.543566 23.2814 0.820664C26.1664 2.1849 27.9974 5.03127 28.0004 8.15177Z" fill="#F69E1E"/>
</svg>
