<svg width="25" height="24" viewBox="0 0 25 24" fill="none" xmlns="http://www.w3.org/2000/svg">
<path d="M23.0878 11.175H2.08784C1.63784 11.175 1.22534 11.55 1.22534 12.0375C1.22534 12.4875 1.60034 12.9 2.08784 12.9H23.0878C23.5378 12.9 23.9503 12.525 23.9503 12.0375C23.9503 11.55 23.5378 11.175 23.0878 11.175Z" fill="#111928"/>
<path d="M23.0878 17.55H2.08784C1.63784 17.55 1.22534 17.925 1.22534 18.4125C1.22534 18.9 1.60034 19.275 2.08784 19.275H23.0878C23.5378 19.275 23.9503 18.9 23.9503 18.4125C23.9503 17.925 23.5378 17.55 23.0878 17.55Z" fill="#111928"/>
<path d="M2.08784 6.44998H23.0878C23.5378 6.44998 23.9503 6.07498 23.9503 5.58748C23.9503 5.09998 23.5753 4.72498 23.0878 4.72498H2.08784C1.63784 4.72498 1.22534 5.09998 1.22534 5.58748C1.22534 6.07498 1.63784 6.44998 2.08784 6.44998Z" fill="#111928"/>
</svg>
