<svg width="24" height="24" viewBox="0 0 24 24" fill="none" xmlns="http://www.w3.org/2000/svg">
<path d="M21.1859 14.8874L18.0359 17.9999L17.0234 16.9874C16.6859 16.6499 16.1609 16.6499 15.8234 16.9874C15.4859 17.3249 15.4859 17.8499 15.8234 18.1874L17.4359 19.7624C17.5859 19.9124 17.8109 19.9874 18.0359 19.9874C18.2609 19.9874 18.4484 19.9124 18.6359 19.7624L22.3859 16.0874C22.7234 15.7499 22.7234 15.2249 22.3859 14.8874C22.0484 14.5499 21.5234 14.5499 21.1859 14.8874Z" fill="#34C759"/>
<path d="M21.0367 4.01245H2.96172C1.68672 4.01245 0.636719 5.06245 0.636719 6.33745V17.7C0.636719 18.975 1.68672 20.025 2.96172 20.025H12.9367C13.3867 20.025 13.7992 19.65 13.7992 19.1625C13.7992 18.675 13.4242 18.3 12.9367 18.3H2.96172C2.62422 18.3 2.32422 18 2.32422 17.6625V6.74995L10.7242 11.85C11.0992 12.075 11.5492 12.1875 11.9992 12.1875C12.4492 12.1875 12.8617 12.075 13.2742 11.85L21.6742 6.74995V11.55C21.6742 12 22.0492 12.4125 22.5367 12.4125C23.0242 12.4125 23.3992 12.0375 23.3992 11.55V6.29995C23.3617 5.02495 22.3117 4.01245 21.0367 4.01245ZM12.3742 10.3875C12.1492 10.5375 11.8492 10.5375 11.6242 10.3875L3.86172 5.69995H20.1367L12.3742 10.3875Z" fill="#34C759"/>
</svg>
