<svg width="48" height="48" viewBox="0 0 48 48" fill="none" xmlns="http://www.w3.org/2000/svg">
<path d="M42.3719 29.7719L36.0719 35.9969L34.0469 33.9719C33.3719 33.2969 32.3219 33.2969 31.6469 33.9719C30.9719 34.6469 30.9719 35.6969 31.6469 36.3719L34.8719 39.5219C35.1719 39.8219 35.6219 39.9719 36.0719 39.9719C36.5219 39.9719 36.8969 39.8219 37.2719 39.5219L44.7719 32.1719C45.4469 31.4969 45.4469 30.4469 44.7719 29.7719C44.0969 29.0969 43.0469 29.0969 42.3719 29.7719Z" fill="#34C759"/>
<path d="M42.0734 8.02344H5.92344C3.37344 8.02344 1.27344 10.1234 1.27344 12.6734V35.3984C1.27344 37.9484 3.37344 40.0484 5.92344 40.0484H25.8734C26.7734 40.0484 27.5984 39.2984 27.5984 38.3234C27.5984 37.3484 26.8484 36.5984 25.8734 36.5984H5.92344C5.24844 36.5984 4.64844 35.9984 4.64844 35.3234V13.4984L21.4484 23.6984C22.1984 24.1484 23.0984 24.3734 23.9984 24.3734C24.8984 24.3734 25.7234 24.1484 26.5484 23.6984L43.3484 13.4984V23.0984C43.3484 23.9984 44.0984 24.8234 45.0734 24.8234C46.0484 24.8234 46.7984 24.0734 46.7984 23.0984V12.5984C46.7234 10.0484 44.6234 8.02344 42.0734 8.02344ZM24.7484 20.7734C24.2984 21.0734 23.6984 21.0734 23.2484 20.7734L7.72344 11.3984H40.2734L24.7484 20.7734Z" fill="#34C759"/>
</svg>
