<svg width="107" height="22" viewBox="0 0 107 22" fill="none" xmlns="http://www.w3.org/2000/svg">
<path fill-rule="evenodd" clip-rule="evenodd" d="M24.6956 15.635H26.5196C26.6636 15.635 26.7756 15.571 26.8236 15.411L28.9356 8.73902C28.9676 8.61102 29.0956 8.61102 29.1436 8.73902L31.6556 15.363C31.7196 15.539 31.8156 15.635 31.9916 15.635H33.1276C33.2876 15.635 33.4156 15.555 33.4796 15.363L35.9116 8.73902C35.9596 8.61102 36.1036 8.61102 36.1356 8.73902L38.1996 15.411C38.2316 15.539 38.3276 15.635 38.4876 15.635H40.4236C40.6156 15.635 40.7276 15.491 40.6636 15.283L37.4796 5.01102C37.4316 4.86702 37.3196 4.75502 37.1756 4.75502H35.5436C35.3996 4.75502 35.2716 4.88302 35.2236 5.01102L32.7116 11.491C32.6636 11.635 32.5356 11.619 32.4876 11.491L29.9596 5.01102C29.9116 4.88302 29.7836 4.75502 29.6396 4.75502H28.0076C27.8636 4.75502 27.7516 4.86702 27.7036 5.01102L24.4556 15.283C24.3916 15.507 24.5036 15.635 24.6956 15.635ZM45.4796 15.843C43.0156 15.843 41.1916 13.987 41.1916 11.619C41.1916 9.23501 43.0156 7.39502 45.4796 7.39502C47.9596 7.39502 49.7676 9.23501 49.7676 11.619C49.7676 13.987 47.9596 15.843 45.4796 15.843ZM45.4796 13.859C46.6476 13.859 47.5916 12.851 47.5916 11.619C47.5916 10.371 46.6476 9.37901 45.4796 9.37901C44.3276 9.37901 43.3676 10.371 43.3676 11.619C43.3676 12.851 44.3276 13.859 45.4796 13.859ZM55.7836 15.843C54.8396 15.843 54.1996 15.459 53.6076 14.979C53.4476 14.851 53.3036 14.899 53.3036 15.123V15.331C53.3036 15.491 53.1756 15.635 53.0156 15.635H51.5116C51.3516 15.635 51.2076 15.491 51.2076 15.331V5.05902C51.2076 4.89902 51.3516 4.75502 51.5116 4.75502H53.0956C53.2556 4.75502 53.3836 4.89902 53.3836 5.05902V7.98701C53.3836 8.19501 53.5276 8.25902 53.7516 8.09902C54.2316 7.74702 54.9356 7.39502 55.8476 7.39502C58.0396 7.39502 59.7196 9.25101 59.7196 11.619C59.7196 13.987 58.0076 15.843 55.7836 15.843ZM55.4156 13.843C56.5996 13.843 57.5436 12.851 57.5436 11.619C57.5436 10.371 56.5996 9.37901 55.4156 9.37901C54.2636 9.37901 53.3196 10.355 53.3196 11.619C53.3196 12.867 54.2476 13.843 55.4156 13.843ZM62.2636 6.72301C62.9196 6.72301 63.4796 6.16302 63.4796 5.50702C63.4796 4.85102 62.9196 4.29102 62.2636 4.29102C61.6076 4.29102 61.0476 4.85102 61.0476 5.50702C61.0476 6.16302 61.6076 6.72301 62.2636 6.72301ZM61.4476 15.635H63.0316C63.1916 15.635 63.3356 15.491 63.3356 15.331V7.90701C63.3356 7.74701 63.1916 7.60302 63.0316 7.60302H61.4476C61.2876 7.60302 61.1596 7.74701 61.1596 7.90701V15.331C61.1596 15.491 61.2876 15.635 61.4476 15.635ZM68.0556 15.715C68.2156 15.715 68.3596 15.587 68.3596 15.427V14.115C68.3596 13.939 68.2156 13.811 68.0556 13.811C67.4956 13.811 67.2716 13.475 67.2716 12.963V5.05902C67.2716 4.89902 67.1276 4.75502 66.9676 4.75502H65.3836C65.2236 4.75502 65.0956 4.89902 65.0956 5.05902V12.915C65.0956 15.027 65.9436 15.715 68.0556 15.715ZM73.1756 15.843C70.7436 15.843 69.0156 14.067 69.0156 11.651C69.0156 9.21902 70.8076 7.39502 73.2076 7.39502C75.5916 7.39502 77.3356 9.25102 77.3356 11.683C77.3356 11.971 77.2556 12.211 76.9676 12.211H71.4636C71.3196 12.211 71.2716 12.291 71.2876 12.419C71.3996 13.331 72.1996 14.003 73.2396 14.003C73.9276 14.003 74.4236 13.699 74.7596 13.315C74.9356 13.123 75.0796 13.059 75.2716 13.059H76.7436C76.9996 13.059 77.1116 13.235 77.0156 13.491C76.4876 14.851 74.9836 15.843 73.1756 15.843ZM71.4796 10.915H74.8556C74.9676 10.915 75.0156 10.867 74.9996 10.739C74.8396 9.89102 74.0876 9.23502 73.1756 9.23502C72.2956 9.23502 71.5596 9.85902 71.3516 10.691C71.3196 10.803 71.3356 10.915 71.4796 10.915ZM79.2076 15.635C79.0476 15.635 78.9196 15.491 78.9196 15.331V5.05902C78.9196 4.89902 79.0476 4.75502 79.2076 4.75502H84.2476C86.5516 4.75502 88.1196 6.09901 88.1196 8.35501C88.1196 10.563 86.3436 12.003 84.1356 12.003H81.4636C81.2716 12.003 81.1756 12.115 81.1756 12.307V15.331C81.1756 15.491 81.0316 15.635 80.8716 15.635H79.2076ZM81.4476 10.147H84.1356C85.2396 10.147 85.8476 9.20302 85.8476 8.37102C85.8476 7.49102 85.2556 6.65902 84.1356 6.65902H81.4476C81.2556 6.65902 81.1756 6.75502 81.1756 6.94702V9.85902C81.1756 10.051 81.2556 10.147 81.4476 10.147ZM92.9836 15.843C90.8396 15.843 89.0476 14.035 89.0476 11.619C89.0476 9.18701 90.8716 7.39502 93.0156 7.39502C93.9276 7.39502 94.5676 7.74702 95.1436 8.21102C95.2876 8.33902 95.4476 8.32302 95.4476 8.13102V7.89102C95.4476 7.73102 95.5756 7.60302 95.7356 7.60302H97.2396C97.3996 7.60302 97.5436 7.74701 97.5436 7.90701V13.203C97.5436 13.603 97.6876 13.779 97.9596 13.795C98.1036 13.811 98.2316 13.907 98.2316 14.051V15.443C98.2316 15.587 98.1196 15.715 97.9596 15.715C96.9036 15.715 96.2796 15.411 95.9276 14.803C95.8316 14.643 95.7196 14.611 95.5596 14.771C94.9196 15.363 94.1836 15.843 92.9836 15.843ZM93.3516 13.859C94.5196 13.859 95.4476 12.867 95.4476 11.619C95.4476 10.355 94.5196 9.37901 93.3516 9.37901C92.1676 9.37901 91.2396 10.371 91.2396 11.619C91.2396 12.851 92.1676 13.859 93.3516 13.859ZM99.3516 18.755C101.688 18.755 102.856 17.779 103.96 15.171L106.984 7.98701C107.064 7.79501 106.92 7.60302 106.712 7.60302H105.192C105.032 7.60302 104.952 7.69902 104.888 7.85902L103.128 12.131C102.984 12.467 102.792 12.483 102.648 12.147L100.808 7.89102C100.744 7.73102 100.648 7.60302 100.488 7.60302H98.9036C98.7116 7.60302 98.5516 7.77902 98.6476 8.03502L101.592 14.691C101.688 14.915 101.72 15.091 101.656 15.331C101.432 16.307 100.408 16.867 99.3516 16.867C99.1916 16.867 99.0476 16.995 99.0476 17.155V18.451C99.0476 18.611 99.1916 18.755 99.3516 18.755Z" fill="#5A78FF"/>
<path fill-rule="evenodd" clip-rule="evenodd" d="M10.1641 14.1209C11.9562 13.5747 13.4724 13.3001 14.7126 13.297C16.763 13.2919 18.4822 13.6989 19.8699 14.518V8.56144C18.4751 7.83917 16.8991 7.45362 15.1419 7.40479C13.3847 7.35596 11.7254 7.71382 10.1641 8.47838V14.1209Z" fill="#5A78FF"/>
<path fill-rule="evenodd" clip-rule="evenodd" d="M7.25 7.63376L9.46183 12.8987V7.85295C10.6272 7.22891 11.8609 6.82898 13.163 6.65317C14.465 6.47736 15.945 6.50571 17.6029 6.73821L16.4 3.864C14.6572 3.75145 12.997 4.03222 11.4194 4.70631C9.84176 5.38039 8.45197 6.35621 7.25 7.63376Z" fill="#5A78FF"/>
<path d="M11.626 3.90373C11.4324 3.43404 11.1421 2.72951 10.7549 1.79014C10.3474 0.801535 9.22054 0.328426 8.23795 0.733419L2.22445 3.21201C1.24186 3.617 0.775635 4.74673 1.18311 5.73534L6.98148 19.8032C7.38895 20.7918 8.51582 21.265 9.49841 20.86L15.5119 18.3814C16.4945 17.9764 16.9607 16.8466 16.5533 15.858C16.186 14.9671 15.9464 14.3858 15.8344 14.114C15.5072 14.0947 15.2678 14.083 15.1162 14.0791C14.9561 14.075 14.728 14.0745 14.4318 14.0776C14.5762 14.4278 14.888 15.1843 15.3672 16.3469C15.503 16.6764 15.3476 17.053 15.02 17.188L9.00654 19.6666C8.67901 19.8016 8.30339 19.6439 8.16757 19.3144L2.3692 5.24647C2.23337 4.91693 2.38878 4.54035 2.71631 4.40536L8.72981 1.92677C9.05734 1.79177 9.43297 1.94947 9.56879 2.27901L10.4493 4.41536C10.721 4.2828 10.9298 4.18727 11.0758 4.12876C11.2218 4.07025 11.4052 3.99524 11.626 3.90373Z" fill="#5A78FF"/>
</svg>
