<svg width="24" height="20" viewBox="0 0 24 20" fill="none" xmlns="http://www.w3.org/2000/svg">
<path d="M21.1127 2.91255H15.4127V2.87505C15.4127 1.78755 14.5127 0.925049 13.4627 0.925049H10.5752C9.4877 0.925049 8.6252 1.82505 8.6252 2.87505V2.91255H2.8877C1.6502 2.91255 0.637695 3.92505 0.637695 5.16255V14.8376C0.637695 16.0751 1.6502 17.0876 2.8877 17.0876H8.5877V17.125C8.5877 18.2126 9.48769 19.0751 10.5377 19.0751H13.4252C14.5127 19.0751 15.3752 18.1751 15.3752 17.125V17.0876H21.0752C22.3127 17.0876 23.3252 16.0751 23.3252 14.8376V5.16255C23.3252 3.92505 22.3502 2.91255 21.1127 2.91255ZM21.6752 5.16255V6.47505C21.5627 6.51255 21.4502 6.51255 21.3377 6.51255C20.5502 6.51255 19.9127 5.87505 19.9127 5.08755C19.9127 4.90005 19.9502 4.75005 19.9877 4.60005H21.1127C21.4127 4.60005 21.6752 4.86255 21.6752 5.16255ZM2.8877 4.60005H4.0127C4.0877 4.75005 4.0877 4.93755 4.0877 5.08755C4.0877 5.87505 3.4502 6.51255 2.6627 6.51255C2.5502 6.51255 2.4377 6.51255 2.3252 6.47505V5.16255C2.3252 4.86255 2.5877 4.60005 2.8877 4.60005ZM2.3252 14.8376V13.5251C2.4377 13.4876 2.5502 13.4875 2.6627 13.4875C3.4502 13.4875 4.0877 14.125 4.0877 14.9125C4.0877 15.1 4.0502 15.2501 4.0127 15.4001H2.8877C2.5877 15.4001 2.3252 15.1376 2.3252 14.8376ZM5.7377 15.4001C5.7752 15.2501 5.7752 15.0625 5.7752 14.9125C5.7752 13.1875 4.3877 11.8 2.6627 11.8C2.5502 11.8 2.4377 11.8001 2.3252 11.8376V8.23755C2.4377 8.23755 2.5502 8.27505 2.6627 8.27505C4.3877 8.27505 5.7752 6.88755 5.7752 5.16255C5.7752 5.01255 5.7752 4.82505 5.7377 4.67505H8.5877V15.475H5.7377V15.4001ZM13.7252 17.125C13.7252 17.2751 13.6127 17.4251 13.4252 17.4251H10.5377C10.3877 17.4251 10.2377 17.3125 10.2377 17.125V2.87505C10.2377 2.72505 10.3502 2.57505 10.5377 2.57505H13.4252C13.5752 2.57505 13.7252 2.68755 13.7252 2.87505V17.125ZM15.4127 4.60005H18.2627C18.2252 4.75005 18.2252 4.93755 18.2252 5.08755C18.2252 6.81255 19.6127 8.20005 21.3377 8.20005C21.4502 8.20005 21.5627 8.20005 21.6752 8.16255V11.7626C21.5627 11.7626 21.4502 11.725 21.3377 11.725C19.6127 11.725 18.2252 13.1126 18.2252 14.8376C18.2252 14.9876 18.2252 15.1751 18.2627 15.3251H15.4127V4.60005ZM21.1127 15.4001H19.9877C19.9127 15.2501 19.9127 15.0625 19.9127 14.9125C19.9127 14.125 20.5502 13.4875 21.3377 13.4875C21.4502 13.4875 21.5627 13.4876 21.6752 13.5251V14.8376C21.6752 15.1376 21.4127 15.4001 21.1127 15.4001Z" fill="#545454"/>
</svg>
