<svg width="21" height="20" viewBox="0 0 21 20" fill="none" xmlns="http://www.w3.org/2000/svg">
<g clip-path="url(#clip0_3122_48095)">
<path d="M19.0918 8.43562L18.3418 7.84187C18.1543 7.68562 18.0918 7.46687 18.123 7.24812L18.373 6.34187C18.5293 5.77937 18.4043 5.18562 18.0605 4.68562C17.6855 4.18562 17.123 3.87312 16.498 3.84187L15.5293 3.77937C15.2793 3.77937 15.0293 3.62312 14.9668 3.40437L14.623 2.56062C14.4043 2.02937 13.9355 1.59187 13.373 1.40437C12.7793 1.21687 12.1543 1.27937 11.623 1.59187L10.8105 2.09187C10.5918 2.21687 10.3105 2.21687 10.0605 2.09187L9.24805 1.59187C8.7168 1.27937 8.0918 1.18562 7.49805 1.40437C6.93555 1.59187 6.4668 1.99812 6.24805 2.56062L5.8418 3.43562C5.74805 3.65437 5.5293 3.81062 5.2793 3.81062L4.31055 3.87312C3.68555 3.90437 3.0918 4.21687 2.74805 4.71687C2.4043 5.18562 2.2793 5.81062 2.43555 6.37312L2.68555 7.27937C2.74805 7.49812 2.6543 7.71687 2.4668 7.87312L1.7168 8.43562C1.2168 8.81062 0.966797 9.37312 0.966797 9.99812C0.966797 10.5919 1.24805 11.1544 1.7168 11.5606L2.4668 12.1544C2.6543 12.3106 2.74805 12.5294 2.68555 12.7481L2.43555 13.6544C2.2793 14.2169 2.4043 14.8106 2.74805 15.3106C3.12305 15.8106 3.68555 16.1231 4.31055 16.1544L5.2793 16.2169C5.5293 16.2169 5.7793 16.3731 5.8418 16.5919L6.18555 17.4356C6.4043 17.9669 6.87305 18.4044 7.43555 18.5919C8.0293 18.7794 8.6543 18.7169 9.18555 18.4044L9.99805 17.9044C10.2168 17.7794 10.498 17.7794 10.748 17.9044L11.5605 18.4044C11.9043 18.5919 12.2793 18.7169 12.6543 18.7169C12.873 18.7169 13.0918 18.6856 13.3105 18.6231C13.873 18.4356 14.3418 18.0294 14.5605 17.4669L14.9043 16.6231C14.998 16.4044 15.2168 16.2481 15.4668 16.2481L16.4355 16.1856C17.0605 16.1544 17.6543 15.8419 17.998 15.3419C18.3418 14.8731 18.4668 14.2481 18.3105 13.6856L18.0605 12.7794C17.998 12.5606 18.0918 12.3419 18.2793 12.1856L19.0293 11.5919C19.5293 11.2169 19.7793 10.6544 19.7793 10.0294C19.873 9.40437 19.5918 8.84187 19.0918 8.43562ZM18.2168 10.4356L17.4668 11.0294C16.8418 11.5294 16.5605 12.3419 16.7793 13.0919L17.0293 13.9981C17.0918 14.2169 16.998 14.3731 16.9355 14.4669C16.8105 14.6231 16.623 14.7169 16.4355 14.7481L15.4668 14.8106C14.6855 14.8419 13.9668 15.3419 13.6855 16.0606L13.3105 16.8731C13.2168 17.0919 13.0293 17.1856 12.9043 17.2169C12.7168 17.2794 12.498 17.2481 12.3105 17.1544L11.498 16.6544C11.1543 16.4669 10.7793 16.3419 10.4043 16.3419C10.0293 16.3419 9.6543 16.4356 9.31055 16.6544L8.49805 17.1544C8.31055 17.2481 8.0918 17.2794 7.9043 17.2169C7.81055 17.1856 7.5918 17.0919 7.49805 16.8731L7.1543 16.0294C6.87305 15.3106 6.1543 14.8106 5.37305 14.7794L4.4043 14.7169C4.18555 14.7169 3.99805 14.5919 3.9043 14.4356C3.8418 14.3419 3.74805 14.1856 3.81055 13.9669L4.06055 13.0606C4.2793 12.3106 3.99805 11.4981 3.37305 10.9981L2.5918 10.4356C2.43555 10.3106 2.37305 10.1544 2.37305 9.99812C2.37305 9.81062 2.4668 9.65437 2.5918 9.56062L3.3418 8.96687C3.9668 8.46687 4.24805 7.65437 4.0293 6.90437L3.7793 5.99812C3.7168 5.77937 3.81055 5.62312 3.87305 5.52937C3.99805 5.37312 4.18555 5.27937 4.37305 5.24812L5.3418 5.18562C6.12305 5.15437 6.8418 4.65437 7.12305 3.93562L7.4668 3.09187C7.5918 2.90437 7.7793 2.81062 7.9043 2.77937C8.0918 2.71687 8.31055 2.74812 8.49805 2.84187L9.31055 3.34187C9.9668 3.74812 10.8418 3.74812 11.498 3.34187L12.3105 2.84187C12.498 2.74812 12.7168 2.71687 12.9043 2.77937C12.998 2.81062 13.2168 2.90437 13.3105 3.12312L13.6543 3.96687C13.9355 4.68562 14.6543 5.18562 15.4355 5.21687L16.4043 5.27937C16.623 5.27937 16.8105 5.40437 16.9043 5.56062C16.9668 5.65437 17.0605 5.81062 16.998 6.02937L16.748 6.93562C16.5293 7.68562 16.8105 8.49812 17.4355 8.99812L18.1855 9.59187C18.3418 9.71687 18.4043 9.87312 18.4043 10.0294C18.4668 10.1856 18.373 10.3419 18.2168 10.4356Z" fill="#101010"/>
<path d="M13.2793 7.125C12.998 6.84375 12.5605 6.84375 12.2793 7.125L7.5293 11.875C7.24805 12.1562 7.24805 12.5937 7.5293 12.875C7.6543 13 7.8418 13.0938 8.0293 13.0938C8.2168 13.0938 8.4043 13.0312 8.5293 12.875L13.2793 8.125C13.5605 7.84375 13.5605 7.375 13.2793 7.125Z" fill="#111928"/>
<path d="M9.5293 9.09375C10.2793 8.34375 10.2793 7.15625 9.5293 6.40625C9.18555 6.0625 8.68555 5.84375 8.18555 5.84375C7.68555 5.84375 7.2168 6.03125 6.8418 6.40625C6.0918 7.15625 6.0918 8.34375 6.8418 9.09375C7.18555 9.4375 7.68555 9.65625 8.18555 9.65625C8.68555 9.65625 9.1543 9.46875 9.5293 9.09375ZM7.8418 7.4375C7.93555 7.34375 8.06055 7.28125 8.18555 7.28125C8.31055 7.28125 8.43555 7.34375 8.5293 7.4375C8.7168 7.625 8.7168 7.9375 8.5293 8.125C8.3418 8.3125 8.0293 8.3125 7.8418 8.125C7.6543 7.9375 7.6543 7.625 7.8418 7.4375Z" fill="#111928"/>
<path d="M11.1855 10.7813C10.8418 11.125 10.623 11.625 10.623 12.125C10.623 12.625 10.8105 13.0937 11.1855 13.4688C11.5605 13.8438 12.0293 14.0313 12.5293 14.0313C13.0293 14.0313 13.498 13.8438 13.873 13.4688C14.2168 13.125 14.4355 12.625 14.4355 12.125C14.4355 11.625 14.248 11.1563 13.873 10.7813C13.123 10.0312 11.9355 10.0312 11.1855 10.7813ZM12.873 12.4688C12.6855 12.6563 12.373 12.6563 12.1855 12.4688C12.0918 12.375 12.0293 12.25 12.0293 12.125C12.0293 12 12.0918 11.875 12.1855 11.7813C12.2793 11.6875 12.4043 11.625 12.5293 11.625C12.6543 11.625 12.7793 11.6875 12.873 11.7813C12.9668 11.875 13.0293 12 13.0293 12.125C13.0293 12.25 12.9668 12.375 12.873 12.4688Z" fill="#111928"/>
</g>
<defs>
<clipPath id="clip0_3122_48095">
<rect width="20" height="20" fill="white" transform="translate(0.404297)"/>
</clipPath>
</defs>
</svg>
