<svg width="21" height="21" viewBox="0 0 21 21" fill="none" xmlns="http://www.w3.org/2000/svg">
<g clip-path="url(#clip0_4855_31104)">
<path d="M19.6233 4.08789C18.6233 3.02539 17.5608 1.96289 16.4983 0.931641C16.2795 0.712891 16.0295 0.587891 15.7483 0.587891C15.467 0.587891 15.1858 0.681641 14.9983 0.900391L3.21701 12.5879C3.02951 12.7754 2.90451 12.9941 2.81076 13.2129L1.09201 18.4629C0.998264 18.7129 1.06076 18.9629 1.18576 19.1504C1.34201 19.3379 1.56076 19.4629 1.84201 19.4629H1.96701L7.31076 17.6816C7.56076 17.5879 7.77951 17.4629 7.93576 17.2754L19.6545 5.58789C19.842 5.40039 19.967 5.11914 19.967 4.83789C19.967 4.55664 19.842 4.30664 19.6233 4.08789ZM6.93576 16.3066C6.90451 16.3379 6.87326 16.3379 6.84201 16.3691L2.81076 17.7129L4.15451 13.6816C4.15451 13.6504 4.18576 13.6191 4.21701 13.5879L12.8108 5.02539L15.5295 7.74414L6.93576 16.3066ZM16.4983 6.74414L13.7795 4.02539L15.6858 2.11914C16.592 2.99414 17.4983 3.93164 18.3733 4.83789L16.4983 6.74414Z" fill="white"/>
</g>
<defs>
<clipPath id="clip0_4855_31104">
<rect width="20" height="20" fill="white" transform="translate(0.5 0.0253906)"/>
</clipPath>
</defs>
</svg>
