<svg width="21" height="20" viewBox="0 0 21 20" fill="none" xmlns="http://www.w3.org/2000/svg">
<path d="M15.6876 19.4687C14.8438 19.4687 13.8751 19.25 12.8126 18.8437C10.6876 18 8.34383 16.375 6.25008 14.2812C4.15633 12.1875 2.53133 9.84374 1.68758 7.68749C0.75008 5.37499 0.84383 3.46874 1.93758 2.40624C1.96883 2.37499 2.03133 2.34374 2.06258 2.31249L4.68758 0.749994C5.34383 0.374994 6.18758 0.562494 6.62508 1.18749L8.46883 3.93749C8.90633 4.59374 8.71883 5.46874 8.09383 5.90624L6.96883 6.68749C7.78133 7.99999 10.0938 11.2187 13.7813 13.5312L14.4688 12.5312C15.0001 11.7812 15.8438 11.5625 16.5313 12.0312L19.2813 13.875C19.9063 14.3125 20.0938 15.1562 19.7188 15.8125L18.1563 18.4375C18.1251 18.5 18.0938 18.5312 18.0626 18.5625C17.5001 19.1562 16.6876 19.4687 15.6876 19.4687ZM2.87508 3.46874C2.28133 4.12499 2.31258 5.46874 3.00008 7.18749C3.78133 9.15624 5.28133 11.3125 7.25008 13.2812C9.18758 15.2187 11.3751 16.7187 13.3126 17.5C15.0001 18.1875 16.3438 18.2187 17.0313 17.625L18.5313 15.0625C18.5313 15.0312 18.5313 15.0312 18.5313 15L15.7813 13.1562C15.7813 13.1562 15.7188 13.1875 15.6563 13.2812L14.9688 14.2812C14.5313 14.9062 13.6876 15.0937 13.0626 14.6875C9.12508 12.25 6.68758 8.84374 5.81258 7.46874C5.40633 6.81249 5.56258 5.96874 6.18758 5.53124L7.31258 4.74999V4.71874L5.46883 1.96874C5.46883 1.93749 5.43758 1.93749 5.40633 1.96874L2.87508 3.46874Z" fill="white"/>
<path d="M18.8122 8.90624C18.4372 8.90624 18.156 8.62499 18.1247 8.24999C17.8747 5.09374 15.281 2.56249 12.0935 2.34374C11.7185 2.31249 11.406 1.99999 11.4372 1.59374C11.4685 1.21874 11.781 0.906241 12.1872 0.937491C16.0622 1.18749 19.2185 4.24999 19.531 8.12499C19.5622 8.49999 19.281 8.84374 18.8747 8.87499C18.8747 8.90624 18.8435 8.90624 18.8122 8.90624Z" fill="white"/>
<path d="M15.7187 9.18749C15.3749 9.18749 15.0624 8.93749 15.0312 8.56249C14.8437 6.87499 13.5312 5.56249 11.8437 5.34374C11.4687 5.31249 11.1874 4.93749 11.2187 4.56249C11.2499 4.18749 11.6249 3.90624 11.9999 3.93749C14.3437 4.21874 16.1562 6.03124 16.4374 8.37499C16.4687 8.74999 16.2187 9.09374 15.8124 9.15624C15.7499 9.18749 15.7187 9.18749 15.7187 9.18749Z" fill="white"/>
</svg>
