<svg width="25" height="24" viewBox="0 0 25 24" fill="none" xmlns="http://www.w3.org/2000/svg">
<path d="M18.125 6.26245C18.125 3.14995 15.6125 0.637451 12.5 0.637451C9.3875 0.637451 6.875 3.14995 6.875 6.26245C6.875 9.07495 8.9375 11.4 11.6375 11.8125V22.4999C11.6375 22.9499 12.0125 23.3624 12.5 23.3624C12.95 23.3624 13.3625 22.9874 13.3625 22.4999V11.8125C16.025 11.4 18.125 9.07495 18.125 6.26245ZM12.5 10.2C10.325 10.2 8.5625 8.43745 8.5625 6.26245C8.5625 4.08745 10.325 2.32495 12.5 2.32495C14.675 2.32495 16.4375 4.08745 16.4375 6.26245C16.4375 8.43745 14.675 10.2 12.5 10.2Z" fill="#545454"/>
<path d="M13.4749 3.1875C12.3124 3.1875 11.3374 4.125 11.3374 5.325C11.3374 6.525 12.2749 7.4625 13.4749 7.4625C14.6749 7.4625 15.6124 6.525 15.6124 5.325C15.6124 4.125 14.6374 3.1875 13.4749 3.1875ZM13.4749 5.7375C13.2499 5.7375 13.0249 5.55 13.0249 5.2875C13.0249 5.025 13.2124 4.8375 13.4749 4.8375C13.7374 4.8375 13.9249 5.025 13.9249 5.2875C13.9249 5.55 13.6999 5.7375 13.4749 5.7375Z" fill="#545454"/>
</svg>
