<svg width="13" height="12" viewBox="0 0 13 12" fill="none" xmlns="http://www.w3.org/2000/svg">
<g clip-path="url(#clip0_7014_41189)">
<path d="M11.7516 5.5876H6.93281V0.750098C6.93281 0.525098 6.74531 0.318848 6.50156 0.318848C6.27656 0.318848 6.07031 0.506348 6.07031 0.750098V5.5876H1.25156C1.02656 5.5876 0.820312 5.7751 0.820312 6.01885C0.820312 6.24385 1.00781 6.4501 1.25156 6.4501H6.08906V11.2501C6.08906 11.4751 6.27656 11.6813 6.52031 11.6813C6.74531 11.6813 6.95156 11.4938 6.95156 11.2501V6.43135H11.7516C11.9766 6.43135 12.1828 6.24385 12.1828 6.0001C12.1828 5.7751 11.9766 5.5876 11.7516 5.5876Z" fill="#232323"/>
</g>
<defs>
<clipPath id="clip0_7014_41189">
<rect width="12" height="12" fill="white" transform="translate(0.5)"/>
</clipPath>
</defs>
</svg>
