<svg width="26" height="26" viewBox="0 0 26 26" fill="none" xmlns="http://www.w3.org/2000/svg">
<path d="M24.9437 22.6273L18.2405 17.1836C21.003 13.4055 20.7187 8.00234 17.2655 4.58984C15.4374 2.76172 12.9999 1.74609 10.3999 1.74609C7.7999 1.74609 5.3624 2.76172 3.53428 4.58984C-0.243848 8.36797 -0.243848 14.543 3.53428 18.3211C5.3624 20.1492 7.7999 21.1648 10.3999 21.1648C12.878 21.1648 15.1937 20.2305 17.0218 18.5648L23.8062 24.0492C23.9687 24.1711 24.1718 24.2523 24.3749 24.2523C24.6593 24.2523 24.903 24.1305 25.0655 23.9273C25.3905 23.5211 25.3499 22.9523 24.9437 22.6273ZM10.3999 19.3367C8.2874 19.3367 6.3374 18.5242 4.83428 17.0211C1.74678 13.9336 1.74678 8.93672 4.83428 5.88984C6.3374 4.38672 8.2874 3.57422 10.3999 3.57422C12.5124 3.57422 14.4624 4.38672 15.9655 5.88984C19.053 8.97734 19.053 13.9742 15.9655 17.0211C14.503 18.5242 12.5124 19.3367 10.3999 19.3367Z" fill="#545454"/>
</svg>
