<svg width="28" height="27" viewBox="0 0 28 27" fill="none" xmlns="http://www.w3.org/2000/svg">
<path d="M26.3047 23.3321L19.3998 17.7244C22.2455 13.8326 21.9525 8.26683 18.3955 4.75161C16.5123 2.86846 14.0015 1.82227 11.3232 1.82227C8.64494 1.82227 6.13407 2.86846 4.25092 4.75161C0.359069 8.64346 0.359069 15.0043 4.25092 18.8962C6.13407 20.7793 8.64494 21.8255 11.3232 21.8255C13.8759 21.8255 16.2612 20.863 18.1444 19.1473L25.133 24.7967C25.3004 24.9223 25.5096 25.006 25.7189 25.006C26.0118 25.006 26.2629 24.8804 26.4303 24.6712C26.765 24.2527 26.7232 23.6668 26.3047 23.3321ZM11.3232 19.9424C9.14711 19.9424 7.13842 19.1054 5.59005 17.557C2.40961 14.3766 2.40961 9.22933 5.59005 6.09074C7.13842 4.54237 9.14711 3.70542 11.3232 3.70542C13.4993 3.70542 15.508 4.54237 17.0564 6.09074C20.2368 9.27118 20.2368 14.4185 17.0564 17.557C15.5498 19.1054 13.4993 19.9424 11.3232 19.9424Z" fill="white"/>
</svg>
