<svg width="81" height="80" viewBox="0 0 81 80" fill="none" xmlns="http://www.w3.org/2000/svg">
<g clip-path="url(#clip0_1567_6960)">
<path d="M34.7795 9.92346V26.8824C34.7795 26.8824 25.0623 32.0042 25.0623 41.8511V75.0104C25.0623 75.0104 24.2404 79.659 29.9209 79.659H59.7345" stroke="#B2151B" stroke-miterlimit="10"/>
<path d="M46.5115 9.92346V26.8824" stroke="#B2151B" stroke-miterlimit="10"/>
<path d="M34.7795 17.808H46.5115" stroke="#B2151B" stroke-miterlimit="10"/>
<path d="M46.1696 0.3479H34.6122C33.3468 0.3479 32.321 1.32932 32.321 2.53997V6.97281C32.321 8.18346 33.3468 9.16488 34.6122 9.16488H46.1696C47.4349 9.16488 48.4607 8.18346 48.4607 6.97281V2.53997C48.4607 1.32932 47.4349 0.3479 46.1696 0.3479Z" stroke="#B2151B" stroke-miterlimit="10"/>
<path d="M25.0623 41.8511H56.3596" stroke="#B2151B" stroke-miterlimit="10"/>
<path d="M25.0623 70.2435H50.9992H51.5738" stroke="#B2151B" stroke-miterlimit="10"/>
<path d="M63.2984 71.5379C65.4797 71.5379 67.2479 69.8461 67.2479 67.7592C67.2479 65.6723 65.4797 63.9805 63.2984 63.9805C61.1172 63.9805 59.349 65.6723 59.349 67.7592C59.349 69.8461 61.1172 71.5379 63.2984 71.5379Z" stroke="#B2151B" stroke-miterlimit="10"/>
<path d="M68.6662 64.5164C70.8475 64.5164 72.6157 62.8246 72.6157 60.7377C72.6157 58.6508 70.8475 56.959 68.6662 56.959C66.485 56.959 64.7168 58.6508 64.7168 60.7377C64.7168 62.8246 66.485 64.5164 68.6662 64.5164Z" stroke="#B2151B" stroke-miterlimit="10"/>
<path d="M72.6157 72.0738C74.7969 72.0738 76.5652 70.382 76.5652 68.2951C76.5652 66.2081 74.7969 64.5164 72.6157 64.5164C70.4345 64.5164 68.6663 66.2081 68.6663 68.2951C68.6663 70.382 70.4345 72.0738 72.6157 72.0738Z" stroke="#B2151B" stroke-miterlimit="10"/>
<path d="M77.1542 79.5408C76.6887 79.6521 76.1941 79.6869 75.685 79.6243C73.5248 79.3598 71.9901 77.467 72.2738 75.4002C72.5574 73.3334 74.5285 71.865 76.6887 72.1364C78.8489 72.4078 80.3836 74.2937 80.0999 76.3605" stroke="#B2151B" stroke-miterlimit="10"/>
<path d="M67.6189 78.6708C69.8001 78.6708 71.5683 76.979 71.5683 74.8921C71.5683 72.8052 69.8001 71.1134 67.6189 71.1134C65.4377 71.1134 63.6694 72.8052 63.6694 74.8921C63.6694 76.979 65.4377 78.6708 67.6189 78.6708Z" stroke="#B2151B" stroke-miterlimit="10"/>
<path d="M58.7963 79.659C60.9775 79.659 62.7457 77.9672 62.7457 75.8803C62.7457 73.7933 60.9775 72.1016 58.7963 72.1016C56.615 72.1016 54.8468 73.7933 54.8468 75.8803C54.8468 77.9672 56.615 79.659 58.7963 79.659Z" stroke="#B2151B" stroke-miterlimit="10"/>
<path d="M55.1741 72.4773C57.3553 72.4773 59.1235 70.7855 59.1235 68.6986C59.1235 66.6117 57.3553 64.9199 55.1741 64.9199C52.9928 64.9199 51.2246 66.6117 51.2246 68.6986C51.2246 70.7855 52.9928 72.4773 55.1741 72.4773Z" stroke="#B2151B" stroke-miterlimit="10"/>
<path d="M59.8072 64.4816C57.647 64.2171 56.1123 62.3243 56.396 60.2575C56.6796 58.1907 58.6507 56.7223 60.8109 56.9937C62.9711 57.2651 64.5058 59.151 64.2221 61.2178C63.9385 63.2846 61.9674 64.753 59.8072 64.4816Z" stroke="#B2151B" stroke-miterlimit="10"/>
<path d="M52.1338 66.2909C52.1338 66.2909 39.4345 60.9673 50.7883 60.2853C50.7883 60.2853 43.1294 55.1357 46.5042 50.7864C46.5042 50.7864 49.5009 48.7405 51.5665 52.4635C51.5665 52.4635 50.6864 42.9019 56.6724 43.1524C56.6724 43.1524 64.0185 43.5282 62.913 52.8949C62.913 52.8949 66.026 47.9263 67.197 50.5359C67.197 50.5359 68.6008 52.4009 66.8406 57.3765" stroke="#B2151B" stroke-linejoin="round"/>
<path d="M49.5226 29.0605C49.5226 29.0605 56.6796 32.3521 56.6796 43.1524" stroke="#B2151B" stroke-linejoin="round"/>
<path d="M30.6046 30L30.11 26.611H2.71115C2.71115 26.611 -0.336401 37.7174 1.39467 50.5358" stroke="#B2151B" stroke-miterlimit="10"/>
<path d="M3.3512 53.5839C3.3512 53.5839 6.42784 58.4482 13.8321 60.1253V74.9548" stroke="#B2151B" stroke-miterlimit="10"/>
<path d="M24.8295 57.8358C23.3166 58.7474 21.411 59.5964 19.069 60.1253V74.9548" stroke="#B2151B" stroke-miterlimit="10"/>
<path d="M30.6046 79.652H6.92245C6.92245 79.652 6.67516 74.9547 11.3229 74.9547H25.0623" stroke="#B2151B" stroke-miterlimit="10"/>
<path d="M25.3095 50.4732C23.3675 52.7418 19.6508 54.9269 16.3414 54.9269C10.4936 54.9269 5.75134 50.3897 5.75134 44.7947C5.75134 43.1315 6.1732 41.5588 6.91508 40.1739C6.91508 40.1739 10.4645 38.2324 14.4576 40.1739C18.4507 42.1155 20.56 43.4377 25.0186 43.9248" stroke="#B2151B" stroke-miterlimit="10"/>
</g>
<defs>
<clipPath id="clip0_1567_6960">
<rect width="80" height="80" fill="white" transform="translate(0.5)"/>
</clipPath>
</defs>
</svg>
