<svg width="111" height="80" viewBox="0 0 111 80" fill="none" xmlns="http://www.w3.org/2000/svg">
<g clip-path="url(#clip0_1567_6984)">
<path d="M19.9744 72.7115C22.3324 72.7115 24.2439 70.7734 24.2439 68.3827C24.2439 65.992 22.3324 64.054 19.9744 64.054C17.6164 64.054 15.7048 65.992 15.7048 68.3827C15.7048 70.7734 17.6164 72.7115 19.9744 72.7115Z" stroke="#B2151B" stroke-miterlimit="10"/>
<path d="M19.9745 79.518C26.0401 79.518 30.9573 74.5326 30.9573 68.3828C30.9573 62.233 26.0401 57.2476 19.9745 57.2476C13.9088 57.2476 8.99158 62.233 8.99158 68.3828C8.99158 74.5326 13.9088 79.518 19.9745 79.518Z" stroke="#B2151B" stroke-miterlimit="10"/>
<path d="M83.9224 72.7115C86.2804 72.7115 88.1919 70.7734 88.1919 68.3827C88.1919 65.992 86.2804 64.054 83.9224 64.054C81.5644 64.054 79.6528 65.992 79.6528 68.3827C79.6528 70.7734 81.5644 72.7115 83.9224 72.7115Z" stroke="#B2151B" stroke-miterlimit="10"/>
<path d="M83.9223 79.518C89.988 79.518 94.9052 74.5326 94.9052 68.3828C94.9052 62.233 89.988 57.2476 83.9223 57.2476C77.8567 57.2476 72.9395 62.233 72.9395 68.3828C72.9395 74.5326 77.8567 79.518 83.9223 79.518Z" stroke="#B2151B" stroke-miterlimit="10"/>
<path d="M30.9573 68.3827H72.949" stroke="#B2151B" stroke-miterlimit="10"/>
<path d="M28.8082 61.5281H75.2787" stroke="#B2151B" stroke-miterlimit="10"/>
<path d="M39.078 0.482056H64.8854C66.1786 0.482056 67.2246 1.54255 67.2246 2.85371V68.3828" stroke="#B2151B" stroke-miterlimit="10"/>
<path d="M10.8838 61.5281H5.68235C4.38913 61.5281 3.34314 60.4676 3.34314 59.1564V2.85371C3.34314 1.54255 4.38913 0.482056 5.68235 0.482056H28.5515" stroke="#B2151B" stroke-miterlimit="10"/>
<path d="M67.2246 22.309H88.3726L94.7341 28.6816" stroke="#B2151B" stroke-miterlimit="10"/>
<path d="M104.395 40.2313H97.5963C96.7823 40.2313 96.1224 40.9004 96.1224 41.7257V45.3796C96.1224 46.2049 96.7823 46.8739 97.5963 46.8739H104.395C105.209 46.8739 105.869 46.2049 105.869 45.3796V41.7257C105.869 40.9004 105.209 40.2313 104.395 40.2313Z" stroke="#B2151B" stroke-miterlimit="10"/>
<path d="M97.9101 32.7886L105.108 40.4242" stroke="#B2151B" stroke-miterlimit="10"/>
<path d="M105.108 46.8739V61.528" stroke="#B2151B" stroke-miterlimit="10"/>
<path d="M105.108 54.9337H98.4141C98.4141 54.9337 97.3206 55.0205 97.3206 56.6402V61.5281" stroke="#B2151B" stroke-miterlimit="10"/>
<path d="M73.9664 48.7057H79.301" stroke="#B2151B" stroke-miterlimit="10"/>
<path d="M9.02007 68.3827H3.17204C1.95489 68.3827 0.975464 67.3897 0.975464 66.1557V63.7551C0.975464 62.5211 1.95489 61.5281 3.17204 61.5281H10.8838" stroke="#B2151B" stroke-miterlimit="10"/>
<path d="M92.1001 61.5281H107.828C109.045 61.5281 110.025 62.5211 110.025 63.7551V66.1557C110.025 67.3897 109.045 68.3827 107.828 68.3827H94.7341" stroke="#B2151B" stroke-miterlimit="10"/>
<path d="M96.1224 43.5478H75.8968C75.8968 43.5478 73.51 44.001 73.51 41.1473V31.005C73.51 31.005 72.5591 28.0839 76.3912 28.0839H86.9367L97.5963 40.2314" stroke="#B2151B" stroke-miterlimit="10"/>
<path d="M47.3318 23.3116H52.4476C52.4476 23.3116 53.5507 33.2707 53.1513 37.9465C52.7519 42.6223 47.3223 41.9957 47.3223 41.9957" stroke="#B2151B" stroke-miterlimit="10"/>
<path d="M47.3318 23.3116H42.216C42.216 23.3116 41.1129 33.2707 41.5123 37.9465C41.9117 42.6223 47.8358 42.0246 47.8358 42.0246" stroke="#B2151B" stroke-miterlimit="10"/>
<path d="M41.4838 32.673H53.2464" stroke="#B2151B" stroke-miterlimit="10"/>
<path d="M47.3318 41.9956V51.0484" stroke="#B2151B" stroke-miterlimit="10"/>
<path d="M41.4838 50.7496H53.1513" stroke="#B2151B" stroke-miterlimit="10"/>
<path d="M21.4863 50.7496H33.1539C33.1539 50.7496 36.2253 50.7496 36.2253 47.6356V31.0147C36.2253 31.0147 34.0572 25.7508 30.4913 23.331V12.8513" stroke="#B2151B" stroke-miterlimit="10"/>
<path d="M28.5515 50.7496H21.6956C21.6956 50.7496 18.6241 50.7496 18.6241 47.6356V31.0147C18.6241 31.0147 20.7922 25.7508 24.3581 23.331V12.8513" stroke="#B2151B" stroke-miterlimit="10"/>
<path d="M24.3485 23.3116H30.5008" stroke="#B2151B" stroke-miterlimit="10"/>
<path d="M18.6146 32.6826H36.2253" stroke="#B2151B" stroke-miterlimit="10"/>
<path d="M18.6146 42.8345H36.2253" stroke="#B2151B" stroke-miterlimit="10"/>
<path d="M30.0919 7.43311H24.7479C23.9129 7.43311 23.236 8.11941 23.236 8.966V11.2991C23.236 12.1457 23.9129 12.832 24.7479 12.832H30.0919C30.927 12.832 31.6039 12.1457 31.6039 11.2991V8.966C31.6039 8.11941 30.927 7.43311 30.0919 7.43311Z" stroke="#B2151B" stroke-miterlimit="10"/>
</g>
<defs>
<clipPath id="clip0_1567_6984">
<rect width="110" height="80" fill="white" transform="translate(0.5)"/>
</clipPath>
</defs>
</svg>
