<svg width="89" height="80" viewBox="0 0 89 80" fill="none" xmlns="http://www.w3.org/2000/svg">
<g clip-path="url(#clip0_1567_7015)">
<path d="M17.9224 63.6113V74.8639" stroke="#B2151B" stroke-miterlimit="10"/>
<path d="M70.8785 63.6113V74.8639" stroke="#B2151B" stroke-miterlimit="10"/>
<path d="M2.29126 56.1479C2.29126 56.1479 2.49029 48.8834 9.65521 48.8834H44.5" stroke="#B2151B" stroke-miterlimit="10"/>
<path d="M44.5 62.8152V77.0532C29.2669 83.621 18.0219 74.8639 18.0219 74.8639C6.5703 76.6551 0.898071 71.978 0.898071 71.978L1.91616 60.4269" stroke="#B2151B" stroke-miterlimit="10"/>
<path d="M44.5 77.0532C59.7331 83.6211 70.9781 74.8639 70.9781 74.8639C82.4297 76.6552 88.102 71.9781 88.102 71.9781L86.7088 56.1479C86.7088 56.1479 86.5097 48.8834 79.3448 48.8834C72.1799 48.8834 44.5 48.8834 44.5 48.8834" stroke="#B2151B" stroke-miterlimit="10"/>
<path d="M16.5675 48.8834L12.7937 44.0761C12.7937 44.0761 12.0818 42.7518 14.6844 42.7518H32.5967" stroke="#B2151B" stroke-miterlimit="10"/>
<path d="M43.4206 48.8834L47.1945 44.0761C47.1945 44.0761 47.9064 42.7518 45.3037 42.7518H27.3914" stroke="#B2151B" stroke-miterlimit="10"/>
<path d="M72.3712 23.7908H76.4895C76.4895 23.7908 77.3775 31.6982 77.056 35.4108C76.7345 39.1234 72.3636 38.6258 72.3636 38.6258" stroke="#B2151B" stroke-miterlimit="10"/>
<path d="M72.3712 23.7908H68.2529C68.2529 23.7908 67.365 31.6982 67.6865 35.4108C68.008 39.1234 72.7769 38.6488 72.7769 38.6488" stroke="#B2151B" stroke-miterlimit="10"/>
<path d="M72.3713 38.6259V45.8137" stroke="#B2151B" stroke-miterlimit="10"/>
<path d="M78.388 48.3706C78.388 45.1479 76.1145 45.5765 76.1145 45.5765H68.4597C68.4597 45.5765 66.4005 45.4464 66.4005 48.1026" stroke="#B2151B" stroke-miterlimit="10"/>
<path d="M61.0268 31.2313V48.8834" stroke="#B2151B" stroke-miterlimit="10"/>
<path d="M44.1402 42.7441V22.3746C44.1402 22.3746 45.1277 17.6899 48.8862 16.0441V1.85967C48.8862 1.85967 48.358 0.543036 51.7185 0.543036H53.8925C53.8925 0.543036 56.5334 0.144985 56.5334 1.92856V15.9139C56.5334 15.9139 61.3483 17.1004 61.3483 26.6613" stroke="#B2151B" stroke-miterlimit="10"/>
<path d="M44.1402 22.8033H61.0268" stroke="#B2151B" stroke-miterlimit="10"/>
<path d="M48.8939 9.09351H56.541" stroke="#B2151B" stroke-miterlimit="10"/>
<path d="M44.1402 35.8931L52.7519 40.8075L61.0268 35.1429" stroke="#B2151B" stroke-miterlimit="10"/>
<path d="M23.9008 42.7442C23.9008 42.7442 34.2731 34.5459 36.1486 32.1805C38.024 29.8152 38.3072 31.836 38.3072 31.836V42.7518" stroke="#B2151B" stroke-miterlimit="10"/>
<path d="M36.1486 32.1805V18.8228C36.1486 18.8228 36.3552 16.1053 33.8521 20.9126C31.349 25.7198 27.8277 31.9662 27.3914 39.9425" stroke="#B2151B" stroke-miterlimit="10"/>
<path d="M32.1834 24.1123C32.1834 24.1123 30.7136 17.9195 28.5626 18.0573C28.5626 18.0573 24.2453 17.7741 23.9008 34.6147L22.9976 42.7442" stroke="#B2151B" stroke-miterlimit="10"/>
</g>
<defs>
<clipPath id="clip0_1567_7015">
<rect width="88" height="79.7557" fill="white" transform="translate(0.5 0.12207)"/>
</clipPath>
</defs>
</svg>
