<svg width="16" height="16" viewBox="0 0 16 16" fill="none" xmlns="http://www.w3.org/2000/svg">
<g clip-path="url(#clip0_7044_84047)">
<path d="M4.0249 15.5492C3.7999 15.5492 3.5749 15.4742 3.3999 15.3492C3.0499 15.0992 2.8499 14.6492 2.9249 14.2242L3.5749 10.1992L0.774898 7.32422C0.474898 7.02422 0.374898 6.57422 0.499898 6.14922C0.624898 5.74922 0.974898 5.44922 1.3749 5.39922L5.2499 4.77422L6.9999 1.09922C7.1999 0.699219 7.5749 0.449219 7.9999 0.449219C8.4249 0.449219 8.8249 0.699219 8.9999 1.09922L10.7499 4.74922L14.5999 5.34922C14.9999 5.42422 15.3499 5.69922 15.4749 6.09922C15.6249 6.52422 15.4999 6.97422 15.1999 7.27422L12.4249 10.1742L13.0749 14.2242C13.1499 14.6742 12.9749 15.0992 12.5999 15.3492C12.2499 15.5992 11.8249 15.6242 11.4499 15.4242L7.9999 13.5492L4.5499 15.4242C4.3999 15.5242 4.1999 15.5492 4.0249 15.5492ZM1.5749 6.49922C1.5749 6.49922 1.5749 6.52422 1.5749 6.54922L4.4999 9.54922C4.6749 9.72422 4.7499 9.99922 4.7249 10.2492L4.0499 14.4242C4.0499 14.4242 4.0499 14.4242 4.0499 14.4492L7.6499 12.4992C7.8749 12.3742 8.1499 12.3742 8.3999 12.4992L11.9999 14.4492C11.9999 14.4492 11.9999 14.4492 11.9999 14.4242L11.3249 10.2242C11.2749 9.97422 11.3749 9.72422 11.5499 9.52422L14.4749 6.52422C14.4999 6.49922 14.4749 6.47422 14.4749 6.47422L10.4499 5.84922C10.1999 5.79922 9.9749 5.64922 9.8749 5.39922L7.9999 1.59922L6.1999 5.42422C6.0999 5.64922 5.8749 5.82422 5.6249 5.87422L1.5749 6.49922Z" fill="#FFA645"/>
</g>
<defs>
<clipPath id="clip0_7044_84047">
<rect width="16" height="16" fill="white"/>
</clipPath>
</defs>
</svg>
