<svg width="25" height="24" viewBox="0 0 25 24" fill="none" xmlns="http://www.w3.org/2000/svg">
<g clip-path="url(#clip0_59_6387)">
<path d="M12.3625 3.375L12.5875 3.225L12.8125 3.375L13 3.0375L13.8625 2.5875L13.3375 1.6125C13.1875 1.3125 12.8875 1.125 12.5875 1.125C12.2875 1.125 11.9875 1.3125 11.8375 1.575L11.3125 2.55L12.175 3L12.3625 3.375Z" fill="#111928"/>
<path d="M14.6639 4.13892L13.1543 4.89307L14.3107 7.20784L15.8203 6.4537L14.6639 4.13892Z" fill="#111928"/>
<path d="M15.2121 8.96245C15.3246 9.22495 15.5871 9.37495 15.8496 9.41245L16.9746 9.56245L17.1996 7.87495L16.5246 7.79995L16.2246 7.19995L14.7246 7.98745L15.2121 8.96245Z" fill="#111928"/>
<path d="M18.9545 8.14544L18.7188 9.81641L21.3552 10.1884L21.5909 8.5174L18.9545 8.14544Z" fill="#111928"/>
<path d="M24.2492 9.4125C24.1367 9.1125 23.8742 8.8875 23.5742 8.8125L22.4492 8.625L22.3367 9.5625L22.0742 9.7875L22.2617 9.975L22.2242 10.275L22.5992 10.35L23.2367 11.025L24.0617 10.275C24.2867 10.05 24.3617 9.7125 24.2492 9.4125Z" fill="#111928"/>
<path d="M20.8124 11.0004L18.9297 12.7754L20.0873 14.0032L21.97 12.2282L20.8124 11.0004Z" fill="#111928"/>
<path d="M18.9255 15.075L19.413 14.5875L18.2505 13.3875L17.463 14.175C17.2755 14.3625 17.163 14.6625 17.2005 14.925L17.388 16.0125L19.038 15.75L18.9255 15.075Z" fill="#111928"/>
<path d="M19.3594 17.418L17.6992 17.7202L18.1626 20.2658L19.8228 19.9636L19.3594 17.418Z" fill="#111928"/>
<path d="M19.9375 20.775L19.0375 20.925L18.6625 20.7375L18.5125 21.0375L18.25 21.075L18.325 21.375L17.875 22.2375L18.8875 22.7625C19 22.8375 19.15 22.8375 19.2625 22.8375C19.45 22.8375 19.6375 22.7625 19.75 22.6875C20.0125 22.5 20.125 22.1625 20.0875 21.8625L19.9375 20.775Z" fill="#111928"/>
<path d="M14.7776 18.7539L14.0098 20.2566L16.3473 21.451L17.1151 19.9482L14.7776 18.7539Z" fill="#111928"/>
<path d="M12.2117 17.85L11.1992 18.375L11.9867 19.875L12.5867 19.5375L13.2242 19.875L13.9742 18.375L12.9617 17.85C12.7367 17.7375 12.4367 17.7375 12.2117 17.85Z" fill="#111928"/>
<path d="M9.6238 19.1557L7.28125 20.3401L8.04265 21.846L10.3852 20.6616L9.6238 19.1557Z" fill="#111928"/>
<path d="M6.88789 21.0749L6.62539 21.0374L6.47539 20.7749L6.10039 20.9624L5.20039 20.8124L5.01289 21.8999C4.97539 22.1999 5.08789 22.5374 5.35039 22.7249C5.50039 22.8374 5.68789 22.8749 5.83789 22.8749C5.98789 22.8749 6.10039 22.8374 6.21289 22.7624L7.22539 22.2374L6.77539 21.4124L6.88789 21.0749Z" fill="#111928"/>
<path d="M5.97859 16.5761L5.54688 19.0894L7.21007 19.375L7.64179 16.8618L5.97859 16.5761Z" fill="#111928"/>
<path d="M7.97422 14.925C8.01172 14.6625 7.93672 14.3625 7.74922 14.175L6.92422 13.3875L5.76172 14.5875L6.24922 15.075L6.13672 15.7125L7.78672 16.0125L7.97422 14.925Z" fill="#111928"/>
<path d="M3.76895 10.3938L2.61133 11.6216L4.49399 13.3966L5.65162 12.1688L3.76895 10.3938Z" fill="#111928"/>
<path d="M2.9875 10.3125L2.95 10.0125L3.1375 9.825L2.875 9.6L2.725 8.625L1.5625 8.8125C1.225 8.85 0.9625 9.075 0.8875 9.4125C0.8125 9.75 0.8875 10.05 1.1125 10.275L1.975 11.025L2.575 10.35L2.9875 10.3125Z" fill="#111928"/>
<path d="M7.09094 7.99778L4.49219 8.36816L4.73029 10.0388L7.32904 9.6684L7.09094 7.99778Z" fill="#111928"/>
<path d="M8.68711 7.79995L7.97461 7.87495L8.19961 9.56245L9.36211 9.41245C9.62461 9.37495 9.88711 9.22495 9.99961 8.96245L10.5246 7.98745L9.02461 7.19995L8.68711 7.79995Z" fill="#111928"/>
<path d="M10.9402 3.35669L9.76367 5.66138L11.2667 6.42868L12.4433 4.124L10.9402 3.35669Z" fill="#111928"/>
</g>
<defs>
<clipPath id="clip0_59_6387">
<rect width="24" height="24" fill="white" transform="translate(0.587891)"/>
</clipPath>
</defs>
</svg>
