<svg width="25" height="24" viewBox="0 0 25 24" fill="none" xmlns="http://www.w3.org/2000/svg">
<g clip-path="url(#clip0_59_6241)">
<path d="M17.7559 10.2749C18.2059 10.2749 18.5809 9.89993 18.5809 9.44993C18.5809 8.99993 18.2434 8.58743 17.7559 8.58743L16.1434 8.51243L15.5809 7.08743C15.4309 6.63743 14.9434 6.44993 14.4934 6.59993C14.0434 6.74993 13.8559 7.27493 14.0059 7.68743L14.7559 9.63743C14.8684 9.93743 15.1684 10.1624 15.5059 10.1624L17.7559 10.2749C17.7559 10.2749 17.7184 10.2749 17.7559 10.2749Z" fill="#111928"/>
<path d="M24.0937 9.48745C23.9812 9.07495 23.6062 8.81245 23.1937 8.81245L20.9812 8.73745C20.5312 8.69995 20.1187 9.07495 20.1187 9.56245C20.1187 10.0124 20.4562 10.4249 20.9437 10.4249H21.2062L20.0812 11.2874C19.7062 11.5499 19.6312 12.1124 19.9312 12.4874C20.0812 12.7124 20.3437 12.8249 20.6062 12.8249C20.7937 12.8249 20.9437 12.7874 21.1312 12.6374L23.8312 10.6124C24.0937 10.3124 24.2437 9.86245 24.0937 9.48745Z" fill="#111928"/>
<path d="M18.0937 12.7125L16.7812 13.6875C16.5187 13.9125 16.3687 14.25 16.4812 14.5875L16.9312 16.1625C17.0437 16.5375 17.3812 16.7625 17.7562 16.7625C17.8312 16.7625 17.9062 16.7625 17.9812 16.725C18.4312 16.575 18.6937 16.125 18.5437 15.675L18.2437 14.6625L19.1062 14.025C19.4812 13.7625 19.5562 13.2 19.2562 12.825C18.9937 12.525 18.4687 12.45 18.0937 12.7125Z" fill="#111928"/>
<path d="M19.5572 19.0875C19.4447 18.6375 18.9572 18.375 18.5072 18.525C18.0572 18.675 17.7947 19.125 17.9447 19.575L18.0197 19.8375L16.9697 19.125C16.5947 18.8625 16.0697 18.975 15.8072 19.3875C15.5447 19.7625 15.6572 20.2875 16.0697 20.55L18.6947 22.2375C18.8447 22.35 19.0322 22.3875 19.2197 22.3875C19.4447 22.3875 19.6322 22.3125 19.8197 22.2C20.1572 21.9375 20.3072 21.525 20.1572 21.15L19.5572 19.0875Z" fill="#111928"/>
<path d="M15.0563 17.9251L13.2563 16.7626C13.2563 16.7626 13.2562 16.7626 13.2187 16.7626C13.1812 16.7251 13.1062 16.6876 13.0312 16.6876H12.9937C12.9187 16.6876 12.8438 16.6501 12.7687 16.6501H12.7312C12.6562 16.6501 12.6187 16.6501 12.5437 16.6876H12.5063C12.4313 16.725 12.3562 16.7251 12.3188 16.7626L7.55625 19.8001L9.13125 14.6251C9.24375 14.2875 9.09375 13.9125 8.83125 13.725L4.44375 10.425L10.0688 10.2001C10.4062 10.2001 10.7063 9.97505 10.8188 9.67505L12.8062 4.53755L12.9937 5.06255C13.1062 5.40005 13.4438 5.58755 13.7812 5.58755C13.8938 5.58755 13.9688 5.58755 14.0813 5.51255C14.5313 5.36255 14.7188 4.83755 14.5688 4.42505L13.7438 2.25005C13.5938 1.87505 13.2188 1.61255 12.8062 1.61255C12.3938 1.61255 12.0188 1.87505 11.8687 2.25005L9.43125 8.55005L2.41875 8.81255C2.00625 8.81255 1.63125 9.11255 1.51875 9.48755C1.40625 9.86255 1.51875 10.3126 1.85625 10.5751L7.36875 14.7375L5.49375 21.1501C5.38125 21.5626 5.53125 21.9751 5.83125 22.2001C6.01875 22.3501 6.20625 22.3876 6.43125 22.3876C6.61875 22.3876 6.80625 22.35 6.95625 22.2376L12.8062 18.4876L14.1562 19.35C14.3062 19.4251 14.4563 19.5 14.6063 19.5C14.8688 19.5 15.1688 19.35 15.3188 19.125C15.5813 18.7126 15.4688 18.1875 15.0563 17.9251Z" fill="#111928"/>
</g>
<defs>
<clipPath id="clip0_59_6241">
<rect width="24" height="24" fill="white" transform="translate(0.806641)"/>
</clipPath>
</defs>
</svg>
