<svg width="25" height="24" viewBox="0 0 25 24" fill="none" xmlns="http://www.w3.org/2000/svg">
<g clip-path="url(#clip0_59_5901)">
<path d="M22.725 10.5375C22.3125 10.05 21.825 9.63745 21.2625 9.37495C21.7875 8.84995 22.0875 8.13745 22.0875 7.34995C22.0875 5.77495 20.8125 4.49995 19.2375 4.49995C17.6625 4.49995 16.3875 5.77495 16.3875 7.34995C16.3875 8.13745 16.725 8.84995 17.2125 9.37495C16.7625 9.59995 16.3875 9.89995 16.0125 10.275C15.5625 9.82495 15.0375 9.44995 14.4375 9.18745C15.15 8.58745 15.6 7.68745 15.6 6.71245C15.6 4.91245 14.1375 3.44995 12.3375 3.44995C10.5375 3.44995 9.075 4.91245 9.075 6.71245C9.075 7.72495 9.525 8.58745 10.2375 9.18745C9.675 9.44995 9.15 9.78745 8.6625 10.275C8.2875 9.89995 7.9125 9.59995 7.4625 9.37495C7.9875 8.84995 8.2875 8.13745 8.2875 7.34995C8.2875 5.77495 7.0125 4.49995 5.4375 4.49995C3.8625 4.49995 2.5875 5.77495 2.5875 7.34995C2.5875 8.13745 2.925 8.84995 3.4125 9.37495C2.8875 9.63745 2.3625 10.05 1.95 10.5375C1.0875 11.55 0.6 12.975 0.5625 14.5125C0.5625 14.85 0.75 15.15 1.0125 15.2625C1.5375 15.525 3.375 16.3875 5.4 16.3875C5.9625 16.3875 6.5625 16.3125 7.125 16.2C7.35 16.3125 7.65 16.4625 8.0625 16.6125C8.2875 18.825 10.125 20.5875 12.375 20.5875C14.5875 20.5875 16.425 18.825 16.575 16.65C17.025 16.4625 17.3625 16.3125 17.55 16.2C18.15 16.3125 18.7125 16.3875 19.275 16.3875C21.45 16.3875 23.2125 15.525 23.6625 15.2625C23.925 15.1125 24.1125 14.8125 24.1125 14.5125C24.075 12.975 23.5875 11.55 22.725 10.5375ZM19.2375 6.18745C19.875 6.18745 20.4 6.71245 20.4 7.34995C20.4 7.98745 19.875 8.51245 19.2375 8.51245C18.6 8.51245 18.075 7.98745 18.075 7.34995C18.1125 6.71245 18.6 6.18745 19.2375 6.18745ZM12.375 5.09995C13.2375 5.09995 13.95 5.81245 13.95 6.67495C13.95 7.53745 13.2375 8.24995 12.375 8.24995C11.5125 8.24995 10.8 7.53745 10.8 6.67495C10.8 5.81245 11.5125 5.09995 12.375 5.09995ZM5.5125 6.18745C6.15 6.18745 6.675 6.71245 6.675 7.34995C6.675 7.98745 6.15 8.51245 5.5125 8.51245C4.875 8.51245 4.35 7.98745 4.35 7.34995C4.35 6.71245 4.875 6.18745 5.5125 6.18745ZM2.3625 13.9875C2.475 13.05 2.8125 12.225 3.3 11.625C3.8625 10.95 4.65 10.575 5.475 10.575C6.3 10.575 7.05 10.95 7.65 11.625C7.1625 12.4875 6.825 13.5 6.7125 14.5875C6.3 14.6625 5.8875 14.7 5.475 14.7C4.275 14.7 3.0375 14.2875 2.3625 13.9875ZM12.375 18.9C10.9875 18.9 9.8625 17.775 9.8625 16.3875C9.8625 15 10.9875 13.875 12.375 13.875C13.7625 13.875 14.8875 15 14.8875 16.3875C14.8875 17.775 13.7625 18.9 12.375 18.9ZM12.375 12.1875C10.575 12.1875 9.075 13.3125 8.475 14.8875C8.4375 14.8875 8.4375 14.85 8.4 14.85C8.5125 13.7625 8.8125 12.825 9.375 12.0375C9.45 11.925 9.525 11.85 9.6 11.7375C10.35 10.875 11.325 10.3875 12.375 10.3875C13.425 10.3875 14.4375 10.875 15.15 11.7375C15.225 11.85 15.3 11.925 15.375 12.0375C15.45 12.15 15.525 12.2625 15.5625 12.375C15.6 12.4125 15.6 12.45 15.6375 12.4875C15.675 12.5625 15.7125 12.6375 15.75 12.7125C15.7875 12.75 15.7875 12.7875 15.825 12.8625C15.8625 12.9375 15.9 13.0125 15.9375 13.0875C15.975 13.125 15.975 13.2 16.0125 13.2375C16.05 13.3125 16.05 13.3875 16.0875 13.4625C16.0875 13.5 16.125 13.575 16.125 13.6125C16.1625 13.6875 16.1625 13.7625 16.2 13.8375C16.2 13.875 16.2375 13.95 16.2375 13.9875C16.2375 14.0625 16.275 14.175 16.275 14.25C16.275 14.2875 16.3125 14.3625 16.3125 14.4C16.3125 14.5125 16.35 14.5875 16.35 14.7C16.35 14.7375 16.35 14.775 16.35 14.8125V14.85C16.3125 14.85 16.3125 14.8875 16.275 14.8875C15.7125 13.35 14.175 12.1875 12.375 12.1875ZM19.2375 14.7C18.8625 14.7 18.45 14.6625 18 14.5875C18 14.55 18 14.55 18 14.5125C17.9625 14.2875 17.925 14.1 17.8875 13.875C17.8875 13.8 17.85 13.7625 17.85 13.6875C17.8125 13.4625 17.7375 13.2375 17.6625 13.0125C17.5875 12.7875 17.5125 12.5625 17.4 12.375C17.3625 12.3375 17.3625 12.2625 17.325 12.225C17.25 12.0375 17.1375 11.85 17.0625 11.7C17.0625 11.6625 17.025 11.6625 17.025 11.625C17.5875 10.95 18.375 10.575 19.2 10.575C20.025 10.575 20.8125 10.95 21.375 11.625C21.9 12.2625 22.2375 13.0875 22.3125 14.025C21.75 14.2875 20.5875 14.7 19.2375 14.7Z" fill="#111928"/>
<path d="M12.8248 15.0376L11.8873 15.9376L11.7373 15.7876C11.3998 15.4501 10.8748 15.4501 10.5373 15.7501C10.1998 16.0876 10.1998 16.6126 10.4998 16.9501L11.2123 17.7001C11.3623 17.8501 11.5873 17.9626 11.8123 17.9626C12.0373 17.9626 12.2623 17.8876 12.4123 17.7001L13.9498 16.1626C14.2873 15.8251 14.2873 15.3001 13.9498 14.9626C13.6873 14.7001 13.1248 14.7001 12.8248 15.0376Z" fill="#111928"/>
</g>
<defs>
<clipPath id="clip0_59_5901">
<rect width="24" height="24" fill="white" transform="translate(0.375)"/>
</clipPath>
</defs>
</svg>
