<svg width="24" height="24" viewBox="0 0 24 24" fill="none" xmlns="http://www.w3.org/2000/svg">
<path d="M18.3375 3.3002H15.45V2.66269C15.45 1.5377 14.55 0.637695 13.425 0.637695H10.5375C9.41245 0.637695 8.51245 1.5377 8.51245 2.66269V3.3002H5.62495C4.53745 3.3002 3.63745 4.2002 3.63745 5.28769V6.41269C3.63745 7.2377 4.12495 7.91269 4.83745 8.21269L5.43745 21.1877C5.51245 22.4252 6.48745 23.3627 7.72495 23.3627H16.1625C17.4 23.3627 18.4125 22.3877 18.45 21.1877L19.125 8.17519C19.8375 7.87519 20.325 7.16269 20.325 6.3752V5.2502C20.325 4.2002 19.425 3.3002 18.3375 3.3002ZM10.2375 2.66269C10.2375 2.4752 10.3875 2.3252 10.575 2.3252H13.4625C13.65 2.3252 13.8 2.4752 13.8 2.66269V3.3002H10.275V2.66269H10.2375ZM5.36245 5.28769C5.36245 5.1377 5.47495 4.9877 5.66245 4.9877H18.3375C18.4875 4.9877 18.6375 5.1002 18.6375 5.28769V6.41269C18.6375 6.5627 18.525 6.71269 18.3375 6.71269H5.66245C5.51245 6.71269 5.36245 6.60019 5.36245 6.41269V5.28769ZM16.2 21.6752H7.79995C7.46245 21.6752 7.19995 21.4127 7.19995 21.1127L6.59995 8.40019H17.4375L16.8375 21.1127C16.8 21.4127 16.5375 21.6752 16.2 21.6752Z" fill="#ED2222"/>
<path d="M12 12.1504C11.55 12.1504 11.1375 12.5254 11.1375 13.0129V17.7754C11.1375 18.2254 11.5125 18.6379 12 18.6379C12.45 18.6379 12.8625 18.2629 12.8625 17.7754V13.0129C12.8625 12.5254 12.45 12.1504 12 12.1504Z" fill="#ED2222"/>
<path d="M14.9999 12.9003C14.5124 12.8628 14.1374 13.2003 14.0999 13.6878L13.8749 16.9878C13.8374 17.4378 14.1749 17.8503 14.6624 17.8878C14.6999 17.8878 14.6999 17.8878 14.7374 17.8878C15.1874 17.8878 15.5624 17.5503 15.5624 17.1003L15.7874 13.8003C15.7874 13.3128 15.4499 12.9378 14.9999 12.9003Z" fill="#ED2222"/>
<path d="M8.96245 12.9003C8.51245 12.9378 8.13745 13.3503 8.17495 13.8003L8.43745 17.1003C8.47495 17.5503 8.84995 17.8878 9.26245 17.8878C9.29995 17.8878 9.29995 17.8878 9.33745 17.8878C9.78745 17.8503 10.1625 17.4378 10.125 16.9878L9.86245 13.6878C9.86245 13.2003 9.44995 12.8628 8.96245 12.9003Z" fill="#ED2222"/>
</svg>
