<svg width="26" height="26" viewBox="0 0 26 26" fill="none" xmlns="http://www.w3.org/2000/svg">
<path d="M13 11.3742C9.95312 11.3742 7.51562 8.97734 7.51562 6.05234C7.51562 3.12734 9.95312 0.730469 13 0.730469C16.0469 0.730469 18.4844 3.12734 18.4844 6.05234C18.4844 8.97734 16.0469 11.3742 13 11.3742ZM13 2.55859C10.9688 2.55859 9.34375 4.14297 9.34375 6.05234C9.34375 7.96172 10.9688 9.54609 13 9.54609C15.0312 9.54609 16.6562 7.96172 16.6562 6.05234C16.6562 4.14297 15.0312 2.55859 13 2.55859Z" fill="#545454"/>
<path d="M21.0029 25.309H4.99668C4.18418 25.309 3.53418 24.659 3.53418 23.8465V20.1902C3.53418 16.209 6.78418 12.959 10.7654 12.959H15.2748C19.2561 12.959 22.5061 16.209 22.5061 20.1902V23.8465C22.4654 24.6184 21.8154 25.309 21.0029 25.309ZM5.3623 23.4809H20.6779V20.1902C20.6779 17.2246 18.2404 14.7871 15.2748 14.7871H10.7248C7.75918 14.7871 5.32168 17.2246 5.32168 20.1902V23.4809H5.3623Z" fill="#545454"/>
</svg>
