<svg width="21" height="20" viewBox="0 0 21 20" fill="none" xmlns="http://www.w3.org/2000/svg">
<g clip-path="url(#clip0_3122_48118)">
<path d="M12.4043 10.5008C9.5918 10.5008 7.3418 8.28828 7.3418 5.58828C7.3418 2.88828 9.5918 0.675781 12.4043 0.675781C15.2168 0.675781 17.4668 2.88828 17.4668 5.58828C17.4668 8.28828 15.2168 10.5008 12.4043 10.5008ZM12.4043 2.36328C10.5293 2.36328 9.0293 3.82578 9.0293 5.58828C9.0293 7.35078 10.5293 8.81328 12.4043 8.81328C14.2793 8.81328 15.7793 7.35078 15.7793 5.58828C15.7793 3.82578 14.2793 2.36328 12.4043 2.36328Z" fill="#101010"/>
<path d="M19.792 23.3648H5.01699C4.26699 23.3648 3.66699 22.7648 3.66699 22.0148V18.6398C3.66699 14.9648 6.66699 11.9648 10.342 11.9648H14.5045C18.1795 11.9648 21.1795 14.9648 21.1795 18.6398V22.0148C21.142 22.7273 20.542 23.3648 19.792 23.3648ZM5.35449 21.6773H19.492V18.6398C19.492 15.9023 17.242 13.6523 14.5045 13.6523H10.3045C7.56699 13.6523 5.31699 15.9023 5.31699 18.6398V21.6773H5.35449Z" fill="#111928"/>
</g>
<defs>
<clipPath id="clip0_3122_48118">
<rect width="20" height="20" fill="white" transform="translate(0.404297)"/>
</clipPath>
</defs>
</svg>
