<svg width="25" height="24" viewBox="0 0 25 24" fill="none" xmlns="http://www.w3.org/2000/svg">
<g clip-path="url(#clip0_3559_3917)">
<path d="M8.6916 10.9546C11.0166 10.9546 12.9291 9.11709 12.9291 6.82959C12.9291 4.54209 11.0166 2.70459 8.6916 2.70459C6.3666 2.70459 4.4541 4.54209 4.4541 6.82959C4.4541 9.11709 6.3666 10.9546 8.6916 10.9546ZM8.6916 4.42959C10.0791 4.42959 11.2416 5.51709 11.2416 6.86709C11.2416 8.21709 10.1166 9.30459 8.6916 9.30459C7.2666 9.30459 6.1416 8.21709 6.1416 6.86709C6.1416 5.51709 7.3041 4.42959 8.6916 4.42959Z" fill="white"/>
<path d="M18.1043 12.7546C20.1293 12.7546 21.7418 11.1796 21.7418 9.19214C21.7418 7.20464 20.0918 5.62964 18.1043 5.62964C16.1168 5.62964 14.4668 7.20464 14.4668 9.19214C14.4668 11.1796 16.1168 12.7546 18.1043 12.7546ZM18.1043 7.35464C19.1918 7.35464 20.0543 8.17964 20.0543 9.22964C20.0543 10.2796 19.1918 11.1046 18.1043 11.1046C17.0168 11.1046 16.1543 10.2796 16.1543 9.22964C16.1543 8.17964 17.0168 7.35464 18.1043 7.35464Z" fill="white"/>
<path d="M18.2918 13.1295H17.9543C16.8293 13.1295 15.7418 13.467 14.8043 14.0295C13.7918 12.6795 12.1793 11.7795 10.3793 11.7795H7.0418C3.9668 11.817 1.5293 14.2545 1.5293 17.292V19.992C1.5293 20.7045 2.0918 21.267 2.8043 21.267H22.9418C23.6543 21.267 24.2543 20.667 24.2543 19.9545V19.0545C24.2168 15.792 21.5543 13.1295 18.2918 13.1295ZM3.2168 19.5795V17.292C3.2168 15.192 4.9418 13.467 7.0418 13.467H10.3793C12.4793 13.467 14.2043 15.192 14.2043 17.292V19.5795H3.2168ZM22.5293 19.5795H15.8543V17.292C15.8543 16.692 15.7418 16.092 15.5543 15.5295C16.2293 15.042 17.0543 14.817 17.9168 14.817H18.2543C20.5793 14.817 22.4918 16.7295 22.4918 19.0545V19.5795H22.5293Z" fill="white"/>
</g>
<defs>
<clipPath id="clip0_3559_3917">
<rect width="24" height="24" fill="white" transform="translate(0.854492 0.00463867)"/>
</clipPath>
</defs>
</svg>
