<svg width="24" height="24" viewBox="0 0 24 24" fill="none" xmlns="http://www.w3.org/2000/svg">
<path d="M12 10.5008C9.1875 10.5008 6.9375 8.28828 6.9375 5.58828C6.9375 2.88828 9.1875 0.675781 12 0.675781C14.8125 0.675781 17.0625 2.88828 17.0625 5.58828C17.0625 8.28828 14.8125 10.5008 12 10.5008ZM12 2.36328C10.125 2.36328 8.625 3.82578 8.625 5.58828C8.625 7.35078 10.125 8.81328 12 8.81328C13.875 8.81328 15.375 7.35078 15.375 5.58828C15.375 3.82578 13.875 2.36328 12 2.36328Z" fill="#111928"/>
<path d="M19.3867 23.3629H4.61172C3.86172 23.3629 3.26172 22.7629 3.26172 22.0129V18.6379C3.26172 14.9629 6.26172 11.9629 9.93672 11.9629H14.0992C17.7742 11.9629 20.7742 14.9629 20.7742 18.6379V22.0129C20.7367 22.7254 20.1367 23.3629 19.3867 23.3629ZM4.94922 21.6754H19.0867V18.6379C19.0867 15.9004 16.8367 13.6504 14.0992 13.6504H9.89922C7.16172 13.6504 4.91172 15.9004 4.91172 18.6379V21.6754H4.94922Z" fill="#111928"/>
</svg>
