<svg width="50" height="16" viewBox="0 0 50 16" fill="none" xmlns="http://www.w3.org/2000/svg">
<path fill-rule="evenodd" clip-rule="evenodd" d="M35.8594 10.6485C35.8694 8.12762 33.7854 7.03922 32.1674 6.19352C31.1434 5.65872 30.3064 5.22132 30.3064 4.58062C30.3064 4.03452 30.8364 3.45632 31.9644 3.30702C33.3054 3.17472 34.6584 3.40902 35.8754 3.98542L36.5724 0.678411C35.3854 0.234331 34.1274 0.00473 32.8594 0C28.9474 0 26.2284 2.08342 26.2284 5.05972C26.2284 7.25932 28.2014 8.48292 29.6934 9.21042C31.1854 9.93802 31.7654 10.4501 31.7484 11.1115C31.7484 12.1367 30.5224 12.5996 29.3784 12.6166C27.9674 12.6346 26.5754 12.2935 25.3334 11.6245L24.6204 14.9315C26.0254 15.4786 27.5224 15.7536 29.0304 15.7413C33.1904 15.7413 35.9264 13.6909 35.9424 10.5162L35.8594 10.6485ZM25.1014 0.265511L21.7864 15.5599H17.8084L21.1234 0.265511H25.1014ZM41.7774 10.1855L43.8654 4.44842L45.0764 10.1855H41.7774ZM49.8834 15.6099H46.2034L45.7224 13.3281H40.7334L39.9204 15.6099H35.7434L41.6944 1.43902C41.9684 0.76439 42.6214 0.32125 43.3524 0.31464H46.6674L49.8834 15.6099ZM13.0834 15.5098L19.5154 0.21543H15.2054L11.0784 10.6154L9.42038 1.76972C9.27338 0.87021 8.49338 0.21165 7.58038 0.21543H0.834381L0.734375 0.6614C2.08738 0.92596 3.40236 1.35871 4.64636 1.95112C5.17636 2.19962 5.53537 2.70892 5.59137 3.29092L8.75739 15.5098H13.0834Z" fill="#232323"/>
</svg>
