<svg width="12" height="12" viewBox="0 0 12 12" fill="none" xmlns="http://www.w3.org/2000/svg">
<path d="M8.5685 7.93281C9.22475 7.22031 9.56225 6.26406 9.48725 5.28906L9.33725 3.09531L9.206 1.40781C9.1685 0.789063 8.6435 0.320312 8.0435 0.320312H3.956C3.33725 0.320312 2.831 0.789063 2.7935 1.40781L2.62475 3.69531L2.51225 5.30781C2.43725 6.28281 2.77475 7.23906 3.431 7.95156C3.9935 8.55156 4.76225 8.94531 5.5685 9.03906V10.8391H4.256C4.031 10.8391 3.82475 11.0266 3.82475 11.2703C3.82475 11.5141 4.01225 11.7016 4.256 11.7016H7.72475C7.94975 11.7016 8.156 11.5141 8.156 11.2703C8.156 11.0266 7.9685 10.8391 7.72475 10.8391H6.41225V9.03906C7.23725 8.92656 8.006 8.55156 8.5685 7.93281ZM3.956 1.18281H8.0435C8.21225 1.18281 8.36225 1.31406 8.36225 1.48281L8.456 2.88906L7.68725 3.26406C7.2185 3.48906 6.63725 3.45156 6.206 3.17031C5.58725 2.77656 4.856 2.68281 4.16225 2.90781L3.506 3.13281L3.6185 1.48281C3.63725 1.31406 3.78725 1.18281 3.956 1.18281ZM3.356 5.36406L3.44975 4.03281L4.42475 3.69531C4.87475 3.54531 5.3435 3.60156 5.73725 3.86406C6.131 4.10781 6.581 4.23906 7.031 4.23906C7.38725 4.23906 7.7435 4.16406 8.06225 4.01406L8.531 3.78906L8.6435 5.36406C8.69975 6.11406 8.456 6.82656 7.931 7.37031C7.42475 7.91406 6.731 8.21406 5.981 8.21406C5.231 8.21406 4.53725 7.91406 4.031 7.37031C3.5435 6.80781 3.29975 6.11406 3.356 5.36406Z" fill="#101010"/>
</svg>
