<svg width="21" height="20" viewBox="0 0 21 20" fill="none" xmlns="http://www.w3.org/2000/svg">
<path d="M14.7812 13.2188C15.875 12.0312 16.4375 10.4375 16.3125 8.8125L16.0625 5.15625L15.8437 2.34375C15.7812 1.3125 14.9062 0.53125 13.9062 0.53125H7.09375C6.0625 0.53125 5.21875 1.3125 5.15625 2.34375L4.875 6.15625L4.6875 8.84375C4.5625 10.4687 5.125 12.0625 6.21875 13.25C7.15625 14.25 8.4375 14.9062 9.78125 15.0625V18.0625H7.59375C7.21875 18.0625 6.875 18.375 6.875 18.7812C6.875 19.1875 7.1875 19.5 7.59375 19.5H13.375C13.75 19.5 14.0937 19.1875 14.0937 18.7812C14.0937 18.375 13.7812 18.0625 13.375 18.0625H11.1875V15.0625C12.5625 14.875 13.8437 14.25 14.7812 13.2188ZM7.09375 1.96875H13.9062C14.1875 1.96875 14.4375 2.1875 14.4375 2.46875L14.5937 4.8125L13.3125 5.4375C12.5312 5.8125 11.5625 5.75 10.8437 5.28125C9.8125 4.625 8.59375 4.46875 7.4375 4.84375L6.34375 5.21875L6.53125 2.46875C6.5625 2.1875 6.8125 1.96875 7.09375 1.96875ZM6.09375 8.9375L6.25 6.71875L7.875 6.15625C8.625 5.90625 9.40625 6 10.0625 6.4375C10.7187 6.84375 11.4687 7.0625 12.2187 7.0625C12.8125 7.0625 13.4062 6.9375 13.9375 6.6875L14.7187 6.3125L14.9062 8.9375C15 10.1875 14.5937 11.375 13.7187 12.2812C12.875 13.1875 11.7187 13.6875 10.4687 13.6875C9.21875 13.6875 8.0625 13.1875 7.21875 12.2812C6.40625 11.3438 6 10.1875 6.09375 8.9375Z" fill="white"/>
</svg>
