<svg width="16" height="16" viewBox="0 0 16 16" fill="none" xmlns="http://www.w3.org/2000/svg">
<path d="M15.9207 5.05842L14.7306 1.20962C14.519 0.494845 13.8579 0 13.1438 0H2.98843C2.27438 0 1.63967 0.467354 1.40165 1.15464L0.0793388 5.03093C0.0264463 5.19588 0 5.36083 0 5.55327V13.8832C0 15.0653 0.92562 16 2.03636 16H13.9636C15.1008 16 16 15.0378 16 13.8832V5.52577C16 5.38832 15.9736 5.22337 15.9207 5.05842ZM13.5934 1.5945L14.5719 4.78351H8.59504V1.23711H13.1438C13.3289 1.23711 13.5405 1.37457 13.5934 1.5945ZM2.5124 1.56701C2.59174 1.37457 2.77686 1.23711 2.96198 1.23711H7.37851V4.78351H1.4281L2.5124 1.56701ZM13.9372 14.7629H2.03636C1.56033 14.7629 1.19008 14.378 1.19008 13.8832V6.02062H14.8099V13.8832C14.8099 14.378 14.4132 14.7629 13.9372 14.7629Z" fill="#545454"/>
</svg>
