<svg width="17" height="16" viewBox="0 0 17 16" fill="none" xmlns="http://www.w3.org/2000/svg">
<path d="M16.4207 5.05842L15.2306 1.20962C15.019 0.494845 14.3579 0 13.6438 0H3.48843C2.77438 0 2.13967 0.467354 1.90165 1.15464L0.579339 5.03093C0.526446 5.19588 0.5 5.36083 0.5 5.55327V13.8832C0.5 15.0653 1.42562 16 2.53636 16H14.4636C15.6008 16 16.5 15.0378 16.5 13.8832V5.52577C16.5 5.38832 16.4736 5.22337 16.4207 5.05842ZM14.0934 1.5945L15.0719 4.78351H9.09504V1.23711H13.6438C13.8289 1.23711 14.0405 1.37457 14.0934 1.5945ZM3.0124 1.56701C3.09174 1.37457 3.27686 1.23711 3.46198 1.23711H7.87851V4.78351H1.9281L3.0124 1.56701ZM14.4372 14.7629H2.53636C2.06033 14.7629 1.69008 14.378 1.69008 13.8832V6.02062H15.3099V13.8832C15.3099 14.378 14.9132 14.7629 14.4372 14.7629Z" fill="#FDE8E9"/>
</svg>
