<svg width="17" height="16" viewBox="0 0 17 16" fill="none" xmlns="http://www.w3.org/2000/svg">
<path d="M8.0105 0C7.3577 0 6.81707 0.557539 6.81707 1.23077V2.26954C6.7813 2.38838 6.7813 2.51562 6.81707 2.63446V4.57723L6.35104 4.90339C5.5216 5.47385 5.02693 6.45169 5.02693 7.48062V7.80738C4.99102 7.92642 4.99102 8.05389 5.02693 8.17292V12.1157C4.99115 12.2345 4.99115 12.3618 5.02693 12.4806V16H12.1875V12.4228C12.2041 12.3404 12.2041 12.2553 12.1875 12.1729V8.11569C12.2042 8.03309 12.2042 7.94784 12.1875 7.86523V7.48062C12.1875 6.45169 11.6934 5.47385 10.8634 4.904L10.3974 4.57723V2.57723C10.414 2.49463 10.414 2.40937 10.3974 2.32677V1.23077C10.3974 0.557539 9.85674 0 9.20394 0H8.0105ZM8.0105 1.23077H9.20394V1.84615H8.0105V1.23077ZM8.0105 3.07692H9.20394V5.24985L9.4653 5.44246L10.1921 5.94215C10.6653 6.26708 10.9452 6.80308 10.9756 7.38462H6.23826C6.26869 6.80308 6.54855 6.26708 7.02175 5.94215L7.74914 5.44246L8.00991 5.24985L8.0105 3.07692ZM6.22036 8.61539H10.9941V11.6923H6.22036V8.61539ZM6.22036 12.9231H10.9941V14.7692H6.22036V12.9231Z" fill="#FDE8E9"/>
</svg>
