<svg width="16" height="16" viewBox="0 0 16 16" fill="none" xmlns="http://www.w3.org/2000/svg">
<path d="M7.5105 0C6.8577 0 6.31707 0.557539 6.31707 1.23077V2.26954C6.2813 2.38838 6.2813 2.51562 6.31707 2.63446V4.57723L5.85104 4.90339C5.0216 5.47385 4.52693 6.45169 4.52693 7.48062V7.80738C4.49102 7.92642 4.49102 8.05389 4.52693 8.17292V12.1157C4.49115 12.2345 4.49115 12.3618 4.52693 12.4806V16H11.6875V12.4228C11.7041 12.3404 11.7041 12.2553 11.6875 12.1729V8.11569C11.7042 8.03309 11.7042 7.94784 11.6875 7.86523V7.48062C11.6875 6.45169 11.1934 5.47385 10.3634 4.904L9.89737 4.57723V2.57723C9.91401 2.49463 9.91401 2.40937 9.89737 2.32677V1.23077C9.89737 0.557539 9.35674 0 8.70394 0H7.5105ZM7.5105 1.23077H8.70394V1.84615H7.5105V1.23077ZM7.5105 3.07692H8.70394V5.24985L8.9653 5.44246L9.6921 5.94215C10.1653 6.26708 10.4452 6.80308 10.4756 7.38462H5.73826C5.76869 6.80308 6.04855 6.26708 6.52175 5.94215L7.24914 5.44246L7.50991 5.24985L7.5105 3.07692ZM5.72036 8.61539H10.4941V11.6923H5.72036V8.61539ZM5.72036 12.9231H10.4941V14.7692H5.72036V12.9231Z" fill="#545454"/>
</svg>
