<svg width="29" height="50" viewBox="0 0 29 50" fill="none" xmlns="http://www.w3.org/2000/svg">
<ellipse cx="2.17862" cy="32.9436" rx="1.77127" ry="1.39737" transform="rotate(-90 2.17862 32.9436)" fill="#F9B9BB"/>
<ellipse cx="14.4755" cy="32.9436" rx="1.77127" ry="1.39737" transform="rotate(-90 14.4755 32.9436)" fill="#F9B9BB"/>
<ellipse cx="26.7724" cy="32.9436" rx="1.77127" ry="1.39737" transform="rotate(-90 26.7724 32.9436)" fill="#F9B9BB"/>
<ellipse cx="2.17862" cy="17.3576" rx="1.77127" ry="1.39737" transform="rotate(-90 2.17862 17.3576)" fill="#F9B9BB"/>
<ellipse cx="14.4755" cy="17.3576" rx="1.77127" ry="1.39737" transform="rotate(-90 14.4755 17.3576)" fill="#F9B9BB"/>
<ellipse cx="26.7724" cy="17.3576" rx="1.77127" ry="1.39737" transform="rotate(-90 26.7724 17.3576)" fill="#F9B9BB"/>
<ellipse cx="2.17862" cy="48.178" rx="1.77127" ry="1.39737" transform="rotate(-90 2.17862 48.178)" fill="#F9B9BB"/>
<ellipse cx="2.17862" cy="1.7717" rx="1.77127" ry="1.39737" transform="rotate(-90 2.17862 1.7717)" fill="#F9B9BB"/>
<ellipse cx="14.4755" cy="48.178" rx="1.77127" ry="1.39737" transform="rotate(-90 14.4755 48.178)" fill="#F9B9BB"/>
<ellipse cx="14.4755" cy="1.7717" rx="1.77127" ry="1.39737" transform="rotate(-90 14.4755 1.7717)" fill="#F9B9BB"/>
<ellipse cx="26.7724" cy="48.178" rx="1.77127" ry="1.39737" transform="rotate(-90 26.7724 48.178)" fill="#F9B9BB"/>
<ellipse cx="26.7724" cy="1.7717" rx="1.77127" ry="1.39737" transform="rotate(-90 26.7724 1.7717)" fill="#F9B9BB"/>
</svg>
