<svg width="33" height="42" viewBox="0 0 33 42" fill="none" xmlns="http://www.w3.org/2000/svg">
<ellipse cx="6.288" cy="33.1155" rx="1.77127" ry="1.39737" transform="rotate(-90 6.288 33.1155)" fill="#F9B9BB"/>
<ellipse cx="18.5849" cy="33.1155" rx="1.77127" ry="1.39737" transform="rotate(-90 18.5849 33.1155)" fill="#F9B9BB"/>
<ellipse cx="30.7177" cy="33.1155" rx="1.77127" ry="1.39737" transform="rotate(-90 30.7177 33.1155)" fill="#F9B9BB"/>
<ellipse cx="6.288" cy="17.5256" rx="1.77127" ry="1.39737" transform="rotate(-90 6.288 17.5256)" fill="#F9B9BB"/>
<ellipse cx="18.5849" cy="17.5256" rx="1.77127" ry="1.39737" transform="rotate(-90 18.5849 17.5256)" fill="#F9B9BB"/>
<ellipse cx="30.7255" cy="17.5256" rx="1.77127" ry="1.39737" transform="rotate(-90 30.7255 17.5256)" fill="#F9B9BB"/>
<ellipse cx="6.288" cy="1.93967" rx="1.77127" ry="1.39737" transform="rotate(-90 6.288 1.93967)" fill="#F9B9BB"/>
<ellipse cx="18.5849" cy="1.93967" rx="1.77127" ry="1.39737" transform="rotate(-90 18.5849 1.93967)" fill="#F9B9BB"/>
<ellipse cx="30.7255" cy="1.93967" rx="1.77127" ry="1.39737" transform="rotate(-90 30.7255 1.93967)" fill="#F9B9BB"/>
</svg>
