<svg width="48" height="39" viewBox="0 0 48 39" fill="none" xmlns="http://www.w3.org/2000/svg">
<ellipse cx="1.39737" cy="36.467" rx="1.77127" ry="1.39737" transform="rotate(-90 1.39737 36.467)" fill="#F9B9BB"/>
<ellipse cx="13.6943" cy="36.467" rx="1.77127" ry="1.39737" transform="rotate(-90 13.6943 36.467)" fill="#F9B9BB"/>
<ellipse cx="25.9911" cy="36.467" rx="1.77127" ry="1.39737" transform="rotate(-90 25.9911 36.467)" fill="#F9B9BB"/>
<ellipse cx="38.288" cy="36.467" rx="1.77127" ry="1.39737" transform="rotate(-90 38.288 36.467)" fill="#F9B9BB"/>
<ellipse cx="1.39737" cy="20.8811" rx="1.77127" ry="1.39737" transform="rotate(-90 1.39737 20.8811)" fill="#F9B9BB"/>
<ellipse cx="13.6943" cy="20.8811" rx="1.77127" ry="1.39737" transform="rotate(-90 13.6943 20.8811)" fill="#F9B9BB"/>
<ellipse cx="25.9911" cy="20.8811" rx="1.77127" ry="1.39737" transform="rotate(-90 25.9911 20.8811)" fill="#F9B9BB"/>
<ellipse cx="38.288" cy="20.8811" rx="1.77127" ry="1.39737" transform="rotate(-90 38.288 20.8811)" fill="#F9B9BB"/>
<ellipse cx="1.39737" cy="5.29123" rx="1.77127" ry="1.39737" transform="rotate(-90 1.39737 5.29123)" fill="#F9B9BB"/>
<ellipse cx="13.6943" cy="5.29123" rx="1.77127" ry="1.39737" transform="rotate(-90 13.6943 5.29123)" fill="#F9B9BB"/>
<ellipse cx="25.9911" cy="5.29123" rx="1.77127" ry="1.39737" transform="rotate(-90 25.9911 5.29123)" fill="#F9B9BB"/>
<ellipse cx="38.288" cy="5.29123" rx="1.77127" ry="1.39737" transform="rotate(-90 38.288 5.29123)" fill="#F9B9BB"/>
</svg>
