<svg width="19" height="18" viewBox="0 0 19 18" fill="none" xmlns="http://www.w3.org/2000/svg">
<path d="M17.4215 6.15625C16.8677 5.6875 16.1908 5.4375 15.4832 5.4375H12.5604V3.5C12.5604 2.15625 12.1604 1.15625 11.3297 0.5625C10.8067 0.1875 10.1914 0 9.453 0C8.77614 0 8.28388 0.15625 8.28388 0.15625C7.82238 0.28125 7.51472 0.75 7.51472 1.21875V4.1875C7.51472 5.375 6.56096 6.0625 5.88411 6.40625C5.79181 6.15625 5.54568 5.96875 5.23801 5.96875H2.09985C1.20763 5.96875 0.5 6.71875 0.5 7.59375V16.375C0.5 17.2812 1.23839 18 2.09985 18H5.23801C5.51491 18 5.76104 17.8125 5.88411 17.5938C6.22253 17.7188 6.59173 17.8125 6.96093 17.8125H14.0987C16.037 17.8125 17.3292 16.7188 17.5445 14.9062L18.4675 9.09375C18.6214 7.96875 18.2214 6.875 17.4215 6.15625ZM4.56115 16.5625H2.09985C1.97678 16.5625 1.85372 16.4688 1.85372 16.3125V7.5625C1.85372 7.4375 1.94602 7.3125 2.09985 7.3125H4.56115V16.5625ZM17.083 8.8125L16.1601 14.6562C15.9755 16.0625 14.9294 16.3438 14.0987 16.3438H6.96093C6.59173 16.3438 6.2533 16.2188 5.94564 15.9688V7.90625C7.17629 7.4375 8.8992 6.25 8.8992 4.1875V1.4375C9.02227 1.40625 9.23763 1.375 9.453 1.375C9.88373 1.375 10.2222 1.46875 10.4991 1.6875C10.9298 2.03125 11.1759 2.625 11.1759 3.5V5.5625C11.1759 6.28125 11.7297 6.84375 12.4373 6.84375H15.4832C15.8524 6.84375 16.2216 7 16.5293 7.25C16.96 7.625 17.1753 8.21875 17.083 8.8125Z" fill="#B2151B"/>
<path d="M17.4215 6.15625C16.8677 5.6875 16.1908 5.4375 15.4832 5.4375H12.5604V3.5C12.5604 2.15625 12.1604 1.15625 11.3297 0.5625C10.8067 0.1875 10.1914 0 9.453 0C8.77614 0 8.28388 0.15625 8.28388 0.15625C7.82238 0.28125 7.51472 0.75 7.51472 1.21875V4.1875C7.51472 5.375 6.56096 6.0625 5.88411 6.40625C5.79181 6.15625 5.54568 5.96875 5.23801 5.96875H2.09985C1.20763 5.96875 0.5 6.71875 0.5 7.59375V16.375C0.5 17.2812 1.23839 18 2.09985 18H5.23801C5.51491 18 5.76104 17.8125 5.88411 17.5938C6.22253 17.7188 6.59173 17.8125 6.96093 17.8125H14.0987C16.037 17.8125 17.3292 16.7188 17.5445 14.9062L18.4675 9.09375C18.6214 7.96875 18.2214 6.875 17.4215 6.15625ZM4.56115 16.5625H2.09985C1.97678 16.5625 1.85372 16.4688 1.85372 16.3125V7.5625C1.85372 7.4375 1.94602 7.3125 2.09985 7.3125H4.56115V16.5625ZM17.083 8.8125L16.1601 14.6562C15.9755 16.0625 14.9294 16.3438 14.0987 16.3438H6.96093C6.59173 16.3438 6.2533 16.2188 5.94564 15.9688V7.90625C7.17629 7.4375 8.8992 6.25 8.8992 4.1875V1.4375C9.02227 1.40625 9.23763 1.375 9.453 1.375C9.88373 1.375 10.2222 1.46875 10.4991 1.6875C10.9298 2.03125 11.1759 2.625 11.1759 3.5V5.5625C11.1759 6.28125 11.7297 6.84375 12.4373 6.84375H15.4832C15.8524 6.84375 16.2216 7 16.5293 7.25C16.96 7.625 17.1753 8.21875 17.083 8.8125Z" fill="black" fill-opacity="0.2"/>
<path d="M17.4215 6.15625C16.8677 5.6875 16.1908 5.4375 15.4832 5.4375H12.5604V3.5C12.5604 2.15625 12.1604 1.15625 11.3297 0.5625C10.8067 0.1875 10.1914 0 9.453 0C8.77614 0 8.28388 0.15625 8.28388 0.15625C7.82238 0.28125 7.51472 0.75 7.51472 1.21875V4.1875C7.51472 5.375 6.56096 6.0625 5.88411 6.40625C5.79181 6.15625 5.54568 5.96875 5.23801 5.96875H2.09985C1.20763 5.96875 0.5 6.71875 0.5 7.59375V16.375C0.5 17.2812 1.23839 18 2.09985 18H5.23801C5.51491 18 5.76104 17.8125 5.88411 17.5938C6.22253 17.7188 6.59173 17.8125 6.96093 17.8125H14.0987C16.037 17.8125 17.3292 16.7188 17.5445 14.9062L18.4675 9.09375C18.6214 7.96875 18.2214 6.875 17.4215 6.15625ZM4.56115 16.5625H2.09985C1.97678 16.5625 1.85372 16.4688 1.85372 16.3125V7.5625C1.85372 7.4375 1.94602 7.3125 2.09985 7.3125H4.56115V16.5625ZM17.083 8.8125L16.1601 14.6562C15.9755 16.0625 14.9294 16.3438 14.0987 16.3438H6.96093C6.59173 16.3438 6.2533 16.2188 5.94564 15.9688V7.90625C7.17629 7.4375 8.8992 6.25 8.8992 4.1875V1.4375C9.02227 1.40625 9.23763 1.375 9.453 1.375C9.88373 1.375 10.2222 1.46875 10.4991 1.6875C10.9298 2.03125 11.1759 2.625 11.1759 3.5V5.5625C11.1759 6.28125 11.7297 6.84375 12.4373 6.84375H15.4832C15.8524 6.84375 16.2216 7 16.5293 7.25C16.96 7.625 17.1753 8.21875 17.083 8.8125Z" fill="black" fill-opacity="0.2"/>
<path d="M17.4215 6.15625C16.8677 5.6875 16.1908 5.4375 15.4832 5.4375H12.5604V3.5C12.5604 2.15625 12.1604 1.15625 11.3297 0.5625C10.8067 0.1875 10.1914 0 9.453 0C8.77614 0 8.28388 0.15625 8.28388 0.15625C7.82238 0.28125 7.51472 0.75 7.51472 1.21875V4.1875C7.51472 5.375 6.56096 6.0625 5.88411 6.40625C5.79181 6.15625 5.54568 5.96875 5.23801 5.96875H2.09985C1.20763 5.96875 0.5 6.71875 0.5 7.59375V16.375C0.5 17.2812 1.23839 18 2.09985 18H5.23801C5.51491 18 5.76104 17.8125 5.88411 17.5938C6.22253 17.7188 6.59173 17.8125 6.96093 17.8125H14.0987C16.037 17.8125 17.3292 16.7188 17.5445 14.9062L18.4675 9.09375C18.6214 7.96875 18.2214 6.875 17.4215 6.15625ZM4.56115 16.5625H2.09985C1.97678 16.5625 1.85372 16.4688 1.85372 16.3125V7.5625C1.85372 7.4375 1.94602 7.3125 2.09985 7.3125H4.56115V16.5625ZM17.083 8.8125L16.1601 14.6562C15.9755 16.0625 14.9294 16.3438 14.0987 16.3438H6.96093C6.59173 16.3438 6.2533 16.2188 5.94564 15.9688V7.90625C7.17629 7.4375 8.8992 6.25 8.8992 4.1875V1.4375C9.02227 1.40625 9.23763 1.375 9.453 1.375C9.88373 1.375 10.2222 1.46875 10.4991 1.6875C10.9298 2.03125 11.1759 2.625 11.1759 3.5V5.5625C11.1759 6.28125 11.7297 6.84375 12.4373 6.84375H15.4832C15.8524 6.84375 16.2216 7 16.5293 7.25C16.96 7.625 17.1753 8.21875 17.083 8.8125Z" fill="black" fill-opacity="0.2"/>
<path d="M17.4215 6.15625C16.8677 5.6875 16.1908 5.4375 15.4832 5.4375H12.5604V3.5C12.5604 2.15625 12.1604 1.15625 11.3297 0.5625C10.8067 0.1875 10.1914 0 9.453 0C8.77614 0 8.28388 0.15625 8.28388 0.15625C7.82238 0.28125 7.51472 0.75 7.51472 1.21875V4.1875C7.51472 5.375 6.56096 6.0625 5.88411 6.40625C5.79181 6.15625 5.54568 5.96875 5.23801 5.96875H2.09985C1.20763 5.96875 0.5 6.71875 0.5 7.59375V16.375C0.5 17.2812 1.23839 18 2.09985 18H5.23801C5.51491 18 5.76104 17.8125 5.88411 17.5938C6.22253 17.7188 6.59173 17.8125 6.96093 17.8125H14.0987C16.037 17.8125 17.3292 16.7188 17.5445 14.9062L18.4675 9.09375C18.6214 7.96875 18.2214 6.875 17.4215 6.15625ZM4.56115 16.5625H2.09985C1.97678 16.5625 1.85372 16.4688 1.85372 16.3125V7.5625C1.85372 7.4375 1.94602 7.3125 2.09985 7.3125H4.56115V16.5625ZM17.083 8.8125L16.1601 14.6562C15.9755 16.0625 14.9294 16.3438 14.0987 16.3438H6.96093C6.59173 16.3438 6.2533 16.2188 5.94564 15.9688V7.90625C7.17629 7.4375 8.8992 6.25 8.8992 4.1875V1.4375C9.02227 1.40625 9.23763 1.375 9.453 1.375C9.88373 1.375 10.2222 1.46875 10.4991 1.6875C10.9298 2.03125 11.1759 2.625 11.1759 3.5V5.5625C11.1759 6.28125 11.7297 6.84375 12.4373 6.84375H15.4832C15.8524 6.84375 16.2216 7 16.5293 7.25C16.96 7.625 17.1753 8.21875 17.083 8.8125Z" fill="black" fill-opacity="0.2"/>
<path d="M17.4215 6.15625C16.8677 5.6875 16.1908 5.4375 15.4832 5.4375H12.5604V3.5C12.5604 2.15625 12.1604 1.15625 11.3297 0.5625C10.8067 0.1875 10.1914 0 9.453 0C8.77614 0 8.28388 0.15625 8.28388 0.15625C7.82238 0.28125 7.51472 0.75 7.51472 1.21875V4.1875C7.51472 5.375 6.56096 6.0625 5.88411 6.40625C5.79181 6.15625 5.54568 5.96875 5.23801 5.96875H2.09985C1.20763 5.96875 0.5 6.71875 0.5 7.59375V16.375C0.5 17.2812 1.23839 18 2.09985 18H5.23801C5.51491 18 5.76104 17.8125 5.88411 17.5938C6.22253 17.7188 6.59173 17.8125 6.96093 17.8125H14.0987C16.037 17.8125 17.3292 16.7188 17.5445 14.9062L18.4675 9.09375C18.6214 7.96875 18.2214 6.875 17.4215 6.15625ZM4.56115 16.5625H2.09985C1.97678 16.5625 1.85372 16.4688 1.85372 16.3125V7.5625C1.85372 7.4375 1.94602 7.3125 2.09985 7.3125H4.56115V16.5625ZM17.083 8.8125L16.1601 14.6562C15.9755 16.0625 14.9294 16.3438 14.0987 16.3438H6.96093C6.59173 16.3438 6.2533 16.2188 5.94564 15.9688V7.90625C7.17629 7.4375 8.8992 6.25 8.8992 4.1875V1.4375C9.02227 1.40625 9.23763 1.375 9.453 1.375C9.88373 1.375 10.2222 1.46875 10.4991 1.6875C10.9298 2.03125 11.1759 2.625 11.1759 3.5V5.5625C11.1759 6.28125 11.7297 6.84375 12.4373 6.84375H15.4832C15.8524 6.84375 16.2216 7 16.5293 7.25C16.96 7.625 17.1753 8.21875 17.083 8.8125Z" fill="black" fill-opacity="0.2"/>
<path d="M17.4215 6.15625C16.8677 5.6875 16.1908 5.4375 15.4832 5.4375H12.5604V3.5C12.5604 2.15625 12.1604 1.15625 11.3297 0.5625C10.8067 0.1875 10.1914 0 9.453 0C8.77614 0 8.28388 0.15625 8.28388 0.15625C7.82238 0.28125 7.51472 0.75 7.51472 1.21875V4.1875C7.51472 5.375 6.56096 6.0625 5.88411 6.40625C5.79181 6.15625 5.54568 5.96875 5.23801 5.96875H2.09985C1.20763 5.96875 0.5 6.71875 0.5 7.59375V16.375C0.5 17.2812 1.23839 18 2.09985 18H5.23801C5.51491 18 5.76104 17.8125 5.88411 17.5938C6.22253 17.7188 6.59173 17.8125 6.96093 17.8125H14.0987C16.037 17.8125 17.3292 16.7188 17.5445 14.9062L18.4675 9.09375C18.6214 7.96875 18.2214 6.875 17.4215 6.15625ZM4.56115 16.5625H2.09985C1.97678 16.5625 1.85372 16.4688 1.85372 16.3125V7.5625C1.85372 7.4375 1.94602 7.3125 2.09985 7.3125H4.56115V16.5625ZM17.083 8.8125L16.1601 14.6562C15.9755 16.0625 14.9294 16.3438 14.0987 16.3438H6.96093C6.59173 16.3438 6.2533 16.2188 5.94564 15.9688V7.90625C7.17629 7.4375 8.8992 6.25 8.8992 4.1875V1.4375C9.02227 1.40625 9.23763 1.375 9.453 1.375C9.88373 1.375 10.2222 1.46875 10.4991 1.6875C10.9298 2.03125 11.1759 2.625 11.1759 3.5V5.5625C11.1759 6.28125 11.7297 6.84375 12.4373 6.84375H15.4832C15.8524 6.84375 16.2216 7 16.5293 7.25C16.96 7.625 17.1753 8.21875 17.083 8.8125Z" fill="black" fill-opacity="0.2"/>
</svg>
