<svg width="21" height="20" viewBox="0 0 21 20" fill="none" xmlns="http://www.w3.org/2000/svg">
<path d="M14.375 6.09375H6.3125C5.9375 6.09375 5.59375 6.40625 5.59375 6.8125C5.59375 7.21875 5.90625 7.53125 6.3125 7.53125H14.4062C14.7812 7.53125 15.125 7.21875 15.125 6.8125C15.125 6.40625 14.7813 6.09375 14.375 6.09375Z" fill="#B2151B"/>
<path d="M14.375 6.09375H6.3125C5.9375 6.09375 5.59375 6.40625 5.59375 6.8125C5.59375 7.21875 5.90625 7.53125 6.3125 7.53125H14.4062C14.7812 7.53125 15.125 7.21875 15.125 6.8125C15.125 6.40625 14.7813 6.09375 14.375 6.09375Z" fill="black" fill-opacity="0.2"/>
<path d="M14.375 6.09375H6.3125C5.9375 6.09375 5.59375 6.40625 5.59375 6.8125C5.59375 7.21875 5.90625 7.53125 6.3125 7.53125H14.4062C14.7812 7.53125 15.125 7.21875 15.125 6.8125C15.125 6.40625 14.7813 6.09375 14.375 6.09375Z" fill="black" fill-opacity="0.2"/>
<path d="M14.375 6.09375H6.3125C5.9375 6.09375 5.59375 6.40625 5.59375 6.8125C5.59375 7.21875 5.90625 7.53125 6.3125 7.53125H14.4062C14.7812 7.53125 15.125 7.21875 15.125 6.8125C15.125 6.40625 14.7813 6.09375 14.375 6.09375Z" fill="black" fill-opacity="0.2"/>
<path d="M14.375 6.09375H6.3125C5.9375 6.09375 5.59375 6.40625 5.59375 6.8125C5.59375 7.21875 5.90625 7.53125 6.3125 7.53125H14.4062C14.7812 7.53125 15.125 7.21875 15.125 6.8125C15.125 6.40625 14.7813 6.09375 14.375 6.09375Z" fill="black" fill-opacity="0.2"/>
<path d="M14.375 6.09375H6.3125C5.9375 6.09375 5.59375 6.40625 5.59375 6.8125C5.59375 7.21875 5.90625 7.53125 6.3125 7.53125H14.4062C14.7812 7.53125 15.125 7.21875 15.125 6.8125C15.125 6.40625 14.7813 6.09375 14.375 6.09375Z" fill="black" fill-opacity="0.2"/>
<path d="M14.375 6.09375H6.3125C5.9375 6.09375 5.59375 6.40625 5.59375 6.8125C5.59375 7.21875 5.90625 7.53125 6.3125 7.53125H14.4062C14.7812 7.53125 15.125 7.21875 15.125 6.8125C15.125 6.40625 14.7813 6.09375 14.375 6.09375Z" fill="black" fill-opacity="0.2"/>
<path d="M12.75 9.90625H6.3125C5.9375 9.90625 5.59375 10.2187 5.59375 10.625C5.59375 11.0313 5.90625 11.3437 6.3125 11.3437H12.75C13.125 11.3437 13.4688 11.0313 13.4688 10.625C13.4688 10.2187 13.125 9.90625 12.75 9.90625Z" fill="#B2151B"/>
<path d="M12.75 9.90625H6.3125C5.9375 9.90625 5.59375 10.2187 5.59375 10.625C5.59375 11.0313 5.90625 11.3437 6.3125 11.3437H12.75C13.125 11.3437 13.4688 11.0313 13.4688 10.625C13.4688 10.2187 13.125 9.90625 12.75 9.90625Z" fill="black" fill-opacity="0.2"/>
<path d="M12.75 9.90625H6.3125C5.9375 9.90625 5.59375 10.2187 5.59375 10.625C5.59375 11.0313 5.90625 11.3437 6.3125 11.3437H12.75C13.125 11.3437 13.4688 11.0313 13.4688 10.625C13.4688 10.2187 13.125 9.90625 12.75 9.90625Z" fill="black" fill-opacity="0.2"/>
<path d="M12.75 9.90625H6.3125C5.9375 9.90625 5.59375 10.2187 5.59375 10.625C5.59375 11.0313 5.90625 11.3437 6.3125 11.3437H12.75C13.125 11.3437 13.4688 11.0313 13.4688 10.625C13.4688 10.2187 13.125 9.90625 12.75 9.90625Z" fill="black" fill-opacity="0.2"/>
<path d="M12.75 9.90625H6.3125C5.9375 9.90625 5.59375 10.2187 5.59375 10.625C5.59375 11.0313 5.90625 11.3437 6.3125 11.3437H12.75C13.125 11.3437 13.4688 11.0313 13.4688 10.625C13.4688 10.2187 13.125 9.90625 12.75 9.90625Z" fill="black" fill-opacity="0.2"/>
<path d="M12.75 9.90625H6.3125C5.9375 9.90625 5.59375 10.2187 5.59375 10.625C5.59375 11.0313 5.90625 11.3437 6.3125 11.3437H12.75C13.125 11.3437 13.4688 11.0313 13.4688 10.625C13.4688 10.2187 13.125 9.90625 12.75 9.90625Z" fill="black" fill-opacity="0.2"/>
<path d="M12.75 9.90625H6.3125C5.9375 9.90625 5.59375 10.2187 5.59375 10.625C5.59375 11.0313 5.90625 11.3437 6.3125 11.3437H12.75C13.125 11.3437 13.4688 11.0313 13.4688 10.625C13.4688 10.2187 13.125 9.90625 12.75 9.90625Z" fill="black" fill-opacity="0.2"/>
<path d="M18 2.46875H3C1.9375 2.46875 1.03125 3.34375 1.03125 4.4375V16.2188C1.03125 16.7188 1.3125 17.1875 1.78125 17.4063C1.96875 17.5 2.15625 17.5313 2.34375 17.5313C2.65625 17.5313 2.9375 17.4375 3.1875 17.2188L5.84375 15.0312H18C19.0625 15.0312 19.9687 14.1562 19.9687 13.0625V4.4375C19.9687 3.34375 19.0625 2.46875 18 2.46875ZM18.5625 13.0625C18.5625 13.375 18.3125 13.625 18 13.625H5.59375C5.4375 13.625 5.28125 13.6875 5.15625 13.7812L2.46875 16V4.4375C2.46875 4.125 2.71875 3.875 3.03125 3.875H18.0312C18.3437 3.875 18.5937 4.125 18.5937 4.4375V13.0625H18.5625Z" fill="#B2151B"/>
<path d="M18 2.46875H3C1.9375 2.46875 1.03125 3.34375 1.03125 4.4375V16.2188C1.03125 16.7188 1.3125 17.1875 1.78125 17.4063C1.96875 17.5 2.15625 17.5313 2.34375 17.5313C2.65625 17.5313 2.9375 17.4375 3.1875 17.2188L5.84375 15.0312H18C19.0625 15.0312 19.9687 14.1562 19.9687 13.0625V4.4375C19.9687 3.34375 19.0625 2.46875 18 2.46875ZM18.5625 13.0625C18.5625 13.375 18.3125 13.625 18 13.625H5.59375C5.4375 13.625 5.28125 13.6875 5.15625 13.7812L2.46875 16V4.4375C2.46875 4.125 2.71875 3.875 3.03125 3.875H18.0312C18.3437 3.875 18.5937 4.125 18.5937 4.4375V13.0625H18.5625Z" fill="black" fill-opacity="0.2"/>
<path d="M18 2.46875H3C1.9375 2.46875 1.03125 3.34375 1.03125 4.4375V16.2188C1.03125 16.7188 1.3125 17.1875 1.78125 17.4063C1.96875 17.5 2.15625 17.5313 2.34375 17.5313C2.65625 17.5313 2.9375 17.4375 3.1875 17.2188L5.84375 15.0312H18C19.0625 15.0312 19.9687 14.1562 19.9687 13.0625V4.4375C19.9687 3.34375 19.0625 2.46875 18 2.46875ZM18.5625 13.0625C18.5625 13.375 18.3125 13.625 18 13.625H5.59375C5.4375 13.625 5.28125 13.6875 5.15625 13.7812L2.46875 16V4.4375C2.46875 4.125 2.71875 3.875 3.03125 3.875H18.0312C18.3437 3.875 18.5937 4.125 18.5937 4.4375V13.0625H18.5625Z" fill="black" fill-opacity="0.2"/>
<path d="M18 2.46875H3C1.9375 2.46875 1.03125 3.34375 1.03125 4.4375V16.2188C1.03125 16.7188 1.3125 17.1875 1.78125 17.4063C1.96875 17.5 2.15625 17.5313 2.34375 17.5313C2.65625 17.5313 2.9375 17.4375 3.1875 17.2188L5.84375 15.0312H18C19.0625 15.0312 19.9687 14.1562 19.9687 13.0625V4.4375C19.9687 3.34375 19.0625 2.46875 18 2.46875ZM18.5625 13.0625C18.5625 13.375 18.3125 13.625 18 13.625H5.59375C5.4375 13.625 5.28125 13.6875 5.15625 13.7812L2.46875 16V4.4375C2.46875 4.125 2.71875 3.875 3.03125 3.875H18.0312C18.3437 3.875 18.5937 4.125 18.5937 4.4375V13.0625H18.5625Z" fill="black" fill-opacity="0.2"/>
<path d="M18 2.46875H3C1.9375 2.46875 1.03125 3.34375 1.03125 4.4375V16.2188C1.03125 16.7188 1.3125 17.1875 1.78125 17.4063C1.96875 17.5 2.15625 17.5313 2.34375 17.5313C2.65625 17.5313 2.9375 17.4375 3.1875 17.2188L5.84375 15.0312H18C19.0625 15.0312 19.9687 14.1562 19.9687 13.0625V4.4375C19.9687 3.34375 19.0625 2.46875 18 2.46875ZM18.5625 13.0625C18.5625 13.375 18.3125 13.625 18 13.625H5.59375C5.4375 13.625 5.28125 13.6875 5.15625 13.7812L2.46875 16V4.4375C2.46875 4.125 2.71875 3.875 3.03125 3.875H18.0312C18.3437 3.875 18.5937 4.125 18.5937 4.4375V13.0625H18.5625Z" fill="black" fill-opacity="0.2"/>
<path d="M18 2.46875H3C1.9375 2.46875 1.03125 3.34375 1.03125 4.4375V16.2188C1.03125 16.7188 1.3125 17.1875 1.78125 17.4063C1.96875 17.5 2.15625 17.5313 2.34375 17.5313C2.65625 17.5313 2.9375 17.4375 3.1875 17.2188L5.84375 15.0312H18C19.0625 15.0312 19.9687 14.1562 19.9687 13.0625V4.4375C19.9687 3.34375 19.0625 2.46875 18 2.46875ZM18.5625 13.0625C18.5625 13.375 18.3125 13.625 18 13.625H5.59375C5.4375 13.625 5.28125 13.6875 5.15625 13.7812L2.46875 16V4.4375C2.46875 4.125 2.71875 3.875 3.03125 3.875H18.0312C18.3437 3.875 18.5937 4.125 18.5937 4.4375V13.0625H18.5625Z" fill="black" fill-opacity="0.2"/>
<path d="M18 2.46875H3C1.9375 2.46875 1.03125 3.34375 1.03125 4.4375V16.2188C1.03125 16.7188 1.3125 17.1875 1.78125 17.4063C1.96875 17.5 2.15625 17.5313 2.34375 17.5313C2.65625 17.5313 2.9375 17.4375 3.1875 17.2188L5.84375 15.0312H18C19.0625 15.0312 19.9687 14.1562 19.9687 13.0625V4.4375C19.9687 3.34375 19.0625 2.46875 18 2.46875ZM18.5625 13.0625C18.5625 13.375 18.3125 13.625 18 13.625H5.59375C5.4375 13.625 5.28125 13.6875 5.15625 13.7812L2.46875 16V4.4375C2.46875 4.125 2.71875 3.875 3.03125 3.875H18.0312C18.3437 3.875 18.5937 4.125 18.5937 4.4375V13.0625H18.5625Z" fill="black" fill-opacity="0.2"/>
</svg>
