<svg width="20" height="20" viewBox="0 0 20 20" fill="none" xmlns="http://www.w3.org/2000/svg">
<path d="M10 0.5625C4.78125 0.5625 0.5625 4.78125 0.5625 10C0.5625 15.2188 4.78125 19.4688 10 19.4688C15.2188 19.4688 19.4688 15.2188 19.4688 10C19.4688 4.78125 15.2188 0.5625 10 0.5625ZM10 18.0625C5.5625 18.0625 1.96875 14.4375 1.96875 10C1.96875 5.5625 5.5625 1.96875 10 1.96875C14.4375 1.96875 18.0625 5.59375 18.0625 10.0312C18.0625 14.4375 14.4375 18.0625 10 18.0625Z" fill="#B2151B"/>
<path d="M10 0.5625C4.78125 0.5625 0.5625 4.78125 0.5625 10C0.5625 15.2188 4.78125 19.4688 10 19.4688C15.2188 19.4688 19.4688 15.2188 19.4688 10C19.4688 4.78125 15.2188 0.5625 10 0.5625ZM10 18.0625C5.5625 18.0625 1.96875 14.4375 1.96875 10C1.96875 5.5625 5.5625 1.96875 10 1.96875C14.4375 1.96875 18.0625 5.59375 18.0625 10.0312C18.0625 14.4375 14.4375 18.0625 10 18.0625Z" fill="black" fill-opacity="0.2"/>
<path d="M10 0.5625C4.78125 0.5625 0.5625 4.78125 0.5625 10C0.5625 15.2188 4.78125 19.4688 10 19.4688C15.2188 19.4688 19.4688 15.2188 19.4688 10C19.4688 4.78125 15.2188 0.5625 10 0.5625ZM10 18.0625C5.5625 18.0625 1.96875 14.4375 1.96875 10C1.96875 5.5625 5.5625 1.96875 10 1.96875C14.4375 1.96875 18.0625 5.59375 18.0625 10.0312C18.0625 14.4375 14.4375 18.0625 10 18.0625Z" fill="black" fill-opacity="0.2"/>
<path d="M10 0.5625C4.78125 0.5625 0.5625 4.78125 0.5625 10C0.5625 15.2188 4.78125 19.4688 10 19.4688C15.2188 19.4688 19.4688 15.2188 19.4688 10C19.4688 4.78125 15.2188 0.5625 10 0.5625ZM10 18.0625C5.5625 18.0625 1.96875 14.4375 1.96875 10C1.96875 5.5625 5.5625 1.96875 10 1.96875C14.4375 1.96875 18.0625 5.59375 18.0625 10.0312C18.0625 14.4375 14.4375 18.0625 10 18.0625Z" fill="black" fill-opacity="0.2"/>
<path d="M10 0.5625C4.78125 0.5625 0.5625 4.78125 0.5625 10C0.5625 15.2188 4.78125 19.4688 10 19.4688C15.2188 19.4688 19.4688 15.2188 19.4688 10C19.4688 4.78125 15.2188 0.5625 10 0.5625ZM10 18.0625C5.5625 18.0625 1.96875 14.4375 1.96875 10C1.96875 5.5625 5.5625 1.96875 10 1.96875C14.4375 1.96875 18.0625 5.59375 18.0625 10.0312C18.0625 14.4375 14.4375 18.0625 10 18.0625Z" fill="black" fill-opacity="0.2"/>
<path d="M10 0.5625C4.78125 0.5625 0.5625 4.78125 0.5625 10C0.5625 15.2188 4.78125 19.4688 10 19.4688C15.2188 19.4688 19.4688 15.2188 19.4688 10C19.4688 4.78125 15.2188 0.5625 10 0.5625ZM10 18.0625C5.5625 18.0625 1.96875 14.4375 1.96875 10C1.96875 5.5625 5.5625 1.96875 10 1.96875C14.4375 1.96875 18.0625 5.59375 18.0625 10.0312C18.0625 14.4375 14.4375 18.0625 10 18.0625Z" fill="black" fill-opacity="0.2"/>
<path d="M10 0.5625C4.78125 0.5625 0.5625 4.78125 0.5625 10C0.5625 15.2188 4.78125 19.4688 10 19.4688C15.2188 19.4688 19.4688 15.2188 19.4688 10C19.4688 4.78125 15.2188 0.5625 10 0.5625ZM10 18.0625C5.5625 18.0625 1.96875 14.4375 1.96875 10C1.96875 5.5625 5.5625 1.96875 10 1.96875C14.4375 1.96875 18.0625 5.59375 18.0625 10.0312C18.0625 14.4375 14.4375 18.0625 10 18.0625Z" fill="black" fill-opacity="0.2"/>
<path d="M13.7188 7.4375L10 11.0938L6.28125 7.4375C6 7.15625 5.5625 7.15625 5.28125 7.4375C5 7.71875 5 8.15625 5.28125 8.4375L9.5 12.5938C9.625 12.7188 9.8125 12.7813 10 12.7813C10.1875 12.7813 10.3437 12.7188 10.5 12.5938L14.7187 8.4375C15 8.15625 15 7.71875 14.7187 7.4375C14.4687 7.15625 14 7.15625 13.7188 7.4375Z" fill="#B2151B"/>
<path d="M13.7188 7.4375L10 11.0938L6.28125 7.4375C6 7.15625 5.5625 7.15625 5.28125 7.4375C5 7.71875 5 8.15625 5.28125 8.4375L9.5 12.5938C9.625 12.7188 9.8125 12.7813 10 12.7813C10.1875 12.7813 10.3437 12.7188 10.5 12.5938L14.7187 8.4375C15 8.15625 15 7.71875 14.7187 7.4375C14.4687 7.15625 14 7.15625 13.7188 7.4375Z" fill="black" fill-opacity="0.2"/>
<path d="M13.7188 7.4375L10 11.0938L6.28125 7.4375C6 7.15625 5.5625 7.15625 5.28125 7.4375C5 7.71875 5 8.15625 5.28125 8.4375L9.5 12.5938C9.625 12.7188 9.8125 12.7813 10 12.7813C10.1875 12.7813 10.3437 12.7188 10.5 12.5938L14.7187 8.4375C15 8.15625 15 7.71875 14.7187 7.4375C14.4687 7.15625 14 7.15625 13.7188 7.4375Z" fill="black" fill-opacity="0.2"/>
<path d="M13.7188 7.4375L10 11.0938L6.28125 7.4375C6 7.15625 5.5625 7.15625 5.28125 7.4375C5 7.71875 5 8.15625 5.28125 8.4375L9.5 12.5938C9.625 12.7188 9.8125 12.7813 10 12.7813C10.1875 12.7813 10.3437 12.7188 10.5 12.5938L14.7187 8.4375C15 8.15625 15 7.71875 14.7187 7.4375C14.4687 7.15625 14 7.15625 13.7188 7.4375Z" fill="black" fill-opacity="0.2"/>
<path d="M13.7188 7.4375L10 11.0938L6.28125 7.4375C6 7.15625 5.5625 7.15625 5.28125 7.4375C5 7.71875 5 8.15625 5.28125 8.4375L9.5 12.5938C9.625 12.7188 9.8125 12.7813 10 12.7813C10.1875 12.7813 10.3437 12.7188 10.5 12.5938L14.7187 8.4375C15 8.15625 15 7.71875 14.7187 7.4375C14.4687 7.15625 14 7.15625 13.7188 7.4375Z" fill="black" fill-opacity="0.2"/>
<path d="M13.7188 7.4375L10 11.0938L6.28125 7.4375C6 7.15625 5.5625 7.15625 5.28125 7.4375C5 7.71875 5 8.15625 5.28125 8.4375L9.5 12.5938C9.625 12.7188 9.8125 12.7813 10 12.7813C10.1875 12.7813 10.3437 12.7188 10.5 12.5938L14.7187 8.4375C15 8.15625 15 7.71875 14.7187 7.4375C14.4687 7.15625 14 7.15625 13.7188 7.4375Z" fill="black" fill-opacity="0.2"/>
<path d="M13.7188 7.4375L10 11.0938L6.28125 7.4375C6 7.15625 5.5625 7.15625 5.28125 7.4375C5 7.71875 5 8.15625 5.28125 8.4375L9.5 12.5938C9.625 12.7188 9.8125 12.7813 10 12.7813C10.1875 12.7813 10.3437 12.7188 10.5 12.5938L14.7187 8.4375C15 8.15625 15 7.71875 14.7187 7.4375C14.4687 7.15625 14 7.15625 13.7188 7.4375Z" fill="black" fill-opacity="0.2"/>
</svg>
