<svg width="78" height="78" viewBox="0 0 78 78" fill="none" xmlns="http://www.w3.org/2000/svg">
<circle cx="2.09507" cy="2.09507" r="2.09507" fill="#F9B9BB"/>
<circle cx="2.09507" cy="20.5326" r="2.09507" fill="#F9B9BB"/>
<circle cx="2.09507" cy="38.9701" r="2.09507" fill="#F9B9BB"/>
<circle cx="2.09507" cy="57.4037" r="2.09507" fill="#F9B9BB"/>
<circle cx="2.09507" cy="75.8412" r="2.09507" fill="#F9B9BB"/>
<circle cx="20.5326" cy="2.09507" r="2.09507" fill="#F9B9BB"/>
<circle cx="20.5326" cy="20.5326" r="2.09507" fill="#F9B9BB"/>
<circle cx="20.5326" cy="38.9701" r="2.09507" fill="#F9B9BB"/>
<circle cx="20.5326" cy="57.4037" r="2.09507" fill="#F9B9BB"/>
<circle cx="20.5326" cy="75.8412" r="2.09507" fill="#F9B9BB"/>
<circle cx="38.9701" cy="2.09507" r="2.09507" fill="#F9B9BB"/>
<circle cx="38.9701" cy="20.5326" r="2.09507" fill="#F9B9BB"/>
<circle cx="38.9701" cy="38.9701" r="2.09507" fill="#F9B9BB"/>
<circle cx="38.9701" cy="57.4037" r="2.09507" fill="#F9B9BB"/>
<circle cx="38.9701" cy="75.8412" r="2.09507" fill="#F9B9BB"/>
<circle cx="57.4076" cy="2.09507" r="2.09507" fill="#F9B9BB"/>
<circle cx="57.4076" cy="20.5326" r="2.09507" fill="#F9B9BB"/>
<circle cx="57.4076" cy="38.9701" r="2.09507" fill="#F9B9BB"/>
<circle cx="57.4076" cy="57.4037" r="2.09507" fill="#F9B9BB"/>
<circle cx="57.4076" cy="75.8412" r="2.09507" fill="#F9B9BB"/>
<circle cx="75.8451" cy="2.09507" r="2.09507" fill="#F9B9BB"/>
<circle cx="75.8451" cy="20.5326" r="2.09507" fill="#F9B9BB"/>
<circle cx="75.8451" cy="38.9701" r="2.09507" fill="#F9B9BB"/>
<circle cx="75.8451" cy="57.4037" r="2.09507" fill="#F9B9BB"/>
<circle cx="75.8451" cy="75.8412" r="2.09507" fill="#F9B9BB"/>
</svg>
