<svg width="12" height="12" viewBox="0 0 12 12" fill="none" xmlns="http://www.w3.org/2000/svg">
<path d="M5.99844 0.335938C2.86719 0.335938 0.335938 2.86719 0.335938 5.99844C0.335938 9.12969 2.86719 11.6797 5.99844 11.6797C9.12969 11.6797 11.6797 9.12969 11.6797 5.99844C11.6797 2.86719 9.12969 0.335938 5.99844 0.335938ZM3.71094 10.2359V8.69844C3.71094 8.09844 4.19844 7.61094 4.79844 7.61094H7.23594C7.83594 7.61094 8.32344 8.09844 8.32344 8.69844V10.2359C7.64844 10.6109 6.86094 10.8172 6.01719 10.8172C5.17344 10.8359 4.38594 10.6109 3.71094 10.2359ZM9.14844 9.65469V8.69844C9.14844 7.62969 8.28594 6.76719 7.21719 6.76719H4.77969C3.71094 6.76719 2.84844 7.62969 2.84844 8.69844V9.65469C1.81719 8.77344 1.16094 7.46094 1.16094 5.99844C1.17969 3.33594 3.33594 1.17969 5.99844 1.17969C8.66094 1.17969 10.8359 3.35469 10.8359 6.01719C10.8359 7.46094 10.1797 8.77344 9.14844 9.65469Z" fill="#232323"/>
</svg>
