<svg width="12" height="12" viewBox="0 0 12 12" fill="none" xmlns="http://www.w3.org/2000/svg">
<path d="M5.99844 11.0625C5.75469 11.0625 5.51094 10.9687 5.32344 10.8C4.89219 10.425 4.49844 10.0875 4.14219 9.7875C3.07344 8.86875 2.13594 8.1 1.47969 7.3125C0.710938 6.375 0.335938 5.49375 0.335938 4.5C0.335938 3.54375 0.673438 2.64375 1.27344 1.9875C1.89219 1.3125 2.75469 0.9375 3.67344 0.9375C4.36719 0.9375 5.02344 1.1625 5.58594 1.59375C5.73594 1.70625 5.86719 1.81875 5.99844 1.96875C6.12969 1.8375 6.26094 1.70625 6.41094 1.59375C6.97344 1.1625 7.61094 0.9375 8.32344 0.9375C9.26094 0.9375 10.1047 1.3125 10.7234 1.9875C11.3422 2.64375 11.6609 3.54375 11.6609 4.5C11.6609 5.49375 11.3047 6.375 10.5172 7.3125C9.86094 8.1 8.92344 8.8875 7.85469 9.7875C7.49844 10.0875 7.08594 10.4437 6.65469 10.8C6.48594 10.9687 6.24219 11.0625 5.99844 11.0625ZM3.67344 1.78125C2.97969 1.78125 2.34219 2.0625 1.87344 2.55C1.42344 3.05625 1.17969 3.75 1.17969 4.5C1.17969 5.26875 1.47969 6 2.11719 6.76875C2.73594 7.5 3.63594 8.26875 4.66719 9.15C5.02344 9.45 5.43594 9.80625 5.86719 10.1812C5.94219 10.2375 6.05469 10.2375 6.12969 10.1812C6.56094 9.80625 6.97344 9.46875 7.32969 9.15C8.37969 8.25 9.27969 7.5 9.87969 6.76875C10.5172 6 10.8172 5.26875 10.8172 4.5C10.8172 3.75 10.5547 3.05625 10.1047 2.56875C9.63594 2.0625 8.99844 1.78125 8.32344 1.78125C7.81719 1.78125 7.34844 1.95 6.93594 2.25C6.76719 2.38125 6.61719 2.53125 6.46719 2.7C6.35469 2.83125 6.18594 2.925 5.99844 2.925C5.81094 2.925 5.66094 2.85 5.52969 2.7C5.37969 2.53125 5.22969 2.38125 5.06094 2.25C4.66719 1.95 4.19844 1.78125 3.67344 1.78125Z" fill="#232323"/>
</svg>
