<svg width="10" height="12" viewBox="0 0 10 12" fill="none" xmlns="http://www.w3.org/2000/svg">
<path d="M7.47969 0.335938H5.36094C4.87344 0.335938 4.46094 0.748438 4.46094 1.23594V2.52969C4.46094 2.75469 4.64844 2.94219 4.87344 2.94219C5.09844 2.94219 5.30469 2.75469 5.30469 2.52969V1.21719C5.30469 1.17969 5.32344 1.16094 5.36094 1.16094H7.47969C7.92969 1.16094 8.28594 1.51719 8.28594 1.96719V10.0109C8.28594 10.4609 7.92969 10.8172 7.47969 10.8172H5.36094C5.32344 10.8172 5.30469 10.7984 5.30469 10.7609V9.46719C5.30469 9.24219 5.11719 9.05469 4.87344 9.05469C4.62969 9.05469 4.46094 9.24219 4.46094 9.46719V10.7609C4.46094 11.2484 4.87344 11.6609 5.36094 11.6609H7.47969C8.39844 11.6609 9.12969 10.9109 9.12969 10.0109V1.98594C9.12969 1.06719 8.37969 0.335938 7.47969 0.335938Z" fill="#232323"/>
<path d="M2.30313 6.4125H5.65938C5.88438 6.4125 6.07188 6.225 6.07188 6C6.07188 5.775 5.88438 5.5875 5.65938 5.5875H2.32188L3.48438 4.40625C3.65312 4.2375 3.65312 3.975 3.48438 3.80625C3.31563 3.6375 3.05313 3.6375 2.88438 3.80625L1.00937 5.71875C0.840625 5.8875 0.840625 6.15 1.00937 6.31875L2.88438 8.23125C2.95938 8.30625 3.07187 8.3625 3.18437 8.3625C3.29687 8.3625 3.39062 8.325 3.48438 8.25C3.65312 8.08125 3.65312 7.81875 3.48438 7.65L2.30313 6.4125Z" fill="#232323"/>
</svg>
