<svg width="12" height="12" viewBox="0 0 12 12" fill="none" xmlns="http://www.w3.org/2000/svg">
<path d="M11.6054 4.275L10.8742 3.01875C10.8742 3 10.8554 3 10.8554 2.98125C10.8367 2.9625 10.8179 2.94375 10.7992 2.925L10.7804 2.90625C10.7617 2.8875 10.7242 2.86875 10.6867 2.85C10.6867 2.85 10.6867 2.85 10.6679 2.85L6.4117 0.88125C6.1492 0.76875 5.8492 0.76875 5.5867 0.88125L1.3117 2.85C1.3117 2.85 1.3117 2.85 1.29295 2.85C1.2742 2.85 1.2742 2.86875 1.25545 2.86875C1.2367 2.86875 1.2367 2.8875 1.21795 2.8875L1.1992 2.90625C1.18045 2.925 1.18045 2.925 1.1617 2.94375C1.1617 2.94375 1.1617 2.94375 1.14295 2.9625C1.14295 2.98125 1.14295 3 1.1242 3.01875L0.392947 4.275C0.336697 4.36875 0.317947 4.5 0.355447 4.6125C0.374197 4.70625 0.449197 4.8 0.561697 4.85625L1.06795 5.1V8.19375C1.06795 8.56875 1.2742 8.90625 1.6117 9.075L5.64295 11.1C5.75545 11.1563 5.8867 11.1938 5.9992 11.1938C6.1117 11.1938 6.24295 11.1563 6.35545 11.1L10.3867 9.075C10.7242 8.90625 10.9304 8.56875 10.9304 8.19375V5.11875L11.4367 4.85625C11.5304 4.8 11.6242 4.70625 11.6429 4.59375C11.6804 4.48125 11.6804 4.36875 11.6054 4.275ZM1.3492 4.3125L1.6492 3.7875L5.38045 5.60625L5.04295 6.15L1.3492 4.3125ZM10.3117 3.80625L10.3492 3.7875L10.6679 4.3125L6.9742 6.20625L6.61795 5.60625L10.3117 3.80625ZM5.94295 1.65C5.98045 1.63125 6.01795 1.63125 6.05545 1.65L9.5242 3.24375L5.9992 4.95L2.4742 3.24375L5.94295 1.65ZM1.9117 8.2125V5.53125L5.00545 7.06875C5.0617 7.10625 5.1367 7.10625 5.19295 7.10625C5.3242 7.10625 5.4742 7.03125 5.5492 6.91875L5.5867 6.8625V10.1437L1.9867 8.34375C1.93045 8.30625 1.9117 8.25 1.9117 8.2125ZM10.0867 8.2125C10.0867 8.26875 10.0492 8.30625 10.0117 8.34375L6.4117 10.1437V6.9375L6.4492 6.99375C6.5242 7.125 6.6742 7.2 6.80545 7.2C6.8617 7.2 6.9367 7.18125 6.99295 7.1625L10.0679 5.56875V8.2125H10.0867Z" fill="#232323"/>
</svg>
