<svg width="12" height="12" viewBox="0 0 12 12" fill="none" xmlns="http://www.w3.org/2000/svg">
<path d="M6.33285 3.39478C5.06104 3.39478 4.01367 4.44215 4.01367 5.71395C4.01367 7.00446 5.06104 8.03313 6.33285 8.03313C7.60465 8.03313 8.65203 7.00446 8.65203 5.71395C8.65203 4.44215 7.60465 3.39478 6.33285 3.39478ZM6.33285 7.2102C5.50991 7.2102 4.85531 6.53689 4.85531 5.73265C4.85531 4.90972 5.50991 4.25512 6.33285 4.25512C7.15578 4.25512 7.81039 4.90972 7.81039 5.71395C7.81039 6.53689 7.13708 7.2102 6.33285 7.2102Z" fill="#111928"/>
<path d="M11.682 6.85503L10.6347 6.27523C10.6721 6.0695 10.6908 5.86376 10.6908 5.65803C10.6908 5.43359 10.6721 5.22786 10.6534 5.02213L11.7195 4.42363C11.9626 4.29271 12.0561 3.99346 11.9439 3.73162L10.8591 1.89872C10.7282 1.67428 10.4289 1.58077 10.1858 1.67428L9.06362 2.29148C9.00751 2.25408 8.95141 2.19797 8.914 2.16056C8.70827 1.99224 8.52124 1.82391 8.22199 1.67428C8.20328 1.67428 8.18458 1.65558 8.18458 1.61817V0.944865C8.18458 0.458586 7.79182 0.0471191 7.28683 0.0471191H5.36042C4.87414 0.0471191 4.46268 0.458586 4.46268 0.944865V1.67428C4.46268 1.69299 4.44397 1.71169 4.42527 1.73039C4.14472 1.86131 3.93899 2.04834 3.71455 2.21667C3.67715 2.25408 3.62104 2.29148 3.58363 2.32889L2.59237 1.7678C2.21831 1.56207 1.90036 1.69299 1.76944 1.91742L0.74077 3.69421C0.684661 3.84384 0.665958 3.99346 0.703364 4.14308C0.74077 4.29271 0.834286 4.40493 0.965207 4.47974L2.01258 5.04083C1.97517 5.22786 1.97517 5.43359 1.97517 5.67673C1.97517 5.88247 1.99387 6.0882 2.01258 6.29393L0.927801 6.89243C0.684661 7.02335 0.591146 7.3226 0.703364 7.58444L1.78814 9.41734C1.91906 9.64178 2.19961 9.73529 2.46145 9.64178L3.58363 9.02458C3.63974 9.06198 3.67715 9.09939 3.73326 9.1555C3.93899 9.34253 4.14472 9.51086 4.44397 9.64178C4.46268 9.64178 4.48138 9.66048 4.48138 9.69789V10.5021C4.48138 10.9884 4.87414 11.3999 5.37912 11.3999H7.28683C7.77311 11.3999 8.18458 10.9884 8.18458 10.5021V9.64178C8.18458 9.62307 8.20328 9.60437 8.22199 9.58567C8.50253 9.45475 8.68956 9.28642 8.914 9.09939C8.97011 9.06198 9.00751 9.02458 9.06362 8.96847L10.0549 9.52956C10.4289 9.73529 10.7282 9.60437 10.8778 9.37994L11.9252 7.60315C12 7.47223 12.0187 7.3226 11.9813 7.19168C11.9439 7.06076 11.813 6.92984 11.682 6.85503ZM10.2606 8.70663L9.36287 8.20164C9.10103 8.05202 8.80178 8.08943 8.57734 8.27646C8.48383 8.35127 8.40902 8.40738 8.3342 8.48219C8.14717 8.65052 8.01625 8.76274 7.82922 8.83755C7.52997 8.98717 7.32424 9.30512 7.32424 9.64178V10.4647C7.32424 10.5021 7.30554 10.5208 7.26813 10.5208H5.36042C5.32301 10.5208 5.30431 10.5021 5.30431 10.4647V9.66048C5.30431 9.32383 5.09858 9.00587 4.79933 8.85625C4.6123 8.76273 4.46268 8.65052 4.27564 8.48219C4.20083 8.42608 4.12602 8.35127 4.03251 8.29516C3.90158 8.20164 3.75196 8.14553 3.58363 8.14553C3.47141 8.14553 3.34049 8.18294 3.22827 8.23905L2.33053 8.74403L1.58241 7.47223L2.46145 6.98595C2.72329 6.83632 2.87292 6.55578 2.83551 6.23782C2.81681 6.05079 2.7981 5.86376 2.7981 5.67673C2.7981 5.471 2.81681 5.28397 2.83551 5.13435C2.89162 4.81639 2.742 4.49844 2.46145 4.34882L1.63852 3.88124L2.36793 2.62814L3.26568 3.13312C3.52752 3.28274 3.82677 3.24534 4.05121 3.05831C4.12602 3.0022 4.20083 2.92739 4.27564 2.87128C4.46268 2.70295 4.6123 2.59073 4.79933 2.49722C5.11728 2.34759 5.30431 2.02964 5.30431 1.69299V0.963568C5.30431 0.926162 5.32301 0.907459 5.36042 0.907459H7.26813C7.30554 0.907459 7.32424 0.926162 7.32424 0.963568V1.67428C7.32424 2.01094 7.52997 2.32889 7.82922 2.47851C8.01625 2.57203 8.14717 2.68425 8.3342 2.83387C8.40902 2.90868 8.48383 2.96479 8.57734 3.03961C8.80178 3.22664 9.11973 3.24534 9.36287 3.09571L10.2606 2.59073L11.0087 3.86254L10.1484 4.34882C9.88656 4.49844 9.73693 4.81639 9.79304 5.13435C9.81174 5.30267 9.83045 5.4897 9.83045 5.67673C9.83045 5.86376 9.81174 6.05079 9.77434 6.23782C9.71823 6.55578 9.86785 6.85503 10.1484 7.00465L10.99 7.47223L10.2606 8.70663Z" fill="#111928"/>
</svg>
