<svg width="32" height="26" viewBox="0 0 32 26" fill="none" xmlns="http://www.w3.org/2000/svg">
<path d="M27.9996 2.30078H25.2996V1.20078C25.2996 0.600781 24.7996 0.0507812 24.1496 0.0507812C23.4996 0.0507812 22.9996 0.550781 22.9996 1.20078V2.25078H8.94961V1.20078C8.94961 0.600781 8.44961 0.0507812 7.79961 0.0507812C7.14961 0.0507812 6.64961 0.550781 6.64961 1.20078V2.25078H3.99961C2.29961 2.25078 0.849609 3.65078 0.849609 5.40078V22.8008C0.849609 24.5008 2.24961 25.9508 3.99961 25.9508H27.9996C29.6996 25.9508 31.1496 24.5508 31.1496 22.8008V5.40078C31.1496 3.70078 29.6996 2.30078 27.9996 2.30078ZM3.99961 4.55078H6.69961V5.55078C6.69961 6.15078 7.19961 6.70078 7.84961 6.70078C8.49961 6.70078 8.99961 6.20078 8.99961 5.55078V4.55078H23.1496V5.55078C23.1496 6.15078 23.6496 6.70078 24.2996 6.70078C24.9496 6.70078 25.4496 6.20078 25.4496 5.55078V4.55078H27.9996C28.4996 4.55078 28.8996 4.95078 28.8996 5.45078V8.75078H3.14961V5.45078C3.14961 4.90078 3.49961 4.55078 3.99961 4.55078ZM27.9996 23.6508H3.99961C3.49961 23.6508 3.09961 23.2508 3.09961 22.7508V10.9508H28.8496V22.8008C28.8996 23.3008 28.4996 23.6508 27.9996 23.6508Z" fill="#545454"/>
<path d="M14.3998 12.3516H13.2998C12.9998 12.3516 12.7998 12.5516 12.7998 12.8516V13.9516C12.7998 14.2516 12.9998 14.4516 13.2998 14.4516H14.3998C14.6998 14.4516 14.8998 14.2516 14.8998 13.9516V12.8516C14.8998 12.5516 14.6498 12.3516 14.3998 12.3516Z" fill="#545454"/>
<path d="M18.9496 12.3516H17.8496C17.5496 12.3516 17.3496 12.5516 17.3496 12.8516V13.9516C17.3496 14.2516 17.5496 14.4516 17.8496 14.4516H18.9496C19.2496 14.4516 19.4496 14.2516 19.4496 13.9516V12.8516C19.4496 12.5516 19.2496 12.3516 18.9496 12.3516Z" fill="#111928"/>
<path d="M23.4994 12.3516H22.3994C22.0994 12.3516 21.8994 12.5516 21.8994 12.8516V13.9516C21.8994 14.2516 22.0994 14.4516 22.3994 14.4516H23.4994C23.7994 14.4516 23.9994 14.2516 23.9994 13.9516V12.8516C23.9994 12.5516 23.7994 12.3516 23.4994 12.3516Z" fill="#111928"/>
<path d="M9.6 16.1992H8.5C8.2 16.1992 8 16.3992 8 16.6992V17.7992C8 18.0992 8.2 18.2992 8.5 18.2992H9.6C9.9 18.2992 10.1 18.0992 10.1 17.7992V16.6992C10.1 16.3992 9.85 16.1992 9.6 16.1992Z" fill="#111928"/>
<path d="M14.3998 16.1992H13.2998C12.9998 16.1992 12.7998 16.3992 12.7998 16.6992V17.7992C12.7998 18.0992 12.9998 18.2992 13.2998 18.2992H14.3998C14.6998 18.2992 14.8998 18.0992 14.8998 17.7992V16.6992C14.8998 16.3992 14.6498 16.1992 14.3998 16.1992Z" fill="#111928"/>
<path d="M18.9496 16.1992H17.8496C17.5496 16.1992 17.3496 16.3992 17.3496 16.6992V17.7992C17.3496 18.0992 17.5496 18.2992 17.8496 18.2992H18.9496C19.2496 18.2992 19.4496 18.0992 19.4496 17.7992V16.6992C19.4496 16.3992 19.2496 16.1992 18.9496 16.1992Z" fill="#111928"/>
<path d="M23.4994 16.1992H22.3994C22.0994 16.1992 21.8994 16.3992 21.8994 16.6992V17.7992C21.8994 18.0992 22.0994 18.2992 22.3994 18.2992H23.4994C23.7994 18.2992 23.9994 18.0992 23.9994 17.7992V16.6992C23.9994 16.3992 23.7994 16.1992 23.4994 16.1992Z" fill="#111928"/>
<path d="M9.6 20.0508H8.5C8.2 20.0508 8 20.2508 8 20.5508V21.6508C8 21.9508 8.2 22.1508 8.5 22.1508H9.6C9.9 22.1508 10.1 21.9508 10.1 21.6508V20.5508C10.1 20.2508 9.85 20.0508 9.6 20.0508Z" fill="#111928"/>
<path d="M14.3998 20.0508H13.2998C12.9998 20.0508 12.7998 20.2508 12.7998 20.5508V21.6508C12.7998 21.9508 12.9998 22.1508 13.2998 22.1508H14.3998C14.6998 22.1508 14.8998 21.9508 14.8998 21.6508V20.5508C14.8998 20.2508 14.6498 20.0508 14.3998 20.0508Z" fill="#111928"/>
<path d="M18.9496 20.0508H17.8496C17.5496 20.0508 17.3496 20.2508 17.3496 20.5508V21.6508C17.3496 21.9508 17.5496 22.1508 17.8496 22.1508H18.9496C19.2496 22.1508 19.4496 21.9508 19.4496 21.6508V20.5508C19.4496 20.2508 19.2496 20.0508 18.9496 20.0508Z" fill="#111928"/>
</svg>
