<svg width="32" height="32" viewBox="0 0 32 32" fill="none" xmlns="http://www.w3.org/2000/svg">
<path d="M27.9996 1.10156H19.6496C17.9496 1.10156 16.4996 2.50156 16.4996 4.25156V9.70156C16.4996 10.0516 16.2996 10.4016 15.9496 10.5016L11.2996 12.3516V4.95156C11.2996 4.35156 10.7996 3.80156 10.1496 3.80156C9.49961 3.80156 8.99961 4.30156 8.99961 4.95156V13.2016L5.99961 14.4516V7.35156C5.99961 6.75156 5.49961 6.20156 4.84961 6.20156C4.19961 6.20156 3.69961 6.70156 3.69961 7.35156V15.3016L2.79961 15.6516C1.59961 16.1016 0.849609 17.2516 0.849609 18.5516V27.7516C0.849609 29.4516 2.24961 30.9016 3.99961 30.9016H27.9996C29.6996 30.9016 31.1496 29.5016 31.1496 27.7516V4.20156C31.1496 2.50156 29.6996 1.10156 27.9996 1.10156ZM20.5996 28.6516V23.1516C20.5996 22.9516 20.7496 22.7516 20.9996 22.7516H23.8496C24.0496 22.7516 24.2496 22.9016 24.2496 23.1516V28.6516H20.5996ZM28.8996 27.8016C28.8996 28.3016 28.4996 28.7016 27.9996 28.7016H26.4496V23.2016C26.4496 21.7516 25.2496 20.5516 23.7996 20.5516H20.9996C19.5496 20.5516 18.3496 21.7516 18.3496 23.2016V28.7016H3.99961C3.49961 28.7016 3.09961 28.3016 3.09961 27.8016V18.6016C3.09961 18.2516 3.29961 17.9016 3.64961 17.8016L16.7996 12.6016C17.9996 12.1516 18.7496 11.0016 18.7496 9.70156V4.20156C18.7496 3.70156 19.1496 3.30156 19.6496 3.30156H27.9996C28.4996 3.30156 28.8996 3.70156 28.8996 4.20156V27.8016Z" fill="#545454"/>
</svg>
