<svg width="32" height="32" viewBox="0 0 32 32" fill="none" xmlns="http://www.w3.org/2000/svg">
<path d="M27.9004 12.0516C27.9004 9.45156 25.8004 7.35156 23.2004 7.35156C21.7504 7.35156 20.4504 8.00156 19.6004 9.00156C19.0004 8.25156 18.1504 7.75156 17.2004 7.50156C17.4504 5.10156 18.7504 3.15156 20.1504 3.15156C20.7504 3.15156 21.3004 2.65156 21.3004 2.00156C21.3004 1.35156 20.8004 0.851562 20.1504 0.851562C17.4504 0.851562 15.3004 3.65156 14.9504 7.40156C13.9504 7.65156 13.1004 8.20156 12.4504 8.95156C11.6004 7.95156 10.3004 7.30156 8.85039 7.30156C6.25039 7.30156 4.15039 9.40156 4.15039 12.0016C4.15039 14.4516 6.05039 16.5016 8.45039 16.7016C8.00039 17.4016 7.75039 18.2516 7.75039 19.2016C7.75039 21.6516 9.65039 23.7016 12.0504 23.9016C11.6004 24.6016 11.3504 25.4516 11.3504 26.4016C11.3504 29.0016 13.4504 31.1016 16.0504 31.1016C18.6504 31.1016 20.7504 29.0016 20.7504 26.4016C20.7504 25.5016 20.5004 24.6516 20.0504 23.9016C22.4504 23.7016 24.3504 21.6516 24.3504 19.2016C24.3504 18.3016 24.1004 17.4516 23.6504 16.7016C26.0004 16.5516 27.9004 14.5016 27.9004 12.0516ZM16.0004 9.55156C17.3504 9.55156 18.4504 10.6516 18.4504 12.0016C18.4504 13.3516 17.3504 14.4516 16.0004 14.4516C14.6504 14.4516 13.5504 13.3516 13.5504 12.0016C13.5504 10.7016 14.6504 9.55156 16.0004 9.55156ZM6.35039 12.0516C6.35039 10.7016 7.45039 9.60156 8.80039 9.60156C10.1504 9.60156 11.2504 10.7016 11.2504 12.0516C11.2504 13.4016 10.1504 14.5016 8.80039 14.5016C7.45039 14.5016 6.35039 13.4016 6.35039 12.0516ZM9.95039 19.2016C9.95039 17.8516 11.0504 16.7516 12.4004 16.7516C13.7504 16.7516 14.8504 17.8516 14.8504 19.2016C14.8504 20.5516 13.7504 21.6516 12.4004 21.6516C11.0504 21.7016 9.95039 20.6016 9.95039 19.2016ZM16.0004 28.9016C14.6504 28.9016 13.5504 27.8016 13.5504 26.4516C13.5504 25.1016 14.6504 24.0016 16.0004 24.0016C17.3504 24.0016 18.4504 25.1016 18.4504 26.4516C18.4504 27.7516 17.3504 28.9016 16.0004 28.9016ZM19.6004 21.7016C18.2504 21.7016 17.1504 20.6016 17.1504 19.2516C17.1504 17.9016 18.2504 16.8016 19.6004 16.8016C20.9504 16.8016 22.0504 17.9016 22.0504 19.2516C22.0504 20.6016 20.9504 21.7016 19.6004 21.7016ZM23.2004 14.5016C21.8504 14.5016 20.7504 13.4016 20.7504 12.0516C20.7504 10.7016 21.8504 9.60156 23.2004 9.60156C24.5504 9.60156 25.6504 10.7016 25.6504 12.0516C25.6504 13.4016 24.5504 14.5016 23.2004 14.5016Z" fill="#545454"/>
</svg>
