<svg width="32" height="32" viewBox="0 0 32 32" fill="none" xmlns="http://www.w3.org/2000/svg">
<path d="M10.667 6.66536C10.667 5.25088 11.2289 3.89432 12.2291 2.89413C13.2293 1.89393 14.5858 1.33203 16.0003 1.33203C17.4148 1.33203 18.7714 1.89393 19.7716 2.89413C20.7718 3.89432 21.3337 5.25088 21.3337 6.66536V13.672C22.9643 14.8075 24.19 16.4337 24.8324 18.314C25.4748 20.1943 25.5004 22.2305 24.9054 24.1264C24.3103 26.0222 23.1258 27.6787 21.5241 28.8546C19.9225 30.0306 17.9873 30.6648 16.0003 30.6648C14.0133 30.6648 12.0782 30.0306 10.4765 28.8546C8.87486 27.6787 7.69032 26.0222 7.0953 24.1264C6.50028 22.2305 6.52582 20.1943 7.16822 18.314C7.81062 16.4337 9.03635 14.8075 10.667 13.672V6.66536ZM12.1923 15.8587C11.0272 16.6695 10.1513 17.831 9.69213 19.1741C9.23294 20.5173 9.21444 21.9719 9.63931 23.3263C10.0642 24.6806 10.9103 25.864 12.0544 26.7042C13.1985 27.5444 14.5809 27.9974 16.0003 27.9974C17.4198 27.9974 18.8022 27.5444 19.9463 26.7042C21.0904 25.864 21.9365 24.6806 22.3613 23.3263C22.7862 21.9719 22.7677 20.5173 22.3085 19.1741C21.8493 17.831 20.9734 16.6695 19.8083 15.8587L18.667 15.0627V6.66536C18.667 5.95812 18.386 5.27984 17.8859 4.77975C17.3858 4.27965 16.7076 3.9987 16.0003 3.9987C15.2931 3.9987 14.6148 4.27965 14.1147 4.77975C13.6146 5.27984 13.3337 5.95812 13.3337 6.66536V15.0627L12.1923 15.8587ZM10.667 21.332H21.3337C21.3337 22.7465 20.7718 24.1031 19.7716 25.1033C18.7714 26.1035 17.4148 26.6654 16.0003 26.6654C14.5858 26.6654 13.2293 26.1035 12.2291 25.1033C11.2289 24.1031 10.667 22.7465 10.667 21.332Z" fill="#545454"/>
</svg>
