<svg width="32" height="32" viewBox="0 0 32 32" fill="none" xmlns="http://www.w3.org/2000/svg">
<path d="M22.8503 21.1516C24.6003 19.2516 25.5003 16.7016 25.3003 14.1016L24.9003 8.25156L24.5503 3.75156C24.4503 2.10156 23.0503 0.851562 21.4503 0.851562H10.5503C8.90032 0.851562 7.55032 2.10156 7.45032 3.75156L7.00032 9.85156L6.70032 14.1516C6.50032 16.7516 7.40031 19.3016 9.15031 21.2016C10.6503 22.8016 12.7003 23.8516 14.8503 24.1016V28.9016H11.3503C10.7503 28.9016 10.2003 29.4016 10.2003 30.0516C10.2003 30.7016 10.7003 31.2016 11.3503 31.2016H20.6003C21.2003 31.2016 21.7503 30.7016 21.7503 30.0516C21.7503 29.4016 21.2503 28.9016 20.6003 28.9016H17.1003V24.1016C19.3003 23.8016 21.3503 22.8016 22.8503 21.1516ZM10.5503 3.15156H21.4503C21.9003 3.15156 22.3003 3.50156 22.3003 3.95156L22.5503 7.70156L20.5003 8.70156C19.2503 9.30156 17.7003 9.20156 16.5503 8.45156C14.9003 7.40156 12.9503 7.15156 11.1003 7.75156L9.35032 8.35156L9.65031 3.95156C9.70031 3.50156 10.1003 3.15156 10.5503 3.15156ZM8.95031 14.3016L9.20031 10.7516L11.8003 9.85156C13.0003 9.45156 14.2503 9.60156 15.3003 10.3016C16.3503 10.9516 17.5503 11.3016 18.7503 11.3016C19.7003 11.3016 20.6503 11.1016 21.5003 10.7016L22.7503 10.1016L23.0503 14.3016C23.2003 16.3016 22.5503 18.2016 21.1503 19.6516C19.8003 21.1016 17.9503 21.9016 15.9503 21.9016C13.9503 21.9016 12.1003 21.1016 10.7503 19.6516C9.45032 18.1516 8.80031 16.3016 8.95031 14.3016Z" fill="#545454"/>
</svg>
