<svg width="32" height="32" viewBox="0 0 32 32" fill="none" xmlns="http://www.w3.org/2000/svg">
<path d="M15.021 0C13.7154 0 12.6341 1.11508 12.6341 2.46154V4.53908C12.5626 4.77676 12.5626 5.03124 12.6341 5.26892V9.15446L11.7021 9.80677C10.0432 10.9477 9.05385 12.9034 9.05385 14.9612V15.6148C8.98205 15.8528 8.98205 16.1078 9.05385 16.3458V24.2314C8.9823 24.4691 8.9823 24.7235 9.05385 24.9612V32H23.375V24.8455C23.4082 24.6807 23.4082 24.5107 23.375 24.3458V16.2314C23.4083 16.0662 23.4083 15.8957 23.375 15.7305V14.9612C23.375 12.9034 22.3869 10.9477 20.7268 9.808L19.7947 9.15446V5.15446C19.828 4.98925 19.828 4.81875 19.7947 4.65354V2.46154C19.7947 1.11508 18.7135 0 17.4079 0H15.021ZM15.021 2.46154H17.4079V3.69231H15.021V2.46154ZM15.021 6.15385H17.4079V10.4997L17.9306 10.8849L19.3842 11.8843C20.3306 12.5342 20.8903 13.6062 20.9512 14.7692H11.4765C11.5374 13.6062 12.0971 12.5342 13.0435 11.8843L14.4983 10.8849L15.0198 10.4997L15.021 6.15385ZM11.4407 17.2308H20.9882V23.3846H11.4407V17.2308ZM11.4407 25.8462H20.9882V29.5385H11.4407V25.8462Z" fill="#545454"/>
</svg>
