<svg width="32" height="32" viewBox="0 0 32 32" fill="none" xmlns="http://www.w3.org/2000/svg">
<g clip-path="url(#clip0_7397_59357)">
<path d="M29.0496 8.30156C26.3496 3.70156 21.5496 0.951563 16.2496 0.851562C16.0996 0.851562 15.8996 0.851562 15.7496 0.851562C10.4496 0.951563 5.64961 3.75156 2.94961 8.30156C1.59961 10.6016 0.849609 13.3016 0.849609 16.0016C0.849609 19.2516 1.84961 22.3016 3.74961 24.9016C6.59961 28.7516 10.9496 31.0516 15.6996 31.1016C15.7996 31.1016 15.8496 31.1016 15.9496 31.1016C16.0496 31.1016 16.0996 31.1016 16.1996 31.1016C20.9996 31.0516 25.3496 28.7516 28.1496 24.9016C30.0496 22.3016 31.0496 19.2016 31.0496 16.0016C31.1496 13.3016 30.3996 10.6516 29.0496 8.30156ZM26.2996 8.30156C24.4496 8.90156 22.4996 9.35156 20.5496 9.60156C19.9996 7.40156 19.1496 5.30156 18.0496 3.30156C21.3996 3.85156 24.2996 5.60156 26.2996 8.30156ZM15.6996 28.4016C14.7996 26.8516 14.0496 25.2516 13.4996 23.6516C14.9496 23.5516 16.4496 23.5516 17.8996 23.6016C17.3496 25.2516 16.5996 26.8516 15.6996 28.4016ZM18.2996 9.80156C16.5496 9.90156 14.7496 9.90156 13.0496 9.75156C13.6496 7.60156 14.4996 5.55156 15.6496 3.60156C16.8496 5.60156 17.7496 7.65156 18.2996 9.80156ZM12.5496 12.0016C13.6496 12.1016 14.7996 12.1516 15.9996 12.1516C16.9496 12.1516 17.8996 12.1016 18.7996 12.0516C18.9996 13.3516 19.1496 14.7016 19.1496 16.0016C19.1496 17.8016 18.9496 19.6016 18.5496 21.3516C16.6996 21.2016 14.7496 21.2516 12.8996 21.4016C12.4996 19.6516 12.2496 17.8516 12.2496 16.0016C12.1996 14.6516 12.3496 13.3016 12.5496 12.0016ZM13.1996 3.45156C12.1496 5.40156 11.3496 7.45156 10.7996 9.55156C9.04961 9.30156 7.34961 8.90156 5.69961 8.35156C7.54961 5.80156 10.1996 4.10156 13.1996 3.45156ZM3.14961 16.0016C3.14961 14.0016 3.59961 12.0516 4.49961 10.2516C6.39961 10.9016 8.34961 11.4016 10.3496 11.7016C10.0996 13.1016 9.99961 14.5516 9.99961 16.0016C9.99961 17.9016 10.1996 19.8016 10.6496 21.6516C8.79961 21.9516 6.99961 22.3516 5.19961 22.9016C3.84961 20.8516 3.14961 18.5016 3.14961 16.0016ZM6.64961 24.8516C8.14961 24.4016 9.64961 24.1016 11.1996 23.8516C11.6996 25.4516 12.3996 27.0516 13.1996 28.5516C10.6996 28.0016 8.39961 26.7516 6.64961 24.8516ZM18.0996 28.7016C18.9496 27.1016 19.6996 25.4516 20.1996 23.8016C21.9496 24.0016 23.6996 24.3516 25.3496 24.8516C23.3996 26.9016 20.8996 28.2516 18.0996 28.7016ZM26.8496 22.9516C24.8996 22.3016 22.8496 21.9016 20.7996 21.6016C21.1996 19.8016 21.3996 17.9016 21.3996 16.0016C21.3996 14.6016 21.2996 13.2016 21.0496 11.8016C23.2496 11.5016 25.4496 11.0016 27.5496 10.2516C28.4496 12.0016 28.8996 14.0016 28.8996 16.0016C28.8996 18.5016 28.1496 20.8516 26.8496 22.9516Z" fill="#545454"/>
</g>
<defs>
<clipPath id="clip0_7397_59357">
<rect width="32" height="32" fill="white"/>
</clipPath>
</defs>
</svg>
