<svg width="24" height="24" viewBox="0 0 24 24" fill="none" xmlns="http://www.w3.org/2000/svg">
<path d="M13.9125 17.925C12.4125 17.925 11.2125 19.125 11.2125 20.625C11.2125 22.125 12.4125 23.325 13.9125 23.325C15.4125 23.325 16.6125 22.125 16.6125 20.625C16.6125 19.1625 15.375 17.925 13.9125 17.925ZM13.9125 21.675C13.35 21.675 12.9 21.225 12.9 20.6625C12.9 20.1 13.35 19.65 13.9125 19.65C14.475 19.65 14.925 20.1 14.925 20.6625C14.925 21.1875 14.4375 21.675 13.9125 21.675Z" fill="#111928"/>
<path d="M6.78752 17.925C5.28752 17.925 4.08752 19.125 4.08752 20.625C4.08752 22.125 5.28752 23.325 6.78752 23.325C8.28752 23.325 9.48752 22.125 9.48752 20.625C9.48752 19.1625 8.25002 17.925 6.78752 17.925ZM6.78752 21.675C6.22502 21.675 5.77502 21.225 5.77502 20.6625C5.77502 20.1 6.22502 19.65 6.78752 19.65C7.35002 19.65 7.80002 20.1 7.80002 20.6625C7.80002 21.1875 7.35002 21.675 6.78752 21.675Z" fill="#111928"/>
<path d="M21.825 0.674988H19.8C18.9 0.674988 18.1125 1.34999 18 2.24999L17.4 6.56249H2.58754C2.21254 6.56249 1.83754 6.74999 1.57504 7.04999C1.35004 7.34999 1.23754 7.76249 1.35004 8.13749C1.35004 8.17499 1.35004 8.17499 1.35004 8.21249L3.67504 15.225C3.82504 15.75 4.31254 16.125 4.87504 16.125H15.225C16.6125 16.125 17.8125 15.075 18 13.6875L19.575 2.47499C19.575 2.39999 19.65 2.36249 19.725 2.36249H21.75C22.2 2.36249 22.6125 1.98749 22.6125 1.49999C22.6125 1.01249 22.275 0.674988 21.825 0.674988ZM16.3875 13.425C16.3125 13.9875 15.825 14.4 15.2625 14.4H5.21254L3.18754 8.24999H17.1375L16.3875 13.425Z" fill="#111928"/>
</svg>
