<svg width="23" height="24" viewBox="0 0 23 24" fill="none" xmlns="http://www.w3.org/2000/svg">
<path d="M13.4109 17.9551C11.9109 17.9551 10.7109 19.1551 10.7109 20.6551C10.7109 22.1551 11.9109 23.3551 13.4109 23.3551C14.9109 23.3551 16.1109 22.1551 16.1109 20.6551C16.1109 19.1926 14.8734 17.9551 13.4109 17.9551ZM13.4109 21.7051C12.8484 21.7051 12.3984 21.2551 12.3984 20.6926C12.3984 20.1301 12.8484 19.6801 13.4109 19.6801C13.9734 19.6801 14.4234 20.1301 14.4234 20.6926C14.4234 21.2176 13.9359 21.7051 13.4109 21.7051Z" fill="white"/>
<path d="M6.28594 17.9551C4.78594 17.9551 3.58594 19.1551 3.58594 20.6551C3.58594 22.1551 4.78594 23.3551 6.28594 23.3551C7.78594 23.3551 8.98594 22.1551 8.98594 20.6551C8.98594 19.1926 7.74844 17.9551 6.28594 17.9551ZM6.28594 21.7051C5.72344 21.7051 5.27344 21.2551 5.27344 20.6926C5.27344 20.1301 5.72344 19.6801 6.28594 19.6801C6.84844 19.6801 7.29844 20.1301 7.29844 20.6926C7.29844 21.2176 6.84844 21.7051 6.28594 21.7051Z" fill="white"/>
<path d="M21.3238 0.705078H19.2988C18.3988 0.705078 17.6113 1.38008 17.4988 2.28008L16.8988 6.59258H2.08632C1.71132 6.59258 1.33632 6.78008 1.07382 7.08008C0.848822 7.38008 0.736322 7.79258 0.848822 8.16758C0.848822 8.20508 0.848822 8.20508 0.848822 8.24258L3.17382 15.2551C3.32382 15.7801 3.81132 16.1551 4.37382 16.1551H14.7238C16.1113 16.1551 17.3113 15.1051 17.4988 13.7176L19.0738 2.50508C19.0738 2.43008 19.1488 2.39258 19.2238 2.39258H21.2488C21.6988 2.39258 22.1113 2.01758 22.1113 1.53008C22.1113 1.04258 21.7738 0.705078 21.3238 0.705078ZM15.8863 13.4551C15.8113 14.0176 15.3238 14.4301 14.7613 14.4301H4.71132L2.68632 8.28008H16.6363L15.8863 13.4551Z" fill="white"/>
</svg>
