<svg width="25" height="24" viewBox="0 0 25 24" fill="none" xmlns="http://www.w3.org/2000/svg">
<path d="M12.375 8.88751C10.65 8.88751 9.26251 10.275 9.26251 12C9.26251 13.725 10.65 15.1125 12.375 15.1125C14.1 15.1125 15.4875 13.725 15.4875 12C15.4875 10.275 14.1 8.88751 12.375 8.88751ZM12.375 13.425C11.5875 13.425 10.95 12.7875 10.95 12C10.95 11.2125 11.5875 10.575 12.375 10.575C13.1625 10.575 13.8 11.2125 13.8 12C13.8 12.7875 13.1625 13.425 12.375 13.425Z" fill="#111928"/>
<path d="M23.325 10.6875C21.1875 7.50002 18.225 4.27502 12.375 4.27502C6.525 4.27502 3.5625 7.50002 1.425 10.6875C0.9 11.475 0.9 12.525 1.425 13.3125C3.5625 16.4625 6.525 19.725 12.375 19.725C18.225 19.725 21.1875 16.4625 23.325 13.3125C23.85 12.4875 23.85 11.475 23.325 10.6875ZM21.9375 12.375C19.2 16.3875 16.4625 18.0375 12.375 18.0375C8.2875 18.0375 5.55 16.3875 2.8125 12.375C2.6625 12.15 2.6625 11.85 2.8125 11.625C5.55 7.61252 8.2875 5.96252 12.375 5.96252C16.4625 5.96252 19.2 7.61252 21.9375 11.625C22.05 11.85 22.05 12.15 21.9375 12.375Z" fill="#111928"/>
</svg>
