<svg width="18" height="18" viewBox="0 0 18 18" fill="none" xmlns="http://www.w3.org/2000/svg">
<path d="M8.99961 16.5938C8.63398 16.5938 8.26836 16.4531 7.98711 16.2C7.34023 15.6375 6.74961 15.1313 6.21523 14.6813C4.61211 13.3031 3.20586 12.15 2.22148 10.9688C1.06836 9.5625 0.505859 8.24062 0.505859 6.75C0.505859 5.31562 1.01211 3.96563 1.91211 2.98125C2.84023 1.96875 4.13398 1.40625 5.51211 1.40625C6.55273 1.40625 7.53711 1.74375 8.38086 2.39062C8.60586 2.55938 8.80273 2.72812 8.99961 2.95312C9.19648 2.75625 9.39336 2.55938 9.61836 2.39062C10.4621 1.74375 11.4184 1.40625 12.4871 1.40625C13.8934 1.40625 15.159 1.96875 16.0871 2.98125C17.0152 3.96563 17.4934 5.31562 17.4934 6.75C17.4934 8.24062 16.959 9.5625 15.7777 10.9688C14.7934 12.15 13.3871 13.3313 11.784 14.6813C11.2496 15.1313 10.6309 15.6656 9.98398 16.2C9.73086 16.4531 9.36523 16.5938 8.99961 16.5938ZM5.51211 2.67188C4.47148 2.67188 3.51523 3.09375 2.81211 3.825C2.13711 4.58438 1.77148 5.625 1.77148 6.75C1.77148 7.90312 2.22148 9 3.17773 10.1531C4.10586 11.25 5.45586 12.4031 7.00273 13.725C7.53711 14.175 8.15586 14.7094 8.80273 15.2719C8.91523 15.3562 9.08398 15.3562 9.19648 15.2719C9.84336 14.7094 10.4621 14.2031 10.9965 13.725C12.5715 12.375 13.9215 11.25 14.8215 10.1531C15.7777 9 16.2277 7.90312 16.2277 6.75C16.2277 5.625 15.834 4.58437 15.159 3.85312C14.4559 3.09375 13.4996 2.67188 12.4871 2.67188C11.7277 2.67188 11.0246 2.925 10.4059 3.375C10.1527 3.57188 9.92773 3.79688 9.70273 4.05C9.53398 4.24687 9.28086 4.3875 8.99961 4.3875C8.71836 4.3875 8.49336 4.275 8.29648 4.05C8.07148 3.79688 7.84648 3.57188 7.59336 3.375C7.00273 2.925 6.29961 2.67188 5.51211 2.67188Z" fill="#232323"/>
</svg>
