<svg width="33" height="30" viewBox="0 0 33 30" fill="none" xmlns="http://www.w3.org/2000/svg">
<path d="M16.4995 29.2055C15.817 29.2055 15.1345 28.943 14.6095 28.4705C13.402 27.4205 12.2995 26.4755 11.302 25.6355C8.30953 23.063 5.68453 20.9105 3.84703 18.7055C1.69453 16.0805 0.644531 13.613 0.644531 10.8305C0.644531 8.15297 1.58953 5.63297 3.26953 3.79547C5.00203 1.90547 7.41703 0.855469 9.98953 0.855469C11.932 0.855469 13.7695 1.48547 15.3445 2.69297C15.7645 3.00797 16.132 3.32297 16.4995 3.74297C16.867 3.37547 17.2345 3.00797 17.6545 2.69297C19.2295 1.48547 21.0145 0.855469 23.0095 0.855469C25.6345 0.855469 27.997 1.90547 29.7295 3.79547C31.462 5.63297 32.3545 8.15297 32.3545 10.8305C32.3545 13.613 31.357 16.0805 29.152 18.7055C27.3145 20.9105 24.6895 23.1155 21.697 25.6355C20.6995 26.4755 19.5445 27.473 18.337 28.4705C17.8645 28.943 17.182 29.2055 16.4995 29.2055ZM9.98953 3.21797C8.04703 3.21797 6.26203 4.00547 4.94953 5.37047C3.68953 6.78797 3.00703 8.73047 3.00703 10.8305C3.00703 12.983 3.84703 15.0305 5.63203 17.183C7.36453 19.2305 9.88453 21.383 12.772 23.8505C13.7695 24.6905 14.9245 25.688 16.132 26.738C16.342 26.8955 16.657 26.8955 16.867 26.738C18.0745 25.688 19.2295 24.743 20.227 23.8505C23.167 21.3305 25.687 19.2305 27.367 17.183C29.152 15.0305 29.992 12.983 29.992 10.8305C29.992 8.73047 29.257 6.78797 27.997 5.42297C26.6845 4.00547 24.8995 3.21797 23.0095 3.21797C21.592 3.21797 20.2795 3.69047 19.1245 4.53047C18.652 4.89797 18.232 5.31797 17.812 5.79047C17.497 6.15797 17.0245 6.42047 16.4995 6.42047C15.9745 6.42047 15.5545 6.21047 15.187 5.79047C14.767 5.31797 14.347 4.89797 13.8745 4.53047C12.772 3.69047 11.4595 3.21797 9.98953 3.21797Z" fill="#BFBEBE"/>
</svg>
