<svg width="24" height="24" viewBox="0 0 24 24" fill="none" xmlns="http://www.w3.org/2000/svg">
<path d="M20.9248 9.03769C20.9248 7.0877 19.3498 5.5127 17.3998 5.5127C16.3123 5.5127 15.3373 6.0002 14.6998 6.7502C14.2498 6.1877 13.6123 5.8127 12.8998 5.6252C13.0873 3.8252 14.0623 2.3627 15.1123 2.3627C15.5623 2.3627 15.9748 1.9877 15.9748 1.5002C15.9748 1.0127 15.5998 0.637695 15.1123 0.637695C13.0873 0.637695 11.4748 2.7377 11.2123 5.5502C10.4623 5.7377 9.8248 6.1502 9.3373 6.7127C8.6998 5.9627 7.7248 5.4752 6.6373 5.4752C4.6873 5.4752 3.1123 7.05019 3.1123 9.00019C3.1123 10.8377 4.5373 12.3752 6.3373 12.5252C5.9998 13.0502 5.8123 13.6877 5.8123 14.4002C5.8123 16.2377 7.2373 17.7752 9.0373 17.9252C8.6998 18.4502 8.5123 19.0877 8.5123 19.8002C8.5123 21.7502 10.0873 23.3252 12.0373 23.3252C13.9873 23.3252 15.5623 21.7502 15.5623 19.8002C15.5623 19.1252 15.3748 18.4877 15.0373 17.9252C16.8373 17.7752 18.2623 16.2377 18.2623 14.4002C18.2623 13.7252 18.0748 13.0877 17.7373 12.5252C19.4998 12.4127 20.9248 10.8752 20.9248 9.03769ZM11.9998 7.16269C13.0123 7.16269 13.8373 7.98769 13.8373 9.00019C13.8373 10.0127 13.0123 10.8377 11.9998 10.8377C10.9873 10.8377 10.1623 10.0127 10.1623 9.00019C10.1623 8.02519 10.9873 7.16269 11.9998 7.16269ZM4.7623 9.03769C4.7623 8.0252 5.5873 7.2002 6.5998 7.2002C7.6123 7.2002 8.4373 8.0252 8.4373 9.03769C8.4373 10.0502 7.6123 10.8752 6.5998 10.8752C5.5873 10.8752 4.7623 10.0502 4.7623 9.03769ZM7.4623 14.4002C7.4623 13.3877 8.2873 12.5627 9.2998 12.5627C10.3123 12.5627 11.1373 13.3877 11.1373 14.4002C11.1373 15.4127 10.3123 16.2377 9.2998 16.2377C8.2873 16.2752 7.4623 15.4502 7.4623 14.4002ZM11.9998 21.6752C10.9873 21.6752 10.1623 20.8502 10.1623 19.8377C10.1623 18.8252 10.9873 18.0002 11.9998 18.0002C13.0123 18.0002 13.8373 18.8252 13.8373 19.8377C13.8373 20.8127 13.0123 21.6752 11.9998 21.6752ZM14.6998 16.2752C13.6873 16.2752 12.8623 15.4502 12.8623 14.4377C12.8623 13.4252 13.6873 12.6002 14.6998 12.6002C15.7123 12.6002 16.5373 13.4252 16.5373 14.4377C16.5373 15.4502 15.7123 16.2752 14.6998 16.2752ZM17.3998 10.8752C16.3873 10.8752 15.5623 10.0502 15.5623 9.03769C15.5623 8.0252 16.3873 7.2002 17.3998 7.2002C18.4123 7.2002 19.2373 8.0252 19.2373 9.03769C19.2373 10.0502 18.4123 10.8752 17.3998 10.8752Z" fill="#FEFEFE"/>
</svg>
