<svg width="24" height="24" viewBox="0 0 24 24" fill="none" xmlns="http://www.w3.org/2000/svg">
<path d="M0.857422 13.7144C0.857422 15.3057 1.21865 16.8318 1.86163 17.957C2.50461 19.0822 3.37668 19.7144 4.28599 19.7144C5.19531 19.7144 6.06738 19.0822 6.71036 17.957C7.35334 16.8318 7.71456 15.3057 7.71456 13.7144C7.71456 12.1231 7.35334 10.5969 6.71036 9.47172C6.06738 8.3465 5.19531 7.71436 4.28599 7.71436C3.37668 7.71436 2.50461 8.3465 1.86163 9.47172C1.21865 10.5969 0.857422 12.1231 0.857422 13.7144Z" stroke="#EAEAEA" stroke-linecap="round" stroke-linejoin="round"/>
<path d="M4.28613 7.71422H19.7147C21.609 7.71422 23.1433 10.4005 23.1433 13.7142C23.1433 17.0279 21.609 19.7142 19.7147 19.7142H4.28613M14.5718 11.9999H22.8021M7.7147 16.2856H12.0004M12.8576 7.71422L9.42899 4.28564" stroke="#EAEAEA" stroke-linecap="round" stroke-linejoin="round"/>
</svg>
